<svg xmlns="http://www.w3.org/2000/svg" xmlns:xlink="http://www.w3.org/1999/xlink" width="263.634" height="263.865" viewBox="0 0 263.634 263.865">
  <defs>
    <clipPath id="clip-path">
      <rect id="Rectangle_50" data-name="Rectangle 50" width="233.634" height="248.459" fill="#aedfeb"/>
    </clipPath>
    <clipPath id="clip-path-2">
      <rect id="Rectangle_50-2" data-name="Rectangle 50" width="233.634" height="248.459" fill="none"/>
    </clipPath>
  </defs>
  <g id="Group_19" data-name="Group 19" transform="translate(-94.5 -735.156)">
    <g id="Group_17" data-name="Group 17" transform="translate(124.5 735.156)" clip-path="url(#clip-path)">
      <path id="Path_58" data-name="Path 58" d="M356.7,403.711H344.473a5.834,5.834,0,0,1-5.834-5.834V379.812h23.9v18.065a5.834,5.834,0,0,1-5.834,5.834" transform="translate(-138.422 -155.252)" fill="#aedfeb"/>
      <path id="Path_59" data-name="Path 59" d="M21.933,403.711H34.164A5.834,5.834,0,0,0,40,397.877V379.812H16.1v18.065a5.834,5.834,0,0,0,5.834,5.834" transform="translate(-6.581 -155.252)" fill="#aedfeb"/>
      <path id="Path_60" data-name="Path 60" d="M168.651,63.179c-30.014.278-71.947,5.6-107.115,12.589L51.3,17.7A21.417,21.417,0,0,0,8.9,23.636l6.175,59.383C14.335,92.088,0,100,0,117.664V230.417H233.634V124.179c0-33.232-23.7-61.381-64.983-61" transform="translate(0 9.021)" fill="#aedfeb"/>
    </g>
    <path id="Path_63" data-name="Path 63" d="M12.978-5.433,42.69-.2,42,18H0Z" transform="translate(110.221 760.924) rotate(-22)" fill="#aedfeb"/>
    <path id="Path_64" data-name="Path 64" d="M4.427.091,42.264-.364,42,18H0Z" transform="matrix(0.978, -0.208, 0.208, 0.978, 308.614, 963.414)" fill="#aedfeb"/>
    <g id="Group_17-2" data-name="Group 17" transform="translate(94.5 750.562)" clip-path="url(#clip-path-2)">
      <path id="Path_58-2" data-name="Path 58" d="M356.7,403.711H344.473a5.834,5.834,0,0,1-5.834-5.834V379.812h23.9v18.065a5.834,5.834,0,0,1-5.834,5.834" transform="translate(-138.422 -155.252)" fill="#aedfeb"/>
      <path id="Path_59-2" data-name="Path 59" d="M21.933,403.711H34.164A5.834,5.834,0,0,0,40,397.877V379.812H16.1v18.065a5.834,5.834,0,0,0,5.834,5.834" transform="translate(-6.581 -155.252)" fill="#aedfeb"/>
      <path id="Path_60-2" data-name="Path 60" d="M168.651,63.179c-30.014.278-71.947,5.6-107.115,12.589L51.3,17.7A21.417,21.417,0,0,0,8.9,23.636l6.175,59.383C14.335,92.088,0,100,0,117.664V230.417H233.634V124.179c0-33.232-23.7-61.381-64.983-61" transform="translate(0 0)" fill="#d3f1f9"/>
    </g>
  </g>
</svg>
