<svg xmlns="http://www.w3.org/2000/svg" xmlns:xlink="http://www.w3.org/1999/xlink" width="354.936" height="312" viewBox="0 0 354.936 312">
  <defs>
    <clipPath id="clip-path">
      <rect id="Rectangle_52" data-name="Rectangle 52" width="219.849" height="300.233" transform="translate(-20 -25)" fill="none"/>
    </clipPath>
  </defs>
  <g id="Group_33" data-name="Group 33" transform="translate(-1501.151 -699)">
    <rect id="Rectangle_59" data-name="Rectangle 59" width="14" height="180" transform="translate(1618 782)" fill="#aedfeb"/>
    <rect id="Rectangle_60" data-name="Rectangle 60" width="14" height="167" transform="translate(1739 795)" fill="#aedfeb"/>
    <g id="Group_23" data-name="Group 23" transform="translate(1521.151 724)">
      <g id="Group_22" data-name="Group 22" clip-path="url(#clip-path)">
        <path id="Path_66" data-name="Path 66" d="M178.607,212.02l-62.237-9.768V181.135H114.23V128.567h-13.7v52.568H98.387v21.117L36.149,212.02a12.585,12.585,0,0,0-10.633,12.432H189.24a12.584,12.584,0,0,0-10.633-12.432" transform="translate(4.725 23.805)" fill="#d3f1f9"/>
        <path id="Path_67" data-name="Path 67" d="M20.927,226.87a12.147,12.147,0,1,0,8.782-14.764,12.147,12.147,0,0,0-8.782,14.764" transform="translate(3.805 39.204)" fill="#aedfeb"/>
        <path id="Path_68" data-name="Path 68" d="M84.714,226.87A12.147,12.147,0,1,0,93.5,212.107a12.147,12.147,0,0,0-8.782,14.764" transform="translate(15.616 39.204)" fill="#aedfeb"/>
        <path id="Path_69" data-name="Path 69" d="M148.5,226.87a12.147,12.147,0,1,0,8.782-14.764A12.147,12.147,0,0,0,148.5,226.87" transform="translate(27.426 39.204)" fill="#aedfeb"/>
        <path id="Path_70" data-name="Path 70" d="M171.625,137.565c-5.711-6.618.079,0-8.663,0-80.709-6.324-74.044,6.789-83.475-20.02L38.962,16.364A26.04,26.04,0,0,0,5.364,1.772,8.406,8.406,0,0,0,.492,12.435l49.842,139.6a8.317,8.317,0,0,0,7.916,5.59s39.009.65,90.522,0,22.416-25.554,22.416-25.554" transform="translate(0 0)" fill="#aedfeb"/>
        <path id="Path_78" data-name="Path 78" d="M193.9,157.457l-8.174-9.469a30.066,30.066,0,0,0-22.762-10.422c-80.709-6.324-74.044,6.789-83.475-20.02L38.962,16.364A26.04,26.04,0,0,0,5.364,1.772,8.406,8.406,0,0,0,.492,12.435l49.842,139.6a8.317,8.317,0,0,0,7.916,5.59H163.875a2.922,2.922,0,0,1,2.091.882l12.612,12.983A10.393,10.393,0,0,0,193.9,157.457" transform="translate(-20 -22.268)" fill="#aedfeb"/>
        <rect id="Rectangle_64" data-name="Rectangle 64" width="41" height="15" rx="6" transform="translate(40.25 118.809) rotate(49)" fill="#aedfeb"/>
        <rect id="Rectangle_66" data-name="Rectangle 66" width="63" height="15" rx="6" transform="translate(88.968 124.739) rotate(5)" fill="#aedfeb"/>
        <rect id="Rectangle_65" data-name="Rectangle 65" width="46" height="29" rx="9" transform="translate(8.857 -19.583) rotate(48)" fill="#aedfeb"/>
      </g>
    </g>
    <rect id="Rectangle_58" data-name="Rectangle 58" width="14" height="192" transform="translate(1836 819)" fill="#d3f1f9"/>
    <rect id="Rectangle_61" data-name="Rectangle 61" width="14" height="192" transform="translate(1714 819)" fill="#d3f1f9"/>
    <path id="Path_71" data-name="Path 71" d="M-15.771-.779H110.837l115.787,33.9H80.349Z" transform="translate(1629.462 772.145)" fill="#d3f1f9"/>
    <path id="Path_72" data-name="Path 72" d="M-11.11-9.185l95.9,33.833.024,13.7L-11.11,1.572Z" transform="translate(1624.9 780.629)" fill="#aedfeb"/>
    <path id="Path_73" data-name="Path 73" d="M-.218-.329,146.156-.345V13.363H-.218Z" transform="translate(1709.931 805.614)" fill="#e1f2f7"/>
  </g>
</svg>
