<svg xmlns="http://www.w3.org/2000/svg" width="107" height="418" viewBox="0 0 107 418">
  <g id="Group_26" data-name="Group 26" transform="translate(-155 -678.682)">
    <ellipse id="Ellipse_50" data-name="Ellipse 50" cx="53.5" cy="12.5" rx="53.5" ry="12.5" transform="translate(155 1071.682)" fill="#a4c688"/>
    <rect id="Rectangle_63" data-name="Rectangle 63" width="8" height="394" transform="translate(205 689.682)" fill="#a4c688"/>
    <circle id="Ellipse_51" data-name="Ellipse 51" cx="8.5" cy="8.5" r="8.5" transform="translate(201 678.682)" fill="#a4c688"/>
    <path id="Path_76" data-name="Path 76" d="M4602.2,3365.833l-27.581,36.1a23.542,23.542,0,0,0-5.367,15.119c.043,9.286,3.123,15.2,8.868,18.02s15.8,2.827,21.962-3.4c7.011-7.6,4.952-16.013,2.887-21.372" transform="translate(-4355.671 -2669.366)" fill="none" stroke="#a5c688" stroke-width="7"/>
    <path id="Path_77" data-name="Path 77" d="M4571.988,3365.833l27.581,36.1a23.542,23.542,0,0,1,5.367,15.119c-.043,9.286-3.123,15.2-8.868,18.02s-15.8,2.827-21.962-3.4c-7.01-7.6-4.952-16.013-2.886-21.372" transform="translate(-4400.229 -2669.366)" fill="none" stroke="#a5c688" stroke-width="7"/>
  </g>
</svg>
