<svg id="Group_25" data-name="Group 25" xmlns="http://www.w3.org/2000/svg" xmlns:xlink="http://www.w3.org/1999/xlink" width="100.837" height="207.33" viewBox="0 0 100.837 207.33">
  <defs>
    <clipPath id="clip-path">
      <rect id="Rectangle_62" data-name="Rectangle 62" width="100.837" height="207.33" fill="none"/>
    </clipPath>
  </defs>
  <g id="Group_24" data-name="Group 24" clip-path="url(#clip-path)">
    <path id="Path_74" data-name="Path 74" d="M80.017,90.458c9.021-2.13,16.234-8.211,20.821-16.409-7.77-5.282-16.94-7.492-25.962-5.362C65.909,70.8,58.73,76.827,54.141,84.951v-13.6c11.9-7.1,20.685-17.888,23.845-31.259C81.28,26.16,77.869,12,69.717,0,57.055,7.078,47.664,18.213,44.372,32.142c-.537,2.271-1.869,13.032-2.059,15.306-15.029,13.46,10.719,9.8,10.614,20.37C60.194,59.134,45,47.65,36.157,41.136,25.77,33.488,12.826,31.317,0,33.84c1.4,13,7.316,24.713,17.7,32.361,9.342,6.878,20.752,9.313,32.283,7.9V92.98c-5.873-5.519-13.342-8.629-21.274-8.048-7.948.581-14.9,4.762-19.908,11.1,5.878,5.54,13.363,8.664,21.311,8.083,7.93-.58,14.865-4.743,19.87-11.054V207.33h4.157V106.4a22.633,22.633,0,0,0,32.887,10.5,23.507,23.507,0,0,0-14-13.01,23.481,23.481,0,0,0-18.885,2.29V85.151c7.751,5.24,16.888,7.43,25.877,5.307" fill="#a4c688"/>
    <path id="Path_75" data-name="Path 75" d="M64.315,140.245V121.006H36.531v19.32a29.961,29.961,0,0,0-16,26.514v31.3H80.471v-31.3a29.959,29.959,0,0,0-16.156-26.594" transform="translate(1.56 9.196)" fill="#edb5b5"/>
  </g>
</svg>
