<svg xmlns="http://www.w3.org/2000/svg" xmlns:xlink="http://www.w3.org/1999/xlink" width="93.479" height="262.124" viewBox="0 0 93.479 262.124">
  <defs>
    <clipPath id="clip-path">
      <rect id="Rectangle_51" data-name="Rectangle 51" width="93.48" height="262.124" fill="none"/>
    </clipPath>
  </defs>
  <g id="Group_18" data-name="Group 18" clip-path="url(#clip-path)">
    <path id="Path_61" data-name="Path 61" d="M93.48,54.351a25.545,25.545,0,0,0-50.725-4.3,25.618,25.618,0,0,0-5.224-3.685v-17.6a14.4,14.4,0,1,0-1.68,0V45.55a25.542,25.542,0,1,0-11.144,48.9V192.49h1.679V94.439a25.4,25.4,0,0,0,9.465-2.15v100.2h1.68V91.472A25.647,25.647,0,0,0,48.908,79.259,25.514,25.514,0,0,1,42.691,58.3a25.547,25.547,0,0,0,24.4,21.581V98.821A14.394,14.394,0,1,0,55.95,123.233V192.49h1.679V123.233a14.343,14.343,0,0,0,9.465-4.308V192.49h1.679V116.858a14.387,14.387,0,0,0,0-15.969V79.876A25.541,25.541,0,0,0,93.48,54.351" fill="#a4c688"/>
    <path id="Path_62" data-name="Path 62" d="M66.558,282.4H30.348a16.775,16.775,0,0,1-16.775-16.775V208.265h69.76v57.364A16.776,16.776,0,0,1,66.558,282.4" transform="translate(-1.322 -20.28)" fill="#fafafa"/>
  </g>
</svg>
