<svg xmlns="http://www.w3.org/2000/svg" width="110.541" height="111.575" viewBox="0 0 110.541 111.575">
  <g id="Group_51" data-name="Group 51" transform="translate(-391.459 -801.425)">
    <rect id="Rectangle_118" data-name="Rectangle 118" width="100" height="100" transform="translate(402 813)" fill="#e8e8e8"/>
    <g id="Group_50" data-name="Group 50">
      <path id="Path_511" data-name="Path 511" d="M0,0H100s1.184,21.351,0,50.525S93.864,100,93.864,100H-9.541S-1.136,75.525,0,50.525,0,0,0,0Z" transform="translate(401 810)" fill="#f7e3a1"/>
      <g id="Group_49" data-name="Group 49" transform="translate(-4.895 4.846)">
        <path id="Subtraction_1" data-name="Subtraction 1" d="M4.52,6.849h0L0,1.452,2.238,0,5.344,6.354l-.823.495Z" transform="translate(454.283 806.281) rotate(7)" fill="#b4b4b4"/>
        <ellipse id="Ellipse_55" data-name="Ellipse 55" cx="6.266" cy="4.924" rx="6.266" ry="4.924" transform="translate(447.951 804.599) rotate(-22)" fill="#d58b8b"/>
        <path id="Path_512" data-name="Path 512" d="M.317-2.793,4.123,1.261A3.507,3.507,0,0,1,2.375,5.018a5.082,5.082,0,0,1-4.613,0L-3.582-.495Z" transform="translate(454.566 803.488)" fill="#e59090"/>
        <ellipse id="Ellipse_54" data-name="Ellipse 54" cx="4.575" cy="3.673" rx="4.575" ry="3.673" transform="translate(447.515 800.007) rotate(-22)" fill="#e59797"/>
      </g>
    </g>
  </g>
</svg>
