<svg xmlns="http://www.w3.org/2000/svg" viewBox="0 0 183.84 184.25"><defs><style>.cls-1{isolation:isolate;}.cls-2{fill:#fff;}.cls-3{fill:#f1fbfd;}.cls-4{fill:#683c11;}.cls-5{fill:#ffba7f;}.cls-6{fill:#f2a068;}.cls-7{fill:#fcaf75;}.cls-8{fill:#432918;}.cls-9{fill:#ce3e3e;}.cls-10{fill:#ff927d;opacity:0.43;}.cls-11{fill:#a4c68b;}.cls-12{mix-blend-mode:soft-light;opacity:0.3;}.cls-13{fill:none;}</style></defs><g class="cls-1"><g id="Laag_2" data-name="Laag 2"><g id="Capa_1" data-name="Capa 1"><path class="cls-2" d="M64.9,179.8h0Z"/><path class="cls-2" d="M109.14,182.22h0Z"/><path class="cls-3" d="M183.84,91.92a91.59,91.59,0,0,1-26.41,64.46,89.32,89.32,0,0,1-9.14,8.14l-.36.28-.31.23c-.17.14-.35.27-.53.4s-.36.28-.55.41-.25.19-.38.28l-.38.29-.92.65-.18.13-1,.68-1.05.71-.79.52-.2.13-.33.21c-.41.26-.81.52-1.22.76l-1.09.67-.12.07-.19.11-.1.06-.07,0-1.36.79-.48.27-.25.14-.21.11-.7.38-.33.18-.5.26s0,0,0,0h0l-.87.46-.77.38-.21.11-.2.1-.51.25-.3.15-.46.22-.09,0-.08,0a1.92,1.92,0,0,1-.25.12l-.67.32-.64.29-.24.1-.13.06-.25.11-.05,0-.21.1-.48.2-.06,0-.11.05-.35.15-.19.08h0s0,0,0,0l-.31.13-.42.17-.16.07-.29.11a.75.75,0,0,1-.13.06l-.1,0-.33.13-.15.06-.19.07-.36.14h0l-.23.08-.08,0-.08,0-.21.08-.15,0-.1,0-.16.06-.11,0-.22.08-.08,0-.06,0-.18.06-.36.13-.21.07-.92.33h0l-.1,0-.33.12-.58.19-.28.09-.44.14h0l-.22.07-.18,0-.11,0-.3.09-.19.06-.24.07-.18.06-.08,0-.22.07-.4.12-.32.09-.41.12-.14,0-.22.06-.3.08-.07,0h-.07l-.15.05-.43.11-.18.05-.35.09h0l-.27.07-.33.09h0l-.53.13-.3.08-.27.06-.71.16-.15,0-.39.09-.13,0-.4.09-.25.06h-.11l-.37.08a.78.78,0,0,1-.21,0,.27.27,0,0,1-.12,0l-.11,0-.16,0h-.08l-.26.05-.35.07-.27.05-.21,0a.31.31,0,0,1-.13,0h0l-.23,0h0l-.38.07h-.06l-.19,0-.1,0-.13,0h-.09l-.1,0-.28,0h-.06a.32.32,0,0,1-.14,0l-.55.1h-.16l-.21,0h-.11l-.53.08-1,.14a.76.76,0,0,1-.21,0l-.19,0-.14,0-.6.08-.37,0h-.1l-1.31.16h-.08l-1.81.17-.57,0-.4,0-1.69.11-.45,0-.49,0-1.19.05-.52,0h-.36c-.7,0-1.39,0-2.09,0h-.28q-1.19,0-2.37,0h-.13l-.3,0h-.47c-.37,0-.74,0-1.1-.05h-.36l-.33,0-.33,0c-.49,0-1-.06-1.47-.1l-.59,0c-.11,0-.22,0-.33,0-.71,0-1.41-.12-2.11-.2h-.1l-1-.12-.47-.05h-.07l-.22,0h-.11l-.1,0-.33,0-.37-.05-.19,0-.69-.1h0l-.22,0-.1,0h-.16l-.31-.05a.76.76,0,0,1-.16,0h-.16l-.14,0-.15,0-.32-.05-.22,0-.11,0h0l-.26,0h-.11l-.1,0-.13,0-.28-.05-.1,0h-.06l-.31-.06-.37-.07-.11,0h0l-.22,0-.16,0h0l-.15,0-.17,0-.3-.06-.1,0-.32-.06h0l-.28-.06a3.4,3.4,0,0,1-.46-.09l-.21-.05-.09,0-.24-.05h0l-.15,0h-.06l-.32-.07-.46-.11-.26-.06-.27-.06h-.06l-.21-.05-.21-.06-.25-.06-.1,0,0,0h0l-.2,0-.4-.11-.07,0a3.28,3.28,0,0,1-.45-.11l-.2-.06-.26-.07-.16,0-.29-.08h0l-.06,0-.07,0-.12,0-.06,0-.12,0-.32-.1-.48-.14-.15,0-.33-.1-.2-.06-.06,0-.2,0-.11,0h0l-.39-.13-.28-.09c-.1,0-.19-.06-.29-.09l-1.15-.38-.51-.17-.42-.15-.1,0-.4-.14-.08,0-.17-.07H61l-.09,0-.18-.07-.17-.06-.29-.1-1.31-.5-.06,0-.07,0-.14-.05,0,0-.08,0-.24-.09-.18-.07-.44-.18-.83-.34-.06,0-.14-.06-.18-.07-.22-.09-.19-.08-.48-.21-.15-.07-.71-.31-.42-.18-.22-.1-.16-.07-.37-.18a.72.72,0,0,1-.2-.09l-.56-.26-.38-.18h0l-.51-.25-1.33-.65-.14-.07a.31.31,0,0,0-.1-.05l0,0h0l-.81-.42-.76-.4,0,0-.17-.08-.11-.06a4.31,4.31,0,0,1-.47-.26l-.13-.07-.26-.15-.08,0-.12-.07-.26-.14-.13-.07-.37-.21-.24-.14-.14-.08h0l-.17-.09c-.24-.13-.48-.26-.71-.41-.82-.47-1.63-1-2.43-1.48l-.4-.26-.09-.06-.05,0c-.61-.4-1.23-.8-1.83-1.21a1.19,1.19,0,0,1-.15-.09l-.26-.18-.92-.64-.19-.13-.81-.59-.29-.2-.27-.2q-.36-.25-.72-.54l-.38-.28-.09-.06-.3-.22-.23-.19A89.4,89.4,0,0,1,26,156,91.92,91.92,0,1,1,183.84,91.92Z"/><path class="cls-4" d="M157.49,154.39c0,.67,0,1.34-.06,2a89.32,89.32,0,0,1-9.14,8.14l-.36.28-.31.23c-.17.14-.35.27-.53.4s-.36.28-.55.41-.25.19-.38.28l-.38.29-.92.65-.18.13-1,.68-1.05.71-.79.52-.2.13-.33.21c-.41.26-.81.52-1.22.76l-1.09.67-.12.07-.19.11-.1.06-.07,0-1.36.79-.48.27-.25.14-.21.11-.7.38-.33.18-.5.26s0,0,0,0h0l-.87.46-.77.38-.21.11-.2.1-.51.25-.3.15-.46.22-.09,0-.08,0a1.92,1.92,0,0,1-.25.12l-.67.32-.64.29-.24.1-.13.06-.25.11-.05,0-.21.1-.48.2-.06,0-.11.05-.35.15-.19.08h0s0,0,0,0l-.31.13-.42.17-.16.07-.29.11a.75.75,0,0,1-.13.06l-.1,0-.33.13-.15.06-.19.07-.36.14h0l-.31.12-.08,0-.21.08-.15,0-.1,0-.16.06-.11,0-.3.12-.06,0-.18.06-.36.13-.21.07-.92.33h0l-.1,0-.33.12-.58.19-.28.09-.48.16-.22.07-.18,0-.11,0-.3.09-.19.06-.24.07-.18.06-.08,0-.22.07-.4.12-.32.09-.41.12-.14,0-.22.06-.37.11-.22.06-.43.11-.18.05-.35.09h0l-.27.07-.33.09h0l-.53.13-.3.08-.27.06-.71.16-.15,0-.39.09-.13,0-.4.09-.25.06h-.11l-.37.08a.78.78,0,0,1-.21,0,.27.27,0,0,1-.12,0l-.11,0-.16,0h-.08l-.26.05-.35.07-.27.05-.21,0a.31.31,0,0,1-.13,0h0l-.23,0h0l-.38.07h-.06l-.19,0-.1,0-.13,0h-.09l-.1,0-.28,0h-.06a.32.32,0,0,1-.14,0l-.55.1h-.16l-.21,0h-.11l-.53.08-1,.14a.76.76,0,0,1-.21,0l-.19,0-.14,0-.6.08-.37,0h-.1l-1.31.16h-.08l-1.81.17-.57,0-.4,0-1.69.11-.45,0-.49,0-1.19.05-.52,0h-.36c-.7,0-1.39,0-2.09,0h-.28q-1.19,0-2.37,0h-.13l-.77,0c-.37,0-.74,0-1.1-.05h-.36l-.33,0-.33,0c-.49,0-1-.06-1.47-.1l-.59,0c-.11,0-.22,0-.33,0-.71,0-1.41-.12-2.11-.2h-.1l-1-.12-.47-.05h-.07l-.22,0h-.11l-.1,0-.33,0-.37-.05-.19,0h-.13l-.43-.06-.13,0h0l-.22,0-.1,0h-.16l-.31-.05a.76.76,0,0,1-.16,0h-.16l-.14,0-.15,0-.32-.05-.22,0-.11,0h0l-.26,0h-.11l-.1,0-.13,0-.28-.05-.1,0h-.06l-.31-.06-.37-.07-.11,0h0a2.33,2.33,0,0,1-.38-.08h0l-.15,0-.17,0-.3-.06-.1,0-.32-.06-.43-.09-.09,0-.22-.05-.21-.05-.09,0-.24-.05h0l-.15,0h-.06l-.32-.07-.46-.11-.26-.06-.27-.06h-.06l-.21-.05-.21-.06-.25-.06-.1,0,0,0h0l-.2,0-.4-.11-.07,0a3.28,3.28,0,0,1-.45-.11l-.2-.06-.26-.07-.16,0-.29-.08h0l-.06,0-.07,0-.12,0-.06,0-.12,0-.32-.1-.48-.14-.15,0-.33-.1-.2-.06-.06,0-.2,0-.11,0h0l-.39-.13-.28-.09c-.1,0-.19-.06-.29-.09l-1.15-.38-.51-.17-.42-.15-.1,0-.4-.14-.08,0-.22-.08-.09,0-.18-.07-.17-.06-.29-.1-1.31-.5-.06,0-.07,0-.14-.05,0,0-.08,0-.24-.09-.18-.07-.44-.18-.83-.34-.06,0-.14-.06-.18-.07-.22-.09-.19-.08-.48-.21-.15-.07-.71-.31-.42-.18-.22-.1-.16-.07-.37-.18a.72.72,0,0,1-.2-.09l-.56-.26-.38-.18h0l-.51-.25-1.33-.65-.14-.07a.31.31,0,0,0-.1-.05l0,0h0l-.81-.42-.76-.4,0,0-.17-.08-.11-.06a4.31,4.31,0,0,1-.47-.26l-.13-.07-.26-.15-.08,0-.12-.07-.26-.14-.13-.07-.37-.21-.24-.14-.14-.08h0l-.17-.09c-.24-.13-.48-.26-.71-.41-.82-.47-1.63-1-2.43-1.48l-.4-.26-.09-.06-.05,0c-.61-.4-1.23-.8-1.83-1.21a1.19,1.19,0,0,1-.15-.09l-.26-.18-.92-.64-.19-.13-.81-.59-.29-.2-.27-.2q-.36-.25-.72-.54l-.38-.28-.09-.06-.3-.22-.23-.19A89.4,89.4,0,0,1,26,156q0-.78,0-1.59c0-9.2,3.29-17.27,8.27-21.92a29.39,29.39,0,0,1-4.38-15.92c0-9.39,3.85-17.46,9.39-21.15a43.41,43.41,0,0,1-1.41-11c0-12.31,4.93-22.94,12.09-28A16.89,16.89,0,0,1,56,53.62a14.84,14.84,0,0,1,3.4-.39c4.76,0,9.17,2.23,12.74,6A32.74,32.74,0,0,1,79.6,73.58a2.33,2.33,0,0,1,.07.25c.09.38.18.75.26,1.14.18.79.33,1.61.46,2.43,0,.16,0,.32.07.48a40.64,40.64,0,0,1,.45,5.36h0c0,.34,0,.67,0,1v.11c0,.45,0,.9,0,1.35l0,.74c0,.1,0,.19,0,.29h0a42.68,42.68,0,0,1-1.13,7.84s0,0,0,0h0c-.13.57-.28,1.12-.43,1.67a36.42,36.42,0,0,1-3.12,7.57l15.69.1h0l15,.1a36.92,36.92,0,0,1-3.48-8.75c-.17-.65-.33-1.31-.46-2h0c0-.11-.05-.21-.07-.32-.06-.3-.12-.61-.17-.92a42.29,42.29,0,0,1-.61-5.49c0-.73-.06-1.46-.06-2.2a44,44,0,0,1,.5-6.68h0c.11-.75.24-1.48.4-2.2.06-.33.13-.66.21-1s.08-.36.13-.54A32.64,32.64,0,0,1,111,59.1h0c3.54-3.69,7.88-5.86,12.58-5.86a15,15,0,0,1,4.29.62h0a17.22,17.22,0,0,1,5.21,2.57c7.13,5.08,12,15.69,12,28a43.82,43.82,0,0,1-1.26,10.43c6.05,3.35,10.36,11.81,10.36,21.74a29.31,29.31,0,0,1-4.6,16.28C154.37,137.53,157.49,145.43,157.49,154.39Z"/><path class="cls-5" d="M147.62,165c-.17.14-.35.27-.53.4s-.36.28-.55.41-.25.19-.38.28l-1.3.94-.18.13-1,.68-1.05.71-.79.52-.2.13-.33.21c-.41.26-.81.52-1.22.76l-1.09.67-.12.07-.19.11-.1.06-.07,0-1.36.79-.48.27-.25.14-.21.11-.7.38-.33.18-.5.26s0,0,0,0h0l-.87.46-.77.38-.21.11-.2.1-.51.25-.3.15-.46.22-.09,0-.08,0a1.92,1.92,0,0,1-.25.12l-.67.32-.64.28h0l-.24.1-.13.06-.25.11-.05,0-.21.1-.48.2-.06,0-.11.05-.35.15-.19.08h0s0,0,0,0l-.31.13-.42.17-.16.07-.29.11a.75.75,0,0,1-.13.06l-.1,0-.33.13-.15.06-.19.07-.36.14h0l-.23.08-.08,0-.08,0-.21.08-.15,0-.1,0-.16.06-.11,0-.3.12-.06,0-.18.06-.36.13-.21.07-.92.33h0l-.1,0-.33.12-.24.07-.18.06-.16.06-.28.09-.48.16-.22.07-.18,0-.11,0-.3.09-.19.06-.24.07-.18.06-.08,0-.22.07-.4.12-.32.09-.41.12-.14,0-.22.06-.37.11-.22.06-.43.11-.18.05-.35.09h0l-.27.07-.33.09h0l-.53.13-.3.08-.27.06-.71.16-.15,0-.39.09-.13,0-.4.09-.25.06h-.11l-.37.08a.78.78,0,0,1-.21,0,.27.27,0,0,1-.12,0l-.11,0-.16,0h-.08l-.26.05-.35.07-.27.05-.21,0a.31.31,0,0,1-.13,0h0l-.23,0h0l-.38.07h-.06l-.19,0-.1,0-.13,0h-.09l-.1,0-.28,0h-.06a.32.32,0,0,1-.14,0l-.55.1h-.16l-.21,0h-.11l-.53.08-1,.14a.76.76,0,0,1-.21,0l-.19,0-.14,0-.6.08-.37,0h-.1l-1.31.16h-.08l-1.81.17-.57,0-.4,0-1.69.11-.45,0-.49,0-1.19.05-.52,0h-.36c-.7,0-1.39,0-2.09,0h-.28q-1.19,0-2.37,0l-.43,0h-.47c-.37,0-.74,0-1.1-.05h-.36l-.33,0-.33,0c-.49,0-1-.06-1.47-.1l-.59,0c-.11,0-.22,0-.33,0-.71,0-1.41-.12-2.11-.2h-.1l-1-.12-.47-.05h-.07l-.22,0h-.11l-.1,0-.33,0-.37-.05-.19,0h-.13l-.43-.06-.13,0h0l-.22,0-.1,0h-.16l-.31-.05a.76.76,0,0,1-.16,0h-.16l-.14,0-.15,0-.32-.05-.22,0-.11,0h0l-.26,0h-.11l-.1,0-.13,0-.28-.05-.1,0h-.06l-.31-.06-.37-.07-.11,0h0l-.22,0-.16,0h0l-.15,0-.17,0-.3-.06-.1,0-.32-.06-.43-.09-.09,0-.22-.05-.21-.05-.09,0-.24-.05h0l-.15,0h-.06l-.32-.07-.46-.11-.26-.06,0,0-.22,0h-.06l-.21-.05-.21-.06-.25-.06-.1,0,0,0h0l-.2,0-.4-.11-.07,0-.27-.07-.18,0-.2-.06-.26-.07-.16,0-.29-.08h-.07l-.07,0-.12,0-.06,0-.12,0h0l-.31-.09-.48-.14-.15,0-.33-.1-.2-.06-.06,0-.31-.09h0l-.39-.13-.28-.09,0,0-.24-.07-1.15-.38-.51-.17-.42-.15-.1,0-.4-.14-.25-.09-.32-.11-.17-.06-.18-.07L59,177.76l-.06,0-.07,0-.14-.05,0,0-.08,0-.24-.09-.18-.07-.44-.18-.83-.34-.06,0-.14-.06-.18-.07-.22-.09-.17-.08-.23-.1-.27-.11-.15-.07-.71-.31-.42-.19-.22-.09-.16-.07-.37-.18a.72.72,0,0,1-.2-.09l-.56-.26-.38-.18h0l-.51-.25-1.33-.65-.14-.07a.31.31,0,0,0-.1-.05l0,0h0l-.81-.42-.76-.4,0,0c-.14-.07-.28-.14-.41-.22l-.34-.18-.13-.07-.26-.15-.08,0-.12-.07-.26-.14-.13-.07-.37-.22-.24-.13-.14-.08-.17-.1-.21-.13-.5-.28-.57-.35c-.44-.26-.88-.52-1.31-.8l-1-.59-.09-.06-.05,0c-.61-.4-1.23-.8-1.83-1.21l-.41-.27-.92-.64-.19-.13-.81-.59-.29-.2-.27-.2q-.36-.25-.72-.54l-.38-.28-.09-.06h0a17.59,17.59,0,0,1,5.06-5.74,13.6,13.6,0,0,1,1.91-1,28.51,28.51,0,0,1,3.21-1.11l.27-.08h0c5.18-1.44,12-2.3,17.7-3.68a33.23,33.23,0,0,0,7.13-2.39l0,0C74,150.11,75.47,148.75,76,147c1.17-3.72,1.29-8.93,1.07-13.56,0-.13,0-.27,0-.4,0-.61-.07-1.22-.11-1.81s-.08-1-.12-1.46h0c-.26-3-.6-5.35-.74-6.33,0-.18,0-.31-.06-.4a.11.11,0,0,0,0-.06.08.08,0,0,1,0,0h0l11.77-4h0l4-1.38h0l.21-.08L96.67,119l11.5,3.92s0,.07,0,.21a1.66,1.66,0,0,1,0,.26v0l-.12.78c-.15,1.16-.39,3-.59,5.28,0,.47-.09.95-.13,1.45s-.07,1-.1,1.54-.06,1.07-.08,1.62h0c-.18,4.45,0,9.34,1.1,12.89a7.11,7.11,0,0,0,3.58,3.88l.21.12c.28.15.57.3.88.44a33.05,33.05,0,0,0,6.13,2.06c5.36,1.34,11.75,2.18,16.89,3.46.56.14,1.1.28,1.62.43a20.35,20.35,0,0,1,5.19,2.11l.16.11A17.64,17.64,0,0,1,147.62,165Z"/><path class="cls-6" d="M76,122.91a85.77,85.77,0,0,1,1.1,11.32c3.27,3.72,14.72,4.22,14.87,4.22s11.6-.61,15.06-4.38a85.64,85.64,0,0,1,1.1-11.16l-15.94-11Z"/><path class="cls-5" d="M48,75.49c-5,1.46-3.87,9-3.87,11.84s4.21,12.77,7,13.87c7.15,2.77,7.16-7.65,7.16-7.65V81.42S53,74,48,75.49Z"/><path class="cls-7" d="M136.11,75.49c-5-1.46-10.32,5.91-10.32,5.91V93.54s0,10.75,7.15,7.66c2.77-1.2,7-11.06,7-13.87S141.15,77,136.11,75.49Z"/><path class="cls-5" d="M116.12,36.59c-6.5-5.41-15.36-8.12-24.23-8.12s-17.74,2.71-24.23,8.12C54.14,47.86,53.73,60.25,53.73,78.28S55,101.41,55,101.41s3.23,13.29,6,16.79S71.5,126.68,80.73,132c6,3.46,10.69,3.49,11.16,3.43s5.16,0,11.16-3.43c9.23-5.33,16.94-10.31,19.74-13.81s6-16.79,6-16.79,1.23-5.1,1.23-23.13S129.64,47.86,116.12,36.59Z"/><path class="cls-7" d="M116.12,36.59c-6.5-5.41-15.36-8.12-24.23-8.12v107c.47.06,5.16,0,11.16-3.43,9.23-5.33,16.94-10.31,19.74-13.81s6-16.79,6-16.79,1.23-5.1,1.23-23.13S129.64,47.86,116.12,36.59Z"/><path class="cls-4" d="M75,80.63a4.58,4.58,0,1,0,4.58,4.58A4.58,4.58,0,0,0,75,80.63Z"/><path class="cls-4" d="M109.8,72.28c-5.11,0-8.5,3.58-9.87,5.39s4.92-1.14,9.56-1.64a26.29,26.29,0,0,1,13.08,2.34S117,72.35,109.8,72.28Z"/><path class="cls-8" d="M108.81,80.63a4.58,4.58,0,1,0,4.58,4.58A4.58,4.58,0,0,0,108.81,80.63Z"/><path class="cls-8" d="M75,80.59a4.58,4.58,0,1,0,4.58,4.58A4.58,4.58,0,0,0,75,80.59Z"/><path class="cls-8" d="M110.21,82.8l-.28,4s3.88-.22,5.24-1.13,1.52-3.58.88-4.25A7.57,7.57,0,0,1,110.21,82.8Z"/><path class="cls-4" d="M74,72.24c-7.24.07-12.76,6.09-12.76,6.09A26.29,26.29,0,0,1,74.29,76c4.63.5,10.92,3.44,9.56,1.64S79.08,72.19,74,72.24Z"/><path class="cls-8" d="M67.73,81.36c-.64.68-.49,3.33.88,4.25s5.24,1.13,5.24,1.13l-.28-4A7.54,7.54,0,0,1,67.73,81.36Z"/><polygon class="cls-2" points="92.11 111.46 85.45 111.37 80.62 111.25 80.64 111.72 86.34 116.32 98.52 115.53 103.78 111.72 99.6 111.26 92.11 111.46"/><path class="cls-2" d="M92,111.74l-8.24-.38-.69.23s-.36,2.67,9.26,2.61c9.79-.06,8.68-2.55,8.68-2.55Z"/><path class="cls-9" d="M92.58,110.16c-.81.09-1.51-.71-3.57-.64a93.15,93.15,0,0,0-9.27,1.42s1.72,1.62,12.55,1.68c11.73.07,12.29-1.4,12.29-1.4s-6-1.78-8.16-1.71A22.41,22.41,0,0,0,92.58,110.16Z"/><path class="cls-9" d="M92.25,115.74a17.11,17.11,0,0,1-11.16-4.33l-1.35-.47s3.92,8.83,12.51,8.76a12.83,12.83,0,0,0,12.33-8.48l-1.29.43S99.85,115.68,92.25,115.74Z"/><path class="cls-10" d="M67.87,92.47c-3.68,0-6.66,2-6.66,4.56s3,4.55,6.66,4.55,6.67-2,6.67-4.55S71.55,92.47,67.87,92.47Z"/><path class="cls-10" d="M116.45,92.47c-3.67,0-6.66,2-6.66,4.56s3,4.55,6.66,4.55,6.67-2,6.67-4.55S120.13,92.47,116.45,92.47Z"/><path class="cls-11" d="M92,183.84h-.11q-1.19,0-2.37,0h-.13l-.77,0c-.37,0-.74,0-1.1-.05h-.36l-.33,0-.33,0c-.49,0-1-.06-1.47-.1l-.59,0c-.11,0-.22,0-.33,0-.71,0-1.41-.12-2.11-.2h-.1l-1-.12-.47-.05h-.07l-.22,0h-.11l-.1,0-.33,0-.37-.05-.19,0h-.13l-.43-.06-.13,0h0l-.22,0-.1,0h-.16l-.31-.05a.76.76,0,0,1-.16,0h-.16l-.14,0-.15,0-.32-.05-.22,0-.11,0h0l-.26,0h-.11l-.1,0-.13,0-.28-.05-.1,0h-.06l-.31-.06-.37-.07-.11,0h0a2.33,2.33,0,0,1-.38-.08h0l-.15,0-.17,0-.3-.06-.1,0-.32-.06-.43-.09-.09,0-.22-.05-.21-.05-.09,0-.24-.05h0l-.15,0h-.06l-.32-.07-.46-.11-.26-.06-.27-.06h-.06l-.21-.05-.21-.06-.25-.06-.1,0,0,0h0l-.2,0-.4-.11-.07,0a3.28,3.28,0,0,1-.45-.11l-.2-.06-.26-.07-.16,0-.29-.08h0l-.06,0-.07,0-.12,0-.06,0-.12,0-.32-.1-.48-.14-.15,0-.33-.1-.2-.06-.06,0-.2,0-.11,0h0l-.39-.13-.28-.09c-.1,0-.19-.06-.29-.09l-1.15-.38-.51-.17-.42-.15-.1,0-.4-.14-.08,0-.22-.08-.09,0-.18-.07-.17-.06-.29-.1-1.31-.5-.06,0-.07,0-.14-.05,0,0-.08,0-.24-.09-.18-.07-.44-.18-.83-.34-.06,0-.14-.06-.18-.07-.22-.09-.19-.08-.48-.21-.15-.07-.71-.31-.42-.18-.22-.1-.16-.07-.37-.18a.72.72,0,0,1-.2-.09l-.56-.26-.38-.18h0l-.51-.25-1.33-.65-.14-.07a.31.31,0,0,0-.1-.05l0,0h0l-.81-.42-.76-.4,0,0-.17-.08-.11-.06a4.31,4.31,0,0,1-.47-.26l-.13-.07-.26-.15-.08,0-.12-.07-.26-.14-.13-.07-.37-.21-.24-.14-.14-.08-.17-.1c-.24-.13-.48-.26-.71-.41-.82-.47-1.63-1-2.43-1.48l-.4-.26-.09-.06-.05,0c-.61-.4-1.23-.8-1.83-1.21a1.19,1.19,0,0,1-.15-.09l-.26-.18-.92-.64-.19-.13-.81-.59-.29-.2-.27-.2q-.36-.25-.72-.54l-.38-.28-.09-.06-.3-.22A17,17,0,0,1,41,159.62a21.72,21.72,0,0,1,5.65-2.24C50,156.45,54,155.77,57.94,155c0,0-3.29,13.8,9.17,17.54C79.32,176.24,89,177.18,92,183.84Z"/><path class="cls-11" d="M92.21,184.25H92a1.47,1.47,0,0,1,.1-.22Z"/><path class="cls-11" d="M92.21,184.25H92a1.47,1.47,0,0,1,.1-.22Z"/><path class="cls-11" d="M147.93,164.8l-.31.23c-.17.14-.35.27-.53.4s-.36.28-.55.41-.25.19-.38.28l-.38.29-.92.65-.18.13-1,.68-1.05.71-.79.52-.2.13-.33.21c-.41.26-.81.52-1.22.76l-1.09.67-.12.07-.19.11-.1.06-.07,0-1.36.79-.48.27-.25.14-.21.11-.7.38-.33.18-.5.26s0,0,0,0h0l-.87.46-.77.38-.21.11-.2.1-.51.25-.3.15-.46.22-.09,0-.08,0a1.92,1.92,0,0,1-.25.12l-.67.32-.64.29-.24.1-.13.06-.25.11-.05,0-.21.1-.48.2-.06,0-.11.05-.35.15-.19.08h0s0,0,0,0l-.31.13-.42.17-.16.07-.29.11a.75.75,0,0,1-.13.06l-.1,0-.33.13-.15.06-.19.07-.36.14h0l-.31.12-.08,0-.21.08-.15,0-.1,0-.16.06-.11,0-.3.12-.06,0-.18.06-.36.13-.21.07-.92.33h0l-.1,0-.33.12-.58.19-.28.09-.48.16-.22.07-.18,0-.11,0-.3.09-.19.06-.24.07-.18.06-.08,0-.22.07-.4.12-.32.09-.41.12-.14,0-.22.06-.37.11-.22.06-.43.11-.18.05-.35.09h0l-.27.07-.33.09h0l-.53.13-.3.08-.27.06-.71.16-.15,0-.39.09-.13,0-.4.09-.25.06h-.11l-.37.08a.78.78,0,0,1-.21,0,.27.27,0,0,1-.12,0l-.11,0-.16,0h-.08l-.26.05-.35.07-.27.05-.21,0a.31.31,0,0,1-.13,0h0l-.23,0h0l-.38.07h-.06l-.19,0-.1,0-.13,0h-.09l-.1,0-.28,0h-.06a.32.32,0,0,1-.14,0l-.55.1h-.16l-.21,0h-.11l-.53.08-1,.14a.76.76,0,0,1-.21,0l-.19,0-.14,0-.6.08-.37,0h-.1l-1.31.16h-.08l-1.81.17-.57,0-.4,0-1.69.11-.45,0-.49,0-1.19.05-.52,0h-.36c-.7,0-1.39,0-2.09,0,3-6.66,12.71-7.6,24.91-11.27,12.46-3.74,9.18-17.54,9.18-17.54,3.29.62,6.62,1.2,9.57,1.9.56.14,1.1.28,1.62.43a21.8,21.8,0,0,1,5.74,2.26A16.63,16.63,0,0,1,147.93,164.8Z"/><path class="cls-4" d="M91.89,24.87c-7.85-6.5-30-.77-38.49,15.57s1.28,44.72,1.28,44.72a56.5,56.5,0,0,1,2.68-11.23c1.82-.69,4.15-3.33,5.74-5.23,2.25-2.68,2.67-7.33,2.67-7.33s8.51-2.67,13.8-5S91.89,45.54,91.89,45.54s5.54,6.66,10.37,9.66,16,6.34,16,6.34.89,5.74,3.38,8.25a33.45,33.45,0,0,0,5.25,4.27c1.76,7,2,8.89,2,11.1,5.7-11,6.69-41.19-3.14-51.69S99.74,18.37,91.89,24.87Z"/><path class="cls-2" d="M127.3,79.37v.09a.17.17,0,0,1,0,.07v-.08S127.3,79.4,127.3,79.37Zm3.73-2.9a1.91,1.91,0,0,0-.38-.2L130,76c-.64-.28-1.63-.72-2.92-1.18a38.28,38.28,0,0,0-14.87-2.29,39,39,0,0,0-5.65.66c-.76.15-1.46.3-2.11.46l-1.23.32c-5.53,1.57-6.75,3.44-11.06,3.54h-.31c-4.42-.2-5.57-2.34-12.29-3.92L79,73.43l-1.15-.24a38.68,38.68,0,0,0-6.35-.69h0a38.41,38.41,0,0,0-14.38,2.4c-1.69.62-2.82,1.17-3.3,1.37h0a1.39,1.39,0,0,0-.51.31c-.84.81.1,2.18.1,2.18s.28.28.4.42A7.12,7.12,0,0,1,55.2,82h0A35.56,35.56,0,0,0,57,87.88a19.84,19.84,0,0,0,1.34,2.52,16.37,16.37,0,0,0,3.88,4.29A15.09,15.09,0,0,0,70,97.86a19.81,19.81,0,0,0,4.47-.12,15.55,15.55,0,0,0,4.86-1.45c6.31-3.1,8.68-9.77,9.52-12.82a3.65,3.65,0,0,1,3.06-3,1.62,1.62,0,0,1,.31,0c1.43,0,2.81,1,3.37,3,.76,2.76,2.77,8.48,7.82,11.84a15.32,15.32,0,0,0,6.49,2.42,19.81,19.81,0,0,0,4.54.13,15.1,15.1,0,0,0,7.77-3.14,16.13,16.13,0,0,0,3.6-3.84,19.25,19.25,0,0,0,1.66-3,23.57,23.57,0,0,0,1.4-4.51A11.17,11.17,0,0,1,130,80h0a7.22,7.22,0,0,1,1-1.26,3.68,3.68,0,0,0,.3-.58s0,0,0,0h0c0-.18.09-.37.13-.56h0A1.14,1.14,0,0,0,131,76.47ZM87.29,81.78c0,.26-.05.53-.09.8,0,.11,0,.22,0,.33a14.84,14.84,0,0,1-.39,1.77c-.1.34-.2.68-.32,1l-.06.18c-.1.28-.2.57-.32.85s-.27.66-.43,1-.19.38-.29.57a2.21,2.21,0,0,1-.18.34A3.59,3.59,0,0,1,85,89c-.13.23-.26.45-.41.68l-.38.58-.46.63q-.21.28-.45.57c-.15.19-.31.37-.47.55s-.33.36-.51.53l-.53.51a13.71,13.71,0,0,1-2,1.54s0,0,0,0c-.19.13-.39.25-.59.37s-.48.27-.74.39a.34.34,0,0,1-.12.06c-.21.11-.42.21-.64.3l-.17.07L77,96l-.34.12-.28.09a11.61,11.61,0,0,1-1.49.39l-.34.07-.23,0h0c-.22,0-.44.07-.67.09s-.61.07-.92.08-.63,0-1,0c-.48,0-1,0-1.44-.07a12.4,12.4,0,0,1-1.38-.22s0,0,0,0a10.62,10.62,0,0,1-1.26-.34l-.1,0a11.64,11.64,0,0,1-1.28-.49L66,95.65a5.48,5.48,0,0,1-.6-.29,12.63,12.63,0,0,1-1.12-.66c-.26-.17-.5-.35-.75-.53l-.42-.32,0,0a9.91,9.91,0,0,1-.91-.82,6,6,0,0,1-.43-.44c-.15-.15-.28-.3-.42-.46s-.38-.46-.57-.7-.39-.54-.58-.82-.45-.7-.65-1.07c-.1-.16-.18-.32-.26-.48-.21-.4-.41-.82-.59-1.26-.12-.28-.23-.56-.33-.85l0-.07h0c0-.11-.08-.23-.12-.34s-.14-.41-.2-.63-.13-.44-.19-.67a21.27,21.27,0,0,1-.49-2.5c0-.2,0-.4-.07-.61s-.07-.67-.09-1,0-.68-.05-1v-.08a5.33,5.33,0,0,1,0-.56l0-.25c0-.08,0-.16,0-.25a1.74,1.74,0,0,1,0-.22,4.69,4.69,0,0,1,.17-.58c0-.12.1-.24.16-.36s0-.07.05-.1l.13-.22c.05-.08.1-.16.16-.24a4.7,4.7,0,0,1,.6-.69l.2-.18A2.42,2.42,0,0,1,59,76l.3-.21.33-.21c.22-.13.46-.25.73-.38a10.45,10.45,0,0,1,1.32-.5,4.13,4.13,0,0,1,.5-.15c.35-.1.72-.19,1.12-.27s.81-.16,1.25-.22l.87-.11.8-.08.51,0,.79,0h0l.43,0,.5,0h.88c.68,0,1.38,0,2.13,0l1,0,.58,0,.56,0c.34,0,.67.05,1,.09l.74.08.5.06.63.1.64.1a27.55,27.55,0,0,1,2.86.66,19.7,19.7,0,0,1,2.26.8h0c.33.14.64.28.94.43l0,0c.22.11.44.23.64.35a9.2,9.2,0,0,1,2,1.53,1.45,1.45,0,0,1,.21.22,5.15,5.15,0,0,1,.7.93.94.94,0,0,1,.12.22.41.41,0,0,1,0,.09,4,4,0,0,1,.26.67.29.29,0,0,1,0,.09h0a.14.14,0,0,1,0,.06.85.85,0,0,1,0,.22.76.76,0,0,1,0,.21,1,1,0,0,1,0,.24,1.77,1.77,0,0,1,0,.23C87.32,81.46,87.31,81.62,87.29,81.78Zm40-.71c0,.39-.06.78-.1,1.15s-.07.56-.11.84l0,.14c0,.3-.1.59-.16.88s-.12.58-.19.86-.11.45-.18.66-.13.47-.21.7a6.08,6.08,0,0,1-.21.6c-.09.26-.19.51-.29.76s-.2.46-.31.69a12.26,12.26,0,0,1-.67,1.3,6.31,6.31,0,0,1-.4.65.31.31,0,0,1,0,.1c-.17.26-.35.51-.53.76s-.42.55-.63.81-.37.42-.56.62l-.52.52-.28.27-.59.5-.6.46c-.19.14-.39.28-.59.4s-.4.26-.6.37l-.36.2c-.26.14-.53.27-.8.39a13.46,13.46,0,0,1-4,1.12l-.38,0-.52,0-.72,0c-.32,0-.64,0-1,0-.15,0-.29,0-.43,0-.51,0-1-.11-1.49-.19h0l-.45-.09-.45-.1-.45-.12a15,15,0,0,1-1.51-.53,7.75,7.75,0,0,1-.83-.37c-.3-.14-.59-.3-.87-.46l-.19-.12a6.76,6.76,0,0,1-.72-.46l-.21-.14-.49-.37c-.24-.18-.48-.38-.71-.57h0l-.24-.21c-.22-.2-.43-.4-.63-.61a15.36,15.36,0,0,1-1.79-2.18c-.15-.21-.29-.42-.43-.64s-.27-.43-.39-.65-.21-.36-.31-.55-.27-.52-.39-.79-.28-.6-.39-.9-.18-.42-.25-.64a16.2,16.2,0,0,1-.59-1.92c0-.14-.07-.29-.1-.43s-.11-.52-.15-.77-.08-.45-.1-.66v0c0-.15,0-.29,0-.44s0-.4-.05-.6a3.61,3.61,0,0,1,.56-2,2.8,2.8,0,0,1,.2-.32,8.25,8.25,0,0,1,2.79-2.38l.49-.27h0c.3-.16.63-.31,1-.46s.54-.23.83-.33a22.78,22.78,0,0,1,3.18-.93c.71-.16,1.46-.3,2.26-.41l.49-.07.92-.11.33,0c.42,0,.86-.08,1.31-.1s1-.06,1.52-.07c1.14,0,2.2,0,3.17,0h.34l.91,0a25.79,25.79,0,0,1,3.79.48c.31.07.61.13.9.21l.56.16a11.27,11.27,0,0,1,1.64.63,4.83,4.83,0,0,1,.55.3,3.61,3.61,0,0,1,.5.33,5.13,5.13,0,0,1,.81.69l0,0a2.42,2.42,0,0,1,.25.31,2.53,2.53,0,0,1,.25.35,4.37,4.37,0,0,1,.51,1.16,5.13,5.13,0,0,1,.13.66c0,.07,0,.14,0,.21v.09a.17.17,0,0,1,0,.07,0,0,0,0,1,0,0h0a3.12,3.12,0,0,1,0,.43C127.31,80.37,127.3,80.72,127.27,81.07Zm0-1.7v.09a.17.17,0,0,1,0,.07v-.08S127.3,79.4,127.3,79.37Z"/><g class="cls-12"><path class="cls-13" d="M66.24,95.76a13.59,13.59,0,0,0,5.48,1.15c9.44,0,14.42-7.82,15.43-14Z"/><path class="cls-13" d="M86.9,79.48,63.53,94.17c.25.18.49.36.75.53l23-14.37A4.5,4.5,0,0,0,86.9,79.48Z"/><path class="cls-13" d="M87.29,81.78,65.4,95.36l.6.29L87.2,82.58C87.24,82.31,87.27,82,87.29,81.78Z"/><path class="cls-13" d="M71.47,73.77C59,73.44,57,77,57.08,80a19.66,19.66,0,0,0,3.07,10.55l23-14.35A28,28,0,0,0,71.47,73.77Z"/><path class="cls-2" d="M83.14,76.21l-23,14.35a14.6,14.6,0,0,0,3.38,3.61L86.9,79.48A8.3,8.3,0,0,0,83.14,76.21Z"/><path class="cls-2" d="M87.33,81.3a3.6,3.6,0,0,0-.1-1l-23,14.37a12.63,12.63,0,0,0,1.12.66L87.29,81.78C87.31,81.62,87.32,81.46,87.33,81.3Z"/><path class="cls-2" d="M87.2,82.58,66,95.65l.24.11L87.15,82.91C87.17,82.8,87.19,82.69,87.2,82.58Z"/></g><g class="cls-12"><path class="cls-13" d="M126.1,76.64l-24,15.85c.2.21.41.41.63.61l24-15.76A4.87,4.87,0,0,0,126.1,76.64Z"/><path class="cls-13" d="M127.15,78.5,103.64,93.89l.49.37,23.15-15.1A5.13,5.13,0,0,0,127.15,78.5Z"/><path class="cls-13" d="M104.34,94.4a14.51,14.51,0,0,0,8.34,2.51c7.74,0,14.39-6.37,14.64-16.9a5.28,5.28,0,0,0,0-.56Z"/><path class="cls-13" d="M112.93,73.77c-10.74.29-16,4.18-15.86,7.53a17.8,17.8,0,0,0,2.07,7.17l22-14.15A36.07,36.07,0,0,0,112.93,73.77Z"/><path class="cls-2" d="M121.14,74.32l-22,14.15a17.33,17.33,0,0,0,2.92,4l24-15.85A9.22,9.22,0,0,0,121.14,74.32Z"/><path class="cls-2" d="M126.64,77.34l-24,15.76a12.05,12.05,0,0,0,1,.79L127.15,78.5A4.37,4.37,0,0,0,126.64,77.34Z"/><path class="cls-2" d="M127.28,79.16l-23.15,15.1.21.14,23-15Z"/></g></g></g></g></svg>