<?xml version="1.0" encoding="utf-8"?>
<!-- Generator: Adobe Illustrator 26.2.0, SVG Export Plug-In . SVG Version: 6.00 Build 0)  -->
<svg version="1.1" id="Layer_1" xmlns="http://www.w3.org/2000/svg" xmlns:xlink="http://www.w3.org/1999/xlink" x="0px" y="0px"
	 viewBox="0 0 183.8 184.2" style="enable-background:new 0 0 183.8 184.2;" xml:space="preserve">
<style type="text/css">
	.st0{fill:#FFFFFF;}
	.st1{fill:#F1FBFD;}
	.st2{fill:#683C11;}
	.st3{fill:#FFBA7F;}
	.st4{fill:#F2A068;}
	.st5{fill:#FCAF75;}
	.st6{fill:#432918;}
	.st7{fill:#CE3E3E;}
	.st8{opacity:0.43;fill:#FF927D;enable-background:new    ;}
	.st9{fill:#A4C68B;}
	.st10{opacity:0.3;}
	.st11{fill:none;}
</style>
<g>
	<g id="Laag_2">
		<g id="Capa_1">
			<path class="st0" d="M64.9,179.8L64.9,179.8z"/>
			<path class="st0" d="M109.1,182.2L109.1,182.2z"/>
			<path class="st1" d="M183.8,91.9c0,24.1-9.5,47.3-26.4,64.5c-2.9,2.9-5.9,5.6-9.1,8.1l-0.4,0.3l-0.3,0.2
				c-0.2,0.1-0.4,0.3-0.5,0.4s-0.4,0.3-0.6,0.4s-0.2,0.2-0.4,0.3l-0.4,0.3l-0.9,0.6l-0.2,0.1l-1,0.7l-1.1,0.7l-0.8,0.5l-0.2,0.1
				l-0.3,0.2c-0.4,0.3-0.8,0.5-1.2,0.8l-1.1,0.7l-0.1,0.1l-0.2,0.1l-0.1,0.1h-0.1l-1.4,0.8l-0.5,0.3l-0.2,0.1l-0.2,0.1l-0.7,0.4
				l-0.3,0.2l-0.5,0.3l0,0l0,0l-0.9,0.5l-0.8,0.4l-0.2,0.1l-0.2,0.1l-0.5,0.2l-0.3,0.1l-0.5,0.2h-0.1h-0.1c-0.1,0-0.2,0.1-0.2,0.1
				l-0.7,0.3l-0.6,0.3l-0.2,0.1l-0.1,0.1l-0.2,0.1H129l-0.2,0.1l-0.5,0.2h-0.1l-0.1,0.1l-0.3,0.1l-0.2,0.1l0,0l0,0l-0.3,0.1
				l-0.4,0.2l-0.2,0.1l-0.3,0.1c0,0-0.1,0-0.1,0.1h-0.1l-0.3,0.1l-0.2,0.1l-0.2,0.1l-0.4,0.1l0,0l-0.2,0.1h-0.1h-0.1l-0.2,0.1h-0.2
				h-0.1l-0.2,0.1H124l-0.2,0.1h-0.1h-0.1l-0.2,0.1l-0.4,0.1l-0.2,0.1l-0.9,0.3l0,0h-0.1l-0.3,0.1l-0.6,0.2l-0.3,0.1l-0.4,0.1l0,0
				l-0.2,0.1h-0.2h-0.1l-0.3,0.1l-0.2,0.1l-0.2,0.1l-0.2,0.1h-0.1l-0.2,0.1l-0.4,0.1l-0.3,0.1l-0.4,0.1h-0.1l-0.2,0.1l-0.3,0.1h-0.1
				h-0.1l-0.2,0.1l-0.4,0.1l-0.2,0.1l-0.3,0.1l0,0l-0.3,0.1l-0.3,0.1l0,0l-0.5,0.1l-0.3,0.1l-0.3,0.1l-0.7,0.2h-0.2l-0.4,0.1h-0.1
				l-0.4,0.1l-0.2,0.1h-0.1l-0.4,0.1c-0.1,0-0.1,0-0.2,0c0,0-0.1,0-0.1,0h-0.1h-0.2h-0.1l-0.3,0.1l-0.3,0.1l-0.3,0.1h-0.2
				c0,0-0.1,0-0.1,0l0,0h-0.2l0,0l-0.4,0.1h-0.1h-0.2h-0.1h-0.1h-0.1h-0.1h-0.3h-0.1c0,0-0.1,0-0.1,0l-0.6,0.1h-0.2h-0.2h-0.1
				l-0.5,0.1l-1,0.1c-0.1,0-0.1,0-0.2,0h-0.2h-0.1l-0.6,0.1h-0.4h-0.1l-1.3,0.2h-0.1l-1.8,0.2h-0.6h-0.4l-1.7,0.1h-0.4h-0.5
				l-1.2,0.1h-0.5h-0.4c-0.7,0-1.4,0-2.1,0h-0.3c-0.8,0-1.6,0-2.4,0h-0.1h-0.3h-0.5c-0.4,0-0.7,0-1.1-0.1h-0.4h-0.3h-0.3
				c-0.5,0-1-0.1-1.5-0.1h-0.6c-0.1,0-0.2,0-0.3,0c-0.7,0-1.4-0.1-2.1-0.2h-0.1l-1-0.1l-0.5-0.1h-0.1h-0.2h-0.1h-0.1h-0.3l-0.4-0.1
				h-0.2l-0.7-0.1l0,0h-0.2h-0.1h-0.2l-0.3-0.1c-0.1,0-0.1,0-0.2,0h-0.2h-0.1h-0.2l-0.3-0.1h-0.2h-0.1l0,0h-0.3h-0.1h-0.1H76
				l-0.3-0.1h-0.1h-0.1l-0.3-0.1l-0.4-0.1h-0.1l0,0h-0.2h-0.2l0,0h-0.2h-0.2l-0.3-0.1h-0.1l-0.3-0.1l0,0l-0.3-0.1
				c-0.2,0-0.3,0-0.5-0.1l-0.2-0.1h-0.1l-0.2-0.1l0,0h-0.2h-0.1l-0.3-0.1l-0.5-0.1l-0.3-0.1l-0.3-0.1h-0.1l-0.2-0.1l-0.2-0.1
				l-0.2-0.1h-0.1l0,0l0,0h-0.2l-0.4-0.1h-0.1c-0.2,0-0.3-0.1-0.4-0.1l-0.2-0.1l-0.3-0.1H68l-0.3-0.1l0,0h-0.1h-0.1h-0.1h-0.1h-0.1
				l-0.3-0.1l-0.5-0.1h-0.2l-0.3-0.1l-0.2-0.1h-0.1h-0.2h-0.1l0,0l-0.4-0.1l-0.3-0.1c-0.1,0-0.2-0.1-0.3-0.1l-1.2-0.4l-0.5-0.2
				l-0.4-0.1h-0.1l-0.4-0.1h-0.1l-0.2-0.1H61h-0.1l-0.2-0.1l-0.2-0.1l-0.3-0.1l-1.3-0.5h-0.1h-0.1l-0.1-0.1l0,0h-0.1l-0.2-0.1
				l-0.2-0.1l-0.4-0.2l-0.8-0.3h-0.1l-0.1-0.1l-0.2-0.1l-0.2-0.1l-0.2-0.1l-0.5-0.2l-0.2-0.1l-0.7-0.3l-0.4-0.2l-0.2-0.1l-0.2-0.1
				l-0.4-0.2c-0.1,0-0.1,0-0.2-0.1l-0.6-0.3l-0.4-0.2l0,0l-0.5-0.2l-1.3-0.6l-0.1-0.1c0,0-0.1,0-0.1-0.1l0,0l0,0l-0.8-0.4l-0.8-0.4
				l0,0l-0.2-0.1l-0.1-0.1c-0.2-0.1-0.3-0.2-0.5-0.3l-0.1-0.1l-0.3-0.1h-0.1l-0.1-0.1l-0.3-0.1l-0.1-0.1l-0.4-0.2l-0.2-0.1l-0.1-0.1
				l0,0l-0.2-0.1c-0.2-0.1-0.5-0.3-0.7-0.4c-0.8-0.5-1.6-1-2.4-1.5l-0.4-0.3l-0.1-0.1h0c-0.6-0.4-1.2-0.8-1.8-1.2
				c-0.1,0-0.1-0.1-0.2-0.1l-0.3-0.2l-0.9-0.6l-0.2-0.1l-0.8-0.6l-0.3-0.2l-0.3-0.2c-0.2-0.2-0.5-0.3-0.7-0.5l-0.4-0.3l-0.1-0.1
				l-0.3-0.2l-0.2-0.2c-3.6-2.7-6.9-5.6-10.1-8.8C-9.4,119.6-8.5,61.4,27.9,26s94.6-34.5,130,1.9C174.5,45,183.8,68,183.8,91.9z"/>
			<path class="st2" d="M157.3,153c0,0.7,0,1.3-0.1,2c-2.9,2.9-5.9,5.6-9.1,8.1l-0.4,0.3l-0.3,0.2c-0.2,0.1-0.4,0.3-0.5,0.4
				s-0.4,0.3-0.6,0.4s-0.2,0.2-0.4,0.3l-0.4,0.3l-0.9,0.6l-0.2,0.1l-1,0.7l-1.1,0.7l-0.8,0.5l-0.2,0.1l-0.3,0.2
				c-0.4,0.3-0.8,0.5-1.2,0.8l-1.1,0.7l-0.1,0.1l-0.2,0.1l-0.1,0.1h-0.1l-1.4,0.8l-0.5,0.3l-0.2,0.1L136,171l-0.7,0.4l-0.3,0.2
				l-0.5,0.3l0,0l0,0l-0.9,0.5l-0.8,0.4l-0.2,0.1l-0.2,0.1l-0.5,0.2l-0.3,0.1l-0.5,0.2h-0.1H131c-0.1,0-0.2,0.1-0.2,0.1l-0.7,0.3
				l-0.6,0.3l-0.2,0.1l-0.1,0.1l-0.2,0.1h-0.1l-0.2,0.1l-0.5,0.2H128l-0.1,0.1l-0.3,0.1l-0.2,0.1l0,0l0,0l-0.3,0.1l-0.4,0.2
				l-0.2,0.1l-0.3,0.1c0,0-0.1,0-0.1,0.1H126l-0.3,0.1l-0.2,0.1l-0.2,0.1l-0.4,0.1l0,0l-0.3,0.1h-0.1l-0.2,0.1h-0.2h-0.1l-0.2,0.1
				h-0.1l-0.3,0.1h-0.1l-0.2,0.1l-0.4,0.1l-0.2,0.1l-0.9,0.3l0,0h-0.1l-0.3,0.1l-0.6,0.2l-0.3,0.1l-0.5,0.2l-0.2,0.1h-0.2h-0.1
				l-0.3,0.1l-0.2,0.1l-0.2,0.1l-0.2,0.1h-0.1l-0.2,0.1l-0.4,0.1l-0.3,0.1l-0.4,0.1H117l-0.2,0.1l-0.4,0.1l-0.2,0.1l-0.4,0.1
				l-0.2,0.1l-0.3,0.1l0,0l-0.3,0.1l-0.3,0.1l0,0l-0.5,0.1l-0.3,0.1l-0.3,0.1l-0.7,0.2h-0.2l-0.4,0.1h-0.1l-0.4,0.1l-0.2,0.1h-0.1
				l-0.4,0.1c-0.1,0-0.1,0-0.2,0c0,0-0.1,0-0.1,0h-0.1h-0.2h-0.1l-0.3,0.1l-0.3,0.1l-0.3,0.1h-0.2c0,0-0.1,0-0.1,0l0,0h-0.2l0,0
				l-0.4,0.1h-0.1h-0.2h-0.1h-0.1H108h-0.1h-0.3h-0.1c0,0-0.1,0-0.1,0l-0.6,0.1h-0.2h-0.2h-0.1l-0.5,0.1l-1,0.1c-0.1,0-0.1,0-0.2,0
				h-0.2h-0.1l-0.6,0.1h-0.4h-0.1l-1.3,0.2h-0.1l-1.8,0.2h-0.6H99l-1.7,0.1h-0.4h-0.5l-1.2,0.1h-0.5h-0.4c-0.7,0-1.4,0-2.1,0H92
				c-0.8,0-1.6,0-2.4,0h-0.1h-0.8c-0.4,0-0.7,0-1.1-0.1h-0.4h-0.3h-0.3c-0.5,0-1-0.1-1.5-0.1h-0.6c-0.1,0-0.2,0-0.3,0
				c-0.7,0-1.4-0.1-2.1-0.2H82l-1-0.1l-0.5-0.1h-0.1h-0.2h-0.1H80h-0.3l-0.4-0.1h-0.2H79l-0.4-0.1h-0.1l0,0h-0.2h-0.1H78l-0.3-0.1
				c-0.1,0-0.1,0-0.2,0h-0.2h-0.1H77l-0.3-0.1h-0.2h-0.1l0,0h-0.3H76h-0.1h-0.1l-0.3-0.1h-0.1h-0.1L75,180l-0.4-0.1h-0.1l0,0
				c-0.1,0-0.3,0-0.4-0.1l0,0H74h-0.2l-0.3-0.1h-0.1l-0.3-0.1l-0.4-0.1h-0.1l-0.2-0.1l-0.2-0.1h-0.1l-0.2-0.1l0,0h-0.2h-0.1
				l-0.3-0.1l-0.5-0.1l-0.3-0.1l-0.3-0.1h-0.1l-0.2-0.1l-0.2-0.1l-0.2-0.1h-0.1l0,0l0,0h-0.2l-0.4-0.1h-0.1c-0.2,0-0.3-0.1-0.4-0.1
				l-0.2-0.1l-0.3-0.1h-0.2l-0.3-0.1l0,0h-0.1h-0.1h-0.1h-0.1H67l-0.3-0.1l-0.5-0.1h-0.2l-0.3-0.1l-0.2-0.1h-0.1h-0.2h-0.1l0,0
				l-0.4-0.1l-0.3-0.1c-0.1,0-0.2-0.1-0.3-0.1l-1.1-0.4l-0.5-0.2l-0.4-0.1h-0.1l-0.4-0.1h-0.1l-0.2-0.1h-0.1l-0.2-0.1l-0.2-0.1
				l-0.3-0.1l-1.3-0.5h-0.1h-0.1l-0.1-0.1l0,0H59l-0.2-0.1l-0.2-0.1l-0.4-0.2l-0.8-0.3h-0.1l-0.1-0.1l-0.2-0.1l-0.2-0.1l-0.2-0.1
				L56,175l-0.2-0.1l-0.7-0.3l-0.4-0.2l-0.2-0.1l-0.2-0.1l-0.4-0.2c-0.1,0-0.1,0-0.2-0.1l-0.6-0.3l-0.4-0.2l0,0l-0.5-0.2l-1.3-0.6
				l-0.1-0.1c0,0-0.1,0-0.1-0.1l0,0l0,0l-0.8-0.4l-0.8-0.4l0,0l-0.2-0.1l-0.1-0.1c-0.2-0.1-0.3-0.2-0.5-0.3l-0.1-0.1l-0.3-0.1H48
				l-0.1-0.1l-0.3-0.1l-0.1-0.1l-0.4-0.2l-0.2-0.1l-0.1-0.1l0,0l-0.2-0.1c-0.2-0.1-0.5-0.3-0.7-0.4c-0.8-0.5-1.6-1-2.4-1.5l-0.4-0.3
				l-0.1-0.1h0c-0.6-0.4-1.2-0.8-1.8-1.2c-0.1,0-0.1-0.1-0.2-0.1l-0.3-0.2l-0.9-0.6l-0.2-0.1l-0.8-0.6l-0.3-0.2l-0.3-0.2
				c-0.2-0.2-0.5-0.3-0.7-0.5L37,164l-0.1-0.1l-0.3-0.2l-0.2-0.2c-3.8-2.7-7.3-5.7-10.6-9c0-0.5,0-1.1,0-1.6
				c0-9.2,3.3-17.3,8.3-21.9c-3-4.8-4.5-10.3-4.4-15.9c0-9.4,3.9-17.5,9.4-21.2c-0.9-3.6-1.4-7.3-1.4-11c0-12.3,4.9-22.9,12.1-28
				c1.8-1.3,3.9-2.3,6-2.8c1.1-0.3,2.3-0.4,3.4-0.4c4.8,0,9.2,2.2,12.7,6c3.6,4.1,6.2,9,7.5,14.4c0,0.1,0.1,0.2,0.1,0.2
				c0.1,0.4,0.2,0.8,0.3,1.1c0.2,0.8,0.3,1.6,0.5,2.4c0,0.2,0,0.3,0.1,0.5c0.3,1.8,0.4,3.6,0.4,5.4l0,0c0,0.3,0,0.7,0,1v0.1
				c0,0.4,0,0.9,0,1.3V85c0,0.1,0,0.2,0,0.3l0,0c-0.1,2.6-0.5,5.3-1.1,7.8l0,0l0,0c-0.1,0.6-0.3,1.1-0.4,1.7
				c-0.8,2.6-1.8,5.2-3.1,7.6l15.7,0.1l0,0l15,0.1c-1.5-2.8-2.7-5.7-3.5-8.8c-0.2-0.7-0.3-1.3-0.5-2l0,0c0-0.1-0.1-0.2-0.1-0.3
				c-0.1-0.3-0.1-0.6-0.2-0.9c-0.3-1.8-0.5-3.6-0.6-5.5c0-0.7-0.1-1.5-0.1-2.2c0-2.2,0.2-4.5,0.5-6.7l0,0c0.1-0.8,0.2-1.5,0.4-2.2
				c0.1-0.3,0.1-0.7,0.2-1s0.1-0.4,0.1-0.5c1.2-5.5,3.9-10.6,7.7-14.8l0,0c3.5-3.7,7.9-5.9,12.6-5.9c1.5,0,2.9,0.2,4.3,0.6l0,0
				c1.9,0.6,3.6,1.4,5.2,2.6c7.1,5.1,12,15.7,12,28c0,3.5-0.4,7-1.3,10.4c6.1,3.3,10.4,11.8,10.4,21.7c0.1,5.8-1.5,11.4-4.6,16.3
				C154.2,136.1,157.3,144,157.3,153z"/>
			<path class="st3" d="M147.6,164.3c-0.2,0.1-0.4,0.3-0.5,0.4s-0.4,0.3-0.6,0.4s-0.2,0.2-0.4,0.3l-1.3,0.9l-0.2,0.1l-1,0.7
				l-1.1,0.7l-0.8,0.5l-0.2,0.1l-0.3,0.2c-0.4,0.3-0.8,0.5-1.2,0.8l-1.1,0.7l-0.1,0.1l-0.2,0.1l-0.1,0.1h-0.1l-1.4,0.8l-0.5,0.3
				l-0.2,0.1l-0.2,0.1l-0.7,0.4l-0.3,0.2l-0.5,0.3l0,0l0,0l-0.9,0.5l-0.8,0.4l-0.2,0.1l-0.2,0.1l-0.5,0.2l-0.3,0.1l-0.5,0.2h-0.1
				h-0.1c-0.1,0-0.2,0.1-0.2,0.1l-0.7,0.3l-0.6,0.3l0,0l-0.2,0.1l-0.1,0.1l-0.2,0.1H129l-0.2,0.1l-0.5,0.2h-0.1l-0.1,0.1l-0.3,0.1
				l-0.2,0.1l0,0l0,0l-0.3,0.1l-0.4,0.2l-0.2,0.1l-0.3,0.1c0,0-0.1,0-0.1,0.1h-0.1l-0.3,0.1l-0.2,0.1l-0.2,0.1l-0.4,0.1l0,0
				l-0.2,0.1h-0.1h-0.1l-0.2,0.1h-0.2h-0.1l-0.2,0.1H124l-0.3,0.1h-0.1l-0.2,0.1l-0.4,0.1l-0.2,0.1l-0.9,0.3l0,0h-0.1l-0.3,0.1
				l-0.2,0.1l-0.2,0.1l-0.2,0.1l-0.3,0.1l-0.5,0.2l-0.2,0.1h-0.2h-0.1l-0.3,0.1l-0.2,0.1l-0.2,0.1l-0.2,0.1h-0.1l-0.2,0.1l-0.4,0.1
				l-0.3,0.1l-0.4,0.1h-0.1L117,179l-0.4,0.1l-0.2,0.1l-0.4,0.1l-0.2,0.1l-0.3,0.1l0,0l-0.3,0.1l-0.3,0.1l0,0l-0.5,0.1l-0.3,0.1
				l-0.3,0.1L113,180h-0.2l-0.4,0.1h-0.1l-0.4,0.1l-0.2,0.1h-0.1l-0.4,0.1c-0.1,0-0.1,0-0.2,0c0,0-0.1,0-0.1,0h-0.1h-0.2h-0.1
				l-0.3,0.1l-0.3,0.1l-0.3,0.1h-0.2c0,0-0.1,0-0.1,0l0,0h-0.2l0,0l-0.4,0.1h-0.1h-0.2h-0.1h-0.1h-0.1h-0.1h-0.3h-0.1
				c0,0-0.1,0-0.1,0l-0.6,0.1h-0.2h-0.2h-0.1l-0.5,0.1l-1,0.1c-0.1,0-0.1,0-0.2,0h-0.2h-0.1l-0.6,0.1h-0.4h-0.1l-1.3,0.2H102
				l-1.8,0.2h-0.6h-0.4l-1.7,0.1h-0.4h-0.5l-1.2,0.1h-0.5h-0.4c-0.7,0-1.4,0-2.1,0h-0.3c-0.8,0-1.6,0-2.4,0h-0.4h-0.5
				c-0.4,0-0.7,0-1.1-0.1h-0.4h-0.3h-0.3c-0.5,0-1-0.1-1.5-0.1h-0.6c-0.1,0-0.2,0-0.3,0c-0.7,0-1.4-0.1-2.1-0.2h-0.1l-1-0.1
				l-0.5-0.1h-0.1h-0.2h-0.1h-0.1h-0.3l-0.4-0.1h-0.2h-0.1l-0.4-0.1h-0.1l0,0h-0.2h-0.1h-0.2l-0.3-0.1c-0.1,0-0.1,0-0.2,0h-0.2h-0.1
				h-0.2l-0.3-0.1h-0.2h-0.1l0,0h-0.3h-0.1h-0.1H76l-0.3-0.1h-0.1h-0.1l-0.3-0.1l-0.4-0.1h-0.1l0,0h-0.2h-0.2l0,0h-0.2H74l-0.3-0.1
				h-0.1l-0.3-0.1l-0.4-0.1h-0.1l-0.2-0.1l-0.2-0.1h-0.1l-0.2-0.1l0,0h-0.2h-0.1l-0.3-0.1l-0.5-0.1l-0.3-0.1l0,0h-0.2h-0.1l-0.2-0.1
				l-0.2-0.1l-0.2-0.1h-0.1l0,0l0,0h-0.2l-0.4-0.1h-0.1l-0.3-0.1h-0.2l-0.2-0.1l-0.3-0.1H68l-0.3-0.1h-0.1h-0.1h-0.1h-0.1h-0.1l0,0
				l-0.3-0.1l-0.5-0.1h-0.2l-0.3-0.1l-0.2-0.1h-0.1l-0.3-0.1l0,0l-0.4-0.1l-0.3-0.1l0,0l-0.2-0.1l-1.2-0.4l-0.5-0.2l-0.4-0.1h-0.1
				l-0.4-0.1l-0.2-0.1l-0.3-0.1l-0.2-0.1l-0.2-0.1l-2-0.4h-0.1h-0.1l-0.1-0.1l0,0h-0.1l-0.2-0.1l-0.2-0.1l-0.4-0.2l-0.8-0.3h-0.1
				l-0.1-0.1l-0.2-0.1l-0.2-0.1l-0.2-0.1l-0.2-0.1l-0.3-0.1l-0.2-0.1l-0.7-0.3l-0.4-0.2l-0.2-0.1l-0.2-0.1l-0.4-0.2
				c-0.1,0-0.1,0-0.2-0.1l-0.6-0.3l-0.4-0.2l0,0l-0.5-0.2l-1.3-0.6l-0.1-0.1c0,0-0.1,0-0.1-0.1l0,0l0,0l-0.8-0.4l-0.8-0.4l0,0
				c-0.1-0.1-0.3-0.1-0.4-0.2l-0.3-0.2l-0.1-0.1l-0.3-0.1h-0.1l-0.1-0.1l-0.3-0.1l-0.1-0.1l-0.4-0.2l-0.2-0.1l-0.1-0.1l-0.2-0.1
				L46,171l-0.5-0.3l-0.6-0.4c-0.4-0.3-0.9-0.5-1.3-0.8l-1-0.6l-0.1-0.1h0c-0.6-0.4-1.2-0.8-1.8-1.2l-0.4-0.3l-0.9-0.6l-0.2-0.1
				l-0.8-0.6l-0.3-0.2l-0.3-0.2c-0.2-0.2-0.5-0.3-0.7-0.5l-0.4-0.3l-0.1-0.1l0,0c1.2-2.3,3-4.2,5.1-5.7c0.6-0.4,1.2-0.7,1.9-1
				c1-0.4,2.1-0.8,3.2-1.1l0.3-0.1l0,0c5.2-1.4,12-2.3,17.7-3.7c2.5-0.5,4.9-1.3,7.1-2.4l0,0c2.1-1.4,3.6-2.7,4.1-4.5
				c1.2-3.7,1.3-8.9,1.1-13.6c0-0.1,0-0.3,0-0.4c0-0.6-0.1-1.2-0.1-1.8s-0.1-1-0.1-1.5l0,0c-0.3-3-0.6-5.3-0.7-6.3
				c0-0.2,0-0.3-0.1-0.4c0,0,0,0,0-0.1l0,0l0,0l11.8-4l0,0l4-1.4l0,0l0.2-0.1l4.7,1.5l11.5,3.9c0,0,0,0.1,0,0.2c0,0.1,0,0.2,0,0.3
				l0,0l-0.1,0.8c-0.2,1.2-0.4,3-0.6,5.3c0,0.5-0.1,0.9-0.1,1.4s-0.1,1-0.1,1.5s-0.1,1.1-0.1,1.6l0,0c-0.2,4.4,0,9.3,1.1,12.9
				c0.7,1.7,1.9,3.1,3.6,3.9l0.2,0.1c0.3,0.1,0.6,0.3,0.9,0.4c2,0.9,4,1.6,6.1,2.1c5.4,1.3,11.7,2.2,16.9,3.5
				c0.6,0.1,1.1,0.3,1.6,0.4c1.8,0.5,3.6,1.2,5.2,2.1l0.2,0.1C144.8,160.3,146.4,162.2,147.6,164.3z"/>
			<path class="st4" d="M76,122.9c0.6,3.7,1,7.5,1.1,11.3c3.3,3.7,14.7,4.2,14.9,4.2s11.6-0.6,15.1-4.4c0.1-3.7,0.5-7.5,1.1-11.2
				l-15.9-11L76,122.9z"/>
			<path class="st3" d="M48,75.5c-5,1.5-3.9,9-3.9,11.8s4.2,12.8,7,13.9c7.2,2.8,7.2-7.7,7.2-7.7V81.4C58.3,81.4,53,74,48,75.5z"/>
			<path class="st5" d="M136.1,75.5c-5-1.5-10.3,5.9-10.3,5.9v12.1c0,0,0,10.8,7.2,7.7c2.8-1.2,7-11.1,7-13.9S141.1,77,136.1,75.5z"
				/>
			<path class="st3" d="M116.1,36.6c-6.5-5.4-15.4-8.1-24.2-8.1s-17.7,2.7-24.2,8.1C54.1,47.9,53.7,60.2,53.7,78.3
				s1.3,23.1,1.3,23.1s3.2,13.3,6,16.8s10.5,8.5,19.7,13.8c6,3.5,10.7,3.5,11.2,3.4s5.2,0,11.2-3.4c9.2-5.3,16.9-10.3,19.7-13.8
				s6-16.8,6-16.8s1.2-5.1,1.2-23.1S129.6,47.9,116.1,36.6z"/>
			<path class="st5" d="M116.1,36.6c-6.5-5.4-15.4-8.1-24.2-8.1v107c0.5,0.1,5.2,0,11.2-3.4c9.2-5.3,16.9-10.3,19.7-13.8
				s6-16.8,6-16.8s1.2-5.1,1.2-23.1S129.6,47.9,116.1,36.6z"/>
			<path class="st2" d="M75,80.6c-2.5,0-4.6,2.1-4.6,4.6c0,2.5,2.1,4.6,4.6,4.6c2.5,0,4.6-2.1,4.6-4.6S77.5,80.6,75,80.6
				C75,80.6,75,80.6,75,80.6z"/>
			<path class="st2" d="M109.8,72.3c-5.1,0-8.5,3.6-9.9,5.4s4.9-1.1,9.6-1.6c4.5-0.4,9,0.5,13.1,2.3C122.6,78.4,117,72.3,109.8,72.3
				z"/>
			<path class="st6" d="M108.8,80.6c-2.5,0-4.6,2.1-4.6,4.6c0,2.5,2.1,4.6,4.6,4.6c2.5,0,4.6-2.1,4.6-4.6S111.3,80.6,108.8,80.6
				C108.8,80.6,108.8,80.6,108.8,80.6z"/>
			<path class="st6" d="M75,80.6c-2.5,0-4.6,2.1-4.6,4.6c0,2.5,2.1,4.6,4.6,4.6c2.5,0,4.6-2.1,4.6-4.6S77.5,80.6,75,80.6
				C75,80.6,75,80.6,75,80.6z"/>
			<path class="st6" d="M110.2,82.8l-0.3,4c0,0,3.9-0.2,5.2-1.1s1.5-3.6,0.9-4.2C114.4,82.7,112.3,83.2,110.2,82.8z"/>
			<path class="st2" d="M74,72.2c-7.2,0.1-12.8,6.1-12.8,6.1c4.1-1.9,8.6-2.7,13.1-2.3c4.6,0.5,10.9,3.4,9.6,1.6S79.1,72.2,74,72.2z
				"/>
			<path class="st6" d="M67.7,81.4c-0.6,0.7-0.5,3.3,0.9,4.2s5.2,1.1,5.2,1.1l-0.3-4C71.5,83.1,69.4,82.6,67.7,81.4z"/>
			<polygon class="st0" points="92.1,111.5 85.4,111.4 80.6,111.2 80.6,111.7 86.3,116.3 98.5,115.5 103.8,111.7 99.6,111.3 			"/>
			<path class="st0" d="M92,111.7l-8.2-0.4l-0.7,0.2c0,0-0.4,2.7,9.3,2.6c9.8-0.1,8.7-2.6,8.7-2.6L92,111.7z"/>
			<path class="st7" d="M92.6,110.2c-0.8,0.1-1.5-0.7-3.6-0.6c-3.1,0.3-6.2,0.8-9.3,1.4c0,0,1.7,1.6,12.6,1.7
				c11.7,0.1,12.3-1.4,12.3-1.4s-6-1.8-8.2-1.7C95.1,109.6,93.8,109.8,92.6,110.2z"/>
			<path class="st7" d="M92.2,115.7c-4.1-0.1-8.1-1.6-11.2-4.3l-1.3-0.5c0,0,3.9,8.8,12.5,8.8c5.5,0.1,10.5-3.3,12.3-8.5l-1.3,0.4
				C103.3,111.7,99.8,115.7,92.2,115.7z"/>
			<path class="st8" d="M67.9,92.5c-3.7,0-6.7,2-6.7,4.6s3,4.6,6.7,4.6s6.7-2,6.7-4.6S71.6,92.5,67.9,92.5z"/>
			<path class="st8" d="M116.4,92.5c-3.7,0-6.7,2-6.7,4.6s3,4.6,6.7,4.6s6.7-2,6.7-4.6S120.1,92.5,116.4,92.5z"/>
			<path class="st9" d="M91.9,182.2h-0.1c-0.8,0-1.6,0-2.4,0h-0.1h-0.8c-0.4,0-0.7,0-1.1-0.1h-0.4h-0.3h-0.3c-0.5,0-1-0.1-1.5-0.1
				h-0.6c-0.1,0-0.2,0-0.3,0c-0.7,0-1.4-0.1-2.1-0.2h-0.1l-1-0.1l-0.5-0.1h-0.1h-0.2H80h-0.1h-0.3l-0.4-0.1H79h-0.1l-0.4-0.1h-0.1
				l0,0h-0.2H78h-0.2l-0.3-0.1c-0.1,0-0.1,0-0.2,0h-0.2H77h-0.2l-0.3-0.1h-0.2h-0.1l0,0H76h-0.1h-0.1h-0.1l-0.3-0.1h-0.1h-0.1
				l-0.3-0.1l-0.4-0.1h-0.1l0,0c-0.1,0-0.3,0-0.4-0.1l0,0h-0.2h-0.2l-0.3-0.1h-0.1L73,181l-0.4-0.1h-0.1l-0.2-0.1l-0.2-0.1H72
				l-0.2-0.1l0,0h-0.2h-0.1l-0.3-0.1l-0.5-0.1l-0.3-0.1l-0.3-0.1h-0.1l-0.2-0.1l-0.2-0.1l-0.2-0.1h-0.1l0,0l0,0h-0.2l-0.4-0.1h-0.1
				c-0.2,0-0.3-0.1-0.4-0.1l-0.2-0.1l-0.3-0.1h-0.2l-0.3-0.1l0,0h-0.1h-0.1h-0.1H67h-0.1l-0.3-0.1l-0.5-0.1H66l-0.3-0.1l-0.2-0.1
				h-0.1h-0.2h-0.1l0,0l-0.4-0.1l-0.3-0.1c-0.1,0-0.2-0.1-0.3-0.1l-1.2-0.4l-0.5-0.2l-0.4-0.1h-0.1l-0.4-0.1h-0.1l-0.2-0.1h-0.1
				l-0.2-0.1l-0.2-0.1l-0.3-0.1l-1.3-0.5h-0.1h-0.1l-0.1-0.1l0,0h-0.1l-0.2-0.1l-0.2-0.1l-0.4-0.2l-0.8-0.3h-0.1l-0.1-0.1l-0.2-0.1
				l-0.2-0.1l-0.2-0.1l-0.5-0.2l-0.2-0.1l-0.7-0.3l-0.4-0.2l-0.2-0.1l-0.2-0.1l-0.4-0.2c-0.1,0-0.1,0-0.2-0.1l-0.6-0.3l-0.4-0.2l0,0
				l-0.5-0.2l-1.3-0.6l-0.1-0.1c0,0-0.1,0-0.1-0.1l0,0l0,0l-0.8-0.4l-0.8-0.4l0,0l-0.2-0.1l-0.1-0.1c-0.2-0.1-0.3-0.2-0.5-0.3
				l-0.1-0.1l-0.3-0.1h-0.1l-0.1-0.1l-0.3-0.1l-0.1-0.1l-0.4-0.2l-0.2-0.1l-0.1-0.1l-0.2-0.1c-0.2-0.1-0.5-0.3-0.7-0.4
				c-0.8-0.5-1.6-1-2.4-1.5l-0.4-0.3l-0.1-0.1h-0.1c-0.6-0.4-1.2-0.8-1.8-1.2c-0.1,0-0.1-0.1-0.2-0.1l-0.3-0.2l-0.9-0.6l-0.2-0.1
				l-0.8-0.6l-0.3-0.2l-0.3-0.2c-0.2-0.2-0.5-0.3-0.7-0.5l-0.4-0.3l-0.1-0.1l-0.3-0.2c0.9-2.7,2.4-5.1,4.4-7.1
				c1.8-1,3.7-1.8,5.7-2.2c3.3-0.9,7.3-1.6,11.3-2.4c0,0-3.3,13.8,9.2,17.5C79.3,174.6,88.9,175.5,91.9,182.2z"/>
			<path class="st9" d="M92.2,184.2H92c0-0.1,0.1-0.1,0.1-0.2L92.2,184.2z"/>
			<path class="st9" d="M92.2,184.2H92c0-0.1,0.1-0.1,0.1-0.2L92.2,184.2z"/>
			<path class="st9" d="M147.7,164l-0.3,0.2c-0.2,0.1-0.4,0.3-0.5,0.4s-0.4,0.3-0.6,0.4s-0.2,0.2-0.4,0.3l-0.4,0.3l-0.9,0.6
				l-0.2,0.1l-1,0.7l-1.1,0.7l-0.8,0.5l-0.2,0.1l-0.3,0.2c-0.4,0.3-0.8,0.5-1.2,0.8l-1.1,0.7l-0.1,0.1l-0.2,0.1l-0.1,0.1h-0.1
				l-1.4,0.8l-0.5,0.3l-0.2,0.1l-0.2,0.1l-0.7,0.4l-0.3,0.2l-0.5,0.3l0,0l0,0l-0.9,0.5l-0.8,0.4l-0.2,0.1l-0.2,0.1l-0.5,0.2
				l-0.3,0.1l-0.5,0.2H131H131c-0.1,0-0.2,0.1-0.2,0.1l-0.7,0.3l-0.6,0.3l-0.2,0.1L129,175l-0.2,0.1h-0.1l-0.2,0.1l-0.5,0.2H128
				l-0.1,0.1l-0.3,0.1l-0.2,0.1l0,0l0,0l-0.3,0.1l-0.4,0.2l-0.2,0.1l-0.3,0.1c0,0-0.1,0-0.1,0.1h-0.1l-0.3,0.1l-0.2,0.1l-0.2,0.1
				l-0.4,0.1l0,0l-0.3,0.1h-0.1l-0.2,0.1h-0.2H124l-0.2,0.1h-0.1l-0.3,0.1h-0.1l-0.2,0.1l-0.4,0.1l-0.2,0.1l-0.9,0.3l0,0h-0.1
				l-0.3,0.1l-0.6,0.2l-0.3,0.1l-0.5,0.2l-0.2,0.1h-0.2h-0.1l-0.3,0.1l-0.2,0.1l-0.2,0.1l-0.2,0.1h-0.1l-0.2,0.1l-0.4,0.1l-0.3,0.1
				l-0.4,0.1H117l-0.2,0.1l-0.4,0.1l-0.2,0.1l-0.4,0.1l-0.2,0.1l-0.3,0.1l0,0l-0.3,0.1l-0.3,0.1l0,0l-0.5,0.1l-0.3,0.1l-0.3,0.1
				l-0.7,0.2h-0.2l-0.4,0.1h-0.1l-0.4,0.1l-0.2,0.1h-0.1l-0.4,0.1c-0.1,0-0.1,0-0.2,0c0,0-0.1,0-0.1,0h-0.1h-0.2h-0.1l-0.3,0.1
				l-0.3,0.1l-0.3,0.1h-0.2c0,0-0.1,0-0.1,0l0,0h-0.2l0,0l-0.4,0.1h-0.1h-0.2h-0.1H108h-0.1h-0.1h-0.3h-0.1c0,0-0.1,0-0.1,0
				l-0.6,0.1h-0.2h-0.2h-0.1l-0.5,0.1l-1,0.1c-0.1,0-0.1,0-0.2,0h-0.2h-0.1l-0.6,0.1h-0.4h-0.1l-1.3,0.2h-0.1l-1.8,0.2h-0.6H99
				l-1.7,0.1h-0.4h-0.5l-1.2,0.1h-0.5h-0.4c-0.7,0-1.4,0-2.1,0c3-6.7,12.7-7.6,24.9-11.3c12.5-3.7,9.2-17.5,9.2-17.5
				c3.3,0.6,6.6,1.2,9.6,1.9c0.6,0.1,1.1,0.3,1.6,0.4c2,0.5,3.9,1.2,5.7,2.3C145.3,159.1,146.8,161.4,147.7,164z"/>
			<path class="st2" d="M91.9,24.9c-7.8-6.5-30-0.8-38.5,15.6s1.3,44.7,1.3,44.7c0.5-3.8,1.4-7.6,2.7-11.2c1.8-0.7,4.2-3.3,5.7-5.2
				c2.2-2.7,2.7-7.3,2.7-7.3s8.5-2.7,13.8-5s12.3-10.8,12.3-10.8s5.5,6.7,10.4,9.7s16,6.3,16,6.3s0.9,5.7,3.4,8.2
				c1.6,1.6,3.4,3,5.2,4.3c1.8,7,2,8.9,2,11.1c5.7-11,6.7-41.2-3.1-51.7S99.7,18.4,91.9,24.9z"/>
			<path class="st0" d="M127.3,79.4L127.3,79.4c0,0.1,0,0.1,0,0.2V79.4C127.3,79.4,127.3,79.4,127.3,79.4z M131,76.5
				c-0.1-0.1-0.2-0.1-0.4-0.2L130,76c-0.6-0.3-1.6-0.7-2.9-1.2c-4.8-1.7-9.8-2.5-14.9-2.3c-1.9,0.1-3.8,0.3-5.7,0.7
				c-0.8,0.2-1.5,0.3-2.1,0.5l-1.2,0.3c-5.5,1.6-6.8,3.4-11.1,3.5h-0.3c-4.4-0.2-5.6-2.3-12.3-3.9L79,73.4l-1.2-0.2
				c-2.1-0.4-4.2-0.6-6.3-0.7l0,0c-4.9-0.1-9.8,0.7-14.4,2.4c-1.7,0.6-2.8,1.2-3.3,1.4l0,0c-0.2,0.1-0.4,0.2-0.5,0.3
				c-0.8,0.8,0.1,2.2,0.1,2.2s0.3,0.3,0.4,0.4C54.5,80,55,81,55.2,82l0,0c0.4,2,1,4,1.8,5.9c0.4,0.9,0.8,1.7,1.3,2.5
				c1,1.6,2.3,3.1,3.9,4.3c2.2,1.8,4.9,2.9,7.8,3.2c1.5,0.1,3,0.1,4.5-0.1c1.7-0.2,3.3-0.7,4.9-1.4c6.3-3.1,8.7-9.8,9.5-12.8
				c0.3-1.6,1.5-2.8,3.1-3c0.1,0,0.2,0,0.3,0c1.4,0,2.8,1,3.4,3c0.8,2.8,2.8,8.5,7.8,11.8c2,1.3,4.2,2.1,6.5,2.4
				c1.5,0.2,3,0.3,4.5,0.1c2.8-0.3,5.5-1.4,7.8-3.1c1.4-1.1,2.6-2.4,3.6-3.8c0.6-0.9,1.2-2,1.7-3c0.6-1.5,1.1-3,1.4-4.5
				c0.2-1.2,0.6-2.3,1.1-3.4l0,0c0.3-0.5,0.6-0.9,1-1.3c0.1-0.2,0.2-0.4,0.3-0.6l0,0l0,0c0-0.2,0.1-0.4,0.1-0.6l0,0
				C131.5,77.2,131.3,76.7,131,76.5L131,76.5z M87.3,81.8c0,0.3-0.1,0.5-0.1,0.8c0,0.1,0,0.2,0,0.3c-0.1,0.6-0.2,1.2-0.4,1.8
				c-0.1,0.3-0.2,0.7-0.3,1l-0.1,0.2c-0.1,0.3-0.2,0.6-0.3,0.8s-0.3,0.7-0.4,1s-0.2,0.4-0.3,0.6c-0.1,0.1-0.1,0.2-0.2,0.3
				c-0.1,0.1-0.1,0.3-0.2,0.4c-0.1,0.2-0.3,0.4-0.4,0.7l-0.4,0.6l-0.5,0.6c-0.1,0.2-0.3,0.4-0.4,0.6c-0.2,0.2-0.3,0.4-0.5,0.6
				s-0.3,0.4-0.5,0.5l-0.5,0.5c-0.6,0.6-1.3,1.1-2,1.5l0,0c-0.2,0.1-0.4,0.2-0.6,0.4s-0.5,0.3-0.7,0.4c0,0-0.1,0-0.1,0.1
				c-0.2,0.1-0.4,0.2-0.6,0.3l-0.2,0.1L77,96l-0.3,0.1l-0.3,0.1c-0.5,0.2-1,0.3-1.5,0.4l-0.3,0.1h-0.2l0,0c-0.2,0-0.4,0.1-0.7,0.1
				s-0.6,0.1-0.9,0.1s-0.6,0-1,0c-0.5,0-1,0-1.4-0.1c-0.5,0-0.9-0.1-1.4-0.2l0,0c-0.4-0.1-0.8-0.2-1.3-0.3h-0.1
				c-0.4-0.1-0.9-0.3-1.3-0.5L66,95.7c-0.2-0.1-0.4-0.2-0.6-0.3c-0.4-0.2-0.8-0.4-1.1-0.7c-0.3-0.2-0.5-0.3-0.8-0.5l-0.4-0.3l0,0
				c-0.3-0.3-0.6-0.5-0.9-0.8c-0.2-0.1-0.3-0.3-0.4-0.4c-0.2-0.2-0.3-0.3-0.4-0.5s-0.4-0.5-0.6-0.7s-0.4-0.5-0.6-0.8
				s-0.5-0.7-0.7-1.1c-0.1-0.2-0.2-0.3-0.3-0.5c-0.2-0.4-0.4-0.8-0.6-1.3c-0.1-0.3-0.2-0.6-0.3-0.8v-0.1l0,0c0-0.1-0.1-0.2-0.1-0.3
				s-0.1-0.4-0.2-0.6s-0.1-0.4-0.2-0.7c-0.2-0.8-0.4-1.7-0.5-2.5c0-0.2,0-0.4-0.1-0.6s-0.1-0.7-0.1-1s0-0.7,0-1v-0.1
				c0-0.2,0-0.4,0-0.6v-0.2c0-0.1,0-0.2,0-0.2c0-0.1,0-0.1,0-0.2c0-0.2,0.1-0.4,0.2-0.6c0-0.1,0.1-0.2,0.2-0.4s0-0.1,0-0.1l0.1-0.2
				c0-0.1,0.1-0.2,0.2-0.2c0.2-0.2,0.4-0.5,0.6-0.7l0.2-0.2c0.1-0.1,0.2-0.3,0.4-0.4l0.3-0.2l0.3-0.2c0.2-0.1,0.5-0.2,0.7-0.4
				c0.4-0.2,0.9-0.4,1.3-0.5c0.2-0.1,0.3-0.1,0.5-0.2c0.3-0.1,0.7-0.2,1.1-0.3s0.8-0.2,1.3-0.2l0.9-0.1l0.8-0.1h0.5h0.8l0,0H68h0.5
				h0.9c0.7,0,1.4,0,2.1,0h1H73h0.6c0.3,0,0.7,0.1,1,0.1l0.7,0.1l0.5,0.1l0.6,0.1l0.6,0.1c1,0.2,1.9,0.4,2.9,0.7
				c0.8,0.2,1.5,0.5,2.3,0.8l0,0c0.3,0.1,0.6,0.3,0.9,0.4l0,0c0.2,0.1,0.4,0.2,0.6,0.3c0.7,0.4,1.4,0.9,2,1.5
				c0.1,0.1,0.1,0.1,0.2,0.2c0.3,0.3,0.5,0.6,0.7,0.9c0,0.1,0.1,0.1,0.1,0.2c0,0,0,0.1,0,0.1c0.1,0.2,0.2,0.4,0.3,0.7
				c0,0,0,0.1,0,0.1l0,0c0,0,0,0,0,0.1c0,0.1,0,0.1,0,0.2c0,0.1,0,0.1,0,0.2c0,0.1,0,0.2,0,0.2c0,0.1,0,0.2,0,0.2
				C87.3,81.5,87.3,81.6,87.3,81.8z M127.3,81.1c0,0.4-0.1,0.8-0.1,1.2s-0.1,0.6-0.1,0.8v0.1c0,0.3-0.1,0.6-0.2,0.9
				s-0.1,0.6-0.2,0.9s-0.1,0.4-0.2,0.7s-0.1,0.5-0.2,0.7c-0.1,0.2-0.1,0.4-0.2,0.6c-0.1,0.3-0.2,0.5-0.3,0.8s-0.2,0.5-0.3,0.7
				c-0.2,0.4-0.4,0.9-0.7,1.3c-0.1,0.2-0.3,0.4-0.4,0.7c0,0,0,0.1,0,0.1c-0.2,0.3-0.3,0.5-0.5,0.8s-0.4,0.6-0.6,0.8
				s-0.4,0.4-0.6,0.6l-0.5,0.5l-0.3,0.3l-0.6,0.5l-0.6,0.5c-0.2,0.1-0.4,0.3-0.6,0.4s-0.4,0.3-0.6,0.4l-0.4,0.2
				c-0.3,0.1-0.5,0.3-0.8,0.4c-1.3,0.6-2.6,1-4,1.1H114h-0.5h-0.7c-0.3,0-0.6,0-1,0c-0.2,0-0.3,0-0.4,0c-0.5,0-1-0.1-1.5-0.2l0,0
				l-0.4-0.1l-0.4-0.1l-0.4-0.1c-0.5-0.1-1-0.3-1.5-0.5c-0.3-0.1-0.6-0.2-0.8-0.4c-0.3-0.1-0.6-0.3-0.9-0.5l-0.2-0.1
				c-0.2-0.1-0.5-0.3-0.7-0.5l-0.2-0.1l-0.5-0.4c-0.2-0.2-0.5-0.4-0.7-0.6l0,0l-0.2-0.2c-0.2-0.2-0.4-0.4-0.6-0.6
				c-0.7-0.7-1.3-1.4-1.8-2.2c-0.2-0.2-0.3-0.4-0.4-0.6s-0.3-0.4-0.4-0.7s-0.2-0.4-0.3-0.6s-0.3-0.5-0.4-0.8s-0.3-0.6-0.4-0.9
				s-0.2-0.4-0.2-0.6c-0.2-0.6-0.4-1.3-0.6-1.9c0-0.1-0.1-0.3-0.1-0.4s-0.1-0.5-0.2-0.8s-0.1-0.4-0.1-0.7l0,0c0-0.2,0-0.3,0-0.4
				s0-0.4-0.1-0.6c0-0.7,0.2-1.4,0.6-2c0.1-0.1,0.1-0.2,0.2-0.3c0.7-1,1.7-1.8,2.8-2.4l0.5-0.3l0,0c0.3-0.2,0.6-0.3,1-0.5
				s0.5-0.2,0.8-0.3c1-0.4,2.1-0.7,3.2-0.9c0.7-0.2,1.5-0.3,2.3-0.4l0.5-0.1l0.9-0.1h0.3c0.4,0,0.9-0.1,1.3-0.1s1-0.1,1.5-0.1
				c1.1,0,2.2,0,3.2,0h0.3h0.9c1.3,0.1,2.5,0.2,3.8,0.5c0.3,0.1,0.6,0.1,0.9,0.2l0.6,0.2c0.6,0.2,1.1,0.4,1.6,0.6
				c0.2,0.1,0.4,0.2,0.6,0.3c0.2,0.1,0.3,0.2,0.5,0.3c0.3,0.2,0.6,0.4,0.8,0.7l0,0c0.1,0.1,0.2,0.2,0.2,0.3c0.1,0.1,0.2,0.2,0.2,0.3
				c0.2,0.4,0.4,0.8,0.5,1.2c0.1,0.2,0.1,0.4,0.1,0.7c0,0.1,0,0.1,0,0.2v0.1c0,0,0,0,0,0.1l0,0l0,0c0,0.1,0,0.3,0,0.4
				C127.3,80.4,127.3,80.7,127.3,81.1L127.3,81.1z M127.3,79.4L127.3,79.4c0,0.1,0,0.1,0,0.2V79.4C127.3,79.4,127.3,79.4,127.3,79.4
				L127.3,79.4z"/>
			<g class="st10">
				<path class="st11" d="M66.2,95.8c1.7,0.8,3.6,1.2,5.5,1.2c9.4,0,14.4-7.8,15.4-14L66.2,95.8z"/>
				<path class="st11" d="M86.9,79.5L63.5,94.2c0.2,0.2,0.5,0.4,0.8,0.5l23-14.4C87.2,80,87.1,79.7,86.9,79.5z"/>
				<path class="st11" d="M87.3,81.8L65.4,95.4l0.6,0.3l21.2-13.1C87.2,82.3,87.3,82,87.3,81.8z"/>
				<path class="st11" d="M71.5,73.8C59,73.4,57,77,57.1,80c0,3.7,1.1,7.4,3.1,10.6l23-14.3C79.5,74.6,75.5,73.7,71.5,73.8z"/>
				<path class="st0" d="M83.1,76.2l-23,14.3c0.9,1.4,2.1,2.6,3.4,3.6l23.4-14.7C86,78,84.7,76.9,83.1,76.2z"/>
				<path class="st0" d="M87.3,81.3c0-0.3,0-0.7-0.1-1l-23,14.4c0.4,0.2,0.7,0.5,1.1,0.7l21.9-13.6C87.3,81.6,87.3,81.5,87.3,81.3z"
					/>
				<path class="st0" d="M87.2,82.6L66,95.7l0.2,0.1l20.9-12.8C87.2,82.8,87.2,82.7,87.2,82.6z"/>
			</g>
			<g class="st10">
				<path class="st11" d="M126.1,76.6l-24,15.8c0.2,0.2,0.4,0.4,0.6,0.6l24-15.8C126.5,77.1,126.3,76.9,126.1,76.6z"/>
				<path class="st11" d="M127.2,78.5l-23.5,15.4l0.5,0.4l23.2-15.1C127.3,78.9,127.2,78.7,127.2,78.5z"/>
				<path class="st11" d="M104.3,94.4c2.5,1.7,5.4,2.5,8.3,2.5c7.7,0,14.4-6.4,14.6-16.9c0-0.2,0-0.4,0-0.6L104.3,94.4z"/>
				<path class="st11" d="M112.9,73.8c-10.7,0.3-16,4.2-15.9,7.5c0.2,2.5,0.9,5,2.1,7.2l22-14.2C118.4,73.8,115.7,73.6,112.9,73.8z"
					/>
				<path class="st0" d="M121.1,74.3l-22,14.2c0.8,1.5,1.8,2.8,2.9,4l24-15.8C124.7,75.4,123,74.6,121.1,74.3z"/>
				<path class="st0" d="M126.6,77.3l-24,15.8c0.3,0.3,0.7,0.5,1,0.8l23.5-15.4C127,78.1,126.9,77.7,126.6,77.3z"/>
				<path class="st0" d="M127.3,79.2l-23.2,15.1l0.2,0.1l23-15L127.3,79.2z"/>
			</g>
		</g>
	</g>
</g>
</svg>
