<?xml version="1.0" encoding="utf-8"?>
<!-- Generator: Adobe Illustrator 26.2.0, SVG Export Plug-In . SVG Version: 6.00 Build 0)  -->
<svg version="1.1" id="Layer_1" xmlns="http://www.w3.org/2000/svg" xmlns:xlink="http://www.w3.org/1999/xlink" x="0px" y="0px"
	 viewBox="0 0 561.5 135.2" style="enable-background:new 0 0 561.5 135.2;" xml:space="preserve">
<style type="text/css">
	.st0{fill:#D9E2E3;}
	.st1{fill:#F7E3A1;}
	.st2{fill:#B4B4B4;}
	.st3{fill:#D58B8B;}
	.st4{fill:#E59090;}
	.st5{fill:#E59797;}
	.st6{fill:#1B1B1B;}
	.st7{font-family:'Poppins-Regular';}
	.st8{font-size:16px;}
</style>
<g id="notes-maud-week2" transform="translate(-407.459 -777)">
	<g id="Group_89" transform="translate(-12 -29.425)">
		<g id="Group_51" transform="translate(28 27.627)">
			<rect id="Rectangle_118" x="402" y="814" class="st0" width="100" height="100"/>
			<g id="Group_50">
				<path id="Path_511" class="st1" d="M401,810h100c0,0,1.2,21.4,0,50.5c-1.2,29.2-6.1,49.5-6.1,49.5H391.5c0,0,8.4-24.5,9.5-49.5
					S401,810,401,810z"/>
				<g id="Group_49" transform="translate(-4.895 4.846)">
					<path id="Subtraction_1" class="st2" d="M457.9,813.6L457.9,813.6l-3.8-5.9l2.4-1.2l2.3,6.7L457.9,813.6L457.9,813.6z"/>
					
						<ellipse id="Ellipse_55" transform="matrix(0.9272 -0.3746 0.3746 0.9272 -269.0636 229.422)" class="st3" cx="455.6" cy="806.8" rx="6.3" ry="4.9"/>
					<path id="Path_512" class="st4" d="M454.9,800.7l3.8,4.1c0.3,1.5-0.4,3-1.7,3.8c-1.4,0.7-3.2,0.7-4.6,0L451,803L454.9,800.7z"
						/>
					
						<ellipse id="Ellipse_54" transform="matrix(0.9272 -0.3746 0.3746 0.9272 -267.3262 228.1231)" class="st5" cx="453.1" cy="801.7" rx="4.6" ry="3.7"/>
				</g>
			</g>
		</g>
		<text transform="matrix(1 0 0 1 448.783 891.6268)" class="st6 st7 st8">Layout</text>
	</g>
	<g id="Group_90" transform="translate(-12 -29.425)">
		<g id="Group_55" transform="translate(172 5)">
			<rect id="Rectangle_118-2" x="402" y="814" class="st0" width="100" height="100"/>
			<g id="Group_50-2">
				<path id="Path_511-2" class="st1" d="M401,810h100c0,0,1.2,21.4,0,50.5c-1.2,29.2-6.1,49.5-6.1,49.5H391.5
					c0,0,8.4-24.5,9.5-49.5S401,810,401,810z"/>
				<g id="Group_49-2" transform="translate(-4.895 4.846)">
					<path id="Subtraction_1-2" class="st2" d="M457.9,813.6L457.9,813.6l-3.8-5.9l2.4-1.2l2.3,6.7L457.9,813.6L457.9,813.6z"/>
					
						<ellipse id="Ellipse_55-2" transform="matrix(0.9272 -0.3746 0.3746 0.9272 -269.0636 229.422)" class="st3" cx="455.6" cy="806.8" rx="6.3" ry="4.9"/>
					<path id="Path_512-2" class="st4" d="M454.9,800.7l3.8,4.1c0.3,1.5-0.4,3-1.7,3.8c-1.4,0.7-3.2,0.7-4.6,0L451,803L454.9,800.7z
						"/>
					
						<ellipse id="Ellipse_54-2" transform="matrix(0.9272 -0.3746 0.3746 0.9272 -267.3262 228.1231)" class="st5" cx="453.1" cy="801.7" rx="4.6" ry="3.7"/>
				</g>
			</g>
		</g>
		<text transform="matrix(1 0 0 1 587.9618 862.4305)" class="st6 st7 st8">Compo-</text>
		<text transform="matrix(1 0 0 1 597.4831 882.8588)" class="st6 st7 st8">sition</text>
	</g>
	<g id="Group_91" transform="translate(-12 -29.425)">
		<g id="Group_56" transform="translate(316 27.627)">
			<rect id="Rectangle_118-3" x="402" y="814" class="st0" width="100" height="100"/>
			<g id="Group_50-3">
				<path id="Path_511-3" class="st1" d="M401,810h100c0,0,1.2,21.4,0,50.5c-1.2,29.2-6.1,49.5-6.1,49.5H391.5
					c0,0,8.4-24.5,9.5-49.5S401,810,401,810z"/>
				<g id="Group_49-3" transform="translate(-4.895 4.846)">
					<path id="Subtraction_1-3" class="st2" d="M457.9,813.6L457.9,813.6l-3.8-5.9l2.4-1.2l2.3,6.7L457.9,813.6L457.9,813.6z"/>
					
						<ellipse id="Ellipse_55-3" transform="matrix(0.9272 -0.3746 0.3746 0.9272 -269.0636 229.422)" class="st3" cx="455.6" cy="806.8" rx="6.3" ry="4.9"/>
					<path id="Path_512-3" class="st4" d="M454.9,800.7l3.8,4.1c0.3,1.5-0.4,3-1.7,3.8c-1.4,0.7-3.2,0.7-4.6,0L451,803L454.9,800.7z
						"/>
					
						<ellipse id="Ellipse_54-3" transform="matrix(0.9272 -0.3746 0.3746 0.9272 -267.3262 228.1231)" class="st5" cx="453.1" cy="801.7" rx="4.6" ry="3.7"/>
				</g>
			</g>
		</g>
		<text transform="matrix(1 0 0 1 723.8995 895.7543)" class="st6 st7 st8">Schetsen</text>
	</g>
	<g id="Group_92" transform="translate(-12 -29.425)">
		<g id="Group_57" transform="translate(479 5)">
			<rect id="Rectangle_118-4" x="402" y="814" class="st0" width="100" height="100"/>
			<g id="Group_50-4">
				<path id="Path_511-4" class="st1" d="M401,810h100c0,0,1.2,21.4,0,50.5c-1.2,29.2-6.1,49.5-6.1,49.5H391.5
					c0,0,8.4-24.5,9.5-49.5S401,810,401,810z"/>
				<g id="Group_49-4" transform="translate(-4.895 4.846)">
					<path id="Subtraction_1-4" class="st2" d="M457.9,813.6L457.9,813.6l-3.8-5.9l2.4-1.2l2.3,6.7L457.9,813.6L457.9,813.6z"/>
					
						<ellipse id="Ellipse_55-4" transform="matrix(0.9272 -0.3746 0.3746 0.9272 -269.0636 229.422)" class="st3" cx="455.6" cy="806.8" rx="6.3" ry="4.9"/>
					<path id="Path_512-4" class="st4" d="M454.9,800.7l3.8,4.1c0.3,1.5-0.4,3-1.7,3.8c-1.4,0.7-3.2,0.7-4.6,0L451,803L454.9,800.7z
						"/>
					
						<ellipse id="Ellipse_54-4" transform="matrix(0.9272 -0.3746 0.3746 0.9272 -267.3262 228.1231)" class="st5" cx="453.1" cy="801.7" rx="4.6" ry="3.7"/>
				</g>
			</g>
		</g>
		<text transform="matrix(1 0 0 1 889.5737 872.3723)" class="st6 st7 st8">Mock-up</text>
	</g>
</g>
</svg>
