<svg xmlns="http://www.w3.org/2000/svg" viewBox="0 0 183.83 183.83"><defs><style>.cls-1{fill:#f1fbfd;}.cls-2{fill:#eaac47;}.cls-3{fill:#fccca7;}.cls-4{fill:#efad7d;}.cls-5{fill:#fbc69a;}.cls-6{fill:#683c11;}.cls-7{fill:#601402;}.cls-8{fill:#432918;}.cls-9{fill:#fff;}.cls-10{fill:#b52d2d;}.cls-11{fill:#90a5db;}</style></defs><g id="Laag_2" data-name="Laag 2"><g id="Capa_1" data-name="Capa 1"><path class="cls-1" d="M91.92,0a91.92,91.92,0,1,0,91.91,91.92A91.91,91.91,0,0,0,91.92,0Z"/><path class="cls-2" d="M106.11,24.4s-35.63-4.59-56,22.12c-17.26,22.59-9,93-9,93l3,9.59a98.59,98.59,0,0,0,16,6.63l65.18-.45a98.85,98.85,0,0,0,13-5.35l3.63-11.21S160,36.62,106.11,24.4Z"/><path class="cls-3" d="M142.78,159.46c-8.14-5.09-31.89-4.16-34.51-12.49s0-24.06,0-24.06L92.2,117.42l-16.07,5.49s2.62,15.73,0,24.06-26.37,7.4-34.5,12.49a18,18,0,0,0-5.1,5.81A91.93,91.93,0,0,0,147.69,165,17.39,17.39,0,0,0,142.78,159.46Z"/><path class="cls-4" d="M76.13,122.91a86.62,86.62,0,0,1,1.11,11.31c3.27,3.72,14.72,4.23,14.87,4.23s11.6-.61,15.06-4.38a85.37,85.37,0,0,1,1.1-11.16l-15.94-11Z"/><path class="cls-3" d="M48.07,75.49c-5,1.46-3.87,9-3.87,11.84s4.21,12.77,7,13.87c7.15,2.77,7.16-7.66,7.16-7.66V81.42S53.11,74,48.07,75.49Z"/><path class="cls-3" d="M136.21,75.49c-5-1.46-10.32,5.91-10.32,5.91V93.54s0,10.75,7.15,7.66c2.77-1.2,7-11.06,7-13.87S141.25,77,136.21,75.49Z"/><path class="cls-3" d="M116.22,36.59c-6.5-5.41-15.36-8.12-24.23-8.12s-17.74,2.71-24.23,8.12C54.24,47.85,53.83,60.25,53.83,78.28s1.23,23.13,1.23,23.13,3.23,13.29,6,16.79S71.6,126.68,80.83,132c6,3.46,10.69,3.49,11.16,3.43s5.16,0,11.16-3.43c9.23-5.33,16.94-10.31,19.74-13.81s6-16.79,6-16.79,1.23-5.1,1.23-23.13S129.74,47.85,116.22,36.59Z"/><path class="cls-5" d="M116.22,36.59c-6.5-5.41-15.36-8.12-24.23-8.12v107c.47.06,5.16,0,11.16-3.43,9.23-5.33,16.94-10.31,19.74-13.81s6-16.79,6-16.79,1.23-5.1,1.23-23.13S129.74,47.85,116.22,36.59Z"/><path class="cls-6" d="M75.06,80.63a4.58,4.58,0,1,0,4.58,4.58A4.58,4.58,0,0,0,75.06,80.63Z"/><path class="cls-7" d="M109.9,72.28c-5.11,0-8.5,3.58-9.87,5.38S105,76.53,109.59,76a26.29,26.29,0,0,1,13.08,2.34S117.14,72.35,109.9,72.28Z"/><path class="cls-8" d="M108.91,80.63a4.58,4.58,0,1,0,4.58,4.58A4.58,4.58,0,0,0,108.91,80.63Z"/><path class="cls-8" d="M75.09,80.59a4.58,4.58,0,1,0,4.58,4.58A4.58,4.58,0,0,0,75.09,80.59Z"/><path class="cls-8" d="M110.31,82.79l-.28,4s3.88-.22,5.24-1.13,1.52-3.58.88-4.25A7.54,7.54,0,0,1,110.31,82.79Z"/><path class="cls-7" d="M74.07,72.24c-7.24.07-12.76,6.09-12.76,6.09A26.29,26.29,0,0,1,74.39,76c4.63.5,10.92,3.44,9.56,1.64S79.18,72.19,74.07,72.24Z"/><path class="cls-8" d="M67.83,81.36c-.64.68-.49,3.33.88,4.25S74,86.74,74,86.74l-.28-4A7.54,7.54,0,0,1,67.83,81.36Z"/><polygon class="cls-9" points="92.21 111.46 85.55 111.37 80.72 111.24 80.74 111.72 86.44 116.32 98.62 115.52 103.88 111.72 99.7 111.26 92.21 111.46"/><path class="cls-9" d="M92.07,111.74l-8.24-.39-.69.23s-.36,2.68,9.26,2.62c9.79-.06,8.68-2.55,8.68-2.55Z"/><path class="cls-10" d="M92.68,110.16c-.81.09-1.51-.71-3.57-.64a93.15,93.15,0,0,0-9.27,1.42s1.72,1.62,12.55,1.68c11.73.07,12.29-1.4,12.29-1.4s-6-1.78-8.16-1.71A22.41,22.41,0,0,0,92.68,110.16Z"/><path class="cls-10" d="M92.35,115.74a17.11,17.11,0,0,1-11.16-4.33l-1.35-.47s3.92,8.83,12.51,8.75a12.82,12.82,0,0,0,12.33-8.47l-1.29.43S100,115.68,92.35,115.74Z"/><path class="cls-2" d="M122.67,38.08A42,42,0,0,0,92,26.92c-19.29.83-35,18-35,18l-2.19,4.64c-2.12,1.06-3.93,21.85-4.27,25.74-.52,6.06,4.05,16.45,4.05,16.45a80.61,80.61,0,0,1,6.5-22.92c27-5,52-20.5,52-20.5s10.79,19.5,12.14,23.09c1.59,4.2,3.67,19.91,3.67,19.91s3.59-9.33,4.16-15.74c1.26-14.34-7.16-31.76-7.16-31.76Z"/><path class="cls-11" d="M67.44,172.28c-12.33-3.7-9.07-17.36-9.07-17.36-6.53,1.22-13.17,2.29-16.76,4.54a17.82,17.82,0,0,0-5.08,5.78A91.49,91.49,0,0,0,92,183.83h.32C89.51,176.88,79.77,176,67.44,172.28Z"/><path class="cls-11" d="M142.75,159.46c-3.59-2.25-10.23-3.32-16.75-4.54,0,0,3.25,13.66-9.08,17.36s-22.07,4.6-24.83,11.55A91.53,91.53,0,0,0,147.69,165,17.47,17.47,0,0,0,142.75,159.46Z"/></g></g></svg>