<svg xmlns="http://www.w3.org/2000/svg" width="276" height="408" viewBox="0 0 276 408">
  <g id="Group_106" data-name="Group 106" transform="translate(-1575 -465)">
    <rect id="Rectangle_136" data-name="Rectangle 136" width="17" height="274" transform="translate(1704 599)" fill="#b4b4b4"/>
    <g id="Group_80" data-name="Group 80" transform="translate(1575 465)">
      <g id="Group_74" data-name="Group 74" transform="translate(0 0)">
        <rect id="Rectangle_125" data-name="Rectangle 125" width="276" height="179" rx="27" fill="#8bbfcc"/>
        <g id="Rectangle_126" data-name="Rectangle 126" transform="translate(5 5)" fill="none" stroke="#fafafa" stroke-width="5">
          <rect width="264" height="126" rx="27" stroke="none"/>
          <rect x="2.5" y="2.5" width="259" height="121" rx="24.5" fill="none"/>
        </g>
      </g>
      <g id="Group_75" data-name="Group 75" transform="translate(54.221 27.356)">
        <rect id="Rectangle_127" data-name="Rectangle 127" width="114.615" height="20.804" transform="translate(0 31.611)" fill="#fff"/>
        <path id="Path_521" data-name="Path 521" d="M40.367.881a1.976,1.976,0,0,1,3.29,0L83.691,61.044a1.976,1.976,0,0,1-1.645,3.071L41.679,56.442l-39.7,7.673A1.976,1.976,0,0,1,.334,61.044Z" transform="translate(167.367 0) rotate(90)" fill="#fff"/>
      </g>
      <text id="Naar_Aref_Hof" data-name="Naar Aref Hof" transform="translate(138 160)" fill="#fafafa" font-size="23" font-family="Poppins-Regular, Poppins" letter-spacing="0.05em"><tspan x="-82.846" y="0">Naar Aref Hof</tspan></text>
    </g>
  </g>
</svg>
