<?xml version="1.0" encoding="utf-8"?>
<!-- Generator: Adobe Illustrator 26.2.0, SVG Export Plug-In . SVG Version: 6.00 Build 0)  -->
<svg version="1.1" id="Layer_1" xmlns="http://www.w3.org/2000/svg" xmlns:xlink="http://www.w3.org/1999/xlink" x="0px" y="0px"
	 viewBox="0 0 1802 947.6" style="enable-background:new 0 0 1802 947.6;" xml:space="preserve">
<style type="text/css">
	.st0{fill:#FEFAED;}
	.st1{fill:#FBF4DE;}
	.st2{fill:#F4E8C3;}
	.st3{fill:#F0F0F0;}
</style>
<g id="Group_35" transform="translate(-37 0)">
	<rect id="Rectangle_38" x="148.9" y="-204.5" class="st0" width="1553" height="46"/>
	<rect id="Rectangle_39" x="1701.9" y="-204.5" class="st1" width="126" height="46"/>
	<rect id="Rectangle_1" x="162" y="65.5" class="st0" width="1553" height="816"/>
	<rect id="Rectangle_37" x="22.9" y="-204" class="st1" width="126" height="45"/>
	<path id="Path_53" class="st1" d="M37,0.5l125,65l0,816.1l-125,66L37,0.5z"/>
	<path id="Path_56" class="st1" d="M1839,0L1715,65.5l0,816l124.1,66.1L1839,0z"/>
	<path id="Path_55" class="st2" d="M1839,0.6l-124.1,65L162,65.5L37,0.6L1839,0.6z"/>
	<path id="Path_57" class="st3" d="M1839,947.6l-124-66.1l-1552.9,0.1L37,947.6L1839,947.6z"/>
</g>
</svg>
