<svg xmlns="http://www.w3.org/2000/svg" width="1846" height="1081" viewBox="0 0 1846 1081">
  <g id="Group_35" data-name="Group 35" transform="translate(-37 0)">
    <rect id="Rectangle_38" data-name="Rectangle 38" width="1553" height="46" transform="translate(184)" fill="#fefaed"/>
    <rect id="Rectangle_41" data-name="Rectangle 41" width="1553" height="46" transform="translate(184 1035)" fill="#fefaed"/>
    <rect id="Rectangle_39" data-name="Rectangle 39" width="126" height="46" transform="translate(1736)" fill="#fbf4de"/>
    <rect id="Rectangle_42" data-name="Rectangle 42" width="126" height="46" transform="translate(1736 1035)" fill="#fbf4de"/>
    <rect id="Rectangle_1" data-name="Rectangle 1" width="1553" height="816" transform="translate(184 132)" fill="#fefaed"/>
    <path id="Union_1" data-name="Union 1" d="M1824-1871v-44H22v44H0V-2951H22v45H1824v-45h22v1080Zm0-66v-947H22v947Z" transform="translate(37 2951)" fill="#fafafa"/>
    <rect id="Rectangle_37" data-name="Rectangle 37" width="126" height="45" transform="translate(59)" fill="#fbf4de"/>
    <rect id="Rectangle_40" data-name="Rectangle 40" width="125" height="44" transform="translate(59 1036)" fill="#fbf4de"/>
    <path id="Path_53" data-name="Path 53" d="M.993-71.011,126.023-6.037l.016,816.108L1,876.071Z" transform="translate(58 138)" fill="#fbf4de"/>
    <path id="Path_56" data-name="Path 56" d="M126.023-71.011,1.966-5.462,1.974,810.5l124.078,66.121Z" transform="translate(1735.007 137.47)" fill="#fbf4de"/>
    <path id="Path_55" data-name="Path 55" d="M2.024-103.9,67.035,20.232l-.073,1552.918L2.01,1698.128Z" transform="translate(1757.14 65.003) rotate(90)" fill="rgba(247,227,161,0.7)"/>
    <path id="Path_57" data-name="Path 57" d="M.014,1802.025,66.1,1678,66.03,125.084,0,0Z" transform="translate(58.987 1014.071) rotate(-90)" fill="#f0f0f0"/>
  </g>
</svg>
