<?xml version="1.0" encoding="utf-8"?>
<!-- Generator: Adobe Illustrator 26.3.1, SVG Export Plug-In . SVG Version: 6.00 Build 0)  -->
<svg version="1.1" id="Laag_1" xmlns="http://www.w3.org/2000/svg" xmlns:xlink="http://www.w3.org/1999/xlink" x="0px" y="0px"
	 viewBox="0 0 977 221" style="enable-background:new 0 0 977 221;" xml:space="preserve">
<style type="text/css">
	.st0{fill:#8BBFCC;}
	.st1{fill:none;}
	.st2{fill:#FAFAFA;}
	.st3{enable-background:new    ;}
</style>
<g id="Group_69" transform="translate(-4332 -1458)">
	<g id="Rectangle_125">
		<path class="st0" d="M4359,1458h923c14.9,0,27,12.1,27,27v167c0,14.9-12.1,27-27,27h-923c-14.9,0-27-12.1-27-27v-167
			C4332,1470.1,4344.1,1458,4359,1458z"/>
	</g>
	<g id="Rectangle_126" transform="translate(4362 1484)">
		<g>
			<path class="st1" d="M27,0h864c14.9,0,27,12.1,27,27v85c0,14.9-12.1,27-27,27H27c-14.9,0-27-12.1-27-27V27C0,12.1,12.1,0,27,0z"
				/>
		</g>
		<g>
			<path class="st2" d="M891,139H27c-14.9,0-27-12.1-27-27V27C0,12.1,12.1,0,27,0h864c14.9,0,27,12.1,27,27v85
				C918,126.9,905.9,139,891,139z M27,5C14.9,5,5,14.9,5,27v85c0,12.1,9.9,22,22,22h864c12.1,0,22-9.9,22-22V27c0-12.1-9.9-22-22-22
				H27z"/>
		</g>
	</g>
	<g class="st3">
		<path class="st2" d="M4704.4,1567.1h-21.3l-3.9,10.9h-6.7l17.6-48.5h7.4l17.6,48.5h-6.7L4704.4,1567.1z M4693.8,1537.3l-8.8,24.6
			h17.6L4693.8,1537.3z"/>
		<path class="st2" d="M4732.6,1578h-6.4v-38.4h6.4v6.2c2.2-4.3,6.3-6.9,12.4-6.9v6.6h-1.7c-6.1,0-10.7,2.7-10.7,11.6V1578z"/>
		<path class="st2" d="M4772.4,1578.6c-10.9,0-19-7.7-19-19.9c0-12.1,7.8-19.7,19-19.7c11.1,0,18.4,7.8,18.4,18.3
			c0,1.4-0.1,2.5-0.2,3.9H4760c0.5,7.8,6,12,12.5,12c5.7,0,9.4-2.9,10.8-7.1h6.9C4788.1,1573.2,4782,1578.6,4772.4,1578.6z
			 M4760,1556h24.2c0.1-7.5-5.5-11.6-12.1-11.6C4765.9,1544.4,4760.7,1548.5,4760,1556z"/>
		<path class="st2" d="M4803.9,1544.9h-5v-5.3h5v-2.7c0-8.5,4.2-12.4,14-12.4v5.3c-5.7,0-7.6,2.1-7.6,7.1v2.7h8.1v5.3h-8.1v33.1
			h-6.4V1544.9z"/>
		<path class="st2" d="M4882.7,1555.9h-24.9v22.1h-6.4v-48.8h6.4v21.4h24.9v-21.4h6.4v48.8h-6.4V1555.9z"/>
		<path class="st2" d="M4920.1,1578.6c-10.9,0-19.1-7.7-19.1-19.9c0-12.1,8.5-19.7,19.4-19.7c10.9,0,19.4,7.6,19.4,19.7
			C4939.7,1570.9,4931,1578.6,4920.1,1578.6z M4920.1,1573c6.7,0,13.2-4.6,13.2-14.3c0-9.7-6.4-14.2-13-14.2
			c-6.7,0-12.8,4.6-12.8,14.2C4907.5,1568.5,4913.4,1573,4920.1,1573z"/>
		<path class="st2" d="M4952.8,1544.9h-5v-5.3h5v-2.7c0-8.5,4.2-12.4,14-12.4v5.3c-5.7,0-7.6,2.1-7.6,7.1v2.7h8.1v5.3h-8.1v33.1
			h-6.4V1544.9z"/>
	</g>
	<g class="st3">
		<path class="st2" d="M4670,1658.2c-4.5,0-8-3.4-8-8.2s3.5-8.2,8-8.2c4.5,0,8,3.4,8,8.2S4674.6,1658.2,4670,1658.2z M4670,1656.3
			c3.4,0,5.9-2.5,5.9-6.4c0-3.9-2.5-6.4-5.9-6.4s-5.9,2.4-5.9,6.4C4664.1,1653.9,4666.7,1656.3,4670,1656.3z"/>
		<path class="st2" d="M4691.2,1650.9c0-2.6-1.4-3.9-3.5-3.9c-2.1,0-3.6,1.3-3.6,4v7h-2.1v-12.6h2.1v1.8c0.8-1.3,2.3-2,4-2
			c2.9,0,5.2,1.8,5.2,5.4v7.4h-2.1V1650.9z"/>
		<path class="st2" d="M4703.1,1645.2c2,0,3.8,1,4.7,2.5v-6.7h2.1v17h-2.1v-2.4c-0.8,1.4-2.4,2.6-4.7,2.6c-3.4,0-6-2.6-6-6.6
			C4697.1,1647.7,4699.7,1645.2,4703.1,1645.2z M4703.5,1647c-2.3,0-4.3,1.7-4.3,4.6c0,3,2,4.7,4.3,4.7s4.3-1.7,4.3-4.7
			C4707.8,1648.8,4705.8,1647,4703.5,1647z"/>
		<path class="st2" d="M4720,1658.2c-3.6,0-6.2-2.5-6.2-6.5c0-4,2.6-6.5,6.2-6.5c3.7,0,6,2.6,6,6c0,0.5,0,0.8-0.1,1.3h-10.1
			c0.2,2.6,2,4,4.1,4c1.9,0,3.1-1,3.5-2.3h2.3C4725.2,1656.4,4723.1,1658.2,4720,1658.2z M4715.9,1650.8h8c0-2.5-1.8-3.8-4-3.8
			C4717.9,1647,4716.2,1648.3,4715.9,1650.8z"/>
		<path class="st2" d="M4732.1,1658h-2.1v-12.6h2.1v2c0.7-1.4,2.1-2.3,4.1-2.3v2.2h-0.6c-2,0-3.5,0.9-3.5,3.8V1658z"/>
		<path class="st2" d="M4744.9,1645.2c2,0,3.8,1,4.7,2.5v-6.7h2.1v17h-2.1v-2.4c-0.8,1.4-2.4,2.6-4.7,2.6c-3.4,0-6-2.6-6-6.6
			C4738.9,1647.7,4741.5,1645.2,4744.9,1645.2z M4745.3,1647c-2.3,0-4.3,1.7-4.3,4.6c0,3,2,4.7,4.3,4.7s4.3-1.7,4.3-4.7
			C4749.6,1648.8,4747.6,1647,4745.3,1647z"/>
		<path class="st2" d="M4761.9,1658.2c-3.6,0-6.2-2.5-6.2-6.5c0-4,2.6-6.5,6.2-6.5c3.7,0,6,2.6,6,6c0,0.5,0,0.8-0.1,1.3h-10.1
			c0.2,2.6,2,4,4.1,4c1.9,0,3.1-1,3.5-2.3h2.3C4767,1656.4,4765,1658.2,4761.9,1658.2z M4757.8,1650.8h8c0-2.5-1.8-3.8-4-3.8
			C4759.7,1647,4758,1648.3,4757.8,1650.8z"/>
		<path class="st2" d="M4777.3,1658.2c-3.6,0-6.2-2.5-6.2-6.5c0-4,2.6-6.5,6.2-6.5c3.7,0,6,2.6,6,6c0,0.5,0,0.8-0.1,1.3h-10.1
			c0.2,2.6,2,4,4.1,4c1.9,0,3.1-1,3.5-2.3h2.3C4782.4,1656.4,4780.4,1658.2,4777.3,1658.2z M4773.2,1650.8h8c0-2.5-1.8-3.8-4-3.8
			C4775.1,1647,4773.4,1648.3,4773.2,1650.8z"/>
		<path class="st2" d="M4787.2,1641h2.1v17h-2.1V1641z"/>
		<path class="st2" d="M4802.1,1645.4l3.9,10.7l3.9-10.7h2.2l-4.9,12.6h-2.4l-4.9-12.6H4802.1z"/>
		<path class="st2" d="M4820.6,1645.2c2.3,0,4,1.2,4.7,2.5v-2.3h2.1v12.6h-2.1v-2.3c-0.8,1.4-2.4,2.6-4.7,2.6c-3.4,0-6-2.6-6-6.6
			C4814.6,1647.7,4817.2,1645.2,4820.6,1645.2z M4821,1647c-2.3,0-4.3,1.7-4.3,4.6c0,3,2,4.7,4.3,4.7s4.3-1.7,4.3-4.7
			C4825.3,1648.8,4823.3,1647,4821,1647z"/>
		<path class="st2" d="M4841.3,1650.9c0-2.6-1.4-3.9-3.5-3.9c-2.1,0-3.6,1.3-3.6,4v7h-2.1v-12.6h2.1v1.8c0.8-1.3,2.3-2,4-2
			c2.9,0,5.2,1.8,5.2,5.4v7.4h-2.1V1650.9z"/>
		<path class="st2" d="M4855.2,1642.1h2.3l5.9,13.2l5.9-13.2h2.2v15.9h-2.1v-11.9l-5.3,11.9h-1.5l-5.3-11.9v11.9h-2.1V1642.1z"/>
		<path class="st2" d="M4885.7,1654.4h-7l-1.3,3.6h-2.2l5.8-15.9h2.4l5.8,15.9h-2.2L4885.7,1654.4z M4882.2,1644.6l-2.9,8.1h5.8
			L4882.2,1644.6z"/>
		<path class="st2" d="M4891.8,1642h10.9v1.7h-4.4v14.3h-2.1v-14.3h-4.4V1642z"/>
		<path class="st2" d="M4906,1648.7h9.2v1.8h-9.2V1648.7z"/>
		<path class="st2" d="M4919.3,1642h10.9v1.7h-4.4v14.3h-2.1v-14.3h-4.4V1642z"/>
		<path class="st2" d="M4939.3,1658.2c-3.6,0-6.3-2.5-6.3-6.5c0-4,2.8-6.5,6.4-6.5c3.6,0,6.4,2.5,6.4,6.5
			C4945.8,1655.7,4942.9,1658.2,4939.3,1658.2z M4939.3,1656.4c2.2,0,4.3-1.5,4.3-4.7c0-3.2-2.1-4.7-4.3-4.7c-2.2,0-4.2,1.5-4.2,4.7
			C4935.2,1654.9,4937.2,1656.4,4939.3,1656.4z"/>
		<path class="st2" d="M4948.2,1645.4h2.1l2.9,10.6l3.1-10.6h2.1l3.1,10.6l2.9-10.6h2.1l-3.9,12.6h-2.2l-3-10l-3,10h-2.2
			L4948.2,1645.4z"/>
		<path class="st2" d="M4978.9,1650.9c0-2.6-1.4-3.9-3.5-3.9c-2.1,0-3.6,1.3-3.6,4v7h-2.1v-12.6h2.1v1.8c0.8-1.3,2.3-2,4-2
			c2.9,0,5.2,1.8,5.2,5.4v7.4h-2.1V1650.9z"/>
	</g>
</g>
</svg>
