<?xml version="1.0" encoding="utf-8"?>
<!-- Generator: Adobe Illustrator 25.4.6, SVG Export Plug-In . SVG Version: 6.00 Build 0)  -->
<svg version="1.1" id="Laag_1" xmlns="http://www.w3.org/2000/svg" xmlns:xlink="http://www.w3.org/1999/xlink" x="0px" y="0px"
	 viewBox="0 0 587.2 573.7" style="enable-background:new 0 0 587.2 573.7;" xml:space="preserve">
<style type="text/css">
	.st0{fill:none;}
	.st1{fill:#CFCFCF;}
	.st2{fill:#B3B3B3;}
	.st3{fill:#999999;}
	.st4{fill:#7C7C7C;}
	.st5{fill:#888888;}
	.st6{fill:#B6B6B4;}
	.st7{fill:#A4A4A3;}
	.st8{fill:#FFFFFF;}
	.st9{fill:#ADDFEB;}
	.st10{fill:#70A5AE;}
	.st11{fill:#292C33;}
	.st12{fill:#E48F8F;}
	.st13{fill:#F7E3A1;}
	.st14{fill:#B07272;}
	.st15{fill:#ECB4B4;}
	.st16{fill:none;stroke:#B07272;stroke-width:1.46;stroke-linecap:round;stroke-miterlimit:10;}
	.st17{fill:none;stroke:#B07272;stroke-width:1.41;stroke-linecap:round;stroke-miterlimit:10;}
	.st18{fill:#D69F33;}
</style>
<line class="st0" x1="173.5" y1="550.7" x2="173.5" y2="550.7"/>
<polygon class="st1" points="39.4,183.4 234.7,298.2 352.2,229.4 391.3,252.4 548,160.6 273.9,0 156.4,68.8 196,91.8 117.7,137.6 
	78.3,114.6 0,160.5 "/>
<polygon class="st2" points="0,160.5 0,435.8 234.5,573.7 234.7,298.2 "/>
<polygon class="st3" points="352.2,229.4 352.2,504.8 234.5,573.7 234.7,298.2 "/>
<polygon class="st4" points="352.2,229.4 391.3,252.4 391.6,527.8 352.2,504.8 "/>
<polygon class="st3" points="391.3,252.4 548,160.6 548,436 391.6,527.8 "/>
<polygon class="st5" points="156.4,68.8 156.2,115.1 196,91.8 "/>
<polygon class="st6" points="130.3,175.9 182.7,206.6 208.9,191.3 156.5,160.6 "/>
<polygon class="st4" points="208.9,191.3 208.9,197.7 182.7,213 182.7,206.6 "/>
<polygon class="st7" points="130.3,175.9 130.3,182.3 182.7,213 182.7,206.6 "/>
<polygon class="st6" points="169.6,153 222,183.6 248.1,168.3 195.8,137.6 "/>
<polygon class="st4" points="248.1,168.3 248.1,174.7 222,190.1 222,183.6 "/>
<polygon class="st7" points="169.6,153 169.6,159.4 222,190.1 222,183.6 "/>
<polygon class="st6" points="208.9,129.7 261.2,160.3 287.4,145 235,114.3 "/>
<polygon class="st4" points="287.4,145 287.4,151.4 261.2,166.7 261.2,160.3 "/>
<polygon class="st7" points="208.9,129.7 208.9,136.1 261.2,166.7 261.2,160.3 "/>
<polygon class="st8" points="94.8,263.4 94.8,468.4 38.1,435.9 38.1,231 "/>
<polygon class="st9" points="89.9,460.9 89.9,267.1 43,240.2 43,433.9 "/>
<polygon class="st10" points="48.1,431.4 48,243.3 43,240.2 43,433.9 89.9,460.9 89.9,455.4 "/>
<polygon class="st8" points="177.2,307.7 177.2,512.8 120.6,480.2 120.6,275.3 "/>
<polygon class="st9" points="172.4,505.2 172.4,311.4 125.4,284.5 125.4,478.2 "/>
<polygon class="st10" points="130.5,475.8 130.4,287.6 125.4,284.5 125.4,478.2 172.4,505.2 172.4,499.8 "/>
<polygon class="st11" points="430.5,504.9 430.5,413.2 508.8,367.3 508.8,459 "/>
<polygon class="st12" points="542.6,366 442.8,423.6 410.5,405 510.3,347.3 "/>
<polygon class="st12" points="542.6,375.8 442.8,433.4 410.5,414.8 510.3,357.1 "/>
<polygon class="st13" points="459.4,414 442.8,423.6 410.5,405 427.1,395.3 "/>
<polygon class="st13" points="492.6,394.8 476,404.4 443.7,385.8 460.3,376.2 "/>
<polygon class="st13" points="525.8,375.7 509.2,385.3 476.8,366.6 493.5,357 "/>
<polygon class="st14" points="442.8,433.4 442.8,423.6 410.5,405 410.5,414.8 "/>
<polygon class="st15" points="442.8,423.6 542.6,366 542.6,375.8 442.8,433.4 "/>
<path class="st13" d="M427.8,346.2l4.4-1c-0.3,1.5-0.7,3-1.4,4.3c-0.6,1.3-1.4,2.5-2.3,3.5c-1,1.1-2.2,2-3.6,2.8
	c-1.3,0.8-2.8,1.4-4.3,1.6c-1.1,0-2.2-0.5-2.9-1.4c-0.8-1-1.2-2.7-1.2-5c0-2.9,0.7-5.7,2.1-8.3c1.4-2.5,3.5-4.5,6-5.9
	c2-1.2,3.6-1.6,4.8-1.3c1.2,0.3,2,1.2,2.6,2.9l-4.4,3.7c-0.1-0.4-0.2-0.7-0.5-1c-0.3-0.3-0.6-0.4-1-0.4c-0.5,0-0.9,0.2-1.3,0.4
	c-1.2,0.7-2.1,1.8-2.6,3.1c-0.5,1.3-0.7,2.7-0.7,4c0,2.1,0.3,3.3,0.8,3.8c0.5,0.4,1.3,0.4,2.3-0.2c0.9-0.5,1.7-1.3,2.2-2.2
	C427.3,348.4,427.6,347.3,427.8,346.2z"/>
<path class="st13" d="M434.8,331.2l5-2.9v18.6l-5,2.9V331.2z"/>
<path class="st13" d="M443.3,326.2l4.6-2.7l6.1,6.8V320l4.7-2.7v18.6l-4.7,2.7l-6-6.7v10.2l-4.7,2.7L443.3,326.2z"/>
<path class="st13" d="M462,315.4l13.3-7.7v4l-8.3,4.8v3l7.7-4.5v3.8l-7.7,4.5v3.7l8.6-5v4.2L462,334L462,315.4z"/>
<path class="st13" d="M478.2,306.1l6.5-3.8l2.5,9.8l2.5-12.8l6.5-3.8v18.6l-4.1,2.4v-14.2l-3.1,16l-3.7,2.1l-3.1-12.4v14.2l-4.1,2.4
	V306.1z"/>
<path class="st13" d="M509.4,303.6l-5.6,3.3l-0.8,3.5l-5.1,2.9l6-22.1l5.4-3.1l6,15.1l-5.2,3L509.4,303.6z M508.4,300.2l-1.8-5.6
	l-1.8,7.7L508.4,300.2z"/>
<polygon class="st12" points="430.5,504.9 508.6,550.5 587.2,504.7 508.8,459 "/>
<path class="st16" d="M547.1,450.5c0,0,17.9,33,37.6,21.7"/>
<path class="st17" d="M510.4,429.8c0,0,17.3,31.9,36.2,20.9"/>
<path class="st18" d="M585.6,469.8v34.5c0,0.2-0.3,0.4-0.8,0.4s-0.8-0.2-0.8-0.4v-34.5H585.6z"/>
<path class="st18" d="M547.6,448.2v34.5c0,0.2-0.3,0.4-0.8,0.4s-0.8-0.2-0.8-0.4v-34.5H547.6z"/>
<path class="st18" d="M511.2,426.8v34.5c0,0.2-0.3,0.4-0.8,0.4s-0.8-0.2-0.8-0.4v-34.5H511.2z"/>
<path class="st16" d="M470.8,495.8c0,0,17.9,33,37.6,21.7"/>
<path class="st17" d="M434,475.1c0,0,17.3,31.9,36.2,20.9"/>
<path class="st18" d="M509.3,515.1v34.5c0,0.2-0.3,0.4-0.8,0.4s-0.8-0.2-0.8-0.4v-34.5H509.3z"/>
<path class="st18" d="M471.2,493.5v34.5c0,0.2-0.3,0.4-0.8,0.4s-0.8-0.2-0.8-0.4v-34.5H471.2z"/>
<path class="st18" d="M434.8,472v34.5c0,0.2-0.3,0.4-0.8,0.4s-0.8-0.2-0.8-0.4V472H434.8z"/>
<polygon class="st8" points="327.2,289.5 327.2,494.5 270.6,527.3 270.6,322.4 "/>
<polygon class="st9" points="322.4,492.5 322.4,298.7 275.5,326 275.5,519.7 "/>
<polygon class="st10" points="280.6,511.4 280.5,323.3 275.5,326 275.5,519.7 322.4,492.5 322.4,487.1 "/>
</svg>
