<?xml version="1.0" encoding="UTF-8"?><svg id="Laag_2" xmlns="http://www.w3.org/2000/svg" viewBox="0 0 646.92 620.07"><defs><style>.cls-1{fill:#fff;}.cls-2{fill:#d69f33;}.cls-3{fill:#f7e3a1;}.cls-4{fill:#7c7c7c;}.cls-5{fill:#cfcfcf;}.cls-6{fill:#addfeb;}.cls-7{fill:#a4a4a3;}.cls-8{fill:#292c33;}.cls-9{fill:#b6b6b4;}.cls-10{fill:#70a5ae;}.cls-11{fill:#e48f8f;}.cls-12{fill:#999;}.cls-13{fill:#b3b3b3;}.cls-14{stroke-width:1.46px;}.cls-14,.cls-15{fill:none;stroke:#b07272;stroke-linecap:round;stroke-miterlimit:10;}.cls-16{fill:#b07272;}.cls-15{stroke-width:1.41px;}.cls-17{fill:#888;}.cls-18{fill:#ecb4b4;}</style></defs><g id="Laag_3"><g><path class="cls-1" d="M293.9,23.18l274.1,160.6V459.18l-39.2,23,78.4,45.7-78.6,45.8-78.1-45.6-38.9,22.9-39.4-23-117.7,68.9L20,458.98V183.68l78.3-45.9,39.4,23,38.5-22.5,.2-46.3L293.9,23.18m0-23.18l-10.11,5.92-117.5,68.8-9.84,5.76-.05,11.41-.15,34.88-18.56,10.84-29.31-17.11-10.1-5.9-10.09,5.92L9.89,166.42l-9.89,5.8V470.42l9.86,5.8,234.5,137.9,10.12,5.95,10.13-5.93,107.61-62.99,29.3,17.11,10.13,5.91,10.1-5.95,28.79-16.95,67.97,39.69,10.07,5.88,10.08-5.87,78.6-45.8,29.65-17.28-29.65-17.28-48.85-28.48,9.7-5.69,9.88-5.8V172.32l-9.89-5.79L304.01,5.92l-10.11-5.92h0Z"/><polygon class="cls-5" points="59.4 206.58 254.7 321.38 372.2 252.58 411.3 275.58 568 183.78 293.9 23.18 176.4 91.98 216 114.98 137.7 160.78 98.3 137.78 20 183.68 59.4 206.58"/><polygon class="cls-13" points="20 183.68 20 458.98 254.5 596.88 254.7 321.38 20 183.68"/><polygon class="cls-12" points="372.2 252.58 372.2 527.98 254.5 596.88 254.7 321.38 372.2 252.58"/><polygon class="cls-4" points="372.2 252.58 411.3 275.58 411.6 550.98 372.2 527.98 372.2 252.58"/><polygon class="cls-12" points="411.3 275.58 568 183.78 568 459.18 411.6 550.98 411.3 275.58"/><polygon class="cls-17" points="176.4 91.98 176.2 138.28 216 114.98 176.4 91.98"/><polygon class="cls-9" points="150.3 199.08 202.7 229.78 228.9 214.48 176.5 183.78 150.3 199.08"/><polygon class="cls-4" points="228.9 214.48 228.9 220.88 202.7 236.18 202.7 229.78 228.9 214.48"/><polygon class="cls-7" points="150.3 199.08 150.3 205.48 202.7 236.18 202.7 229.78 150.3 199.08"/><polygon class="cls-9" points="189.6 176.18 242 206.78 268.1 191.48 215.8 160.78 189.6 176.18"/><polygon class="cls-4" points="268.1 191.48 268.1 197.88 242 213.28 242 206.78 268.1 191.48"/><polygon class="cls-7" points="189.6 176.18 189.6 182.58 242 213.28 242 206.78 189.6 176.18"/><polygon class="cls-9" points="228.9 152.88 281.2 183.48 307.4 168.18 255 137.48 228.9 152.88"/><polygon class="cls-4" points="307.4 168.18 307.4 174.58 281.2 189.88 281.2 183.48 307.4 168.18"/><polygon class="cls-7" points="228.9 152.88 228.9 159.28 281.2 189.88 281.2 183.48 228.9 152.88"/><polygon class="cls-1" points="114.8 286.58 114.8 491.58 58.1 459.08 58.1 254.18 114.8 286.58"/><polygon class="cls-6" points="109.9 484.08 109.9 290.28 63 263.38 63 457.08 109.9 484.08"/><polygon class="cls-10" points="68.1 454.58 68 266.48 63 263.38 63 457.08 109.9 484.08 109.9 478.58 68.1 454.58"/><polygon class="cls-1" points="197.2 330.88 197.2 535.98 140.6 503.38 140.6 298.48 197.2 330.88"/><polygon class="cls-6" points="192.4 528.38 192.4 334.58 145.4 307.68 145.4 501.38 192.4 528.38"/><polygon class="cls-10" points="150.5 498.98 150.4 310.78 145.4 307.68 145.4 501.38 192.4 528.38 192.4 522.98 150.5 498.98"/><polygon class="cls-8" points="450.5 528.08 450.5 436.38 528.8 390.48 528.8 482.18 450.5 528.08"/><polygon class="cls-11" points="562.6 389.18 462.8 446.78 430.5 428.18 530.3 370.48 562.6 389.18"/><polygon class="cls-11" points="562.6 398.98 462.8 456.58 430.5 437.98 530.3 380.28 562.6 398.98"/><polygon class="cls-3" points="479.4 437.18 462.8 446.78 430.5 428.18 447.1 418.48 479.4 437.18"/><polygon class="cls-3" points="512.6 417.98 496 427.58 463.7 408.98 480.3 399.38 512.6 417.98"/><polygon class="cls-3" points="545.8 398.88 529.2 408.48 496.8 389.78 513.5 380.18 545.8 398.88"/><polygon class="cls-16" points="462.8 456.58 462.8 446.78 430.5 428.18 430.5 437.98 462.8 456.58"/><polygon class="cls-18" points="462.8 446.78 562.6 389.18 562.6 398.98 462.8 456.58 462.8 446.78"/><path class="cls-3" d="M447.8,369.38l4.4-1c-.3,1.5-.7,3-1.4,4.3-.6,1.3-1.4,2.5-2.3,3.5-1,1.1-2.2,2-3.6,2.8-1.3,.8-2.8,1.4-4.3,1.6-1.1,0-2.2-.5-2.9-1.4-.8-1-1.2-2.7-1.2-5,0-2.9,.7-5.7,2.1-8.3,1.4-2.5,3.5-4.5,6-5.9,2-1.2,3.6-1.6,4.8-1.3,1.2,.3,2,1.2,2.6,2.9l-4.4,3.7c-.1-.4-.2-.7-.5-1s-.6-.4-1-.4c-.5,0-.9,.2-1.3,.4-1.2,.7-2.1,1.8-2.6,3.1-.5,1.3-.7,2.7-.7,4,0,2.1,.3,3.3,.8,3.8,.5,.4,1.3,.4,2.3-.2,.9-.5,1.7-1.3,2.2-2.2,.5-1.2,.8-2.3,1-3.4Z"/><path class="cls-3" d="M454.8,354.38l5-2.9v18.6l-5,2.9v-18.6Z"/><path class="cls-3" d="M463.3,349.38l4.6-2.7,6.1,6.8v-10.3l4.7-2.7v18.6l-4.7,2.7-6-6.7v10.2l-4.7,2.7v-18.6Z"/><path class="cls-3" d="M482,338.58l13.3-7.7v4l-8.3,4.8v3l7.7-4.5v3.8l-7.7,4.5v3.7l8.6-5v4.2l-13.6,7.8v-18.6Z"/><path class="cls-3" d="M498.2,329.28l6.5-3.8,2.5,9.8,2.5-12.8,6.5-3.8v18.6l-4.1,2.4v-14.2l-3.1,16-3.7,2.1-3.1-12.4v14.2l-4.1,2.4v-18.5h.1Z"/><path class="cls-3" d="M529.4,326.78l-5.6,3.3-.8,3.5-5.1,2.9,6-22.1,5.4-3.1,6,15.1-5.2,3-.7-2.6Zm-1-3.4l-1.8-5.6-1.8,7.7,3.6-2.1Z"/><polygon class="cls-11" points="450.5 528.08 528.6 573.68 607.2 527.88 528.8 482.18 450.5 528.08"/><path class="cls-14" d="M567.1,473.68s17.9,33,37.6,21.7"/><path class="cls-15" d="M530.4,452.98s17.3,31.9,36.2,20.9"/><path class="cls-2" d="M605.6,492.98v34.5c0,.2-.3,.4-.8,.4s-.8-.2-.8-.4v-34.5h1.6Z"/><path class="cls-2" d="M567.6,471.38v34.5c0,.2-.3,.4-.8,.4s-.8-.2-.8-.4v-34.5h1.6Z"/><path class="cls-2" d="M531.2,449.98v34.5c0,.2-.3,.4-.8,.4s-.8-.2-.8-.4v-34.5h1.6Z"/><path class="cls-14" d="M490.8,518.98s17.9,33,37.6,21.7"/><path class="cls-15" d="M454,498.28s17.3,31.9,36.2,20.9"/><path class="cls-2" d="M529.3,538.28v34.5c0,.2-.3,.4-.8,.4s-.8-.2-.8-.4v-34.5h1.6Z"/><path class="cls-2" d="M491.2,516.68v34.5c0,.2-.3,.4-.8,.4s-.8-.2-.8-.4v-34.5h1.6Z"/><path class="cls-2" d="M454.8,495.18v34.5c0,.2-.3,.4-.8,.4s-.8-.2-.8-.4v-34.5h1.6Z"/><polygon class="cls-1" points="347.2 312.68 347.2 517.68 290.6 550.48 290.6 345.58 347.2 312.68"/><polygon class="cls-6" points="342.4 515.68 342.4 321.88 295.5 349.18 295.5 542.88 342.4 515.68"/><polygon class="cls-10" points="300.6 534.58 300.5 346.48 295.5 349.18 295.5 542.88 342.4 515.68 342.4 510.28 300.6 534.58"/></g></g></svg>