<?xml version="1.0" encoding="UTF-8"?><svg id="Laag_2" xmlns="http://www.w3.org/2000/svg" viewBox="0 0 487.15 259.66"><defs><style>.cls-1{fill:#fafafa;}.cls-2{fill:#eaeaea;}.cls-3{fill:#f4f2f2;}.cls-4{fill:#ededed;}</style></defs><g id="Laag_2-2"><g><path class="cls-1" d="M15.28,138.29c10.8-11.89,26.37-19.36,43.7-19.36,4.5,0,8.88,.5,13.09,1.46,13.99-29.31,43.89-49.56,78.52-49.56,6.76,0,13.34,.77,19.66,2.24h.03c8.46-36.48,41.14-63.68,80.19-63.68,44.35,0,80.5,35.07,82.26,78.99h0c9-3.8,18.89-5.9,29.27-5.9,25.8,0,48.57,12.98,62.13,32.76,1.34-.09,2.68-.14,4.04-.14,23.05,0,43.01,13.22,52.71,32.49,3.35,6.64,5.45,14.02,6.06,21.81,.12-1.56,.21-3.13,.21-4.72,0-9.52-2.26-18.52-6.27-26.48-9.7-19.27-29.66-32.49-52.71-32.49-1.36,0-2.7,.05-4.04,.14-13.56-19.78-36.33-32.76-62.13-32.76-10.38,0-20.27,2.1-29.27,5.9h0C330.96,35.07,294.82,0,250.47,0c-39.06,0-71.74,27.2-80.19,63.68h-.03c-6.32-1.48-12.9-2.25-19.66-2.25-34.63,0-64.53,20.25-78.52,49.56-4.21-.96-8.59-1.46-13.09-1.46-17.33,0-32.9,7.47-43.7,19.36h0C5.78,139.37,0,153.26,0,168.51c0,1.57,.08,3.13,.2,4.67,1.06-13.38,6.57-25.51,15.08-34.88h0Z"/><path class="cls-3" d="M58.98,227.49c13.57,0,26.06-4.58,36.02-12.28,15.07,12.55,34.45,20.1,55.59,20.1,12.44,0,24.28-2.62,34.98-7.33,15.06,19.29,38.53,31.68,64.9,31.68,32.45,0,60.51-18.77,73.92-46.05,11.07,6.39,23.91,10.05,37.61,10.05,12.74,0,24.74-3.16,35.26-8.75,8.99,5.55,19.58,8.75,30.91,8.75,30.98,0,56.37-23.89,58.77-54.26-.61-7.79-2.72-15.17-6.06-21.81-9.7-19.27-29.66-32.49-52.71-32.49-1.36,0-2.7,.05-4.04,.14-13.56-19.78-36.33-32.76-62.13-32.76-10.38,0-20.27,2.1-29.27,5.9h0c-1.76-43.92-37.9-78.99-82.26-78.99-39.06,0-71.74,27.2-80.19,63.68h-.03c-6.32-1.48-12.9-2.25-19.66-2.25-34.63,0-64.53,20.25-78.52,49.56-4.21-.96-8.59-1.46-13.09-1.46-17.33,0-32.9,7.47-43.7,19.36h0C6.77,147.66,1.26,159.79,.2,173.17c2.38,30.39,27.78,54.31,58.78,54.31Z"/><path class="cls-4" d="M250.47,101.85c36.35,0,66.28,27.46,70.2,62.76,.29-2.59,.45-5.22,.45-7.89,0-39.02-31.63-70.65-70.65-70.65s-70.65,31.63-70.65,70.65c0,2.67,.16,5.3,.45,7.89,3.92-35.3,33.85-62.76,70.2-62.76Z"/><path class="cls-2" d="M487.15,164.68c0,32.58-26.41,58.98-58.98,58.98-11.33,0-21.92-3.2-30.91-8.75-10.52,5.59-22.52,8.75-35.26,8.75-13.7,0-26.54-3.66-37.61-10.05-13.41,27.28-41.47,46.05-73.92,46.05-26.37,0-49.84-12.39-64.9-31.68-10.7,4.71-22.54,7.33-34.98,7.33-21.14,0-40.52-7.55-55.59-20.1-9.96,7.7-22.45,12.28-36.02,12.28C26.41,227.49,0,201.09,0,168.51c0-15.25,5.78-29.14,15.28-39.6,.18,.81,9.17,40.12,52.26,45.25,12.3,1.46,27.38,.14,45.82-5.65,0,0,1.39,2.82,4.23,6.67,7.35,9.93,24.4,26.72,52.42,19.71,5.83-1.46,12.14-3.95,18.93-7.74,0,0,12,8.28,30.47,14.35,22.03,7.25,53.27,11.37,84.32-5.44,8.45-4.58,16.89-10.7,25.12-18.74,0,0,1.44,.73,3.93,1.79,7.58,3.22,24.84,9.44,40.44,7.04,8.94-1.37,17.34-5.59,23.04-14.83,0,0,14.34,11.48,32.7,11.51,16.55,.02,36.36-9.26,51.92-44.63,4.01,7.96,6.27,16.96,6.27,26.48Z"/></g></g></svg>