<?xml version="1.0" encoding="UTF-8"?><svg id="Laag_2" xmlns="http://www.w3.org/2000/svg" viewBox="0 0 663.38 344.04"><defs><style>.cls-1{fill:#fafafa;}.cls-2{fill:#eaeaea;}.cls-3{fill:#f4f2f2;}.cls-4{fill:#ededed;}</style></defs><g id="Laag_2-2"><g><path class="cls-1" d="M91.15,103.99c16.04,0,31.11,4.14,44.2,11.42-.09-1.45-.14-2.91-.14-4.38,0-38.81,31.46-70.27,70.27-70.27,21.11,0,40.05,9.32,52.93,24.06,8.44-30.84,36.67-53.51,70.19-53.51,30.43,0,56.49,18.68,67.35,45.2,10.07-6.46,22.04-10.2,34.9-10.2,34.12,0,62.07,26.4,64.54,59.89,4.92-1.44,10.12-2.21,15.5-2.21,29.23,0,53.15,22.75,55.03,51.5,8.77-4.08,18.55-6.36,28.87-6.36,30.33,0,56.06,19.69,65.11,46.97h0c1.67,5.05,2.77,10.35,3.23,15.84,.15-1.83,.24-3.68,.24-5.54,0-7.55-1.22-14.81-3.47-21.6h0c-9.05-27.29-34.78-46.98-65.11-46.98-10.32,0-20.1,2.28-28.87,6.36-1.88-28.75-25.8-51.5-55.03-51.5-5.38,0-10.58,.77-15.5,2.21-2.47-33.49-30.42-59.89-64.54-59.89-12.86,0-24.83,3.74-34.9,10.2C385.09,18.68,359.03,0,328.6,0c-33.52,0-61.75,22.67-70.19,53.51-12.88-14.74-31.82-24.06-52.93-24.06-38.81,0-70.27,31.46-70.27,70.27,0,1.47,.05,2.93,.14,4.38-13.09-7.28-28.16-11.42-44.2-11.42-34.1,0-63.83,18.73-79.45,46.46-7.45,13.2-11.7,28.45-11.7,44.69,0,1.9,.06,3.78,.18,5.64,.87-14.12,4.95-27.37,11.52-39.02,15.62-27.73,45.35-46.46,79.45-46.46Z"/><path class="cls-3" d="M91.15,274.98c24.56,0,46.85-9.71,63.24-25.51,6.77,31.72,34.96,55.51,68.7,55.51,19.38,0,36.93-7.85,49.65-20.54,7.13,34.04,37.32,59.6,73.47,59.6s66.17-25.41,73.41-59.3c11.83,20.6,34.05,34.47,59.51,34.47,36.05,0,65.61-27.81,68.38-63.15,12.3,11.73,28.95,18.92,47.28,18.92,36.01,0,65.52-27.75,68.35-63.04-.46-5.49-1.56-10.79-3.23-15.83h0c-9.05-27.29-34.78-46.98-65.11-46.98-10.32,0-20.1,2.28-28.87,6.36-1.88-28.75-25.8-51.5-55.03-51.5-5.38,0-10.58,.77-15.5,2.21-2.47-33.49-30.42-59.89-64.54-59.89-12.86,0-24.83,3.74-34.9,10.2-10.86-26.52-36.92-45.2-67.35-45.2-33.52,0-61.75,22.67-70.19,53.51-12.88-14.74-31.82-24.06-52.93-24.06-38.81,0-70.27,31.46-70.27,70.27,0,1.47,.05,2.93,.14,4.38-13.09-7.28-28.16-11.42-44.2-11.42-34.1,0-63.83,18.73-79.45,46.46C5.12,162.1,1.05,175.35,.18,189.47c2.92,47.71,42.53,85.51,90.97,85.51Z"/><g><path class="cls-4" d="M356.93,139.14c-29.92,0-56.29,15.15-71.88,38.19,2.7,3.2,5.07,6.65,7.08,10.31,15.88-17.87,39.02-29.14,64.8-29.14,24.39,0,46.4,10.08,62.15,26.29,2.23-3.65,4.83-7.07,7.78-10.21-15.78-21.49-41.23-35.44-69.93-35.44Z"/><path class="cls-4" d="M531.71,198.45c-10.42-32.83-45.48-50.99-78.31-40.57-10.5,3.33-19.49,9.2-26.54,16.69,2.5,3.4,4.75,6.99,6.74,10.74,6.62-6.28,14.73-11.21,24.01-14.16,30.58-9.71,63.09,5.4,75.82,34.05-.45-2.26-1.02-4.51-1.73-6.75Z"/><path class="cls-4" d="M412.83,236.19c.71,2.24,1.55,4.41,2.48,6.51-3.53-17.7,.9-35.51,11.12-49.3-2.26-3.03-4.72-5.91-7.35-8.62-9.1,14.88-11.95,33.47-6.25,51.4Z"/><path class="cls-4" d="M419.08,184.79c2.63,2.71,5.09,5.59,7.35,8.62,2.14-2.89,4.53-5.6,7.16-8.09-1.99-3.75-4.24-7.34-6.74-10.74-2.95,3.14-5.55,6.56-7.78,10.21Z"/><path class="cls-4" d="M295.43,240.65c.85-2.14,1.59-4.34,2.21-6.61,4.43-16.24,1.99-32.73-5.52-46.4-2.39,2.69-4.62,5.53-6.67,8.51,8.59,12.72,12.48,28.52,9.98,44.5Z"/><path class="cls-4" d="M253.88,157.48c-33.23-9.06-67.51,10.54-76.56,43.77-.62,2.27-1.09,4.55-1.45,6.82,11.54-29.16,43.39-45.59,74.35-37.16,11.36,3.1,21.11,9.15,28.68,17.09,1.8-3.71,3.86-7.27,6.15-10.66-7.87-9.3-18.53-16.41-31.18-19.85Z"/><path class="cls-4" d="M278.9,188c2.42,2.54,4.61,5.27,6.56,8.16,2.05-2.98,4.28-5.82,6.67-8.51-2.01-3.66-4.37-7.11-7.08-10.31-2.29,3.39-4.35,6.95-6.15,10.66Z"/></g><path class="cls-2" d="M663.38,206.4c0,37.88-30.71,68.58-68.59,68.58-18.33,0-34.98-7.19-47.28-18.92-2.77,35.34-32.33,63.15-68.38,63.15-25.46,0-47.68-13.87-59.51-34.47-7.24,33.89-37.36,59.3-73.41,59.3s-66.34-25.56-73.47-59.6c-12.72,12.69-30.27,20.54-49.65,20.54-33.74,0-61.93-23.79-68.7-55.51-16.39,15.8-38.68,25.51-63.24,25.51C40.81,274.98,0,234.17,0,183.83c0-16.24,4.25-31.49,11.7-44.69,0,0,31.41,93.24,154.51,78.4,0,0,31.61,68.93,112.69,37.53,0,0,29.76,39.16,70.69,39.16,19.92,0,42.49-9.28,65.56-36.86,0,0,94.92,37.01,122.55-40.69,0,0,87.38,56.38,122.2-31.89h0c2.25,6.8,3.47,14.06,3.47,21.61Z"/></g></g></svg>