<?xml version="1.0" encoding="UTF-8"?><svg id="Laag_2" xmlns="http://www.w3.org/2000/svg" viewBox="0 0 629.93 372.15"><defs><style>.cls-1{fill:#fafafa;}.cls-2{fill:#eaeaea;}.cls-3{fill:#f4f2f2;}.cls-4{fill:#ededed;}</style></defs><g id="Laag_2-2"><g><g><path class="cls-1" d="M79.05,148.22c7.51,0,14.76,1.07,21.64,3.03,5.69-24.43,27.58-42.63,53.74-42.63,5.93,0,11.64,.94,16.99,2.68,1.06-33.89,28.85-61.03,62.99-61.03,11.37,0,22.02,3.02,31.23,8.29,5.69-24.05,27.28-41.95,53.07-41.95,30.12,0,54.54,24.42,54.54,54.54,0,2.77-.21,5.48-.61,8.14,14.08-12.94,32.85-20.85,53.48-20.85,38.09,0,69.88,26.93,77.38,62.79,5.6-2.4,11.76-3.74,18.24-3.74,25.58,0,46.32,20.74,46.32,46.32,0,.54-.02,1.07-.04,1.6h.04c31.34,0,57.23,23.3,61.3,53.52,.36-2.71,.57-5.46,.57-8.27s-.17-5.37-.51-7.98c-3.91-30.4-29.89-53.89-61.36-53.89h-.04c.02-.53,.04-1.06,.04-1.6,0-25.58-20.74-46.32-46.32-46.32-6.48,0-12.64,1.34-18.24,3.74-7.5-35.86-39.29-62.79-77.38-62.79-20.63,0-39.4,7.91-53.48,20.85,.4-2.66,.61-5.37,.61-8.14,0-30.12-24.42-54.54-54.54-54.54-25.79,0-47.38,17.9-53.07,41.95-9.21-5.27-19.86-8.29-31.23-8.29-34.14,0-61.93,27.14-62.99,61.03-5.35-1.74-11.06-2.68-16.99-2.68-26.16,0-48.05,18.2-53.74,42.63-6.88-1.96-14.13-3.03-21.64-3.03C38.08,131.61,4.39,162.78,.4,202.7c-.27,2.62-.4,5.28-.4,7.97s.15,5.59,.44,8.33c4.14-39.77,37.75-70.77,78.61-70.77Z"/><path class="cls-3" d="M79.05,289.73c12.3,0,23.95-2.81,34.33-7.82,8.44,5.24,18.4,8.28,29.07,8.28,7.47,0,14.59-1.49,21.09-4.18,2.35,23.37,22.09,41.62,46.08,41.62,5.22,0,10.24-.88,14.92-2.47,12.3,27.68,40.02,46.99,72.26,46.99,23.91,0,45.33-10.63,59.82-27.4,8.9,4.81,19.09,7.54,29.91,7.54,30.58,0,56.06-21.77,61.82-50.66,10.73,8.98,24.56,14.38,39.64,14.38,28.98,0,53.29-19.92,60.02-46.81,6.29,2.16,13.03,3.34,20.05,3.34,31.37,0,57.26-23.35,61.3-53.6-4.07-30.22-29.96-53.52-61.3-53.52h-.04c.02-.53,.04-1.06,.04-1.6,0-25.58-20.74-46.32-46.32-46.32-6.48,0-12.64,1.34-18.24,3.74-7.5-35.86-39.29-62.79-77.38-62.79-20.63,0-39.4,7.91-53.48,20.85,.4-2.66,.61-5.37,.61-8.14,0-30.12-24.42-54.54-54.54-54.54-25.79,0-47.38,17.9-53.07,41.95-9.21-5.27-19.86-8.29-31.23-8.29-34.14,0-61.93,27.14-62.99,61.03-5.35-1.74-11.06-2.68-16.99-2.68-26.16,0-48.05,18.2-53.74,42.63-6.88-1.96-14.13-3.03-21.64-3.03C38.19,148.22,4.58,179.23,.44,219c4.16,39.75,37.76,70.73,78.61,70.73Z"/></g><path class="cls-4" d="M302.31,217.55c33.34,3.66,58.02,31.86,58.07,64.63,.52-2.35,.94-4.74,1.21-7.19,3.93-35.79-21.9-67.98-57.69-71.91-35.79-3.93-67.98,21.9-71.91,57.69-.27,2.45-.39,4.87-.38,7.28,7.15-31.99,37.36-54.16,70.7-50.5Z"/><path class="cls-4" d="M466.46,203.76c25.57-8.05,52.69,4.64,63.27,28.6-.37-1.89-.84-3.77-1.43-5.65-8.64-27.44-37.89-42.69-65.33-34.05-27.44,8.64-42.69,37.89-34.05,65.33,.59,1.88,1.29,3.69,2.06,5.45-5.06-25.7,9.91-51.64,35.48-59.69Z"/><path class="cls-4" d="M142.01,221.71c13.26,1.17,23.3,12.16,23.59,25.17,.19-.94,.33-1.89,.42-2.86,1.26-14.24-9.26-26.8-23.5-28.06-14.24-1.26-26.8,9.26-28.06,23.5-.09,.97-.11,1.94-.09,2.89,2.57-12.76,14.38-21.81,27.64-20.63Z"/><path class="cls-2" d="M629.93,210.67c0,34.17-27.7,61.87-61.87,61.87-7.02,0-13.76-1.18-20.05-3.34-6.73,26.89-31.04,46.81-60.02,46.81-15.08,0-28.91-5.4-39.64-14.38-5.76,28.89-31.24,50.66-61.82,50.66-10.82,0-21.01-2.73-29.91-7.54-14.49,16.77-35.91,27.4-59.82,27.4-32.24,0-59.96-19.31-72.26-46.99-4.68,1.59-9.7,2.47-14.92,2.47-23.99,0-43.73-18.25-46.08-41.62-6.5,2.69-13.62,4.18-21.09,4.18-10.67,0-20.63-3.04-29.07-8.28-10.38,5.01-22.03,7.82-34.33,7.82C35.39,289.73,0,254.33,0,210.67c0-2.69,.13-5.35,.4-7.97,.58,.99,41.14,69.09,113.96,57.93,0,0,24.7,21.41,58.04,2.81,0,0,21.45,53.36,71.49,42.64,0,0,46.47,60.26,109.28,3.58,0,0,60.76,18.89,82.72-30.64,0,0,76.09,21.44,100.6-38.81,0,0,55.65,19.93,92.93-37.52,.34,2.61,.51,5.28,.51,7.98Z"/></g></g></svg>