<?xml version="1.0" encoding="UTF-8"?><svg id="Laag_2" xmlns="http://www.w3.org/2000/svg" viewBox="0 0 721.9 321.7"><defs><style>.cls-1{fill:#fafafa;}.cls-2{fill:#cbd0d1;}.cls-3{fill:#eaeaea;}.cls-4{fill:#f4f2f2;}.cls-5{fill:#ededed;}</style></defs><g id="Laag_2-2"><g><g><path class="cls-2" d="M146.33,168.97c-.05,.19-.09,.38-.15,.58,.39,.07,.79,.13,1.17,.21-.34-.26-.68-.53-1.02-.79Z"/><path class="cls-2" d="M58.66,223.34c-.05,1.08-.08,2.16-.08,3.25,0,2.71,.15,5.39,.44,8.03,.4-3.69,1.06-7.3,1.97-10.8-.78-.14-1.56-.31-2.33-.48Z"/><path class="cls-1" d="M74.3,76.42c17.07,0,32.79,5.78,45.34,15.46,8.13-32.21,37.3-56.05,72.03-56.05s66.48,26.02,72.99,60.41c13.45-13.5,32.06-21.86,52.63-21.86,21.67,0,41.17,9.28,54.76,24.09,12.19-24.35,37.36-41.07,66.44-41.07,18.43,0,35.28,6.73,48.27,17.83,6.97-33.79,36.9-59.19,72.75-59.19,41.04,0,74.3,33.26,74.3,74.3,0,.43-.02,.87-.03,1.3,4.48-.84,9.09-1.3,13.82-1.3,34.49,0,63.49,23.5,71.86,55.36,.93,3.54,1.6,7.18,2,10.91,.28-2.64,.44-5.31,.44-8.02,0-6.54-.85-12.89-2.44-18.93-8.37-31.86-37.37-55.36-71.86-55.36-4.73,0-9.34,.46-13.82,1.3,.01-.43,.03-.87,.03-1.3,0-41.04-33.26-74.3-74.3-74.3-35.85,0-65.78,25.4-72.75,59.19-12.99-11.1-29.84-17.83-48.27-17.83-29.08,0-54.25,16.72-66.44,41.07-13.59-14.81-33.09-24.09-54.76-24.09s-39.18,8.36-52.63,21.86c-6.51-34.39-36.7-60.41-72.99-60.41s-63.9,23.84-72.03,56.05c-12.55-9.68-28.27-15.46-45.34-15.46-26.36,0-49.53,13.74-62.71,34.44C4.25,106.34,0,120.01,0,134.68c0,2.69,.16,5.33,.44,7.94,1.26-11.6,5.18-22.39,11.15-31.76,13.18-20.7,36.35-34.44,62.71-34.44Z"/><path class="cls-2" d="M146.33,152.93c-.05,.19-.09,.38-.15,.58,.39,.07,.79,.13,1.17,.21-.34-.26-.68-.53-1.02-.79Z"/><path class="cls-4" d="M132.88,300.89c24.66,0,46.5-12.02,60.02-30.52,11.92,8.14,26.32,12.91,41.85,12.91,13.11,0,25.42-3.41,36.11-9.37,10.67,27.94,37.72,47.79,69.41,47.79,27.44,0,51.39-14.89,64.26-37.02,11.8,7.9,25.99,12.51,41.26,12.51,27.93,0,52.25-15.42,64.94-38.2,13.05,11.38,30.11,18.29,48.78,18.29,34.77,0,63.95-23.89,72.06-56.14,5.16,1.14,10.52,1.75,16.03,1.75,38.32,0,69.86-29.01,73.86-66.28-.4-3.73-1.07-7.37-2-10.91-8.37-31.86-37.37-55.36-71.86-55.36-4.73,0-9.34,.46-13.82,1.3,.01-.43,.03-.87,.03-1.3,0-41.04-33.26-74.3-74.3-74.3-35.85,0-65.78,25.4-72.75,59.19-12.99-11.1-29.84-17.83-48.27-17.83-29.08,0-54.25,16.72-66.44,41.07-13.59-14.81-33.09-24.09-54.76-24.09s-39.18,8.36-52.63,21.86c-6.51-34.39-36.7-60.41-72.99-60.41s-63.9,23.84-72.03,56.05c-12.55-9.68-28.27-15.46-45.34-15.46-26.36,0-49.53,13.74-62.71,34.44-5.97,9.37-9.9,20.16-11.15,31.76,3.5,32.87,28.42,59.33,60.55,65.15-1.31,5-2.1,10.21-2.33,15.57,.77,.17,1.55,.33,2.33,.48-.92,3.51-1.57,7.12-1.97,10.8,4,37.26,35.53,66.27,73.86,66.27Zm13.45-147.96c.34,.26,.68,.53,1.02,.79-.38-.08-.78-.14-1.17-.21,.06-.2,.1-.39,.15-.58Zm0,16.04c.34,.26,.68,.53,1.02,.79-.38-.08-.78-.14-1.17-.21,.06-.2,.1-.39,.15-.58Z"/></g><path class="cls-5" d="M170,144.65c29.89,11.98,45.45,44.43,37.04,74.76,1.09-2.04,2.09-4.14,2.97-6.34,12.86-32.09-2.72-68.53-34.81-81.39-32.09-12.86-68.53,2.72-81.39,34.81-.88,2.19-1.61,4.41-2.23,6.63,14.87-27.74,48.53-40.46,78.42-28.47Z"/><g><path class="cls-5" d="M497.55,178.55c-2.3,10.19-2.1,21.08,1.13,31.79,.68,2.26,1.49,4.45,2.4,6.58-2.06-11.19-.96-22.36,2.72-32.52-1.95-2.09-4.04-4.04-6.25-5.84Z"/><path class="cls-5" d="M618.55,174.22c-9.98-33.1-44.89-51.85-78-41.87-19.1,5.76-33.41,19.83-40.19,37.05,2.38,2.41,4.58,5.02,6.55,7.81,7.48-14.65,20.67-26.36,37.67-31.48,30.84-9.29,63.24,6.35,75.6,35.3-.42-2.27-.95-4.54-1.64-6.81Z"/><path class="cls-5" d="M446.24,151.64c-33.9,5.44-56.97,37.34-51.53,71.24,.37,2.32,.88,4.58,1.49,6.79-1.52-31.22,20.65-59.25,52.24-64.33,18.22-2.93,35.85,2.4,49.11,13.2,.71-3.13,1.65-6.18,2.82-9.15-13.64-13.81-33.51-21.07-54.13-17.76Z"/><path class="cls-5" d="M497.55,178.55c2.21,1.8,4.3,3.75,6.25,5.84,.89-2.46,1.93-4.86,3.12-7.19-1.97-2.79-4.17-5.4-6.55-7.81-1.17,2.97-2.11,6.02-2.82,9.15Z"/></g><path class="cls-3" d="M721.9,148.59c0,41.04-33.27,74.3-74.3,74.3-5.51,0-10.87-.61-16.03-1.75-8.11,32.25-37.29,56.14-72.06,56.14-18.67,0-35.73-6.91-48.78-18.29-12.69,22.78-37.01,38.2-64.94,38.2-15.27,0-29.46-4.61-41.26-12.51-12.87,22.13-36.82,37.02-64.26,37.02-31.69,0-58.74-19.85-69.41-47.79-10.69,5.96-23,9.37-36.11,9.37-15.53,0-29.93-4.77-41.85-12.91-13.52,18.5-35.36,30.52-60.02,30.52-41.04,0-74.3-33.26-74.3-74.3,0-6.5,.84-12.81,2.41-18.82C26.31,201.49,0,171.17,0,134.68c0-14.67,4.25-28.34,11.59-39.86,0,0,10.88,84.8,71.14,86.2,0,0,12.25,96.38,114.38,53.49,0,0,33.7,48,74.55,9.19,0,0,61.02,72.49,128.73,14.27,0,0,64.9,30.67,103.41-16.31,0,0,92.14,23.46,116.38-43.93,0,0,77.29-4.4,99.28-68.07,1.59,6.04,2.44,12.39,2.44,18.93Z"/></g></g></svg>