<?xml version="1.0" encoding="utf-8"?>
<!-- Generator: Adobe Illustrator 25.4.6, SVG Export Plug-In . SVG Version: 6.00 Build 0)  -->
<svg version="1.1" id="Laag_1" xmlns="http://www.w3.org/2000/svg" xmlns:xlink="http://www.w3.org/1999/xlink" x="0px" y="0px"
	 viewBox="0 0 430.3 549" style="enable-background:new 0 0 430.3 549;" xml:space="preserve">
<style type="text/css">
	.st0{fill:#866663;}
	.st1{fill:#866C5F;}
	.st2{fill:#755848;}
	.st3{fill:#9F7D75;}
	.st4{fill:#E5E5E5;}
	.st5{fill:#B2B2B2;}
	.st6{fill:#CBCBCB;}
	.st7{fill:#F1F1F1;}
	.st8{fill:#808080;}
	.st9{fill:#5F868D;}
	.st10{fill:#749FA9;}
	.st11{fill:#57787F;}
	.st12{fill:#8ABECB;}
	.st13{fill:#1B3444;}
	.st14{fill:#684A46;}
	.st15{fill:#593E3C;}
	.st16{fill:#9D807C;}
	.st17{fill:#4C3431;}
	.st18{fill:#656976;}
	.st19{fill:#EBE6DC;}
	.st20{fill:none;stroke:#EBE6DC;stroke-width:0.39;stroke-miterlimit:10;}
	.st21{fill:none;}
	.st22{fill:#292C33;}
</style>
<polygon class="st0" points="430.2,270.9 419.6,263.7 415.8,269.1 421.5,270.9 426.1,273.6 "/>
<polygon class="st1" points="6.2,92.3 6.2,378.6 297.2,549.2 297.2,262.8 "/>
<polygon class="st2" points="422,475.9 297.2,549 297.1,314.6 297.2,262.8 297.2,262.8 297.2,262.8 309.8,255.4 310.1,255.2 
	311.3,254.6 421.7,189.9 421.9,189.7 421.9,241.9 421.8,241.9 "/>
<polygon class="st3" points="6.2,92.3 130.7,19.3 422,189.7 297.2,262.8 "/>
<polygon class="st4" points="286.6,253.9 20.8,98.2 20.8,83.6 286.6,239.3 "/>
<polygon class="st4" points="309.8,238.2 409.1,180.1 409.1,194.8 309.8,252.9 "/>
<polygon class="st5" points="119.3,7.4 128.7,12.9 138,7.4 128.7,1.9 "/>
<polygon class="st4" points="116.1,7.4 116.1,27.7 128.7,35.1 128.7,14.8 "/>
<polygon class="st6" points="141.3,7.4 141.3,27.7 128.7,35.1 128.7,14.8 "/>
<polygon class="st7" points="116.1,7.4 128.7,14.8 141.3,7.4 128.7,0 "/>
<polygon class="st5" points="128.7,1.9 128.7,3.2 120.4,8 119.3,7.4 "/>
<polyline class="st4" points="128.7,1.9 138,7.4 136.9,8 128.7,3.2 "/>
<polygon class="st8" points="120.4,8 128.7,12.9 136.9,8 128.7,3.2 "/>
<polygon class="st4" points="405,188 139.2,32.2 139.2,17.6 405,173.3 "/>
<polygon class="st7" points="139.2,17.6 141.2,16.2 407,171.9 405,173.3 "/>
<polygon class="st9" points="415.6,178.3 305.7,134.9 122.4,26.3 138.6,29.1 "/>
<polygon class="st10" points="297.2,247 305.7,134.9 415.6,177.4 "/>
<polygon class="st4" points="396.7,169.4 396.7,189.7 409.3,197.1 409.3,176.8 "/>
<polygon class="st6" points="422,169.4 422,189.7 409.3,197.1 409.3,176.8 "/>
<polygon class="st7" points="396.7,169.4 409.3,176.8 422,169.4 409.3,162 "/>
<polygon class="st5" points="400,169.4 409.3,174.9 418.7,169.4 409.3,163.9 "/>
<polygon class="st8" points="401.1,170 409.3,174.9 417.6,170 409.3,165.2 "/>
<polygon class="st5" points="409.3,163.9 409.3,165.2 401.1,170 400,169.4 "/>
<polygon class="st4" points="409.3,163.9 418.7,169.4 417.6,170 409.3,165.2 "/>
<polygon class="st6" points="309.8,242.6 409.3,184.5 409.3,199.2 309.8,257.3 "/>
<polygon class="st7" points="309.8,242.6 309.8,240.1 407.3,183.2 409.3,184.5 "/>
<polygon class="st6" points="18.9,75.5 118.2,17.4 118.2,32.1 18.9,90.2 "/>
<polygon class="st7" points="18.9,75.5 18.9,73 116.1,16.2 118.2,17.4 "/>
<polygon class="st11" points="122.4,26.3 20.8,86.2 20.3,79.3 118.2,26.7 122.4,26.3 "/>
<polygon class="st4" points="6.2,71.9 6.2,92.2 18.8,99.6 18.8,79.3 "/>
<polygon class="st6" points="31.4,71.9 31.4,92.2 18.8,99.6 18.8,79.3 "/>
<polygon class="st7" points="6.2,71.9 18.8,79.3 31.4,71.9 18.8,64.5 "/>
<polygon class="st5" points="9.5,71.9 18.8,77.4 28.2,71.9 18.8,66.4 "/>
<polygon class="st8" points="10.6,72.5 18.8,77.4 27.1,72.5 18.8,67.7 "/>
<polygon class="st5" points="18.8,66.4 18.8,67.7 10.6,72.5 9.5,71.9 "/>
<polyline class="st4" points="18.8,66.4 28.2,71.9 27.1,72.5 18.8,67.7 "/>
<polygon class="st12" points="305.7,134.9 122.4,26.3 20.8,86.2 297.2,247 "/>
<polygon class="st7" points="18.8,87.6 20.8,86.2 286.6,241.9 284.6,243.4 "/>
<polygon class="st4" points="284.6,235 284.6,255.4 297.2,262.8 297.2,242.4 "/>
<polygon class="st6" points="309.8,235 309.8,255.4 297.2,262.8 297.2,242.4 "/>
<polygon class="st7" points="284.6,235 297.2,242.4 309.8,235 297.2,227.7 "/>
<polygon class="st5" points="287.9,235 297.2,240.5 306.6,235 297.2,229.6 "/>
<polygon class="st8" points="289,235.7 297.2,240.5 305.5,235.7 297.2,230.9 "/>
<polygon class="st5" points="297.2,229.6 297.2,230.9 289,235.7 287.9,235 "/>
<polygon class="st4" points="297.2,229.6 306.6,235 305.5,235.7 297.2,230.9 "/>
<polygon class="st4" points="148,108.1 121.8,145.4 172.7,175.2 "/>
<polygon class="st4" points="284.6,258 18.8,102.3 18.8,87.6 284.6,243.4 "/>
<polygon class="st4" points="145.5,110 119.3,147.3 170.2,177.1 "/>
<polygon class="st7" points="169.9,176.5 172.2,175.2 147.5,108.1 145.2,109.4 "/>
<polygon class="st13" points="144.2,149.9 139.5,147.2 139.5,137.2 144.2,139.9 "/>
<polygon class="st14" points="297.2,265.4 6.2,94.9 6.2,92.3 297.2,262.8 "/>
<polygon class="st15" points="297.2,265.4 422,192.4 422,189.7 297.2,262.8 "/>
<polygon class="st16" points="-0.1,179.5 -0.1,187.4 297.2,364.2 297.2,356.2 "/>
<polyline class="st17" points="297.3,364.1 297.2,364.2 297.2,356.2 297.3,356.1 422.1,276.2 426.1,273.6 430.2,270.9 430.2,278.9 
	"/>
<polygon class="st0" points="426.1,273.6 422.1,276.2 297.3,356.1 297.2,356.2 297.2,350.9 297.3,350.9 422.1,270.9 422.1,270.9 
	422.1,270.9 "/>
<polygon class="st0" points="297.2,350.9 297.2,356.2 297.1,356.2 -0.1,179.4 6.4,178 194.4,289.8 297.1,350.9 "/>
<polygon class="st0" points="430.3,365.1 419.7,357.8 415.9,363.2 422,365.2 426.2,367.8 "/>
<polygon class="st16" points="0,273.6 0,281.6 297.2,458.3 297.2,450.3 "/>
<polyline class="st17" points="297.4,458.3 297.3,458.4 297.3,450.4 297.4,450.3 422.2,370.3 426.2,367.8 430.3,365.1 430.3,373.1 
	"/>
<polygon class="st0" points="426.2,367.8 422.2,370.3 297.4,450.3 297.3,450.4 297.3,445.1 297.4,445 422.2,365.1 422.2,365 
	422.2,365 "/>
<polygon class="st0" points="297.3,445.1 297.3,450.4 297.2,450.4 0,273.6 6.5,272.2 194.5,383.9 297.2,445.1 "/>
<polygon class="st18" points="52.1,286.4 32.8,275.3 32.8,234.9 52.1,246 "/>
<path class="st19" d="M52.2,289.4c-0.3-0.2-0.5-0.6-0.5-0.9v-42.8c0-0.3,0.2-0.5,0.5-0.3c0.3,0.2,0.5,0.5,0.5,0.9v42.8
	C52.7,289.5,52.5,289.6,52.2,289.4z"/>
<polygon class="st20" points="43,281.2 42.8,281 42.8,240.6 43,240.8 "/>
<path class="st19" d="M32.9,278.3c-0.3-0.2-0.5-0.6-0.5-0.9v-42.8c0-0.3,0.2-0.5,0.5-0.3c0.3,0.2,0.5,0.5,0.5,0.9V278
	C33.4,278.3,33.2,278.5,32.9,278.3z"/>
<polygon class="st19" points="55.4,289.3 29.5,274.3 29.5,272.4 55.4,287.4 "/>
<line class="st21" x1="30.9" y1="233.8" x2="54" y2="247.2"/>
<polygon class="st19" points="55.4,249.9 29.5,234.9 29.5,231.1 55.4,246 "/>
<polygon class="st20" points="51.7,260.6 32.9,249.8 32.9,249.5 51.7,260.3 "/>
<polygon class="st20" points="52.4,273.3 33.4,262.3 33.4,262.1 52.4,273.1 "/>
<polygon class="st18" points="100,313.8 80.8,302.7 80.8,262.3 100,273.4 "/>
<path class="st19" d="M100.1,316.8c-0.3-0.2-0.5-0.6-0.5-0.9v-42.8c0-0.3,0.2-0.5,0.5-0.3c0.3,0.2,0.5,0.5,0.5,0.9v42.8
	C100.7,316.9,100.4,317,100.1,316.8z"/>
<polygon class="st20" points="91,308.6 90.7,308.4 90.7,268 91,268.2 "/>
<path class="st19" d="M80.8,305.7c-0.3-0.2-0.5-0.6-0.5-0.9V262c0-0.4,0.2-0.5,0.5-0.3c0.3,0.2,0.5,0.5,0.5,0.9v42.8
	C81.3,305.7,81.1,305.8,80.8,305.7z"/>
<polygon class="st19" points="103.3,316.7 77.4,301.7 77.4,299.8 103.3,314.8 "/>
<line class="st21" x1="78.8" y1="261.2" x2="102" y2="274.5"/>
<polygon class="st19" points="103.3,277.2 77.4,262.3 77.4,258.5 103.3,273.4 "/>
<polygon class="st20" points="99.6,288 80.8,277.1 80.8,276.9 99.6,287.7 "/>
<polygon class="st20" points="100.3,300.7 81.3,289.7 81.3,289.5 100.3,300.5 "/>
<polygon class="st18" points="148.5,343 129.3,331.9 129.3,291.5 148.5,302.6 "/>
<path class="st19" d="M148.6,346c-0.3-0.2-0.5-0.6-0.5-0.9v-42.8c0-0.3,0.2-0.5,0.5-0.3c0.3,0.2,0.5,0.5,0.5,0.9v42.8
	C149.2,346.1,148.9,346.2,148.6,346z"/>
<polygon class="st20" points="139.5,337.8 139.2,337.6 139.2,297.2 139.5,297.4 "/>
<path class="st19" d="M129.3,334.9c-0.3-0.2-0.5-0.6-0.5-0.9v-42.8c0-0.3,0.2-0.5,0.5-0.3c0.3,0.2,0.5,0.5,0.5,0.9v42.8
	C129.8,334.9,129.6,335.1,129.3,334.9z"/>
<polygon class="st19" points="151.9,345.9 125.9,330.9 125.9,329 151.9,344 "/>
<line class="st21" x1="127.3" y1="290.4" x2="150.5" y2="303.8"/>
<polygon class="st19" points="151.9,306.5 125.9,291.5 125.9,287.7 151.9,302.6 "/>
<polygon class="st20" points="148.1,317.2 129.3,306.4 129.3,306.1 148.1,316.9 "/>
<polygon class="st20" points="148.8,329.9 129.9,318.9 129.9,318.7 148.8,329.7 "/>
<polygon class="st18" points="197,369.7 177.8,358.6 177.8,318.2 197,329.3 "/>
<path class="st19" d="M197.2,372.8c-0.3-0.2-0.5-0.6-0.5-0.9v-42.8c0-0.3,0.2-0.5,0.5-0.3c0.3,0.2,0.5,0.5,0.5,0.9v42.8
	C197.7,372.8,197.5,372.9,197.2,372.8z"/>
<polygon class="st20" points="188,364.5 187.7,364.4 187.7,324 188,324.1 "/>
<path class="st19" d="M177.8,361.6c-0.3-0.2-0.5-0.5-0.5-0.9v-42.8c0-0.3,0.2-0.5,0.5-0.3c0.3,0.2,0.5,0.5,0.5,0.9v42.8
	C178.3,361.6,178.1,361.8,177.8,361.6z"/>
<polygon class="st19" points="200.4,372.6 174.4,357.6 174.4,355.7 200.4,370.7 "/>
<line class="st21" x1="175.8" y1="317.1" x2="199" y2="330.5"/>
<polygon class="st19" points="200.4,333.2 174.4,318.2 174.4,314.4 200.4,329.4 "/>
<polygon class="st20" points="196.6,343.9 177.9,333.1 177.9,332.8 196.6,343.6 "/>
<polygon class="st20" points="197.3,356.6 178.4,345.7 178.4,345.4 197.3,356.4 "/>
<polygon class="st18" points="245.5,397.4 226.3,386.3 226.3,345.9 245.5,357 "/>
<path class="st19" d="M245.7,400.5c-0.3-0.2-0.5-0.6-0.5-0.9v-42.8c0-0.3,0.2-0.5,0.5-0.3c0.3,0.2,0.5,0.5,0.5,0.9v42.8
	C246.2,400.5,246,400.6,245.7,400.5z"/>
<polygon class="st20" points="236.5,392.2 236.2,392.1 236.2,351.7 236.5,351.8 "/>
<path class="st19" d="M226.3,389.3c-0.3-0.2-0.5-0.5-0.5-0.9v-42.8c0-0.3,0.2-0.5,0.5-0.3c0.3,0.2,0.5,0.5,0.5,0.9V389
	C226.9,389.3,226.6,389.5,226.3,389.3z"/>
<polygon class="st19" points="248.9,400.3 223,385.4 223,383.4 248.9,398.4 "/>
<line class="st21" x1="224.3" y1="344.8" x2="247.5" y2="358.2"/>
<polygon class="st19" points="248.9,360.9 223,345.9 223,342.1 248.9,357.1 "/>
<polygon class="st20" points="245.1,371.6 226.4,360.8 226.4,360.5 245.1,371.4 "/>
<polygon class="st20" points="245.8,384.3 226.9,373.4 226.9,373.2 245.8,384.1 "/>
<polygon class="st18" points="52.1,191.4 32.8,180.3 32.8,139.9 52.1,151 "/>
<path class="st19" d="M52.2,194.4c-0.3-0.2-0.5-0.5-0.5-0.9v-42.8c0-0.3,0.2-0.5,0.5-0.3c0.3,0.2,0.5,0.6,0.5,0.9v42.8
	C52.7,194.5,52.5,194.6,52.2,194.4z"/>
<polygon class="st20" points="43,186.2 42.8,186 42.8,145.6 43,145.8 "/>
<path class="st19" d="M32.9,183.3c-0.3-0.2-0.5-0.6-0.5-0.9v-42.8c0-0.3,0.2-0.5,0.5-0.3c0.3,0.2,0.5,0.6,0.5,0.9V183
	C33.4,183.3,33.2,183.4,32.9,183.3z"/>
<polygon class="st19" points="55.4,194.3 29.5,179.3 29.5,177.4 55.4,192.4 "/>
<line class="st21" x1="30.9" y1="138.8" x2="54" y2="152.1"/>
<polygon class="st19" points="55.4,154.8 29.5,139.9 29.5,136.1 55.4,151 "/>
<polygon class="st20" points="51.7,165.6 32.9,154.8 32.9,154.5 51.7,165.3 "/>
<polygon class="st20" points="52.4,178.3 33.4,167.3 33.4,167.1 52.4,178.1 "/>
<polygon class="st18" points="100,218.8 80.8,207.7 80.8,167.3 100,178.4 "/>
<path class="st19" d="M100.1,221.8c-0.3-0.2-0.5-0.6-0.5-0.9v-42.7c0-0.3,0.2-0.5,0.5-0.3c0.3,0.2,0.5,0.5,0.5,0.9v42.8
	C100.7,221.8,100.4,222,100.1,221.8z"/>
<polygon class="st20" points="91,213.6 90.7,213.4 90.7,173 91,173.2 "/>
<path class="st19" d="M80.8,210.6c-0.3-0.2-0.5-0.6-0.5-0.9v-42.8c0-0.3,0.2-0.5,0.5-0.3c0.3,0.2,0.5,0.5,0.5,0.9v42.8
	C81.3,210.7,81.1,210.8,80.8,210.6z"/>
<polygon class="st19" points="103.3,221.7 77.4,206.7 77.4,204.8 103.3,219.8 "/>
<line class="st21" x1="78.8" y1="166.1" x2="102" y2="179.5"/>
<polygon class="st19" points="103.3,182.2 77.4,167.2 77.4,163.4 103.3,178.4 "/>
<polygon class="st20" points="99.6,193 80.8,182.1 80.8,181.9 99.6,192.7 "/>
<polygon class="st20" points="100.3,205.6 81.3,194.7 81.3,194.5 100.3,205.4 "/>
<polygon class="st18" points="148.5,248 129.3,236.9 129.3,196.5 148.5,207.6 "/>
<path class="st19" d="M148.6,251c-0.3-0.2-0.5-0.6-0.5-0.9v-42.8c0-0.3,0.2-0.5,0.5-0.3c0.3,0.2,0.5,0.6,0.5,0.9v42.8
	C149.2,251.1,148.9,251.2,148.6,251z"/>
<polygon class="st20" points="139.5,242.8 139.2,242.6 139.2,202.2 139.5,202.4 "/>
<path class="st19" d="M129.3,239.9c-0.3-0.2-0.5-0.6-0.5-0.9v-42.8c0-0.3,0.2-0.5,0.5-0.3c0.3,0.2,0.5,0.5,0.5,0.9v42.8
	C129.8,239.9,129.6,240,129.3,239.9z"/>
<polygon class="st19" points="151.9,250.9 125.9,235.9 125.9,234 151.9,249 "/>
<line class="st21" x1="127.3" y1="195.4" x2="150.5" y2="208.8"/>
<polygon class="st19" points="151.9,211.4 125.9,196.5 125.9,192.7 151.9,207.6 "/>
<polygon class="st20" points="148.1,222.2 129.3,211.4 129.3,211.1 148.1,221.9 "/>
<polygon class="st20" points="148.8,234.9 129.9,223.9 129.9,223.7 148.8,234.7 "/>
<polygon class="st18" points="197,274.7 177.8,263.6 177.8,223.2 197,234.3 "/>
<path class="st19" d="M197.2,277.7c-0.3-0.2-0.5-0.6-0.5-0.9V234c0-0.3,0.2-0.5,0.5-0.3c0.3,0.2,0.5,0.5,0.5,0.9v42.8
	C197.7,277.8,197.5,277.9,197.2,277.7z"/>
<polygon class="st20" points="188,269.5 187.7,269.3 187.7,228.9 188,229.1 "/>
<path class="st19" d="M177.8,266.6c-0.3-0.2-0.5-0.6-0.5-0.9v-42.8c0-0.3,0.2-0.5,0.5-0.3c0.3,0.2,0.5,0.5,0.5,0.9v42.8
	C178.3,266.6,178.1,266.8,177.8,266.6z"/>
<polygon class="st19" points="200.4,277.6 174.4,262.6 174.4,260.7 200.4,275.7 "/>
<line class="st21" x1="175.8" y1="222.1" x2="199" y2="235.5"/>
<polygon class="st19" points="200.4,238.2 174.4,223.2 174.4,219.4 200.4,234.4 "/>
<polygon class="st20" points="196.6,248.9 177.9,238.1 177.9,237.8 196.6,248.6 "/>
<polygon class="st20" points="197.3,261.6 178.4,250.6 178.4,250.4 197.3,261.4 "/>
<polygon class="st18" points="245.5,302.4 226.3,291.3 226.3,250.9 245.5,262 "/>
<path class="st19" d="M245.7,305.4c-0.3-0.2-0.5-0.6-0.5-0.9v-42.8c0-0.3,0.2-0.5,0.5-0.3c0.3,0.2,0.5,0.5,0.5,0.9v42.8
	C246.2,305.5,246,305.6,245.7,305.4z"/>
<polygon class="st20" points="236.5,297.2 236.2,297 236.2,256.6 236.5,256.8 "/>
<path class="st19" d="M226.3,294.3c-0.3-0.2-0.5-0.6-0.5-0.9v-42.8c0-0.3,0.2-0.5,0.5-0.3c0.3,0.2,0.5,0.5,0.5,0.9V294
	C226.9,294.3,226.6,294.5,226.3,294.3z"/>
<polygon class="st19" points="248.9,305.3 223,290.3 223,288.4 248.9,303.4 "/>
<line class="st21" x1="224.3" y1="249.8" x2="247.5" y2="263.2"/>
<polygon class="st19" points="248.9,265.9 223,250.9 223,247.1 248.9,262.1 "/>
<polygon class="st20" points="245.1,276.6 226.4,265.8 226.4,265.5 245.1,276.3 "/>
<polygon class="st20" points="245.8,289.3 226.9,278.4 226.9,278.1 245.8,289.1 "/>
<polygon class="st18" points="52.9,371.3 33.6,360.2 33.6,319.8 52.9,330.9 "/>
<path class="st19" d="M53,374.3c-0.3-0.2-0.5-0.6-0.5-0.9v-42.8c0-0.3,0.2-0.5,0.5-0.3c0.3,0.2,0.5,0.5,0.5,0.9V374
	C53.6,374.3,53.3,374.5,53,374.3z"/>
<polygon class="st20" points="43.9,366.1 43.6,365.9 43.6,325.5 43.9,325.7 "/>
<path class="st19" d="M33.7,363.1c-0.3-0.2-0.5-0.6-0.5-0.9v-42.8c0-0.3,0.2-0.5,0.5-0.3c0.3,0.2,0.5,0.5,0.5,0.9v42.8
	C34.2,363.1,34,363.3,33.7,363.1z"/>
<polygon class="st19" points="56.2,374.2 30.3,359.2 30.3,357.3 56.2,372.2 "/>
<line class="st21" x1="31.7" y1="318.6" x2="54.9" y2="332"/>
<polygon class="st19" points="56.2,334.7 30.3,319.8 30.3,315.9 56.2,330.9 "/>
<polygon class="st20" points="52.5,345.5 33.7,334.6 33.7,334.4 52.5,345.2 "/>
<polygon class="st20" points="53.2,358.1 34.2,347.2 34.2,347 53.2,357.9 "/>
<polygon class="st18" points="100.8,398.6 81.6,387.5 81.6,347.2 100.8,358.3 "/>
<path class="st19" d="M100.9,401.7c-0.3-0.2-0.5-0.6-0.5-0.9V358c0-0.4,0.2-0.5,0.5-0.3c0.3,0.2,0.5,0.5,0.5,0.9v42.8
	C101.5,401.7,101.2,401.9,100.9,401.7z"/>
<polygon class="st20" points="91.8,393.4 91.5,393.3 91.5,352.9 91.8,353 "/>
<path class="st19" d="M81.6,390.5c-0.3-0.2-0.5-0.6-0.5-0.9v-42.8c0-0.3,0.2-0.5,0.5-0.3c0.3,0.2,0.5,0.5,0.5,0.9v42.8
	C82.1,390.6,81.9,390.7,81.6,390.5z"/>
<polygon class="st19" points="104.2,401.5 78.2,386.6 78.2,384.7 104.2,399.6 "/>
<line class="st21" x1="79.6" y1="346" x2="102.8" y2="359.4"/>
<polygon class="st19" points="104.2,362.1 78.2,347.1 78.2,343.3 104.2,358.3 "/>
<polygon class="st20" points="100.4,372.8 81.6,362 81.6,361.8 100.4,372.6 "/>
<polygon class="st20" points="101.1,385.5 82.2,374.6 82.2,374.4 101.1,385.3 "/>
<polygon class="st22" points="148.1,458.9 121,443.3 121,372.4 148.1,388 "/>
<path class="st19" d="M148.2,461.2c-0.4-0.3-0.7-0.8-0.6-1.4v-70.2c0-0.6,0.3-0.9,0.6-0.6c0.4,0.3,0.6,0.8,0.6,1.4v70.2
	C148.8,461.1,148.6,461.4,148.2,461.2z"/>
<path class="st19" d="M121.5,444.7c-0.4-0.3-0.6-0.9-0.6-1.4v-70.8c0-0.6,0.3-0.9,0.6-0.6c0.4,0.3,0.7,0.9,0.6,1.4V444
	C122.1,444.6,121.8,444.9,121.5,444.7z"/>
<polygon class="st19" points="150.1,462.4 119,444.4 119,442.1 150.1,460.1 "/>
<line class="st21" x1="119.7" y1="371.6" x2="149.5" y2="388.8"/>
<polygon class="st19" points="151.2,392.1 117.9,372.9 117.9,368.3 151.2,387.5 "/>
<polygon class="st18" points="197.8,454.6 178.6,443.5 178.6,403.1 197.8,414.2 "/>
<path class="st19" d="M198,457.6c-0.3-0.2-0.5-0.5-0.5-0.9v-42.8c0-0.3,0.2-0.5,0.5-0.3c0.3,0.2,0.5,0.5,0.5,0.9v42.8
	C198.5,457.6,198.3,457.8,198,457.6z"/>
<polygon class="st20" points="188.8,449.4 188.5,449.2 188.5,408.8 188.8,409 "/>
<path class="st19" d="M178.6,446.5c-0.3-0.2-0.5-0.5-0.5-0.9v-42.8c0-0.3,0.2-0.5,0.5-0.3c0.3,0.2,0.5,0.5,0.5,0.9v42.8
	C179.2,446.5,178.9,446.6,178.6,446.5z"/>
<polygon class="st19" points="201.2,457.5 175.2,442.5 175.2,440.6 201.2,455.6 "/>
<line class="st21" x1="176.6" y1="401.9" x2="199.8" y2="415.3"/>
<polygon class="st19" points="201.2,418 175.2,403.1 175.2,399.2 201.2,414.2 "/>
<polygon class="st20" points="197.4,428.8 178.7,417.9 178.7,417.7 197.4,428.5 "/>
<polygon class="st20" points="198.2,441.5 179.2,430.5 179.2,430.3 198.2,441.3 "/>
<polygon class="st18" points="246.3,482.3 227.1,471.2 227.1,430.8 246.3,441.9 "/>
<path class="st19" d="M246.5,485.3c-0.3-0.2-0.5-0.5-0.5-0.9v-42.8c0-0.3,0.2-0.5,0.5-0.3c0.3,0.2,0.5,0.5,0.5,0.9V485
	C247,485.4,246.8,485.5,246.5,485.3z"/>
<polygon class="st20" points="237.3,477.1 237,476.9 237,436.5 237.3,436.7 "/>
<path class="st19" d="M227.2,474.1c-0.3-0.2-0.5-0.5-0.5-0.9v-42.8c0-0.3,0.2-0.5,0.5-0.3c0.3,0.2,0.5,0.5,0.5,0.9v42.8
	C227.7,474.2,227.5,474.3,227.2,474.1z"/>
<polygon class="st19" points="249.7,485.2 223.8,470.2 223.8,468.3 249.7,483.3 "/>
<line class="st21" x1="225.1" y1="429.7" x2="248.3" y2="443.1"/>
<polygon class="st19" points="249.7,445.7 223.8,430.8 223.8,427 249.7,441.9 "/>
<polygon class="st20" points="246,456.5 227.2,445.6 227.2,445.4 246,456.2 "/>
<polygon class="st20" points="246.7,469.2 227.7,458.2 227.7,458 246.7,469 "/>
<polygon class="st18" points="378.5,376.8 397.7,365.7 397.7,325.3 378.5,336.4 "/>
<path class="st19" d="M378.3,379.8c0.3-0.2,0.5-0.6,0.5-0.9v-42.7c0-0.3-0.2-0.5-0.5-0.3c-0.3,0.2-0.5,0.5-0.5,0.9v42.8
	C377.8,379.8,378,380,378.3,379.8z"/>
<polygon class="st20" points="387.5,371.6 387.8,371.4 387.8,331 387.5,331.2 "/>
<path class="st19" d="M397.7,368.6c0.3-0.2,0.5-0.6,0.5-0.9V325c0-0.3-0.2-0.5-0.5-0.3c-0.3,0.2-0.5,0.5-0.5,0.9v42.8
	C397.1,368.7,397.4,368.8,397.7,368.6z"/>
<polygon class="st19" points="375.1,379.7 401,364.7 401,362.8 375.1,377.8 "/>
<line class="st21" x1="399.7" y1="324.1" x2="376.5" y2="337.5"/>
<polygon class="st19" points="375.1,340.2 401,325.2 401,321.4 375.1,336.4 "/>
<polygon class="st20" points="378.8,351 397.6,340.1 397.6,339.9 378.8,350.7 "/>
<polygon class="st20" points="378.1,363.6 397.1,352.7 397.1,352.5 378.1,363.4 "/>
<polygon class="st18" points="329.9,404.5 349.2,393.4 349.2,353 329.9,364.1 "/>
<path class="st19" d="M329.8,407.5c0.3-0.2,0.5-0.6,0.5-0.9v-42.8c0-0.3-0.2-0.5-0.5-0.3c-0.3,0.2-0.5,0.5-0.5,0.9v42.8
	C329.3,407.5,329.6,407.7,329.8,407.5z"/>
<polygon class="st20" points="339,399.3 339.2,399.1 339.2,358.7 339,358.9 "/>
<path class="st19" d="M349.1,396.4c0.3-0.2,0.5-0.6,0.5-0.9v-42.8c0-0.3-0.2-0.5-0.5-0.3c-0.3,0.2-0.5,0.5-0.5,0.9V396
	C348.6,396.4,348.8,396.5,349.1,396.4z"/>
<polygon class="st19" points="326.6,407.4 352.5,392.4 352.5,390.5 326.6,405.5 "/>
<line class="st21" x1="351.2" y1="351.9" x2="328" y2="365.2"/>
<polygon class="st19" points="326.6,367.9 352.5,353 352.5,349.1 326.6,364.1 "/>
<polygon class="st20" points="330.3,378.7 349.1,367.8 349.1,367.6 330.3,378.4 "/>
<polygon class="st20" points="329.6,391.4 348.6,380.4 348.6,380.2 329.6,391.1 "/>
<polygon class="st18" points="378.5,283.1 397.7,272 397.7,231.7 378.5,242.8 "/>
<path class="st19" d="M378.3,286.1c0.3-0.2,0.5-0.5,0.5-0.9v-42.7c0-0.3-0.2-0.5-0.5-0.3c-0.3,0.2-0.5,0.6-0.5,0.9v42.8
	C377.8,286.2,378,286.4,378.3,286.1z"/>
<polygon class="st20" points="387.5,277.9 387.8,277.8 387.8,237.4 387.5,237.5 "/>
<path class="st19" d="M397.7,275c0.3-0.2,0.5-0.5,0.5-0.9v-42.8c0-0.3-0.2-0.5-0.5-0.3c-0.3,0.2-0.5,0.6-0.5,0.9v42.8
	C397.1,275,397.4,275.1,397.7,275z"/>
<polygon class="st19" points="375.1,286 401,271.1 401,269.1 375.1,284.1 "/>
<line class="st21" x1="399.7" y1="230.5" x2="376.5" y2="243.9"/>
<polygon class="st19" points="375.1,246.6 401,231.6 401,227.8 375.1,242.8 "/>
<polygon class="st20" points="378.8,257.3 397.6,246.5 397.6,246.2 378.8,257.1 "/>
<polygon class="st20" points="378.1,270 397.1,259.1 397.1,258.9 378.1,269.8 "/>
<polygon class="st18" points="329.9,310.9 349.2,299.8 349.2,259.4 329.9,270.5 "/>
<path class="st19" d="M329.8,313.9c0.3-0.2,0.5-0.5,0.5-0.9v-42.8c0-0.3-0.2-0.5-0.5-0.3c-0.3,0.2-0.5,0.5-0.5,0.9v42.8
	C329.3,313.9,329.6,314.1,329.8,313.9z"/>
<polygon class="st20" points="339,305.6 339.2,305.5 339.2,265.1 339,265.3 "/>
<path class="st19" d="M349.1,302.7c0.3-0.2,0.5-0.5,0.5-0.9V259c0-0.3-0.2-0.5-0.5-0.3c-0.3,0.2-0.5,0.6-0.5,0.9v42.8
	C348.6,302.8,348.8,302.9,349.1,302.7z"/>
<polygon class="st19" points="326.6,313.7 352.5,298.8 352.5,296.9 326.6,311.8 "/>
<line class="st21" x1="351.2" y1="258.2" x2="328" y2="271.6"/>
<polygon class="st19" points="326.6,274.3 352.5,259.3 352.5,255.5 326.6,270.5 "/>
<polygon class="st20" points="330.3,285 349.1,274.2 349.1,273.9 330.3,284.8 "/>
<polygon class="st20" points="329.6,297.7 348.6,286.8 348.6,286.6 329.6,297.5 "/>
<polygon class="st18" points="378.5,471 397.7,459.9 397.7,419.5 378.5,430.6 "/>
<path class="st19" d="M378.3,474c0.3-0.2,0.5-0.6,0.5-0.9v-42.8c0-0.3-0.2-0.5-0.5-0.3c-0.3,0.2-0.5,0.5-0.5,0.9v42.8
	C377.8,474.1,378,474.1,378.3,474z"/>
<polygon class="st20" points="387.5,465.8 387.8,465.6 387.8,425.2 387.5,425.4 "/>
<path class="st19" d="M397.7,462.9c0.3-0.2,0.5-0.6,0.5-0.9v-42.8c0-0.3-0.2-0.5-0.5-0.3c-0.3,0.2-0.5,0.5-0.5,0.9v42.8
	C397.1,462.9,397.4,463,397.7,462.9z"/>
<polygon class="st19" points="375.1,473.9 401,458.9 401,457 375.1,472 "/>
<line class="st21" x1="399.7" y1="418.4" x2="376.5" y2="431.7"/>
<polygon class="st19" points="375.1,434.4 401,419.5 401,415.6 375.1,430.6 "/>
<polygon class="st20" points="378.8,445.2 397.6,434.3 397.6,434.1 378.8,444.9 "/>
<polygon class="st20" points="378.1,457.9 397.1,446.9 397.1,446.7 378.1,457.6 "/>
<polygon class="st18" points="329.9,498.7 349.2,487.6 349.2,447.2 329.9,458.3 "/>
<path class="st19" d="M329.8,501.7c0.3-0.2,0.5-0.6,0.5-0.9V458c0-0.3-0.2-0.5-0.5-0.3c-0.3,0.2-0.5,0.5-0.5,0.9v42.8
	C329.3,501.8,329.6,501.9,329.8,501.7z"/>
<polygon class="st20" points="339,493.5 339.2,493.3 339.2,452.9 339,453.1 "/>
<path class="st19" d="M349.1,490.6c0.3-0.2,0.5-0.6,0.5-0.9v-42.8c0-0.3-0.2-0.5-0.5-0.3c-0.3,0.2-0.5,0.5-0.5,0.9v42.8
	C348.6,490.6,348.8,490.7,349.1,490.6z"/>
<polygon class="st19" points="326.6,501.6 352.5,486.6 352.5,484.7 326.6,499.7 "/>
<line class="st21" x1="351.2" y1="446.1" x2="328" y2="459.4"/>
<polygon class="st19" points="326.6,462.1 352.5,447.2 352.5,443.4 326.6,458.3 "/>
<polygon class="st20" points="330.3,472.9 349.1,462.1 349.1,461.8 330.3,472.6 "/>
<polygon class="st20" points="329.6,485.6 348.6,474.6 348.6,474.4 329.6,485.4 "/>
</svg>
