<?xml version="1.0" encoding="UTF-8"?><svg id="Laag_2" xmlns="http://www.w3.org/2000/svg" viewBox="0 0 696.78 884.13"><defs><style>.cls-1{fill:#5f868d;}.cls-2{fill:#fff;}.cls-3{fill:#cbcbcb;}.cls-4{fill:#866c5f;}.cls-5{fill:#b2b2b2;}.cls-6{fill:#9d807c;}.cls-7{fill:#57787f;}.cls-8{fill:gray;}.cls-9{fill:#ebe6dc;}.cls-10{fill:#292c33;}.cls-11{fill:#e5e5e5;}.cls-12{fill:#9f7d75;}.cls-13{fill:none;}.cls-14{fill:#684a46;}.cls-15{fill:#749fa9;}.cls-16{fill:#656976;}.cls-17{fill:#755848;}.cls-18{fill:#f1f1f1;}.cls-19{fill:#1b3444;}.cls-20{fill:#593e3c;}.cls-21{fill:#866663;}.cls-22{fill:#8abecb;}.cls-23{fill:#4c3431;}</style></defs><g id="Laag_2-2"><g><g><polygon class="cls-21" points="676.78 580.33 660.6 569.19 654.8 577.43 664.11 580.48 670.52 584.45 676.78 580.33"/><polygon class="cls-21" points="676.63 436.58 660.45 425.59 654.65 433.83 663.35 436.58 670.37 440.7 676.63 436.58"/><polygon class="cls-4" points="29.61 164.04 29.61 600.93 473.67 861.26 473.67 424.22 29.61 164.04"/><polygon class="cls-17" points="664.11 749.4 473.67 860.95 473.52 503.26 473.67 424.22 473.67 424.22 473.67 424.22 492.9 412.93 493.36 412.62 495.19 411.71 663.65 312.98 663.96 312.67 663.96 392.33 663.81 392.33 664.11 749.4"/><polygon class="cls-12" points="29.61 164.04 219.6 52.65 664.11 312.67 473.67 424.22 29.61 164.04"/><polygon class="cls-11" points="457.5 410.64 51.89 173.04 51.89 150.77 457.5 388.36 457.5 410.64"/><polygon class="cls-11" points="492.9 386.68 644.43 298.02 644.43 320.45 492.9 409.11 492.9 386.68"/><polygon class="cls-5" points="202.2 34.49 216.54 42.88 230.74 34.49 216.54 26.09 202.2 34.49"/><polygon class="cls-11" points="197.32 34.49 197.32 65.46 216.54 76.76 216.54 45.78 197.32 34.49"/><polygon class="cls-3" points="235.77 34.49 235.77 65.46 216.54 76.76 216.54 45.78 235.77 34.49"/><polygon class="cls-18" points="197.32 34.49 216.54 45.78 235.77 34.49 216.54 23.19 197.32 34.49"/><polygon class="cls-5" points="216.54 26.09 216.54 28.08 203.88 35.4 202.2 34.49 216.54 26.09"/><polyline class="cls-11" points="216.54 26.09 230.74 34.49 229.06 35.4 216.54 28.08"/><polygon class="cls-8" points="203.88 35.4 216.54 42.88 229.06 35.4 216.54 28.08 203.88 35.4"/><polygon class="cls-11" points="638.17 310.08 232.57 72.33 232.57 50.05 638.17 287.64 638.17 310.08"/><polygon class="cls-18" points="232.57 50.05 235.62 47.91 641.22 285.51 638.17 287.64 232.57 50.05"/><polygon class="cls-1" points="654.35 295.27 486.64 229.05 206.93 63.33 231.65 67.6 654.35 295.27"/><polygon class="cls-15" points="473.67 400.11 486.64 229.05 654.35 293.9 473.67 400.11"/><polygon class="cls-11" points="625.51 281.69 625.51 312.67 644.73 323.96 644.73 292.99 625.51 281.69"/><polygon class="cls-3" points="664.11 281.69 664.11 312.67 644.73 323.96 644.73 292.99 664.11 281.69"/><polygon class="cls-18" points="625.51 281.69 644.73 292.99 664.11 281.69 644.73 270.4 625.51 281.69"/><polygon class="cls-5" points="630.54 281.69 644.73 290.09 659.08 281.69 644.73 273.3 630.54 281.69"/><polygon class="cls-8" points="632.22 282.61 644.73 290.09 657.4 282.61 644.73 275.28 632.22 282.61"/><polygon class="cls-5" points="644.73 273.3 644.73 275.28 632.22 282.61 630.54 281.69 644.73 273.3"/><polygon class="cls-11" points="644.73 273.3 659.08 281.69 657.4 282.61 644.73 275.28 644.73 273.3"/><polygon class="cls-3" points="492.9 393.39 644.73 304.74 644.73 327.17 492.9 415.83 492.9 393.39"/><polygon class="cls-18" points="492.9 393.39 492.9 389.58 641.68 302.75 644.73 304.74 492.9 393.39"/><polygon class="cls-3" points="48.99 138.4 200.52 49.75 200.52 72.18 48.99 160.84 48.99 138.4"/><polygon class="cls-18" points="48.99 138.4 48.99 134.59 197.32 47.91 200.52 49.75 48.99 138.4"/><polygon class="cls-7" points="206.93 63.33 51.89 154.73 51.13 144.2 200.52 63.94 206.93 63.33"/><polygon class="cls-11" points="29.61 132.91 29.61 163.89 48.84 175.18 48.84 144.2 29.61 132.91"/><polygon class="cls-3" points="68.07 132.91 68.07 163.89 48.84 175.18 48.84 144.2 68.07 132.91"/><polygon class="cls-18" points="29.61 132.91 48.84 144.2 68.07 132.91 48.84 121.62 29.61 132.91"/><polygon class="cls-5" points="34.65 132.91 48.84 141.3 63.18 132.91 48.84 124.52 34.65 132.91"/><polygon class="cls-8" points="36.33 133.83 48.84 141.3 61.51 133.83 48.84 126.5 36.33 133.83"/><polygon class="cls-5" points="48.84 124.52 48.84 126.5 36.33 133.83 34.65 132.91 48.84 124.52"/><polyline class="cls-11" points="48.84 124.52 63.18 132.91 61.51 133.83 48.84 126.5"/><polygon class="cls-22" points="486.64 229.05 206.93 63.33 51.89 154.73 473.67 400.11 486.64 229.05"/><polygon class="cls-18" points="48.84 156.87 51.89 154.73 457.5 392.33 454.44 394.62 48.84 156.87"/><polygon class="cls-11" points="454.44 381.8 454.44 412.93 473.67 424.22 473.67 393.09 454.44 381.8"/><polygon class="cls-3" points="492.9 381.8 492.9 412.93 473.67 424.22 473.67 393.09 492.9 381.8"/><polygon class="cls-18" points="454.44 381.8 473.67 393.09 492.9 381.8 473.67 370.66 454.44 381.8"/><polygon class="cls-5" points="459.48 381.8 473.67 390.19 488.02 381.8 473.67 373.56 459.48 381.8"/><polygon class="cls-8" points="461.16 382.87 473.67 390.19 486.34 382.87 473.67 375.54 461.16 382.87"/><polygon class="cls-5" points="473.67 373.56 473.67 375.54 461.16 382.87 459.48 381.8 473.67 373.56"/><polygon class="cls-11" points="473.67 373.56 488.02 381.8 486.34 382.87 473.67 375.54 473.67 373.56"/><polygon class="cls-11" points="246 188.15 206.02 245.07 283.69 290.54 246 188.15"/><polygon class="cls-11" points="454.44 416.89 48.84 179.3 48.84 156.87 454.44 394.62 454.44 416.89"/><polygon class="cls-11" points="242.18 191.05 202.2 247.97 279.87 293.44 242.18 191.05"/><polygon class="cls-18" points="279.41 292.53 282.92 290.54 245.23 188.15 241.72 190.14 279.41 292.53"/><polygon class="cls-19" points="240.2 251.94 233.03 247.82 233.03 232.56 240.2 236.68 240.2 251.94"/><polygon class="cls-14" points="473.67 428.19 29.61 168.01 29.61 164.04 473.67 424.22 473.67 428.19"/><polygon class="cls-20" points="473.67 428.19 664.11 316.79 664.11 312.67 473.67 424.22 473.67 428.19"/><polygon class="cls-6" points="20 297.11 20 309.16 473.67 578.95 473.67 566.75 20 297.11"/><polyline class="cls-23" points="473.82 578.8 473.67 578.95 473.67 566.75 473.82 566.59 664.26 444.67 670.37 440.7 676.63 436.58 676.63 448.79"/><polygon class="cls-21" points="670.37 440.7 664.26 444.67 473.82 566.59 473.67 566.75 473.67 558.66 473.82 558.66 664.26 436.58 664.26 436.58 664.26 436.58 670.37 440.7"/><polygon class="cls-21" points="473.67 558.66 473.67 566.75 473.52 566.75 20 296.95 29.92 294.82 316.8 465.42 473.52 558.66 473.67 558.66"/><polygon class="cls-6" points="20.15 440.7 20.15 452.91 473.67 722.55 473.67 710.34 20.15 440.7"/><polygon class="cls-23" points="473.98 722.55 473.82 722.7 473.82 710.49 473.98 710.34 664.42 588.26 670.52 584.45 676.78 580.33 676.78 592.53 473.98 722.55"/><polygon class="cls-21" points="670.52 584.45 664.42 588.26 473.98 710.34 473.82 710.49 473.82 702.4 473.98 702.25 664.42 580.33 664.42 580.17 664.42 580.17 670.52 584.45"/><polygon class="cls-21" points="473.82 702.4 473.82 710.49 473.67 710.49 20.15 440.7 30.07 438.56 316.95 609.01 473.67 702.4 473.82 702.4"/><polygon class="cls-16" points="99.66 460.23 70.2 443.29 70.2 381.64 99.66 398.58 99.66 460.23"/><path class="cls-9" d="M99.81,464.81c-.46-.31-.76-.92-.76-1.37v-65.31c0-.46,.31-.76,.76-.46s.76,.76,.76,1.37v65.31c0,.61-.31,.76-.76,.46Z"/><polygon class="cls-9" points="86.07 453.06 85.16 452.14 85.16 389.58 86.07 390.5 86.07 453.06"/><path class="cls-9" d="M70.36,447.87c-.46-.31-.76-.92-.76-1.37v-65.31c0-.46,.31-.76,.76-.46s.76,.76,.76,1.37v65.31c0,.46-.31,.76-.76,.46Z"/><polygon class="cls-9" points="104.69 464.66 65.17 441.77 65.17 438.87 104.69 461.76 104.69 464.66"/><line class="cls-13" x1="67.31" y1="379.97" x2="102.55" y2="400.41"/><polygon class="cls-9" points="104.69 404.53 65.17 381.64 65.17 375.85 104.69 398.58 104.69 404.53"/><polygon class="cls-9" points="99.35 421.32 70.05 404.53 70.05 403.47 99.35 420.25 99.35 421.32"/><polygon class="cls-9" points="100.42 440.7 99.96 440.55 70.81 423.61 70.81 422.69 71.27 422.85 100.42 439.78 100.42 440.7"/><polygon class="cls-16" points="172.75 502.04 143.45 485.11 143.45 423.46 172.75 440.39 172.75 502.04"/><path class="cls-9" d="M172.9,506.62c-.46-.31-.76-.92-.76-1.37v-65.31c0-.46,.31-.76,.76-.46s.76,.76,.76,1.37v65.31c.15,.61-.31,.76-.76,.46Z"/><polygon class="cls-9" points="159.32 494.72 158.25 493.96 158.25 431.54 159.32 432.31 159.32 494.72"/><path class="cls-9" d="M143.45,489.68c-.46-.31-.76-.92-.76-1.37v-65.31c0-.61,.31-.76,.76-.46s.76,.76,.76,1.37v65.31c0,.46-.31,.61-.76,.46Z"/><polygon class="cls-9" points="177.79 506.47 138.26 483.58 138.26 480.68 177.79 503.57 177.79 506.47"/><line class="cls-13" x1="140.4" y1="421.78" x2="175.8" y2="442.07"/><polygon class="cls-9" points="177.79 446.19 138.26 423.46 138.26 417.66 177.79 440.39 177.79 446.19"/><polygon class="cls-9" points="172.44 463.13 143.15 446.19 143.15 445.28 172.44 462.06 172.44 463.13"/><polygon class="cls-9" points="173.51 482.51 173.05 482.36 143.91 465.42 143.91 464.51 144.37 464.66 173.51 481.6 173.51 482.51"/><polygon class="cls-16" points="246.76 546.6 217.46 529.66 217.46 468.01 246.76 484.95 246.76 546.6"/><path class="cls-9" d="M246.91,551.18c-.46-.31-.76-.92-.76-1.37v-65.31c0-.46,.31-.76,.76-.46s.76,.76,.76,1.37v65.31c.15,.61-.31,.76-.76,.46Z"/><polygon class="cls-9" points="233.33 539.28 232.26 538.51 232.26 476.1 233.33 476.87 233.33 539.28"/><path class="cls-9" d="M217.46,534.24c-.46-.31-.76-.92-.76-1.37v-65.31c0-.46,.31-.76,.76-.46s.76,.76,.76,1.37v65.31c0,.46-.31,.76-.76,.46Z"/><polygon class="cls-9" points="251.95 551.03 212.27 528.14 212.27 525.24 251.95 548.13 251.95 551.03"/><line class="cls-13" x1="214.41" y1="466.34" x2="249.81" y2="486.78"/><polygon class="cls-9" points="251.95 490.9 212.27 468.01 212.27 462.22 251.95 484.95 251.95 490.9"/><polygon class="cls-9" points="246.45 507.69 217.16 490.9 217.16 489.84 246.45 506.62 246.45 507.69"/><polygon class="cls-9" points="247.52 527.07 247.06 526.92 218.07 509.98 218.07 509.06 218.53 509.22 247.52 526.15 247.52 527.07"/><polygon class="cls-16" points="320.77 587.35 291.47 570.41 291.47 508.76 320.77 525.7 320.77 587.35"/><path class="cls-9" d="M321.07,592.08c-.46-.31-.76-.92-.76-1.37v-65.31c0-.46,.31-.76,.76-.46s.76,.76,.76,1.37v65.31c0,.46-.31,.61-.76,.46Z"/><polygon class="cls-9" points="307.34 579.87 306.27 579.41 306.27 517.15 307.34 517.61 307.34 579.87"/><path class="cls-9" d="M291.47,574.99c-.46-.31-.76-.76-.76-1.37v-65.31c0-.46,.31-.76,.76-.46s.76,.76,.76,1.37v65.31c0,.46-.31,.76-.76,.46Z"/><polygon class="cls-9" points="325.96 591.77 286.28 568.88 286.28 565.98 325.96 588.87 325.96 591.77"/><line class="cls-13" x1="288.42" y1="507.08" x2="323.82" y2="527.53"/><polygon class="cls-9" points="325.96 531.65 286.28 508.76 286.28 502.96 325.96 525.85 325.96 531.65"/><polygon class="cls-9" points="320.46 548.43 291.32 531.65 291.32 530.58 320.46 547.37 320.46 548.43"/><polygon class="cls-9" points="321.53 567.81 292.08 550.87 292.08 549.81 292.54 549.96 321.53 566.9 321.53 567.81"/><polygon class="cls-16" points="394.78 629.62 365.48 612.68 365.48 551.03 394.78 567.97 394.78 629.62"/><path class="cls-9" d="M395.08,634.35c-.46-.31-.76-.92-.76-1.37v-65.31c0-.46,.31-.76,.76-.46s.76,.76,.76,1.37v65.31c0,.46-.31,.61-.76,.46Z"/><polygon class="cls-9" points="381.35 622.14 380.28 621.68 380.28 559.42 381.35 559.88 381.35 622.14"/><path class="cls-9" d="M365.48,617.25c-.46-.31-.76-.76-.76-1.37v-65.31c0-.46,.31-.76,.76-.46s.76,.76,.76,1.37v65.31c.15,.46-.31,.76-.76,.46Z"/><polygon class="cls-9" points="399.97 634.04 360.44 611.3 360.44 608.25 399.97 631.14 399.97 634.04"/><line class="cls-13" x1="362.43" y1="549.35" x2="397.83" y2="569.8"/><polygon class="cls-9" points="399.97 573.92 360.44 551.03 360.44 545.23 399.97 568.12 399.97 573.92"/><polygon class="cls-9" points="394.47 590.7 365.33 573.92 365.33 572.85 394.47 589.79 394.47 590.7"/><polygon class="cls-9" points="395.54 610.08 366.09 593.14 366.09 592.23 395.54 609.17 395.54 610.08"/><polygon class="cls-16" points="99.66 315.27 70.2 298.33 70.2 236.68 99.66 253.62 99.66 315.27"/><path class="cls-9" d="M99.81,319.84c-.46-.31-.76-.76-.76-1.37v-65.31c0-.46,.31-.76,.76-.46s.76,.92,.76,1.37v65.31c0,.61-.31,.76-.76,.46Z"/><polygon class="cls-9" points="86.07 308.09 85.16 307.18 85.16 244.61 86.07 245.53 86.07 308.09"/><path class="cls-9" d="M70.36,302.9c-.46-.31-.76-.92-.76-1.37v-65.31c0-.46,.31-.76,.76-.46s.76,.92,.76,1.37v65.31c0,.46-.31,.61-.76,.46Z"/><polygon class="cls-9" points="104.69 319.69 65.17 296.8 65.17 293.9 104.69 316.79 104.69 319.69"/><line class="cls-13" x1="67.31" y1="235" x2="102.55" y2="255.29"/><polygon class="cls-9" points="104.69 259.41 65.17 236.68 65.17 230.88 104.69 253.62 104.69 259.41"/><polygon class="cls-9" points="99.35 276.35 70.05 259.57 70.05 258.5 99.35 275.28 99.35 276.35"/><polygon class="cls-9" points="100.42 295.73 70.81 278.64 70.81 277.73 100.42 294.82 100.42 295.73"/><polygon class="cls-16" points="172.75 357.08 143.45 340.14 143.45 278.49 172.75 295.43 172.75 357.08"/><path class="cls-9" d="M172.9,361.65c-.46-.31-.76-.92-.76-1.37v-65.16c0-.46,.31-.76,.76-.46s.76,.76,.76,1.37v65.31c.15,.31-.31,.61-.76,.31Z"/><polygon class="cls-9" points="159.32 349.75 158.25 348.99 158.25 286.58 159.32 287.34 159.32 349.75"/><path class="cls-9" d="M143.45,344.56c-.46-.31-.76-.92-.76-1.37v-65.31c0-.46,.31-.76,.76-.46s.76,.76,.76,1.37v65.31c0,.61-.31,.76-.76,.46Z"/><polygon class="cls-9" points="177.79 361.5 138.26 338.61 138.26 335.71 177.79 358.6 177.79 361.5"/><line class="cls-13" x1="140.4" y1="276.66" x2="175.8" y2="297.11"/><polygon class="cls-9" points="177.79 301.23 138.26 278.34 138.26 272.54 177.79 295.43 177.79 301.23"/><polygon class="cls-9" points="172.44 318.16 143.15 301.23 143.15 300.31 172.44 317.1 172.44 318.16"/><polygon class="cls-9" points="173.51 337.39 173.05 337.24 143.91 320.45 143.91 319.54 173.51 336.48 173.51 337.39"/><polygon class="cls-16" points="246.76 401.64 217.46 384.7 217.46 323.05 246.76 339.99 246.76 401.64"/><path class="cls-9" d="M246.91,406.21c-.46-.31-.76-.92-.76-1.37v-65.31c0-.46,.31-.76,.76-.46s.76,.92,.76,1.37v65.31c.15,.61-.31,.76-.76,.46Z"/><polygon class="cls-9" points="233.33 394.31 232.26 393.55 232.26 331.14 233.33 331.9 233.33 394.31"/><path class="cls-9" d="M217.46,389.27c-.46-.31-.76-.92-.76-1.37v-65.31c0-.46,.31-.76,.76-.46s.76,.76,.76,1.37v65.31c0,.46-.31,.61-.76,.46Z"/><polygon class="cls-9" points="251.95 406.06 212.27 383.17 212.27 380.27 251.95 403.16 251.95 406.06"/><line class="cls-13" x1="214.41" y1="321.37" x2="249.81" y2="341.82"/><polygon class="cls-9" points="251.95 345.78 212.27 323.05 212.27 317.25 251.95 339.99 251.95 345.78"/><polygon class="cls-9" points="246.45 362.72 217.16 345.94 217.16 344.87 246.45 361.65 246.45 362.72"/><polygon class="cls-9" points="247.52 382.1 247.06 381.95 218.07 365.01 218.07 364.1 218.53 364.25 247.52 381.19 247.52 382.1"/><polygon class="cls-16" points="320.77 442.38 291.47 425.44 291.47 363.79 320.77 380.73 320.77 442.38"/><path class="cls-9" d="M321.07,446.96c-.46-.31-.76-.92-.76-1.37v-65.31c0-.46,.31-.76,.76-.46s.76,.76,.76,1.37v65.31c0,.61-.31,.76-.76,.46Z"/><polygon class="cls-9" points="307.34 435.05 306.27 434.29 306.27 371.88 307.34 372.64 307.34 435.05"/><path class="cls-9" d="M291.47,430.02c-.46-.31-.76-.92-.76-1.37v-65.31c0-.46,.31-.76,.76-.46s.76,.76,.76,1.37v65.31c0,.46-.31,.76-.76,.46Z"/><polygon class="cls-9" points="325.96 446.8 286.28 423.91 286.28 421.01 325.96 443.9 325.96 446.8"/><line class="cls-13" x1="288.42" y1="362.11" x2="323.82" y2="382.56"/><polygon class="cls-9" points="325.96 386.68 286.28 363.79 286.28 357.99 325.96 380.88 325.96 386.68"/><polygon class="cls-9" points="320.46 403.47 291.32 386.68 291.32 385.61 320.46 402.4 320.46 403.47"/><polygon class="cls-9" points="321.53 422.85 321.07 422.69 292.08 405.76 292.08 404.84 292.54 404.99 321.53 421.93 321.53 422.85"/><polygon class="cls-16" points="394.78 484.65 365.48 467.71 365.48 406.06 394.78 423 394.78 484.65"/><path class="cls-9" d="M395.08,489.23c-.46-.31-.76-.92-.76-1.37v-65.31c0-.46,.31-.76,.76-.46s.76,.76,.76,1.37v65.31c0,.61-.31,.76-.76,.46Z"/><polygon class="cls-9" points="381.35 477.32 380.28 476.56 380.28 414.15 381.35 414.91 381.35 477.32"/><path class="cls-9" d="M365.48,472.29c-.46-.31-.76-.92-.76-1.37v-65.31c0-.46,.31-.76,.76-.46s.76,.76,.76,1.37v65.31c.15,.46-.31,.76-.76,.46Z"/><polygon class="cls-9" points="399.97 489.07 360.44 466.18 360.44 463.28 399.97 486.17 399.97 489.07"/><line class="cls-13" x1="362.43" y1="404.38" x2="397.83" y2="424.83"/><polygon class="cls-9" points="399.97 428.95 360.44 406.06 360.44 400.26 399.97 423.15 399.97 428.95"/><polygon class="cls-9" points="394.47 445.74 365.33 428.95 365.33 427.88 394.47 444.67 394.47 445.74"/><polygon class="cls-9" points="395.54 465.12 366.09 448.18 366.09 447.11 366.55 447.26 395.54 464.2 395.54 465.12"/><polygon class="cls-16" points="100.88 589.79 71.43 572.85 71.43 511.2 100.88 528.14 100.88 589.79"/><path class="cls-9" d="M101.03,594.37c-.46-.31-.76-.92-.76-1.37v-65.31c0-.46,.31-.76,.76-.46s.76,.76,.76,1.37v65.31c.15,.46-.31,.76-.76,.46Z"/><polygon class="cls-9" points="87.45 582.46 86.38 581.7 86.38 519.29 87.45 520.05 87.45 582.46"/><path class="cls-9" d="M71.58,577.27c-.46-.31-.76-.92-.76-1.37v-65.31c0-.46,.31-.76,.76-.46s.76,.76,.76,1.37v65.31c0,.46-.31,.76-.76,.46Z"/><polygon class="cls-9" points="105.91 594.21 66.39 571.32 66.39 568.42 105.91 591.16 105.91 594.21"/><line class="cls-13" x1="68.53" y1="509.37" x2="103.93" y2="529.82"/><polygon class="cls-9" points="105.91 533.94 66.39 511.2 66.39 505.25 105.91 528.14 105.91 533.94"/><polygon class="cls-9" points="100.57 550.87 71.27 533.94 71.27 533.02 100.57 549.81 100.57 550.87"/><polygon class="cls-9" points="101.64 570.1 101.18 569.95 72.04 553.16 72.04 552.25 72.49 552.4 101.64 569.19 101.64 570.1"/><polygon class="cls-16" points="173.97 631.45 144.67 614.51 144.67 553.01 173.97 569.95 173.97 631.45"/><path class="cls-9" d="M174.12,636.18c-.46-.31-.76-.92-.76-1.37v-65.31c0-.61,.31-.76,.76-.46s.76,.76,.76,1.37v65.31c.15,.46-.31,.76-.76,.46Z"/><polygon class="cls-9" points="160.54 623.97 159.47 623.51 159.47 561.25 160.54 561.71 160.54 623.97"/><path class="cls-9" d="M144.67,619.09c-.46-.31-.76-.92-.76-1.37v-65.31c0-.46,.31-.76,.76-.46s.76,.76,.76,1.37v65.31c0,.61-.31,.76-.76,.46Z"/><polygon class="cls-9" points="179.16 635.87 139.48 613.13 139.48 610.24 179.16 632.97 179.16 635.87"/><line class="cls-13" x1="141.62" y1="551.18" x2="177.02" y2="571.63"/><polygon class="cls-9" points="179.16 575.75 139.48 552.86 139.48 547.06 179.16 569.95 179.16 575.75"/><polygon class="cls-9" points="173.67 592.53 144.37 575.75 144.37 574.83 173.67 591.62 173.67 592.53"/><polygon class="cls-9" points="174.73 611.91 145.28 594.98 145.28 594.06 174.73 611 174.73 611.91"/><polygon class="cls-10" points="246.15 723.46 204.79 699.66 204.79 591.47 246.15 615.27 246.15 723.46"/><path class="cls-9" d="M246.3,726.97c-.61-.46-1.07-1.22-.92-2.14v-107.12c0-.92,.46-1.37,.92-.92,.61,.46,.92,1.22,.92,2.14v107.12c0,.76-.31,1.22-.92,.92Z"/><path class="cls-9" d="M205.56,701.79c-.61-.46-.92-1.37-.92-2.14v-108.04c0-.92,.46-1.37,.92-.92,.61,.46,1.07,1.37,.92,2.14v107.89c0,.92-.46,1.37-.92,1.07Z"/><polygon class="cls-9" points="249.2 728.8 201.74 701.34 201.74 697.83 249.2 725.29 249.2 728.8"/><line class="cls-13" x1="202.81" y1="590.25" x2="248.29" y2="616.49"/><polygon class="cls-9" points="250.88 621.53 200.06 592.23 200.06 585.21 250.88 614.51 250.88 621.53"/><polygon class="cls-16" points="321.99 716.9 292.69 699.96 292.69 638.31 321.99 655.25 321.99 716.9"/><path class="cls-9" d="M322.29,721.48c-.46-.31-.76-.76-.76-1.37v-65.31c0-.46,.31-.76,.76-.46s.76,.76,.76,1.37v65.31c0,.46-.31,.76-.76,.46Z"/><polygon class="cls-9" points="308.56 709.58 307.49 708.81 307.49 646.4 308.56 647.16 308.56 709.58"/><path class="cls-9" d="M292.69,704.54c-.46-.31-.76-.76-.76-1.37v-65.31c0-.46,.31-.76,.76-.46s.76,.76,.76,1.37v65.31c.15,.46-.31,.61-.76,.46Z"/><polygon class="cls-9" points="327.18 721.33 287.5 698.44 287.5 695.54 327.18 718.43 327.18 721.33"/><line class="cls-13" x1="289.64" y1="636.48" x2="325.04" y2="656.93"/><polygon class="cls-9" points="327.18 661.05 287.5 638.31 287.5 632.36 327.18 655.25 327.18 661.05"/><polygon class="cls-9" points="321.68 677.99 292.54 661.05 292.54 660.13 321.68 676.92 321.68 677.99"/><polygon class="cls-9" points="322.91 697.37 322.45 697.22 293.3 680.28 293.3 679.36 293.76 679.51 322.91 696.45 322.91 697.37"/><polygon class="cls-16" points="396 759.17 366.7 742.23 366.7 680.58 396 697.52 396 759.17"/><path class="cls-9" d="M396.3,763.75c-.46-.31-.76-.76-.76-1.37v-65.31c0-.46,.31-.76,.76-.46s.76,.76,.76,1.37v65.31c0,.61-.31,.76-.76,.46Z"/><polygon class="cls-9" points="382.57 751.85 381.5 751.08 381.5 688.67 382.57 689.43 382.57 751.85"/><path class="cls-9" d="M366.85,746.66c-.46-.31-.76-.76-.76-1.37v-65.31c0-.46,.31-.76,.76-.46s.76,.76,.76,1.37v65.31c0,.61-.31,.76-.76,.46Z"/><polygon class="cls-9" points="401.19 763.6 361.66 740.71 361.66 737.81 401.19 760.7 401.19 763.6"/><line class="cls-13" x1="363.65" y1="678.9" x2="399.05" y2="699.35"/><polygon class="cls-9" points="401.19 703.32 361.66 680.58 361.66 674.78 401.19 697.52 401.19 703.32"/><polygon class="cls-9" points="395.85 720.26 366.55 703.32 366.55 702.4 395.85 719.19 395.85 720.26"/><polygon class="cls-9" points="396.91 739.64 396.46 739.48 367.31 722.55 367.31 721.63 367.77 721.78 396.91 738.72 396.91 739.64"/><polygon class="cls-16" points="597.73 598.18 627.03 581.24 627.03 519.59 597.73 536.53 597.73 598.18"/><path class="cls-9" d="M597.43,602.76c.46-.31,.76-.92,.76-1.37v-65.16c0-.46-.31-.76-.76-.46s-.76,.76-.76,1.37v65.31c0,.31,.31,.61,.76,.31Z"/><polygon class="cls-9" points="611.16 590.86 611.16 528.44 612.23 527.68 612.23 590.09 611.16 590.86"/><path class="cls-9" d="M627.03,585.67c.46-.31,.76-.92,.76-1.37v-65.16c0-.46-.31-.76-.76-.46s-.76,.76-.76,1.37v65.31c-.15,.46,.31,.61,.76,.31Z"/><polygon class="cls-9" points="592.54 602.61 632.07 579.72 632.07 576.82 592.54 599.71 592.54 602.61"/><line class="cls-13" x1="630.08" y1="517.76" x2="594.68" y2="538.21"/><polygon class="cls-9" points="592.54 542.33 632.07 519.44 632.07 513.64 592.54 536.53 592.54 542.33"/><polygon class="cls-9" points="597.89 559.27 597.89 558.2 598.04 558.05 627.18 541.41 627.18 542.33 597.89 559.27"/><polygon class="cls-9" points="596.82 578.5 596.82 577.58 596.97 577.43 626.42 560.64 626.42 561.56 626.27 561.71 596.82 578.5"/><polygon class="cls-16" points="523.57 640.45 553.02 623.51 553.02 561.86 523.57 578.8 523.57 640.45"/><path class="cls-9" d="M523.42,645.03c.46-.31,.76-.92,.76-1.37v-65.31c0-.46-.31-.76-.76-.46s-.76,.76-.76,1.37v65.31c0,.46,.46,.76,.76,.46Z"/><polygon class="cls-9" points="537.15 633.28 537.15 570.71 538.07 569.8 538.07 632.36 537.15 633.28"/><path class="cls-9" d="M552.87,628.09c.46-.31,.76-.92,.76-1.37v-65.31c0-.46-.31-.76-.76-.46s-.76,.76-.76,1.37v65.16c0,.61,.31,.76,.76,.61Z"/><polygon class="cls-9" points="518.53 644.87 558.06 621.99 558.06 619.09 518.53 641.98 518.53 644.87"/><line class="cls-13" x1="556.07" y1="560.18" x2="520.67" y2="580.48"/><polygon class="cls-9" points="518.53 584.6 558.06 561.86 558.06 555.91 518.53 578.8 518.53 584.6"/><polygon class="cls-9" points="523.88 601.54 523.88 600.47 524.03 600.32 553.17 583.68 553.17 584.6 523.88 601.54"/><polygon class="cls-9" points="522.81 620.92 522.81 619.85 522.96 619.7 552.41 602.91 552.41 603.83 522.81 620.92"/><polygon class="cls-16" points="597.73 455.2 627.03 438.26 627.03 376.76 597.73 393.7 597.73 455.2"/><path class="cls-9" d="M597.43,459.77c.46-.31,.76-.76,.76-1.37v-65.16c0-.46-.31-.76-.76-.46s-.76,.92-.76,1.37v65.31c0,.46,.31,.76,.76,.31Z"/><polygon class="cls-9" points="611.16 447.72 611.16 385.46 612.23 385 612.23 447.26 611.16 447.72"/><path class="cls-9" d="M627.03,442.84c.46-.31,.76-.76,.76-1.37v-65.31c0-.46-.31-.76-.76-.46s-.76,.92-.76,1.37v65.31c-.15,.46,.31,.61,.76,.46Z"/><polygon class="cls-9" points="592.54 459.62 632.07 436.88 632.07 433.83 592.54 456.72 592.54 459.62"/><line class="cls-13" x1="630.08" y1="374.93" x2="594.68" y2="395.38"/><polygon class="cls-9" points="592.54 399.5 632.07 376.61 632.07 370.81 592.54 393.7 592.54 399.5"/><polygon class="cls-9" points="597.89 416.28 597.89 415.37 627.18 398.43 627.18 399.5 627.03 399.65 597.89 416.28"/><polygon class="cls-9" points="596.82 435.66 596.82 434.75 596.97 434.6 626.42 417.81 626.42 418.73 626.27 418.88 596.82 435.66"/><polygon class="cls-16" points="523.57 497.62 553.02 480.68 553.02 419.03 523.57 435.97 523.57 497.62"/><path class="cls-9" d="M523.42,502.2c.46-.31,.76-.76,.76-1.37v-65.31c0-.46-.31-.76-.76-.46s-.76,.76-.76,1.37v65.31c0,.46,.46,.76,.76,.46Z"/><polygon class="cls-9" points="537.15 489.99 537.15 427.88 538.07 426.97 538.07 489.53 537.15 489.99"/><path class="cls-9" d="M552.87,485.11c.46-.31,.76-.76,.76-1.37v-65.31c0-.46-.31-.76-.76-.46s-.76,.92-.76,1.37v65.31c0,.61,.31,.76,.76,.46Z"/><polygon class="cls-9" points="518.53 501.89 558.06 479.15 558.06 476.26 518.53 498.99 518.53 501.89"/><line class="cls-13" x1="556.07" y1="417.2" x2="520.67" y2="437.65"/><polygon class="cls-9" points="518.53 441.77 558.06 418.88 558.06 413.08 518.53 435.97 518.53 441.77"/><polygon class="cls-9" points="523.88 458.55 523.88 457.64 553.17 440.7 553.17 441.77 553.02 441.92 523.88 458.55"/><polygon class="cls-9" points="522.81 477.93 522.81 477.02 522.96 476.87 552.41 460.08 552.41 461 552.26 461.15 522.81 477.93"/><polygon class="cls-16" points="597.73 741.93 627.03 724.99 627.03 663.34 597.73 680.28 597.73 741.93"/><path class="cls-9" d="M597.43,746.5c.46-.31,.76-.92,.76-1.37v-65.31c0-.46-.31-.76-.76-.46s-.76,.76-.76,1.37v65.31c0,.61,.31,.61,.76,.46Z"/><polygon class="cls-9" points="611.16 734.6 611.16 672.19 612.23 671.43 612.23 733.84 611.16 734.6"/><path class="cls-9" d="M627.03,729.57c.46-.31,.76-.92,.76-1.37v-65.31c0-.46-.31-.76-.76-.46s-.76,.76-.76,1.37v65.31c-.15,.46,.31,.61,.76,.46Z"/><polygon class="cls-9" points="592.54 746.35 632.07 723.46 632.07 720.56 592.54 743.45 592.54 746.35"/><line class="cls-13" x1="630.08" y1="661.66" x2="594.68" y2="681.96"/><polygon class="cls-9" points="592.54 686.08 632.07 663.34 632.07 657.39 592.54 680.28 592.54 686.08"/><polygon class="cls-9" points="597.89 703.01 597.89 701.95 598.04 701.79 627.18 685.16 627.18 686.08 597.89 703.01"/><polygon class="cls-9" points="596.82 722.39 596.82 721.33 596.97 721.17 626.42 704.39 626.42 705.3 596.82 722.39"/><polygon class="cls-16" points="523.57 784.2 553.02 767.26 553.02 705.61 523.57 722.55 523.57 784.2"/><path class="cls-9" d="M523.42,788.77c.46-.31,.76-.92,.76-1.37v-65.31c0-.46-.31-.76-.76-.46s-.76,.76-.76,1.37v65.31c0,.61,.46,.76,.76,.46Z"/><polygon class="cls-9" points="537.15 777.02 537.15 714.46 538.07 713.54 538.07 776.11 537.15 777.02"/><path class="cls-9" d="M552.87,771.84c.46-.31,.76-.92,.76-1.37v-65.31c0-.46-.31-.76-.76-.46s-.76,.76-.76,1.37v65.31c0,.46,.31,.61,.76,.46Z"/><polygon class="cls-9" points="518.53 788.62 558.06 765.73 558.06 762.83 518.53 785.72 518.53 788.62"/><line class="cls-13" x1="556.07" y1="703.93" x2="520.67" y2="724.23"/><polygon class="cls-9" points="518.53 728.35 558.06 705.61 558.06 699.81 518.53 722.55 518.53 728.35"/><polygon class="cls-9" points="523.88 745.28 523.88 744.22 524.03 744.06 553.17 727.43 553.17 728.5 553.02 728.65 523.88 745.28"/><polygon class="cls-9" points="522.81 764.66 522.81 763.75 552.41 746.66 552.41 747.57 522.81 764.66"/></g><path class="cls-2" d="M216.54,23.19l19.23,11.29-.15,13.43,394.48,231.08,14.63-8.59,19.38,11.29v35.1l-.27,111.1,12.79,8.69v12.32l-12.76,8.12,.1,114.47,12.82,8.83v12.31l-12.76,8.09v148.68l-190.35,111.55L29.61,600.93v-142.39l-9.46-5.63v-12.21l9.46-2.04v-123.78l-9.61-5.72v-12.21l9.61-2.07V132.91l19.23-11.29,11.15,6.55L197.32,47.91v-13.43l19.23-11.29m0-23.19l-10.13,5.95-19.23,11.29-9.87,5.8v13.4L60.01,104.99l-1.04-.61-10.13-5.95-10.13,5.95-19.23,11.29-9.87,5.8v157.27l-9.61,2.07v39.73l9.61,5.72v96.26l-9.46,2.04v39.74l9.46,5.62v142.48l9.89,5.79,444.06,260.03,10.11,5.92,10.11-5.92,190.35-111.55,9.89-5.79v-149.14l3.47-2.2,9.29-5.89v-33.82l-8.66-5.96-4.17-2.87-.08-92.98,3.49-2.22,9.26-5.89v-33.9l-8.76-5.95-4-2.72,.25-100.48v-46.64l-9.93-5.79-19.38-11.29-10.11-5.89-10.09,5.92-4.52,2.65L255.75,36.53l.02-1.81,.13-11.6-10-5.87-19.23-11.29-10.13-5.95h0Z"/></g></g></svg>