<?xml version="1.0" encoding="utf-8"?>
<!-- Generator: Adobe Illustrator 25.4.6, SVG Export Plug-In . SVG Version: 6.00 Build 0)  -->
<svg version="1.1" id="Laag_1" xmlns="http://www.w3.org/2000/svg" xmlns:xlink="http://www.w3.org/1999/xlink" x="0px" y="0px"
	 viewBox="0 0 680.3 671.9" style="enable-background:new 0 0 680.3 671.9;" xml:space="preserve">
<style type="text/css">
	.st0{fill:#F6E2A0;}
	.st1{fill:#D7C58C;}
	.st2{fill:#59645B;}
	.st3{fill:#E7F0F4;}
	.st4{fill:#C7CECE;}
	.st5{fill:#A6A9A4;}
	.st6{fill:#6B6377;}
	.st7{fill:#866C5F;}
	.st8{fill:#755848;}
	.st9{fill:#00C2DE;}
	.st10{fill:#ADDFEB;}
	.st11{fill:#89BECB;}
	.st12{fill:#6596A2;}
	.st13{fill:#049498;}
	.st14{fill:#EA3645;}
	.st15{fill:#C1272D;}
	.st16{fill:#ED1C24;}
	.st17{fill:#FFFFFF;}
	.st18{fill:#00D8DC;stroke:#FFFFFF;stroke-width:6.15;stroke-miterlimit:10;}
	.st19{fill:#5DEAF6;}
	.st20{fill:#04AEF0;}
	.st21{fill:#5E5869;}
	.st22{fill:#433F4C;}
	.st23{fill:#6F697B;}
	.st24{fill:#999999;}
	.st25{fill:#E3E3E3;}
	.st26{fill:#8C6239;}
	.st27{fill:#C7C7C7;}
	.st28{fill:#754C24;}
</style>
<polygon class="st0" points="526.8,160.7 526.8,603.9 660.6,525.5 660.6,82.3 "/>
<polygon class="st1" points="526.8,160.7 392.9,82.3 392.9,525.5 526.8,603.9 "/>
<polygon class="st2" points="400.4,82.3 524.9,9.4 649.4,82.3 524.9,155.3 "/>
<path class="st3" d="M526.8,14.8L642,82.3l-115.2,67.5L411.6,82.3L526.8,14.8 M526.8,3.8L392.9,82.3l133.9,78.4l133.9-78.4
	L526.8,3.8L526.8,3.8z"/>
<polygon class="st4" points="411.6,82.3 413,83.2 526.7,17.2 526.7,14.8 "/>
<polygon class="st5" points="642,82.3 640.5,83.2 526.8,17.2 526.8,14.8 "/>
<polygon class="st6" points="579.8,520.6 579.8,572.9 607.8,556.5 607.8,504.2 "/>
<polygon class="st7" points="526.8,603.9 526.8,564.7 571.4,538.6 571.4,577.8 "/>
<polygon class="st7" points="616,551.7 616,512.5 660.7,486.4 660.6,525.6 "/>
<polygon class="st8" points="526.8,603.9 526.8,564.7 392.9,486.3 392.9,525.5 "/>
<polygon class="st9" points="563.9,518.4 578.1,537.9 621.6,512.4 607.2,493 "/>
<polygon class="st10" points="563.9,516 578.1,535.6 621.6,510.1 607.2,490.7 "/>
<polygon class="st11" points="563.9,518.4 563.9,516 578.1,535.6 578.1,537.9 "/>
<polygon class="st12" points="621.6,512.4 621.6,510.1 578.1,535.6 578.1,537.9 "/>
<polygon class="st13" points="675.3,427.2 656.5,416.4 656.5,352.5 675.3,363.4 "/>
<polygon class="st14" points="671.8,429.3 653,418.5 653,354.6 671.8,365.4 "/>
<polygon class="st15" points="653,354.6 656.5,352.5 675.3,363.4 671.8,365.4 "/>
<polygon class="st16" points="671.8,365.4 671.8,429.3 675.3,427.2 675.3,363.4 "/>
<path class="st17" d="M660.3,366.7v2.9l2.9,1.7v-2.9l0.8,0.5v6.9l-0.8-0.5V372l-2.9-1.7v3.2l-0.8-0.5v-6.9L660.3,366.7z"/>
<path class="st17" d="M664.5,382.7c0,2.4-1.2,2.9-2.8,2c-1.7-1.1-2.7-3-2.7-5.1c0-2.2,1.2-3,2.8-2
	C663.5,378.8,664.5,380.7,664.5,382.7z M659.8,380.2c-0.1,1.5,0.7,3,1.9,3.9c1.2,0.7,1.9-0.2,1.9-1.8c0-1.5-0.7-3-1.9-3.9
	C660.5,377.7,659.8,378.7,659.8,380.2z"/>
<path class="st17" d="M661.3,388.6l-1.8-1v-0.8l4.4,2.6v0.8l-1.8-1.1v6.2l-0.8-0.5L661.3,388.6z"/>
<path class="st17" d="M663.3,402.9l-2.3-1.4v2.5l2.6,1.5v0.8l-3.4-2v-6.9l3.2,1.9v0.8l-2.5-1.4v2.2l2.3,1.4v0.6H663.3z"/>
<path class="st17" d="M660.3,407.8l0.8,0.5v6.2l2.6,1.5v0.8l-3.3-2L660.3,407.8L660.3,407.8z"/>
<polygon class="st18" points="10.3,529 243,665.3 376,587.4 141.8,452 "/>
<polygon class="st19" points="16.5,529 22.4,532.6 141.8,462.7 141.8,455.6 "/>
<polygon class="st20" points="369.8,587.4 363.9,590.9 141.8,462.7 141.8,455.6 "/>
<polygon class="st21" points="571.4,577.8 589.3,588.3 633.8,562 616,551.7 "/>
<polygon class="st22" points="571.4,579.8 571.4,577.8 589.3,588.3 589.3,590.3 "/>
<polygon class="st23" points="633.8,562 633.8,564 589.3,590.3 589.3,588.3 "/>
<polygon class="st24" points="526.8,160.7 392.9,82.3 392.9,116.6 526.8,195.1 "/>
<polygon class="st10" points="587.5,185.5 607.1,174 607.1,211.9 587.5,223.4 "/>
<path class="st17" d="M606.2,175.5v35.8l-17.8,10.4V186L606.2,175.5 M608,172.4L586.6,185v40l21.4-12.6V172.4L608,172.4z"/>
<polygon class="st11" points="606.2,175.5 604.4,176.6 604.4,212.1 606.2,211.4 "/>
<polygon class="st12" points="606.2,211.4 604.4,210.3 588.4,219.7 588.4,221.9 "/>
<polygon class="st10" points="554.1,205.2 573.7,193.7 573.7,231.6 554.1,243.1 "/>
<path class="st17" d="M572.8,195.2v35.9L555,241.5v-35.8L572.8,195.2 M574.6,192.1l-21.4,12.6v40l21.4-12.6V192.1L574.6,192.1z"/>
<polygon class="st11" points="572.8,195.2 571.1,196.3 571,231.8 572.8,231.1 "/>
<polygon class="st12" points="572.8,231.1 571,230 555,239.4 555,241.5 "/>
<polygon class="st10" points="618.7,167.3 638.3,155.8 638.3,193.8 618.7,205.3 "/>
<path class="st17" d="M637.4,157.4v35.9l-17.8,10.4v-35.9L637.4,157.4 M639.2,154.2l-21.4,12.6v40l21.5-12.5L639.2,154.2
	L639.2,154.2z"/>
<polygon class="st11" points="637.4,157.4 635.7,158.4 635.6,194 637.4,193.3 "/>
<polygon class="st12" points="637.4,193.3 635.6,192.2 619.6,201.6 619.6,203.7 "/>
<polygon class="st10" points="587.5,254.5 607.1,242.9 607.1,280.9 587.5,292.4 "/>
<path class="st17" d="M606.2,244.5v35.9l-17.8,10.5V255L606.2,244.5 M608,241.4L586.6,254v40l21.4-12.6V241.4L608,241.4z"/>
<polygon class="st11" points="606.2,244.5 604.4,245.6 604.4,281.1 606.2,280.4 "/>
<polygon class="st12" points="606.2,280.4 604.4,279.3 588.4,288.7 588.4,290.8 "/>
<polygon class="st10" points="554.1,274.1 573.7,262.6 573.7,300.6 554.1,312.1 "/>
<path class="st17" d="M572.8,264.2v35.9L555,310.5v-35.8L572.8,264.2 M574.6,261.1l-21.4,12.6v40l21.4-12.6V261.1L574.6,261.1z"/>
<polygon class="st11" points="572.8,264.2 571.1,265.2 571,300.8 572.8,300.1 "/>
<polygon class="st12" points="572.8,300.1 571,299 555,308.4 555,310.5 "/>
<polygon class="st10" points="618.7,236.3 638.3,224.8 638.3,262.8 618.7,274.3 "/>
<path class="st17" d="M637.4,226.4v35.9l-17.8,10.5v-35.9L637.4,226.4 M639.2,223.2l-21.4,12.6v40l21.5-12.5L639.2,223.2
	L639.2,223.2z"/>
<polygon class="st11" points="637.4,226.4 635.7,227.4 635.6,263 637.4,262.2 "/>
<polygon class="st12" points="637.4,262.2 635.6,261.2 619.6,270.6 619.6,272.7 "/>
<polygon class="st10" points="587.5,321.6 607.1,310.1 607.1,348 587.5,359.5 "/>
<path class="st17" d="M606.2,311.6v35.9L588.4,358v-35.9L606.2,311.6 M608,308.5L586.6,321v40l21.4-12.6V308.5z"/>
<polygon class="st11" points="606.2,311.6 604.4,312.7 604.4,348.2 606.2,347.5 "/>
<polygon class="st12" points="606.2,347.5 604.4,346.4 588.4,355.8 588.4,357.9 "/>
<polygon class="st10" points="554.1,341.2 573.7,329.7 573.7,367.7 554.1,379.2 "/>
<path class="st17" d="M572.8,331.3v35.9L555,377.6v-35.8L572.8,331.3 M574.6,328.2l-21.4,12.5v40l21.4-12.6V328.2L574.6,328.2z"/>
<polygon class="st11" points="572.8,331.3 571.1,332.4 571,367.9 572.8,367.2 "/>
<polygon class="st12" points="572.8,367.2 571,366.1 555,375.5 555,377.6 "/>
<polygon class="st10" points="618.7,303.4 638.3,291.9 638.3,329.9 618.7,341.4 "/>
<path class="st17" d="M637.4,293.5v35.9l-17.8,10.4v-35.9L637.4,293.5 M639.2,290.3l-21.4,12.6v40l21.5-12.6L639.2,290.3
	L639.2,290.3z"/>
<polygon class="st11" points="637.4,293.5 635.7,294.5 635.6,330.1 637.4,329.3 "/>
<polygon class="st12" points="637.4,329.3 635.6,328.3 619.6,337.7 619.6,339.8 "/>
<polygon class="st10" points="587.5,387.9 607.1,376.4 607.1,414.3 587.5,425.9 "/>
<path class="st17" d="M606.2,378v35.9l-17.8,10.4v-35.9L606.2,378 M608,374.8l-21.4,12.6v40l21.4-12.6V374.8L608,374.8z"/>
<polygon class="st11" points="606.2,378 604.4,379 604.4,414.6 606.2,413.8 "/>
<polygon class="st12" points="606.2,413.8 604.4,412.8 588.4,422.2 588.4,424.3 "/>
<polygon class="st10" points="554.1,407.6 573.7,396.1 573.7,434 554.1,445.5 "/>
<path class="st17" d="M572.8,397.7v35.9L555,444v-35.9L572.8,397.7 M574.6,394.5l-21.4,12.6v40l21.4-12.6V394.5L574.6,394.5z"/>
<polygon class="st11" points="572.8,397.7 571.1,398.7 571,434.3 572.8,433.5 "/>
<polygon class="st12" points="572.8,433.5 571,432.5 555,441.9 555,444 "/>
<polygon class="st10" points="618.7,369.8 638.3,358.3 638.3,396.2 618.7,407.7 "/>
<path class="st17" d="M637.4,359.8v35.9l-17.8,10.5v-35.9L637.4,359.8 M639.3,356.7l-21.4,12.6v40l21.4-12.6V356.7z"/>
<polygon class="st11" points="637.4,359.8 635.7,360.9 635.6,396.4 637.4,395.7 "/>
<polygon class="st12" points="637.4,395.7 635.6,394.6 619.6,404 619.6,406.1 "/>
<polygon class="st10" points="587.5,450.3 607.1,438.8 607.1,476.8 587.5,488.3 "/>
<path class="st17" d="M606.2,440.4v35.9l-17.8,10.5v-35.9L606.2,440.4 M608,437.2l-21.4,12.6v40l21.4-12.6V437.2z"/>
<polygon class="st11" points="606.2,440.4 604.4,441.4 604.4,477 606.2,476.2 "/>
<polygon class="st12" points="606.2,476.2 604.4,475.2 588.4,484.6 588.4,486.7 "/>
<polygon class="st10" points="554.1,470 573.7,458.5 573.7,496.4 554.1,507.9 "/>
<path class="st17" d="M572.8,460.1V496L555,506.4v-35.8L572.8,460.1 M574.6,456.9l-21.4,12.6v40.1l21.4-12.6V456.9L574.6,456.9z"/>
<polygon class="st11" points="572.8,460.1 571.1,461.1 571,496.7 572.8,495.9 "/>
<polygon class="st12" points="572.8,495.9 571,494.9 555,504.3 555,506.4 "/>
<polygon class="st10" points="618.7,432.2 638.3,420.7 638.3,458.6 618.7,470.1 "/>
<path class="st17" d="M637.4,422.2v35.9l-17.8,10.5v-35.9L637.4,422.2 M639.2,419.1l-21.4,12.6v40l21.5-12.6L639.2,419.1
	L639.2,419.1z"/>
<polygon class="st11" points="637.4,422.2 635.7,423.3 635.6,458.8 637.4,458.1 "/>
<polygon class="st12" points="637.4,458.1 635.6,457 619.6,466.4 619.6,468.6 "/>
<polygon class="st10" points="444.8,208.3 444.8,170.4 464.4,181.9 464.4,219.8 "/>
<path class="st17" d="M445.7,171.9l17.8,10.4v35.9l-17.8-10.4V171.9 M443.9,168.8v40l21.4,12.6v-40L443.9,168.8L443.9,168.8z"/>
<polygon class="st11" points="445.7,171.9 447.4,173 447.5,208.5 445.7,207.8 "/>
<polygon class="st12" points="445.7,207.8 447.5,206.7 463.5,216.1 463.5,218.3 "/>
<polygon class="st10" points="478.1,228 478.1,190.1 497.7,201.6 497.8,239.5 "/>
<path class="st17" d="M479,191.6l17.8,10.4v35.9L479,227.5V191.6 M477.2,188.5v40l21.5,12.6v-40L477.2,188.5L477.2,188.5z"/>
<polygon class="st11" points="479,191.6 480.8,192.7 480.8,228.2 479,227.5 "/>
<polygon class="st12" points="479,227.5 480.8,226.4 496.8,235.8 496.8,237.9 "/>
<polygon class="st10" points="413.5,190.2 413.5,152.2 433.1,163.7 433.1,201.7 "/>
<path class="st17" d="M414.4,153.8l17.9,10.4v35.9l-17.9-10.4V153.8 M412.6,150.7v40l21.5,12.6v-40L412.6,150.7z"/>
<polygon class="st11" points="414.4,153.8 416.2,154.8 416.2,190.4 414.4,189.7 "/>
<polygon class="st12" points="414.4,189.7 416.2,188.6 432.2,198 432.2,200.1 "/>
<polygon class="st10" points="444.8,277.3 444.8,239.3 464.4,250.9 464.4,288.8 "/>
<path class="st17" d="M445.7,240.9l17.8,10.5v35.9l-17.8-10.4V240.9 M443.9,237.8v40l21.4,12.6v-40.1L443.9,237.8L443.9,237.8z"/>
<polygon class="st11" points="445.7,240.9 447.4,242 447.5,277.5 445.7,276.8 "/>
<polygon class="st12" points="445.7,276.8 447.5,275.7 463.5,285.1 463.5,287.2 "/>
<polygon class="st10" points="478.1,297 478.1,259 497.7,270.5 497.8,308.5 "/>
<path class="st17" d="M479,260.6l17.8,10.4v35.9L479,296.5V260.6 M477.2,257.5v40l21.5,12.6v-40L477.2,257.5L477.2,257.5z"/>
<polygon class="st11" points="479,260.6 480.8,261.6 480.8,297.2 479,296.5 "/>
<polygon class="st12" points="479,296.5 480.8,295.4 496.8,304.8 496.8,306.9 "/>
<polygon class="st10" points="413.5,259.2 413.5,221.2 433.1,232.7 433.1,270.7 "/>
<path class="st17" d="M414.4,222.8l17.9,10.5v35.9l-17.8-10.5L414.4,222.8 M412.6,219.6v40.1l21.5,12.6v-40L412.6,219.6L412.6,219.6
	z"/>
<polygon class="st11" points="414.4,222.8 416.2,223.8 416.2,259.4 414.4,258.6 "/>
<polygon class="st12" points="414.4,258.6 416.2,257.6 432.2,267 432.2,269.1 "/>
<polygon class="st10" points="444.8,344.4 444.8,306.5 464.4,318 464.4,355.9 "/>
<path class="st17" d="M445.7,308l17.8,10.5v35.9l-17.8-10.5V308 M443.9,304.9v40l21.4,12.6v-40L443.9,304.9L443.9,304.9z"/>
<polygon class="st11" points="445.7,308 447.4,309.1 447.5,344.6 445.7,343.9 "/>
<polygon class="st12" points="445.7,343.9 447.5,342.8 463.5,352.2 463.5,354.3 "/>
<polygon class="st10" points="478.1,364.1 478.1,326.1 497.7,337.6 497.8,375.6 "/>
<path class="st17" d="M479,327.7l17.8,10.4V374L479,363.5V327.7 M477.2,324.5v40l21.5,12.6v-40L477.2,324.5L477.2,324.5z"/>
<polygon class="st11" points="479,327.7 480.8,328.8 480.8,364.3 479,363.6 "/>
<polygon class="st12" points="479,363.6 480.8,362.5 496.8,371.9 496.8,374 "/>
<polygon class="st10" points="413.5,326.3 413.5,288.3 433.1,299.8 433.1,337.8 "/>
<path class="st17" d="M414.4,289.9l17.9,10.4v35.9l-17.8-10.5L414.4,289.9 M412.6,286.7v40l21.5,12.6v-40L412.6,286.7z"/>
<polygon class="st11" points="414.4,289.9 416.2,290.9 416.2,326.5 414.4,325.7 "/>
<polygon class="st12" points="414.4,325.7 416.2,324.7 432.2,334.1 432.2,336.2 "/>
<polygon class="st10" points="444.8,410.8 444.8,372.8 464.4,384.3 464.4,422.3 "/>
<path class="st17" d="M445.7,374.4l17.8,10.4v35.9l-17.8-10.4V374.4 M443.9,371.2v40l21.4,12.6v-40.1L443.9,371.2L443.9,371.2z"/>
<polygon class="st11" points="445.7,374.4 447.4,375.4 447.5,411 445.7,410.2 "/>
<polygon class="st12" points="445.7,410.2 447.5,409.2 463.5,418.6 463.5,420.7 "/>
<polygon class="st10" points="478.1,430.4 478.1,392.5 497.7,404 497.8,441.9 "/>
<path class="st17" d="M479,394.1l17.8,10.5v35.9L479,429.9V394.1 M477.2,390.9v40l21.5,12.6v-40L477.2,390.9z"/>
<polygon class="st11" points="479,394.1 480.8,395.1 480.8,430.7 479,429.9 "/>
<polygon class="st12" points="479,429.9 480.8,428.9 496.8,438.3 496.8,440.4 "/>
<polygon class="st10" points="413.5,392.6 413.5,354.7 433.1,366.2 433.1,404.1 "/>
<path class="st17" d="M414.4,356.2l17.9,10.5v35.9l-17.9-10.5V356.2 M412.6,353.1v40l21.5,12.6v-40L412.6,353.1L412.6,353.1z"/>
<polygon class="st11" points="414.4,356.2 416.2,357.3 416.2,392.8 414.4,392.1 "/>
<polygon class="st12" points="414.4,392.1 416.2,391 432.2,400.4 432.2,402.5 "/>
<polygon class="st10" points="444.8,473.2 444.8,435.2 464.4,446.7 464.4,484.7 "/>
<path class="st17" d="M445.7,436.8l17.8,10.5v35.9l-17.8-10.5V436.8 M443.9,433.6v40l21.4,12.6v-40L443.9,433.6L443.9,433.6z"/>
<polygon class="st11" points="445.7,436.8 447.4,437.8 447.5,473.4 445.7,472.6 "/>
<polygon class="st12" points="445.7,472.6 447.5,471.6 463.5,481 463.5,483.1 "/>
<polygon class="st10" points="478.1,492.8 478.1,454.9 497.7,466.4 497.8,504.3 "/>
<path class="st17" d="M479,456.5l17.8,10.4v35.9L479,492.3V456.5 M477.2,453.3v40l21.5,12.6v-40L477.2,453.3L477.2,453.3z"/>
<polygon class="st11" points="479,456.5 480.8,457.5 480.8,493.1 479,492.3 "/>
<polygon class="st12" points="479,492.3 480.8,491.3 496.8,500.7 496.8,502.8 "/>
<polygon class="st10" points="413.5,455 413.5,417.1 433.1,428.6 433.1,466.5 "/>
<path class="st17" d="M414.4,418.7l17.9,10.4V465l-17.9-10.5V418.7 M412.6,415.5v40l21.5,12.6v-40L412.6,415.5L412.6,415.5z"/>
<polygon class="st11" points="414.4,418.6 416.2,419.7 416.2,455.2 414.4,454.5 "/>
<polygon class="st12" points="414.4,454.5 416.2,453.4 432.2,462.8 432.2,465 "/>
<polygon class="st25" points="348,482.6 310.3,504.2 291,493 328.7,471.5 "/>
<polygon class="st26" points="344.7,462.1 344.7,464.2 364,475.4 364,473.3 "/>
<polygon class="st27" points="363.1,467.9 348,482.6 328.7,471.5 343.7,456.7 "/>
<path class="st26" d="M311.1,504.9v4.2c0,0.2-0.4,0.3-0.8,0.3s-0.8-0.1-0.8-0.3v-4.2H311.1z"/>
<path class="st26" d="M363.8,474.5v4.2c0,0.2-0.4,0.3-0.8,0.3s-0.8-0.1-0.8-0.3v-4.2H363.8z"/>
<polygon class="st26" points="291,493 291,495.1 310.3,506.3 310.3,504.2 "/>
<polygon class="st28" points="364,475.4 364,473.3 310.3,504.2 310.3,506.3 "/>
<path class="st26" d="M293,494.8v4.2c0,0.2-0.4,0.3-0.8,0.3s-0.7-0.1-0.7-0.3v-4.2H293z"/>
<polygon class="st25" points="321.2,464.5 283.5,486.1 264.1,474.9 301.8,453.3 "/>
<polygon class="st26" points="317.8,444 317.8,446.1 337.2,457.2 337.2,455.2 "/>
<polygon class="st27" points="336.2,449.8 321.2,464.5 301.8,453.3 316.9,438.6 "/>
<path class="st26" d="M284.3,486.8v4.2c0,0.2-0.4,0.3-0.8,0.3s-0.8-0.1-0.8-0.3v-4.2H284.3z"/>
<path class="st26" d="M337,456.3v4.2c0,0.2-0.4,0.3-0.8,0.3s-0.8-0.1-0.8-0.3v-4.2H337z"/>
<polygon class="st26" points="264.1,474.9 264.1,477 283.5,488.1 283.5,486.1 "/>
<polygon class="st28" points="337.2,457.2 337.2,455.2 283.5,486.1 283.5,488.1 "/>
<path class="st26" d="M266.2,476.7v4.2c0,0.2-0.4,0.3-0.8,0.3s-0.7-0.1-0.7-0.3v-4.2H266.2z"/>
<polygon class="st25" points="268.3,433.9 230.6,455.5 211.2,444.3 248.9,422.8 "/>
<polygon class="st26" points="264.9,413.4 264.9,415.5 284.3,426.7 284.3,424.6 "/>
<polygon class="st27" points="283.3,419.2 268.3,433.9 248.9,422.8 264,408 "/>
<path class="st26" d="M231.3,456.2v4.2c0,0.2-0.4,0.3-0.8,0.3s-0.8-0.1-0.8-0.3v-4.2H231.3z"/>
<path class="st26" d="M284.1,425.8v4.2c0,0.2-0.4,0.3-0.8,0.3s-0.8-0.1-0.8-0.3v-4.2H284.1z"/>
<polygon class="st26" points="211.2,444.3 211.2,446.4 230.6,457.6 230.6,455.5 "/>
<polygon class="st28" points="284.3,426.7 284.3,424.6 230.6,455.5 230.6,457.6 "/>
<path class="st26" d="M213.3,446.1v4.2c0,0.2-0.4,0.3-0.8,0.3s-0.7-0.1-0.7-0.3v-4.2H213.3z"/>
<polygon class="st25" points="241.4,415.8 203.7,437.4 184.4,426.2 222.1,404.6 "/>
<polygon class="st26" points="238.1,395.3 238.1,397.4 257.4,408.5 257.4,406.5 "/>
<polygon class="st27" points="256.5,401.1 241.4,415.8 222.1,404.6 237.1,389.9 "/>
<path class="st26" d="M204.5,438.1v4.2c0,0.2-0.4,0.3-0.8,0.3s-0.8-0.1-0.8-0.3v-4.2H204.5z"/>
<path class="st26" d="M257.2,407.6v4.2c0,0.2-0.4,0.3-0.8,0.3s-0.8-0.1-0.8-0.3v-4.2H257.2z"/>
<polygon class="st26" points="184.4,426.2 184.4,428.3 203.7,439.4 203.7,437.4 "/>
<polygon class="st28" points="257.4,408.5 257.4,406.5 203.7,437.4 203.7,439.4 "/>
<path class="st26" d="M186.4,428v4.2c0,0.2-0.4,0.3-0.8,0.3s-0.7-0.1-0.7-0.3V428H186.4z"/>
<polygon class="st27" points="526.8,160.7 660.7,82.3 660.7,116.6 526.8,195.1 "/>
</svg>
