<?xml version="1.0" encoding="UTF-8"?><svg id="Laag_2" xmlns="http://www.w3.org/2000/svg" viewBox="0 0 1472.81 1460.33"><defs><style>.cls-1{fill:#8c6239;}.cls-2{fill:#a6a9a4;}.cls-3{fill:#fff;}.cls-4{fill:#866c5f;}.cls-5{fill:#c7cece;}.cls-6{fill:#c1272d;}.cls-7{fill:#d7c58c;}.cls-8{fill:#f6e2a0;}.cls-9{fill:#c7c7c7;}.cls-10{fill:#5deaf6;}.cls-11{fill:#59645b;}.cls-12{fill:#00d8dc;}.cls-13{fill:#addfeb;}.cls-14{fill:none;stroke:#fff;stroke-miterlimit:10;stroke-width:10px;}.cls-15{fill:#04aef0;}.cls-16{fill:#5e5869;}.cls-17{fill:#6b6377;}.cls-18{fill:#433f4c;}.cls-19{fill:#ea3645;}.cls-20{fill:#00c2de;}.cls-21{fill:#999;}.cls-22{fill:#ed1c24;}.cls-23{fill:#e7f0f4;}.cls-24{fill:#755848;}.cls-25{fill:#6596a2;}.cls-26{fill:#754c24;}.cls-27{fill:#89becb;}.cls-28{fill:#049498;}.cls-29{fill:#6f697b;}.cls-30{fill:#e3e3e3;}</style></defs><g id="Laag_3"><g><polygon class="cls-8" points="1131.95 362.19 1131.95 1319.79 1421.05 1150.39 1421.05 192.8 1131.95 362.19"/><polygon class="cls-7" points="1131.95 362.19 842.64 192.8 842.64 1150.39 1131.95 1319.79 1131.95 362.19"/><polygon class="cls-11" points="858.97 192.88 1127.97 35.37 1396.97 192.88 1127.97 350.6 858.97 192.88"/><path class="cls-23" d="M1131.44,47.06l248.91,145.84-248.91,145.84-248.91-145.84,248.91-145.84m-3.59-23.88l-285.72,169.72,289.31,169.39,289.6-169.5L1131.44,23.29l-3.59-.11Z"/><polygon class="cls-5" points="882.65 192.8 885.67 194.74 1131.34 52.14 1131.34 46.95 882.65 192.8"/><polygon class="cls-2" points="1384.35 195.31 1381.05 197.29 1131.34 52.33 1131.34 47.06 1384.35 195.31"/><polygon class="cls-17" points="1246.47 1139.81 1246.47 1252.81 1306.96 1217.37 1306.96 1104.37 1246.47 1139.81"/><polygon class="cls-4" points="1131.95 1319.79 1131.95 1235.09 1228.32 1178.7 1228.32 1263.4 1131.95 1319.79"/><polygon class="cls-4" points="1324.68 1207 1324.68 1122.31 1421.26 1065.91 1421.05 1150.61 1324.68 1207"/><polygon class="cls-24" points="1131.95 1319.79 1131.95 1235.09 842.64 1065.7 842.64 1150.39 1131.95 1319.79"/><polygon class="cls-20" points="1212.11 1135.05 1242.79 1177.19 1336.78 1122.09 1305.67 1080.17 1212.11 1135.05"/><polygon class="cls-13" points="1212.11 1129.87 1242.79 1172.22 1336.78 1117.12 1305.67 1075.2 1212.11 1129.87"/><polygon class="cls-27" points="1212.11 1135.05 1212.11 1129.87 1242.79 1172.22 1242.79 1177.19 1212.11 1135.05"/><polygon class="cls-25" points="1336.78 1122.09 1336.78 1117.12 1242.79 1172.22 1242.79 1177.19 1336.78 1122.09"/><polygon class="cls-28" points="1452.81 938 1412.19 914.67 1412.19 776.6 1452.81 800.15 1452.81 938"/><polygon class="cls-19" points="1445.25 942.54 1404.63 919.21 1404.63 781.14 1445.25 804.48 1445.25 942.54"/><polygon class="cls-6" points="1404.63 781.14 1412.19 776.6 1452.81 800.15 1445.25 804.48 1404.63 781.14"/><polygon class="cls-22" points="1445.25 804.48 1445.25 942.54 1452.81 938 1452.81 800.15 1445.25 804.48"/><path class="cls-3" d="M1420.4,807.28v6.27l6.27,3.67v-6.27l1.73,1.08v14.91l-1.73-1.08v-7.13l-6.27-3.67v6.91l-1.73-1.08v-14.91l1.73,1.3Z"/><path class="cls-3" d="M1429.47,841.85c0,5.19-2.59,6.27-6.05,4.32-3.67-2.38-5.83-6.48-5.83-11.02s2.59-6.48,6.05-4.32c3.67,2.59,5.83,6.7,5.83,11.02Zm-10.16-5.4c-.22,3.24,1.51,6.48,4.11,8.43,2.59,1.51,4.11-.43,4.11-3.89,0-3.24-1.51-6.48-4.11-8.43-2.59-1.51-4.11,.65-4.11,3.89Z"/><path class="cls-3" d="M1422.56,854.6l-3.89-2.16v-1.73l9.51,5.62v1.73l-3.89-2.38v13.4l-1.73-1.08v-13.4Z"/><path class="cls-3" d="M1426.88,885.5l-4.97-3.02v5.4l5.62,3.24v1.73l-7.35-4.32v-14.91l6.91,4.11v1.73l-5.4-3.02v4.75l4.97,3.02v1.3h.22Z"/><path class="cls-3" d="M1420.4,896.09l1.73,1.08v13.4l5.62,3.24v1.73l-7.13-4.32v-15.12h-.22Z"/><g><polygon class="cls-12" points="15.98 1157.96 518.76 1452.45 806.13 1284.14 300.1 991.59 15.98 1157.96"/><path class="cls-3" d="M518.76,1456.02L9.89,1157.96l290.2-169.93,512.15,296.09-293.48,171.89ZM22.06,1157.96l496.7,290.93,281.25-164.73-499.9-289.01L22.06,1157.96Z"/></g><polygon class="cls-10" points="29.38 1157.96 42.12 1165.73 300.1 1014.71 300.1 999.37 29.38 1157.96"/><polygon class="cls-15" points="792.73 1284.14 779.98 1291.7 300.1 1014.71 300.1 999.37 792.73 1284.14"/><polygon class="cls-16" points="1228.32 1263.4 1266.99 1286.08 1363.14 1229.26 1324.68 1207 1228.32 1263.4"/><polygon class="cls-18" points="1228.32 1267.72 1228.32 1263.4 1266.99 1286.08 1266.99 1290.4 1228.32 1267.72"/><polygon class="cls-29" points="1363.14 1229.26 1363.14 1233.58 1266.99 1290.4 1266.99 1286.08 1363.14 1229.26"/><polygon class="cls-21" points="1131.95 362.19 842.64 192.8 842.64 266.91 1131.95 436.52 1131.95 362.19"/><polygon class="cls-13" points="1263.1 415.78 1305.45 390.93 1305.45 472.82 1263.1 497.66 1263.1 415.78"/><path class="cls-3" d="M1303.51,394.17v77.35l-38.46,22.47v-77.13l38.46-22.69m3.89-6.7l-46.24,27.22v86.43l46.24-27.22v-86.43h0Z"/><polygon class="cls-27" points="1303.51 394.17 1299.62 396.55 1299.62 473.25 1303.51 471.74 1303.51 394.17"/><polygon class="cls-25" points="1303.51 471.74 1299.62 469.36 1265.05 489.67 1265.05 494.42 1303.51 471.74"/><polygon class="cls-13" points="1190.94 458.34 1233.29 433.49 1233.29 515.38 1190.94 540.23 1190.94 458.34"/><path class="cls-3" d="M1231.34,436.73v77.57l-38.46,22.47v-77.35l38.46-22.69m3.89-6.7l-46.24,27.22v86.43l46.24-27.22v-86.43h0Z"/><polygon class="cls-27" points="1231.34 436.73 1227.67 439.11 1227.45 515.81 1231.34 514.3 1231.34 436.73"/><polygon class="cls-25" points="1231.34 514.3 1227.45 511.92 1192.88 532.23 1192.88 536.77 1231.34 514.3"/><polygon class="cls-13" points="1330.51 376.45 1372.86 351.6 1372.86 433.71 1330.51 458.56 1330.51 376.45"/><path class="cls-3" d="M1370.92,355.06v77.57l-38.46,22.47v-77.57l38.46-22.47m3.89-6.91l-46.24,27.22v86.43l46.45-27.01-.22-86.64h0Z"/><polygon class="cls-27" points="1370.92 355.06 1367.25 357.22 1367.03 434.14 1370.92 432.63 1370.92 355.06"/><polygon class="cls-25" points="1370.92 432.63 1367.03 430.25 1332.46 450.56 1332.46 455.1 1370.92 432.63"/><polygon class="cls-13" points="1263.1 564.86 1305.45 539.8 1305.45 621.9 1263.1 646.75 1263.1 564.86"/><path class="cls-3" d="M1303.51,543.25v77.57l-38.46,22.69v-77.57l38.46-22.69m3.89-6.7l-46.24,27.22v86.43l46.24-27.22v-86.43h0Z"/><polygon class="cls-27" points="1303.51 543.25 1299.62 545.63 1299.62 622.33 1303.51 620.82 1303.51 543.25"/><polygon class="cls-25" points="1303.51 620.82 1299.62 618.44 1265.05 638.75 1265.05 643.29 1303.51 620.82"/><polygon class="cls-13" points="1190.94 607.21 1233.29 582.36 1233.29 664.47 1190.94 689.31 1190.94 607.21"/><path class="cls-3" d="M1231.34,585.82v77.57l-38.46,22.47v-77.35l38.46-22.69m3.89-6.7l-46.24,27.22v86.43l46.24-27.22v-86.43h0Z"/><polygon class="cls-27" points="1231.34 585.82 1227.67 587.98 1227.45 664.9 1231.34 663.39 1231.34 585.82"/><polygon class="cls-25" points="1231.34 663.39 1227.45 661.01 1192.88 681.32 1192.88 685.86 1231.34 663.39"/><polygon class="cls-13" points="1330.51 525.54 1372.86 500.69 1372.86 582.79 1330.51 607.64 1330.51 525.54"/><path class="cls-3" d="M1370.92,504.15v77.57l-38.46,22.69v-77.57l38.46-22.69m3.89-6.91l-46.24,27.22v86.43l46.45-27.01-.22-86.64h0Z"/><polygon class="cls-27" points="1370.92 504.15 1367.25 506.31 1367.03 583.23 1370.92 581.5 1370.92 504.15"/><polygon class="cls-25" points="1370.92 581.5 1367.03 579.34 1332.46 599.65 1332.46 604.18 1370.92 581.5"/><polygon class="cls-13" points="1263.1 709.84 1305.45 684.99 1305.45 766.88 1263.1 791.73 1263.1 709.84"/><path class="cls-3" d="M1303.51,688.23v77.57l-38.46,22.69v-77.57l38.46-22.69m3.89-6.7l-46.24,27.01v86.43l46.24-27.22v-86.21Z"/><polygon class="cls-27" points="1303.51 688.23 1299.62 690.61 1299.62 767.31 1303.51 765.8 1303.51 688.23"/><polygon class="cls-25" points="1303.51 765.8 1299.62 763.42 1265.05 783.73 1265.05 788.27 1303.51 765.8"/><polygon class="cls-13" points="1190.94 752.19 1233.29 727.34 1233.29 809.44 1190.94 834.29 1190.94 752.19"/><path class="cls-3" d="M1231.34,730.8v77.57l-38.46,22.47v-77.35l38.46-22.69m3.89-6.7l-46.24,27.01v86.43l46.24-27.22v-86.21h0Z"/><polygon class="cls-27" points="1231.34 730.8 1227.67 733.17 1227.45 809.88 1231.34 808.36 1231.34 730.8"/><polygon class="cls-25" points="1231.34 808.36 1227.45 805.99 1192.88 826.3 1192.88 830.83 1231.34 808.36"/><polygon class="cls-13" points="1330.51 670.52 1372.86 645.67 1372.86 727.77 1330.51 752.62 1330.51 670.52"/><path class="cls-3" d="M1370.92,649.12v77.57l-38.46,22.47v-77.57l38.46-22.47m3.89-6.91l-46.24,27.22v86.43l46.45-27.22-.22-86.43h0Z"/><polygon class="cls-27" points="1370.92 649.12 1367.25 651.29 1367.03 728.2 1370.92 726.48 1370.92 649.12"/><polygon class="cls-25" points="1370.92 726.48 1367.03 724.32 1332.46 744.63 1332.46 749.16 1370.92 726.48"/><polygon class="cls-13" points="1263.1 853.09 1305.45 828.24 1305.45 910.13 1263.1 935.19 1263.1 853.09"/><path class="cls-3" d="M1303.51,831.7v77.57l-38.46,22.47v-77.57l38.46-22.47m3.89-6.91l-46.24,27.22v86.43l46.24-27.22v-86.43h0Z"/><polygon class="cls-27" points="1303.51 831.7 1299.62 833.86 1299.62 910.78 1303.51 909.05 1303.51 831.7"/><polygon class="cls-25" points="1303.51 909.05 1299.62 906.89 1265.05 927.2 1265.05 931.74 1303.51 909.05"/><polygon class="cls-13" points="1190.94 895.65 1233.29 870.81 1233.29 952.7 1190.94 977.54 1190.94 895.65"/><path class="cls-3" d="M1231.34,874.26v77.57l-38.46,22.47v-77.57l38.46-22.47m3.89-6.91l-46.24,27.22v86.43l46.24-27.22v-86.43h0Z"/><polygon class="cls-27" points="1231.34 874.26 1227.67 876.42 1227.45 953.34 1231.34 951.61 1231.34 874.26"/><polygon class="cls-25" points="1231.34 951.61 1227.45 949.45 1192.88 969.76 1192.88 974.3 1231.34 951.61"/><polygon class="cls-13" points="1330.51 813.98 1372.86 789.13 1372.86 871.02 1330.51 895.87 1330.51 813.98"/><path class="cls-3" d="M1370.92,792.38v77.57l-38.46,22.69v-77.57l38.46-22.69m4.11-6.7l-46.24,27.22v86.43l46.24-27.22v-86.43Z"/><polygon class="cls-27" points="1370.92 792.38 1367.25 794.75 1367.03 871.46 1370.92 869.94 1370.92 792.38"/><polygon class="cls-25" points="1370.92 869.94 1367.03 867.57 1332.46 887.88 1332.46 892.41 1370.92 869.94"/><polygon class="cls-13" points="1263.1 987.91 1305.45 963.07 1305.45 1045.17 1263.1 1070.02 1263.1 987.91"/><path class="cls-3" d="M1303.51,966.52v77.57l-38.46,22.69v-77.57l38.46-22.69m3.89-6.91l-46.24,27.22v86.43l46.24-27.22v-86.43Z"/><polygon class="cls-27" points="1303.51 966.52 1299.62 968.68 1299.62 1045.6 1303.51 1043.87 1303.51 966.52"/><polygon class="cls-25" points="1303.51 1043.87 1299.62 1041.71 1265.05 1062.02 1265.05 1066.56 1303.51 1043.87"/><polygon class="cls-13" points="1190.94 1030.48 1233.29 1005.63 1233.29 1087.52 1190.94 1112.37 1190.94 1030.48"/><path class="cls-3" d="M1231.34,1009.09v77.57l-38.46,22.47v-77.35l38.46-22.69m3.89-6.91l-46.24,27.22v86.64l46.24-27.22v-86.64h0Z"/><polygon class="cls-27" points="1231.34 1009.09 1227.67 1011.25 1227.45 1088.17 1231.34 1086.44 1231.34 1009.09"/><polygon class="cls-25" points="1231.34 1086.44 1227.45 1084.28 1192.88 1104.59 1192.88 1109.13 1231.34 1086.44"/><polygon class="cls-13" points="1330.51 948.81 1372.86 923.96 1372.86 1005.85 1330.51 1030.69 1330.51 948.81"/><path class="cls-3" d="M1370.92,927.2v77.57l-38.46,22.69v-77.57l38.46-22.69m3.89-6.7l-46.24,27.22v86.43l46.45-27.22-.22-86.43h0Z"/><polygon class="cls-27" points="1370.92 927.2 1367.25 929.58 1367.03 1006.28 1370.92 1004.77 1370.92 927.2"/><polygon class="cls-25" points="1370.92 1004.77 1367.03 1002.39 1332.46 1022.7 1332.46 1027.45 1370.92 1004.77"/><polygon class="cls-13" points="954.78 465.04 954.78 383.15 997.13 408 997.13 489.89 954.78 465.04"/><path class="cls-3" d="M956.72,386.39l38.46,22.47v77.57l-38.46-22.47v-77.57m-3.89-6.7v86.43l46.24,27.22v-86.43l-46.24-27.22h0Z"/><polygon class="cls-27" points="956.72 386.39 960.4 388.77 960.61 465.47 956.72 463.96 956.72 386.39"/><polygon class="cls-25" points="956.72 463.96 960.61 461.58 995.18 481.89 995.18 486.64 956.72 463.96"/><polygon class="cls-13" points="1026.73 507.6 1026.73 425.71 1069.08 450.56 1069.29 532.45 1026.73 507.6"/><path class="cls-3" d="M1028.67,428.96l38.46,22.47v77.57l-38.46-22.47v-77.57m-3.89-6.7v86.43l46.45,27.22v-86.43l-46.45-27.22h0Z"/><polygon class="cls-27" points="1028.67 428.96 1032.56 431.33 1032.56 508.03 1028.67 506.52 1028.67 428.96"/><polygon class="cls-25" points="1028.67 506.52 1032.56 504.15 1067.13 524.46 1067.13 528.99 1028.67 506.52"/><polygon class="cls-13" points="887.15 425.93 887.15 343.83 929.5 368.67 929.5 450.78 887.15 425.93"/><path class="cls-3" d="M889.1,347.28l38.68,22.47v77.57l-38.68-22.47v-77.57m-3.89-6.7v86.43l46.45,27.22v-86.43l-46.45-27.22Z"/><polygon class="cls-27" points="889.1 347.28 892.98 349.44 892.98 426.36 889.1 424.85 889.1 347.28"/><polygon class="cls-25" points="889.1 424.85 892.98 422.47 927.55 442.78 927.55 447.32 889.1 424.85"/><polygon class="cls-13" points="954.78 614.12 954.78 532.02 997.13 557.08 997.13 638.97 954.78 614.12"/><path class="cls-3" d="M956.72,535.47l38.46,22.69v77.57l-38.46-22.47v-77.78m-3.89-6.7v86.43l46.24,27.22v-86.64l-46.24-27.01h0Z"/><polygon class="cls-27" points="956.72 535.47 960.4 537.85 960.61 614.55 956.72 613.04 956.72 535.47"/><polygon class="cls-25" points="956.72 613.04 960.61 610.67 995.18 630.98 995.18 635.51 956.72 613.04"/><polygon class="cls-13" points="1026.73 656.69 1026.73 574.58 1069.08 599.43 1069.29 681.53 1026.73 656.69"/><path class="cls-3" d="M1028.67,578.04l38.46,22.47v77.57l-38.46-22.47v-77.57m-3.89-6.7v86.43l46.45,27.22v-86.43l-46.45-27.22h0Z"/><polygon class="cls-27" points="1028.67 578.04 1032.56 580.2 1032.56 657.12 1028.67 655.61 1028.67 578.04"/><polygon class="cls-25" points="1028.67 655.61 1032.56 653.23 1067.13 673.54 1067.13 678.08 1028.67 655.61"/><polygon class="cls-13" points="887.15 575.01 887.15 492.91 929.5 517.76 929.5 599.86 887.15 575.01"/><path class="cls-3" d="M889.1,496.37l38.68,22.69v77.57l-38.46-22.69-.22-77.57m-3.89-6.91v86.64l46.45,27.22v-86.43l-46.45-27.44h0Z"/><polygon class="cls-27" points="889.1 496.37 892.98 498.53 892.98 575.45 889.1 573.72 889.1 496.37"/><polygon class="cls-25" points="889.1 573.72 892.98 571.56 927.55 591.87 927.55 596.41 889.1 573.72"/><polygon class="cls-13" points="954.78 759.1 954.78 677.21 997.13 702.06 997.13 783.95 954.78 759.1"/><path class="cls-3" d="M956.72,680.45l38.46,22.69v77.57l-38.46-22.69v-77.57m-3.89-6.7v86.43l46.24,27.22v-86.43l-46.24-27.22h0Z"/><polygon class="cls-27" points="956.72 680.45 960.4 682.83 960.61 759.53 956.72 758.02 956.72 680.45"/><polygon class="cls-25" points="956.72 758.02 960.61 755.64 995.18 775.95 995.18 780.49 956.72 758.02"/><polygon class="cls-13" points="1026.73 801.67 1026.73 719.56 1069.08 744.41 1069.29 826.51 1026.73 801.67"/><path class="cls-3" d="M1028.67,723.02l38.46,22.47v77.57l-38.46-22.69v-77.35m-3.89-6.91v86.43l46.45,27.22v-86.43l-46.45-27.22h0Z"/><polygon class="cls-27" points="1028.67 723.02 1032.56 725.4 1032.56 802.1 1028.67 800.59 1028.67 723.02"/><polygon class="cls-25" points="1028.67 800.59 1032.56 798.21 1067.13 818.52 1067.13 823.06 1028.67 800.59"/><polygon class="cls-13" points="887.15 719.99 887.15 637.89 929.5 662.74 929.5 744.84 887.15 719.99"/><path class="cls-3" d="M889.1,641.35l38.68,22.47v77.57l-38.46-22.69-.22-77.35m-3.89-6.91v86.43l46.45,27.22v-86.43l-46.45-27.22Z"/><polygon class="cls-27" points="889.1 641.35 892.98 643.51 892.98 720.43 889.1 718.7 889.1 641.35"/><polygon class="cls-25" points="889.1 718.7 892.98 716.54 927.55 736.85 927.55 741.38 889.1 718.7"/><polygon class="cls-13" points="954.78 902.57 954.78 820.46 997.13 845.31 997.13 927.42 954.78 902.57"/><path class="cls-3" d="M956.72,823.92l38.46,22.47v77.57l-38.46-22.47v-77.57m-3.89-6.91v86.43l46.24,27.22v-86.64l-46.24-27.01h0Z"/><polygon class="cls-27" points="956.72 823.92 960.4 826.08 960.61 903 956.72 901.27 956.72 823.92"/><polygon class="cls-25" points="956.72 901.27 960.61 899.11 995.18 919.42 995.18 923.96 956.72 901.27"/><polygon class="cls-13" points="1026.73 944.92 1026.73 863.03 1069.08 887.88 1069.29 969.76 1026.73 944.92"/><path class="cls-3" d="M1028.67,866.49l38.46,22.69v77.57l-38.46-22.9v-77.35m-3.89-6.91v86.43l46.45,27.22v-86.43l-46.45-27.22Z"/><polygon class="cls-27" points="1028.67 866.49 1032.56 868.65 1032.56 945.57 1028.67 943.84 1028.67 866.49"/><polygon class="cls-25" points="1028.67 943.84 1032.56 941.68 1067.13 961.99 1067.13 966.52 1028.67 943.84"/><polygon class="cls-13" points="887.15 863.24 887.15 781.36 929.5 806.2 929.5 888.09 887.15 863.24"/><path class="cls-3" d="M889.1,784.6l38.68,22.69v77.57l-38.68-22.69v-77.57m-3.89-6.7v86.43l46.45,27.22v-86.43l-46.45-27.22h0Z"/><polygon class="cls-27" points="889.1 784.6 892.98 786.97 892.98 863.68 889.1 862.16 889.1 784.6"/><polygon class="cls-25" points="889.1 862.16 892.98 859.79 927.55 880.1 927.55 884.63 889.1 862.16"/><polygon class="cls-13" points="954.78 1037.39 954.78 955.29 997.13 980.14 997.13 1062.24 954.78 1037.39"/><path class="cls-3" d="M956.72,958.75l38.46,22.69v77.57l-38.46-22.69v-77.57m-3.89-6.91v86.43l46.24,27.22v-86.43l-46.24-27.22h0Z"/><polygon class="cls-27" points="956.72 958.75 960.4 960.91 960.61 1037.82 956.72 1036.1 956.72 958.75"/><polygon class="cls-25" points="956.72 1036.1 960.61 1033.94 995.18 1054.25 995.18 1058.78 956.72 1036.1"/><polygon class="cls-13" points="1026.73 1079.74 1026.73 997.85 1069.08 1022.7 1069.29 1104.59 1026.73 1079.74"/><path class="cls-3" d="M1028.67,1001.31l38.46,22.47v77.57l-38.46-22.69v-77.35m-3.89-6.91v86.43l46.45,27.22v-86.43l-46.45-27.22h0Z"/><polygon class="cls-27" points="1028.67 1001.31 1032.56 1003.47 1032.56 1080.39 1028.67 1078.66 1028.67 1001.31"/><polygon class="cls-25" points="1028.67 1078.66 1032.56 1076.5 1067.13 1096.81 1067.13 1101.35 1028.67 1078.66"/><polygon class="cls-13" points="887.15 998.07 887.15 916.18 929.5 941.03 929.5 1022.92 887.15 998.07"/><path class="cls-3" d="M889.1,919.64l38.68,22.47v77.57l-38.68-22.69v-77.35m-3.89-6.91v86.43l46.45,27.22v-86.43l-46.45-27.22h0Z"/><polygon class="cls-27" points="889.1 919.42 892.98 921.8 892.98 998.5 889.1 996.99 889.1 919.42"/><polygon class="cls-25" points="889.1 996.99 892.98 994.61 927.55 1014.92 927.55 1019.68 889.1 996.99"/><polygon class="cls-30" points="745.63 1057.7 664.17 1104.37 622.47 1080.17 703.93 1033.72 745.63 1057.7"/><polygon class="cls-1" points="738.5 1013.41 738.5 1017.95 780.2 1042.15 780.2 1037.61 738.5 1013.41"/><polygon class="cls-9" points="778.25 1025.94 745.63 1057.7 703.93 1033.72 736.34 1001.74 778.25 1025.94"/><path class="cls-1" d="M665.9,1105.88v9.07c0,.43-.86,.65-1.73,.65s-1.73-.22-1.73-.65v-9.07h3.46Z"/><path class="cls-1" d="M779.77,1040.2v9.07c0,.43-.86,.65-1.73,.65s-1.73-.22-1.73-.65v-9.07h3.46Z"/><polygon class="cls-1" points="622.47 1080.17 622.47 1084.71 664.17 1108.91 664.17 1104.37 622.47 1080.17"/><polygon class="cls-26" points="780.2 1042.15 780.2 1037.61 664.17 1104.37 664.17 1108.91 780.2 1042.15"/><path class="cls-1" d="M626.79,1084.06v9.07c0,.43-.86,.65-1.73,.65s-1.51-.22-1.51-.65v-9.07h3.24Z"/><polygon class="cls-30" points="687.72 1018.59 606.27 1065.26 564.35 1041.07 645.81 994.4 687.72 1018.59"/><polygon class="cls-1" points="680.38 974.3 680.38 978.84 722.29 1002.82 722.29 998.5 680.38 974.3"/><polygon class="cls-9" points="720.13 986.83 687.72 1018.59 645.81 994.4 678.43 962.63 720.13 986.83"/><path class="cls-1" d="M608,1066.78v9.07c0,.43-.86,.65-1.73,.65s-1.73-.22-1.73-.65v-9.07h3.46Z"/><path class="cls-1" d="M721.86,1000.88v9.07c0,.43-.86,.65-1.73,.65s-1.73-.22-1.73-.65v-9.07h3.46Z"/><polygon class="cls-1" points="564.35 1041.07 564.35 1045.6 606.27 1069.59 606.27 1065.26 564.35 1041.07"/><polygon class="cls-26" points="722.29 1002.82 722.29 998.5 606.27 1065.26 606.27 1069.59 722.29 1002.82"/><path class="cls-1" d="M568.89,1044.95v9.07c0,.43-.86,.65-1.73,.65s-1.51-.22-1.51-.65v-9.07h3.24Z"/><polygon class="cls-30" points="573.43 952.48 491.97 999.15 450.05 974.95 531.51 928.5 573.43 952.48"/><polygon class="cls-1" points="566.08 908.19 566.08 912.72 608 936.92 608 932.39 566.08 908.19"/><polygon class="cls-9" points="605.84 920.72 573.43 952.48 531.51 928.5 564.13 896.52 605.84 920.72"/><path class="cls-1" d="M493.48,1000.66v9.07c0,.43-.86,.65-1.73,.65s-1.73-.22-1.73-.65v-9.07h3.46Z"/><path class="cls-1" d="M607.56,934.98v9.07c0,.43-.86,.65-1.73,.65s-1.73-.22-1.73-.65v-9.07h3.46Z"/><polygon class="cls-1" points="450.05 974.95 450.05 979.49 491.97 1003.69 491.97 999.15 450.05 974.95"/><polygon class="cls-26" points="608 936.92 608 932.39 491.97 999.15 491.97 1003.69 608 936.92"/><path class="cls-1" d="M454.59,978.84v9.07c0,.43-.86,.65-1.73,.65s-1.51-.22-1.51-.65v-9.07h3.24Z"/><polygon class="cls-30" points="515.3 913.37 433.85 960.04 392.15 935.84 473.6 889.17 515.3 913.37"/><polygon class="cls-1" points="508.17 869.08 508.17 873.62 549.87 897.6 549.87 893.28 508.17 869.08"/><polygon class="cls-9" points="547.93 881.61 515.3 913.37 473.6 889.17 506.01 857.41 547.93 881.61"/><path class="cls-1" d="M435.58,961.55v9.07c0,.43-.86,.65-1.73,.65s-1.73-.22-1.73-.65v-9.07h3.46Z"/><path class="cls-1" d="M549.44,895.65v9.07c0,.43-.86,.65-1.73,.65s-1.73-.22-1.73-.65v-9.07h3.46Z"/><polygon class="cls-1" points="392.15 935.84 392.15 940.38 433.85 964.36 433.85 960.04 392.15 935.84"/><polygon class="cls-26" points="549.87 897.6 549.87 893.28 433.85 960.04 433.85 964.36 549.87 897.6"/><path class="cls-1" d="M396.47,939.73v9.07c0,.43-.86,.65-1.73,.65s-1.51-.22-1.51-.65v-9.07h3.24Z"/><polyline class="cls-14" points="812.24 1284.12 300.09 988.03 9.89 1157.96 518.76 1456.02"/><path class="cls-3" d="M1127.85,23.19l293.2,169.61V781.14l31.76,19.01v137.85l-7.56,4.54-24.2-13.9v221.97l-96.36,56.39,38.46,22.25v4.32l-96.15,56.82-38.68-22.69v-4.32l-96.36,56.39-289.31-169.39V192.8L1127.85,23.19m-.14-23.19l-10.08,6-285.21,169.61-9.78,5.81v980.44l9.89,5.79,289.31,169.39,10.1,5.92,10.1-5.91,82.56-48.32,32.26,18.92,10.16,5.96,10.14-5.99,96.15-56.82,9.82-5.81v-27.27l-9.98-5.78-8.71-5.04,66.7-39.03,9.9-5.79v-198.89l4.42,2.54,10.07-6.04,7.56-4.54,9.71-5.83v-160.51l-9.73-5.82-22.03-13.19V181.26l-9.99-5.78L1137.86,5.87l-10.15-5.87h0Z"/><path class="cls-3" d="M736.34,1001.74l41.92,24.2-6.78,6.6,8.73,5.06v4.54l-.43,.25v6.88h-3.46v-4.89l-110.41,63.53v7.69h-3.46v-7.7l-35.65-20.69v5.92h-3.24v-7.8l-1.08-.63v-4.54l81.46-46.45,32.41-31.98m-1.6-12.47l-5.42,5.35-31.48,31.06-80.32,45.81-5.05,2.88v16.1l1.08,.63v12.04h20.75l18.14,10.53v11.94h23.46v-11.91l94.58-54.42h19.29v-11.09l.43-.25v-16.08l-2.3-1.34,6.8-6.62-11.44-6.61-41.92-24.2-6.6-3.81h0Z"/><path class="cls-3" d="M678.43,962.75l41.92,24.2-6.78,6.6,8.73,5.06v4.54l-.43,.25v6.88h-3.46v-4.89l-110.41,63.53v7.69l-3.46-.65v-7.05l-35.65-20.69v5.92h-3.24v-7.8l-1.08-.63v-4.54l81.46-46.45,32.41-31.98m-1.6-12.47l-5.42,5.35-31.48,31.06-80.32,45.81-5.05,2.88v16.1l1.08,.63v12.04h20.75l18.14,10.53v9.59l8.16,1.53,3.46,.65,11.84,2.22v-13.96l94.58-54.42h19.29v-11.1l.43-.25v-16.08l-2.3-1.34,6.8-6.62-11.44-6.61-41.92-24.2-6.6-3.81h0Z"/><path class="cls-3" d="M563.91,896.17l41.92,24.2-6.78,6.6,8.73,5.06v4.54l-.43,.25v6.88h-3.46v-4.89l-110.41,63.53v7.69h-3.46v-7.7l-35.65-20.69v5.92h-3.24v-7.8l-1.08-.63v-4.54l81.46-46.45,32.41-31.98m-1.6-12.47l-5.42,5.35-31.48,31.06-80.32,45.81-5.05,2.88v16.11l1.08,.63v12.04h20.75l18.14,10.53v11.94h23.46v-11.91l94.58-54.42h19.29v-11.1l.43-.25v-16.08l-2.3-1.34,6.8-6.62-11.44-6.61-41.92-24.2-6.6-3.81h0Z"/><path class="cls-3" d="M506.01,857.18l41.92,24.2-6.78,6.6,8.73,5.06v4.54l-.43,.25v6.88h-3.46v-4.89l-110.41,63.53v7.69h-3.46v-7.7l-35.65-20.69v5.92h-3.24v-7.8l-1.08-.63v-4.54l81.46-46.45,32.41-31.98m-1.6-12.47l-5.42,5.35-31.48,31.06-80.32,45.81-5.05,2.88v16.11l1.08,.63v12.04h20.75l18.14,10.53v11.94h23.46v-11.91l94.58-54.42h19.29v-11.1l.43-.25v-16.08l-2.3-1.34,6.8-6.62-11.44-6.61-41.92-24.2-6.6-3.81h0Z"/></g></g></svg>