<svg id="Laag_1" data-name="Laag 1" xmlns="http://www.w3.org/2000/svg" viewBox="0 0 736 688"><defs><style>.cls-1{fill:#f5efef;}.cls-2{fill:#c8c2c2;}.cls-3{fill:#755848;}.cls-4{fill:#866c5f;}.cls-5{fill:#b07272;}.cls-6{fill:#ecb4b4;}.cls-7{fill:#8b5b5b;}.cls-8{fill:#e8e9da;}.cls-9{fill:#bcaf9d;}.cls-10{fill:#f0f0f0;}.cls-11{fill:#4d4d4d;}.cls-12{fill:#333;}.cls-13{fill:#bec4bf;}.cls-14{fill:#a2a5b2;}.cls-15{fill:#dbdbc8;}.cls-16{fill:#fff;}.cls-17{fill:#addfeb;}.cls-18{fill:#70a5ae;}.cls-19{fill:#292c33;}.cls-20{fill:#999;}</style></defs><polygon class="cls-1" points="356.76 687.12 357.52 432.22 15.36 248.67 15.36 488.42 356.76 687.12"/><polygon class="cls-2" points="356.76 677.95 690.26 476.61 690.26 206.82 538.15 197.01 356.76 435 356.76 677.95"/><polygon class="cls-3" points="356.76 674.26 356.76 688 704 486.15 704 474.56 356.76 674.26"/><polygon class="cls-4" points="356.76 674.26 356.76 688 6.46 483.85 6.46 471.89 356.76 674.26"/><polygon class="cls-4" points="15.36 472.41 15.36 466.42 6.46 471.89 356.76 674.26 356.76 668.93 15.36 472.41"/><polygon class="cls-3" points="690.77 470.5 690.77 475.83 356.76 668.93 356.76 674.26 704 474.56 690.77 470.5"/><polygon class="cls-5" points="387.03 20.73 736.08 220.29 540.43 203.76 191.13 0.76 387.03 20.73"/><polygon class="cls-6" points="544 203.25 352.44 442.78 -0.4 244.35 192.92 -0.15 544 203.25"/><polygon class="cls-7" points="736.32 220.05 543.24 203.25 352.44 441.75 371.5 429.92 548.05 212.93 711.65 227.04 736.32 220.05"/><polygon class="cls-8" points="395.44 243.57 395.44 192.81 436.89 201.59 436.89 266.98 395.44 243.57"/><polygon class="cls-9" points="436.89 266.98 472.25 222.07 472.25 194.99 436.89 201.59 436.89 266.98"/><polygon class="cls-10" points="472.25 194.99 431.05 170.93 395.44 192.81 436.89 215.47 472.25 194.99"/><polygon class="cls-11" points="410.44 192.45 431.81 180.37 456.48 194.86 436.38 207.06 410.44 192.45"/><polygon class="cls-12" points="431.81 180.37 431.81 204.52 410.44 192.45 431.81 180.37"/><polygon class="cls-13" points="670.95 506.88 587.49 556.11 587.49 571.49 670.95 522.25 670.95 506.88"/><polygon class="cls-14" points="572.48 547.34 587.49 556.11 587.49 571.49 572.48 562.84 572.48 547.34"/><polygon class="cls-15" points="670.95 506.88 587.49 556.11 572.48 547.34 656.69 498.35 670.95 506.88"/><polygon class="cls-2" points="685.69 515.41 602.5 564.5 602.5 579.89 685.69 530.79 685.69 515.41"/><polygon class="cls-14" points="587.49 555.85 602.5 564.5 602.5 579.89 587.49 571.25 587.49 555.85"/><polygon class="cls-1" points="685.69 515.41 602.5 564.5 587.49 555.85 671.71 506.88 685.69 515.41"/><polygon class="cls-2" points="670.95 493.89 587.49 543.13 587.49 556.75 670.95 507.51 670.95 493.89"/><polygon class="cls-14" points="572.48 534.48 587.49 543.13 587.49 556.75 572.48 548.1 572.48 534.48"/><polygon class="cls-1" points="670.95 493.89 587.49 543.13 572.48 534.48 656.69 485.51 670.95 493.89"/><polygon class="cls-16" points="146.18 383.58 146.18 487.51 68.17 442.67 68.17 338.88 146.18 383.58"/><polygon class="cls-17" points="139.5 474.87 139.5 388.61 74.84 351.51 74.84 437.68 139.5 474.87"/><polygon class="cls-18" points="81.86 433.53 81.73 355.84 74.84 351.51 74.84 437.68 139.5 474.87 139.5 466.59 81.86 433.53"/><polygon class="cls-16" points="260.44 451.89 260.44 555.82 182.44 510.99 182.44 407.19 260.44 451.89"/><polygon class="cls-17" points="253.77 543.19 253.77 456.93 189.11 419.83 189.11 506 253.77 543.19"/><polygon class="cls-18" points="196.13 501.85 196 424.16 189.11 419.83 189.11 506 253.77 543.19 253.77 534.91 196.13 501.85"/><polygon class="cls-16" points="424.6 455.9 424.6 559.83 502.61 515 502.61 411.2 424.6 455.9"/><polygon class="cls-17" points="431.27 547.2 431.27 460.93 495.94 423.83 495.94 510.01 431.27 547.2"/><polygon class="cls-18" points="488.92 505.85 489.05 428.16 495.94 423.83 495.94 510.01 431.27 547.2 431.27 538.91 488.92 505.85"/><polygon class="cls-16" points="652.4 488.47 652.4 310.13 576.84 355.56 576.84 531.97 652.4 488.47"/><polygon class="cls-19" points="646.56 484.54 646.29 319.94 582.44 357.7 582.44 521.42 646.56 484.54"/><path class="cls-20" d="M643.5,412.27a3.44,3.44,0,0,1-3.29,3.18h0a3.09,3.09,0,0,1-3.06-3.06h0a3.31,3.31,0,0,1,3.06-3.17h0a3.08,3.08,0,0,1,3.29,3Z"/></svg>