<svg xmlns="http://www.w3.org/2000/svg" xmlns:xlink="http://www.w3.org/1999/xlink" viewBox="0 0 643 478"><defs><style>.cls-1{isolation:isolate;}.cls-2{fill:#e9e9e9;}.cls-3{fill:#f3f1f1;}.cls-4{fill:#866c5f;}.cls-5{fill:#755848;}.cls-6{fill:#9295a2;}.cls-7{fill:url(#linear-gradient);}.cls-8{fill:#e0dada;}.cls-9{fill:#ecb4b4;}.cls-10{fill:#b07272;}.cls-11{fill:#8b5b5b;}.cls-12{fill:#cacaca;mix-blend-mode:multiply;}.cls-13{fill:#bcaf9d;}.cls-14{fill:#e8e9da;}.cls-15{fill:#f0f0f0;}.cls-16{fill:#4d4d4d;}.cls-17{fill:#333;}.cls-18{fill:#e6e0e0;}.cls-19{fill:#827e82;}.cls-20{fill:#7d808b;}.cls-21{fill:url(#linear-gradient-2);}.cls-22{fill:url(#linear-gradient-3);}.cls-23{fill:#999;}.cls-24{fill:#fff;}.cls-25{fill:#292c33;}.cls-26{fill:#bec4bf;}.cls-27{fill:#a2a5b2;}.cls-28{fill:#dbdbc8;}.cls-29{fill:#c8c2c2;}.cls-30{fill:#f5efef;}.cls-31{fill:#addfeb;}.cls-32{fill:#70a5ae;}</style><linearGradient id="linear-gradient" x1="313.87" y1="206.86" x2="313.87" y2="336.2" gradientUnits="userSpaceOnUse"><stop offset="0" stop-color="#4f748d"/><stop offset="1" stop-color="#415e73"/></linearGradient><linearGradient id="linear-gradient-2" x1="389.18" y1="137.38" x2="389.18" y2="353.26" xlink:href="#linear-gradient"/><linearGradient id="linear-gradient-3" x1="389.03" y1="137.43" x2="389.03" y2="353.14" xlink:href="#linear-gradient"/></defs><g class="cls-1"><g id="Laag_1" data-name="Laag 1"><polygon class="cls-2" points="176.36 406.62 176.08 268.1 450.51 112.16 450.51 239.62 176.36 406.62"/><polygon class="cls-3" points="176.36 397.74 17.59 301.74 17.59 158.41 97.84 149.46 176.36 268.02 176.36 397.74"/><polygon class="cls-4" points="176.36 395.92 176.36 407.06 11.03 310.92 11.03 300.8 176.36 395.92"/><polygon class="cls-5" points="176.36 395.92 176.36 407.06 454.87 242.02 454.87 231.75 176.36 395.92"/><polygon class="cls-5" points="450.51 231.97 450.51 228.7 454.87 231.75 176.36 395.92 176.36 393.37 450.51 231.97"/><polygon class="cls-4" points="17.3 298.82 17.3 301.37 176.36 393.37 176.36 395.92 11.03 300.8 17.3 298.82"/><polygon class="cls-6" points="289.98 241.73 289.98 305.39 337.77 277.93 337.77 214.28 289.98 241.73"/><polygon class="cls-7" points="294.06 297.67 294.06 244.79 333.68 222.06 333.68 274.88 294.06 297.67"/><polygon class="cls-8" points="329.45 272.32 329.45 224.69 333.68 222.06 333.68 274.88 294.06 297.67 294.06 292.57 329.45 272.32"/><polygon class="cls-9" points="273.24 9.69 -0.33 168.31 93.77 160.3 367.63 0.07 273.24 9.69"/><polygon class="cls-10" points="92.02 160.08 184.38 275.45 459.83 117.4 366.74 -0.36 92.02 160.08"/><polygon class="cls-11" points="-0.48 168.17 92.45 160.08 184.38 274.94 175.05 269.26 90.13 164.74 11.32 171.52 -0.48 168.17"/><polygon class="cls-12" points="375.63 56.89 383.5 39.4 371.85 40.72 375.63 56.89"/><polygon class="cls-13" points="375.63 56.89 375.63 35.18 358.01 38.97 358.01 66.78 375.63 56.89"/><polygon class="cls-14" points="358.01 66.78 342.86 47.7 342.86 36.06 358.01 38.97 358.01 66.78"/><polygon class="cls-15" points="342.86 36.06 360.48 25.85 375.63 35.18 358.01 44.86 342.86 36.06"/><polygon class="cls-16" points="369.22 35.03 360.05 29.86 349.55 36.06 358.15 41.22 369.22 35.03"/><polygon class="cls-17" points="360.05 29.86 360.05 40.2 369.22 35.03 360.05 29.86"/><polygon class="cls-18" points="365.44 188.5 365.44 282.08 412.63 254.62 412.63 159.87 365.44 188.5"/><polygon class="cls-19" points="370.1 280.91 408.99 257.39 408.99 166.56 368.93 190.82 368.93 280.63 370.1 280.91"/><polygon class="cls-20" points="408.99 258.69 408.99 167.81 370.1 191.25 370.1 281.06 408.99 258.69"/><polygon class="cls-6" points="405.94 257.76 405.78 172.83 373.01 192.34 373.01 276.84 405.94 257.76"/><path class="cls-8" d="M394.57,187.18c1.6,1,2.62,3,2.62,5.75v.3l-16,9.32v1.52l17.92-10.41v-.29C399.09,189.73,397.19,187.61,394.57,187.18Z"/><path class="cls-21" d="M397.19,192.93c0-2.77-1-4.73-2.62-5.75a7.16,7.16,0,0,0-4.52.8,18.7,18.7,0,0,0-8.88,14.57l16-9.32Z"/><polygon class="cls-8" points="396.89 255.87 381.17 265.26 381.17 267.65 398.94 257.1 398.94 196.73 396.89 197.96 396.89 255.87"/><polygon class="cls-22" points="396.89 197.96 381.17 207.28 381.17 265.26 396.89 255.87 396.89 197.96"/><path class="cls-23" d="M404.33,220.47a1.73,1.73,0,0,1-1.6,1.66h0a1.55,1.55,0,0,1-1.61-1.52h0a1.68,1.68,0,0,1,1.61-1.67h0a1.55,1.55,0,0,1,1.6,1.53Z"/><polygon class="cls-3" points="434.04 477.56 434.34 338.67 243.66 240.93 243.66 367.22 434.04 477.56"/><polygon class="cls-2" points="434.04 472.54 617.88 361.69 617.45 213.47 533.68 208.01 434.04 338.52 434.04 472.54"/><polygon class="cls-5" points="434.04 465.63 434.04 478 624.86 367.08 624.86 355.78 434.04 465.63"/><polygon class="cls-4" points="434.04 465.63 434.04 478 243.66 367.08 243.66 355.71 434.04 465.63"/><polygon class="cls-4" points="243.66 354.04 243.66 356.15 434.04 465.63 434.04 462.63 243.66 354.04"/><polygon class="cls-5" points="617.73 353.53 617.73 356.51 434.04 462.63 434.04 465.63 624.86 355.78 617.73 353.53"/><polygon class="cls-10" points="456.76 114.42 642.49 220.76 535 211.65 342.86 100.07 456.76 114.42"/><polygon class="cls-9" points="537.03 211.44 431.57 343.12 241.91 241.95 343.88 99.57 537.03 211.44"/><polygon class="cls-11" points="642.64 220.68 536.59 211.44 431.57 342.6 442.2 336.12 539.21 216.83 629.09 224.47 642.64 220.68"/><polygon class="cls-14" points="455.31 233.65 455.31 205.69 478.04 210.56 478.04 246.46 455.31 233.65"/><polygon class="cls-13" points="478.04 246.46 497.55 221.85 497.55 206.85 478.04 210.56 478.04 246.46"/><polygon class="cls-15" points="497.55 206.85 474.83 193.66 455.31 205.69 478.04 218.13 497.55 206.85"/><polygon class="cls-16" points="463.47 205.53 475.27 198.83 488.82 206.85 477.75 213.47 463.47 205.53"/><polygon class="cls-17" points="475.27 198.83 475.27 212.16 463.47 205.53 475.27 198.83"/><polygon class="cls-24" points="601.12 367.15 601.12 265.04 557.86 291.04 557.86 392.06 601.12 367.15"/><polygon class="cls-25" points="597.78 364.9 597.62 270.65 561.06 292.27 561.06 386.02 597.78 364.9"/><path class="cls-23" d="M596,323.52a2,2,0,0,1-1.89,1.82h0a1.77,1.77,0,0,1-1.75-1.75h0a1.89,1.89,0,0,1,1.75-1.82h0a1.77,1.77,0,0,1,1.89,1.75Z"/><polygon class="cls-26" points="608.12 377.63 565.58 402.76 565.58 410.63 608.12 385.5 608.12 377.63"/><polygon class="cls-27" points="558.01 398.32 565.58 402.76 565.58 410.63 558.01 406.19 558.01 398.32"/><polygon class="cls-28" points="608.12 377.63 565.58 402.76 558.01 398.32 600.83 373.34 608.12 377.63"/><polygon class="cls-29" points="615.7 382 573.29 407.06 573.29 414.93 615.7 389.87 615.7 382"/><polygon class="cls-27" points="565.58 402.62 573.29 407.06 573.29 414.93 565.58 410.56 565.58 402.62"/><polygon class="cls-30" points="615.7 382 573.29 407.06 565.58 402.62 608.56 377.63 615.7 382"/><polygon class="cls-29" points="608.12 371.08 565.58 396.14 565.58 403.13 608.12 378 608.12 371.08"/><polygon class="cls-27" points="558.01 391.77 565.58 396.14 565.58 403.13 558.01 398.69 558.01 391.77"/><polygon class="cls-30" points="608.12 371.08 565.58 396.14 558.01 391.77 600.83 366.79 608.12 371.08"/><polygon class="cls-24" points="81.57 237.08 81.57 296.59 36.9 270.92 36.9 211.48 81.57 237.08"/><polygon class="cls-31" points="77.75 289.36 77.75 239.96 40.72 218.72 40.72 268.06 77.75 289.36"/><polygon class="cls-32" points="44.74 265.68 44.67 221.2 40.72 218.72 40.72 268.06 77.75 289.36 77.75 284.61 44.74 265.68"/><polygon class="cls-24" points="146.99 276.2 146.99 335.71 102.33 310.04 102.33 250.6 146.99 276.2"/><polygon class="cls-31" points="143.18 328.47 143.18 279.08 106.15 257.84 106.15 307.18 143.18 328.47"/><polygon class="cls-32" points="110.17 304.8 110.09 260.31 106.15 257.84 106.15 307.18 143.18 328.47 143.18 323.73 110.17 304.8"/><polygon class="cls-24" points="323.3 310.85 323.3 370.36 278.63 344.69 278.63 285.26 323.3 310.85"/><polygon class="cls-31" points="319.48 363.13 319.48 313.74 282.45 292.49 282.45 341.83 319.48 363.13"/><polygon class="cls-32" points="286.47 339.46 286.4 294.97 282.45 292.49 282.45 341.83 319.48 363.13 319.48 358.39 286.47 339.46"/><polygon class="cls-24" points="388.72 349.97 388.72 409.48 344.06 383.81 344.06 324.38 388.72 349.97"/><polygon class="cls-31" points="384.9 402.25 384.9 352.86 347.88 331.61 347.88 380.95 384.9 402.25"/><polygon class="cls-32" points="351.9 378.58 351.82 334.09 347.88 331.61 347.88 380.95 384.9 402.25 384.9 397.51 351.9 378.58"/><polygon class="cls-24" points="478.47 342.29 478.47 401.8 523.13 376.13 523.13 316.7 478.47 342.29"/><polygon class="cls-31" points="482.29 394.57 482.29 345.17 519.32 323.93 519.32 373.27 482.29 394.57"/><polygon class="cls-32" points="515.29 370.89 515.37 326.41 519.32 323.93 519.32 373.27 482.29 394.57 482.29 389.82 515.29 370.89"/></g></g></svg>