<svg xmlns="http://www.w3.org/2000/svg" viewBox="0 0 476 550"><defs><style>.cls-1{isolation:isolate;}.cls-2{fill:#e9e9e9;}.cls-3{fill:#f3f1f1;}.cls-4{fill:#866c5f;}.cls-5{fill:#755848;}.cls-6{fill:#fff;}.cls-7{fill:#addfeb;}.cls-8{fill:#70a5ae;}.cls-9{fill:#ecb4b4;}.cls-10{fill:#b07272;}.cls-11{fill:#8b5b5b;}.cls-12{fill:#cacaca;mix-blend-mode:multiply;}.cls-13{fill:#bcaf9d;}.cls-14{fill:#e8e9da;}.cls-15{fill:#f0f0f0;}.cls-16{fill:#4d4d4d;}.cls-17{fill:#333;}.cls-18{fill:#292c33;}.cls-19{fill:#999;}</style></defs><g class="cls-1"><g id="Laag_1" data-name="Laag 1"><polygon class="cls-2" points="182.91 549.6 182.55 277.44 466.01 116.45 466.01 377.1 182.91 549.6"/><polygon class="cls-3" points="182.91 540.36 18.88 441.27 18.88 164.2 101.85 154.92 182.91 277.37 182.91 540.36"/><polygon class="cls-4" points="182.91 538.48 182.91 550 12.11 450.73 12.11 440.32 182.91 538.48"/><polygon class="cls-5" points="182.91 538.48 182.91 550 470.46 379.62 470.46 369.02 182.91 538.48"/><polygon class="cls-5" points="466.01 369.23 466.01 365.86 470.46 369.02 182.91 538.48 182.91 535.88 466.01 369.23"/><polygon class="cls-4" points="18.63 438.27 18.63 440.88 182.91 535.88 182.91 538.48 12.11 440.32 18.63 438.27"/><polygon class="cls-6" points="375.86 210.27 375.86 276.04 425.23 247.67 425.23 181.98 375.86 210.27"/><polygon class="cls-7" points="380.08 268.05 380.08 213.45 421 189.97 421 244.51 380.08 268.05"/><polygon class="cls-8" points="416.56 241.88 416.64 192.71 421 189.97 421 244.51 380.08 268.05 380.08 262.81 416.56 241.88"/><polygon class="cls-6" points="299.6 253.51 299.6 319.28 348.96 290.91 348.96 225.22 299.6 253.51"/><polygon class="cls-7" points="303.82 311.29 303.82 256.69 344.74 233.21 344.74 287.75 303.82 311.29"/><polygon class="cls-8" points="340.3 285.12 340.38 235.95 344.74 233.21 344.74 287.75 303.82 311.29 303.82 306.05 340.3 285.12"/><polygon class="cls-6" points="223.67 295.07 223.67 360.85 273.04 332.48 273.04 266.79 223.67 295.07"/><polygon class="cls-7" points="227.89 352.86 227.89 298.26 268.82 274.78 268.82 329.32 227.89 352.86"/><polygon class="cls-8" points="264.38 326.69 264.46 277.52 268.82 274.78 268.82 329.32 227.89 352.86 227.89 347.62 264.38 326.69"/><polygon class="cls-6" points="299.6 363.4 299.6 429.18 348.96 400.81 348.96 335.11 299.6 363.4"/><polygon class="cls-7" points="303.82 421.19 303.82 366.59 344.74 343.11 344.74 397.65 303.82 421.19"/><polygon class="cls-8" points="340.3 395.02 340.38 345.85 344.74 343.11 344.74 397.65 303.82 421.19 303.82 415.94 340.3 395.02"/><polygon class="cls-6" points="223.67 404.97 223.67 470.75 273.04 442.38 273.04 376.68 223.67 404.97"/><polygon class="cls-7" points="227.89 462.75 227.89 408.16 268.82 384.68 268.82 439.22 227.89 462.75"/><polygon class="cls-8" points="264.38 436.59 264.46 387.42 268.82 384.68 268.82 439.22 227.89 462.75 227.89 457.51 264.38 436.59"/><polygon class="cls-9" points="282.96 10.59 0.43 174.36 97.68 166.11 380.42 0.69 282.96 10.59"/><polygon class="cls-10" points="95.86 165.9 191.16 285 475.63 121.83 379.46 0.23 95.86 165.9"/><polygon class="cls-11" points="0.26 174.25 96.25 165.9 191.16 284.53 181.63 278.66 93.88 170.72 12.5 177.73 0.26 174.25"/><polygon class="cls-12" points="394.37 101.29 411.12 63.91 386.31 66.69 394.37 101.29"/><polygon class="cls-13" points="394.37 101.29 394.37 54.87 356.63 63.01 356.63 122.59 394.37 101.29"/><polygon class="cls-14" points="356.63 122.59 324.23 81.67 324.23 56.78 356.63 63.01 356.63 122.59"/><polygon class="cls-15" points="324.23 56.78 361.91 34.9 394.37 54.87 356.63 75.56 324.23 56.78"/><polygon class="cls-16" points="380.69 54.58 361.04 43.53 338.61 56.78 357.04 67.85 380.69 54.58"/><polygon class="cls-17" points="361.04 43.53 361.04 65.56 380.69 54.58 361.04 43.53"/><polygon class="cls-6" points="378.04 324.05 378.04 420.65 426.85 392.29 426.85 294.47 378.04 324.05"/><polygon class="cls-18" points="382.88 417.66 423.1 393.39 423.1 299.62 381.78 324.65 381.78 417.39 382.88 417.66"/><polygon class="cls-18" points="423.1 394.72 423.1 300.88 382.88 325.1 382.88 417.88 423.1 394.72"/><polygon class="cls-18" points="419.97 393.82 419.8 306.09 385.87 326.22 385.87 413.49 419.97 393.82"/><path class="cls-18" d="M418.32,355.27a1.72,1.72,0,0,1-1.68,1.72h0A1.56,1.56,0,0,1,415,355.4h0a1.71,1.71,0,0,1,1.65-1.71h0a1.59,1.59,0,0,1,1.68,1.58Z"/><polygon class="cls-6" points="87.78 257.3 87.78 323.08 38.42 294.7 38.42 229.01 87.78 257.3"/><polygon class="cls-7" points="83.56 315.08 83.56 260.49 42.64 237.01 42.64 291.55 83.56 315.08"/><polygon class="cls-8" points="47.08 288.92 47 239.75 42.64 237.01 42.64 291.55 83.56 315.08 83.56 309.84 47.08 288.92"/><polygon class="cls-6" points="160.1 300.54 160.1 366.32 110.73 337.94 110.73 272.25 160.1 300.54"/><polygon class="cls-7" points="155.88 358.32 155.88 303.73 114.96 280.25 114.96 334.78 155.88 358.32"/><polygon class="cls-8" points="119.4 332.16 119.32 282.98 114.96 280.25 114.96 334.78 155.88 358.32 155.88 353.08 119.4 332.16"/><polygon class="cls-6" points="87.78 361.31 87.78 427.09 38.42 398.72 38.42 333.02 87.78 361.31"/><polygon class="cls-7" points="83.56 419.1 83.56 364.5 42.64 341.02 42.64 395.56 83.56 419.1"/><polygon class="cls-8" points="47.08 392.93 47 343.76 42.64 341.02 42.64 395.56 83.56 419.1 83.56 413.85 47.08 392.93"/><polygon class="cls-6" points="160.1 404.55 160.1 470.33 110.73 441.95 110.73 376.26 160.1 404.55"/><polygon class="cls-7" points="155.88 462.33 155.88 407.74 114.96 384.26 114.96 438.8 155.88 462.33"/><polygon class="cls-8" points="119.4 436.17 119.32 387 114.96 384.26 114.96 438.8 155.88 462.33 155.88 457.09 119.4 436.17"/><path class="cls-19" d="M422,357.85a2.17,2.17,0,0,1-2.09,2h0a2,2,0,0,1-1.93-1.94h0a2.1,2.1,0,0,1,1.93-2h0a2,2,0,0,1,2.09,1.94Z"/></g></g></svg>