<?xml version="1.0" encoding="UTF-8"?><svg id="Laag_2" xmlns="http://www.w3.org/2000/svg" viewBox="0 0 651.97 525.28"><defs><style>.cls-1{fill:#894513;}.cls-2{fill:#8f8f8f;}.cls-3{fill:#8cb641;}</style></defs><g id="Island"><g><polygon class="cls-2" points="27.38 298.14 27.38 315.56 56.69 332.48 56.7 348.77 85.47 365.38 85.47 398.6 114.23 415.2 114.23 447.93 141.73 465.03 141.73 525.28 510.24 525.28 510.24 431.81 567.77 398.6 566.93 365.38 595.28 348.77 595.28 315.56 623.62 299.19 623.62 249.12 648.55 234.73 648.55 182.69 101.89 222.65 27.38 298.14"/><polygon class="cls-1" points="170.08 315.56 198.43 315.56 227.2 298.95 283.46 332.16 283.47 348.77 311.81 365.38 340.16 365.38 396.85 365.38 425.2 349.01 453.54 348.77 510.24 316.04 510.24 282.34 538.58 267.94 538.58 249.12 651.97 182.69 651.97 149.47 0 249.12 0 282.34 27.38 298.14 56.7 282.34 85.04 298.95 141.73 298.95 170.08 315.56"/><polygon class="cls-3" points="170.08 282.34 198.43 282.34 227.2 265.73 283.46 298.95 283.47 315.56 311.81 332.16 340.16 332.16 396.85 332.16 425.2 315.8 453.54 315.56 510.24 282.82 510.24 249.12 538.58 234.73 538.58 215.91 651.97 149.47 651.97 83.04 594.44 49.82 566.93 49.82 510.24 17.09 454.37 17.09 425.2 33.22 368.5 33.22 310.97 0 283.46 0 240.63 24.73 213.73 24.73 198.43 16.61 170.08 16.61 113.38 49.83 113.38 83.04 85.04 99.65 85.04 132.87 56.27 149.47 56.69 166.08 0 199.3 0 249.12 27.38 264.92 56.7 249.12 85.04 265.73 141.73 265.73 170.08 282.34"/><polygon class="cls-3" points="27.38 248.07 27.38 281.28 84.91 315.4 85.47 348.52 141.66 381.7 226.77 381.7 255.12 365.13 283.46 381.74 283.78 398.15 311.78 415.15 368.78 415.15 396.78 398.15 425.2 398.15 453.54 381.78 481.82 381.78 510.1 364.77 510.1 348.52 524.44 340.24 524.44 323.59 538.8 315.31 566.95 298.72 566.95 282.09 595.28 281.02 622.19 265.48 622.19 232.26 648.55 217.87 648.55 165.83 27.38 248.07"/></g></g></svg>