<?xml version="1.0" encoding="utf-8"?>
<!-- Generator: Adobe Illustrator 26.3.1, SVG Export Plug-In . SVG Version: 6.00 Build 0)  -->
<svg version="1.1" id="Laag_1" xmlns="http://www.w3.org/2000/svg" xmlns:xlink="http://www.w3.org/1999/xlink" x="0px" y="0px"
	 viewBox="0 0 977 221" style="enable-background:new 0 0 977 221;" xml:space="preserve">
<style type="text/css">
	.st0{fill:#8BBFCC;}
	.st1{fill:none;}
	.st2{fill:#FAFAFA;}
	.st3{enable-background:new    ;}
</style>
<g id="Group_73" transform="translate(-4314 -1305)">
	<g id="Group_68" transform="translate(-18 -153)">
		<g id="Rectangle_125">
			<path class="st0" d="M4359,1458h923c14.9,0,27,12.1,27,27v167c0,14.9-12.1,27-27,27h-923c-14.9,0-27-12.1-27-27v-167
				C4332,1470.1,4344.1,1458,4359,1458z"/>
		</g>
		<g id="Rectangle_126" transform="translate(4362 1484)">
			<g>
				<path class="st1" d="M27,0h864c14.9,0,27,12.1,27,27v85c0,14.9-12.1,27-27,27H27c-14.9,0-27-12.1-27-27V27C0,12.1,12.1,0,27,0z"
					/>
			</g>
			<g>
				<path class="st2" d="M891,139H27c-14.9,0-27-12.1-27-27V27C0,12.1,12.1,0,27,0h864c14.9,0,27,12.1,27,27v85
					C918,126.9,905.9,139,891,139z M27,5C14.9,5,5,14.9,5,27v85c0,12.1,9.9,22,22,22h864c12.1,0,22-9.9,22-22V27
					c0-12.1-9.9-22-22-22H27z"/>
			</g>
		</g>
		<g class="st3">
			<path class="st2" d="M4596.1,1529.6h6.9l17.9,40l17.9-40h6.8v48.4h-6.4v-36.1l-16.1,36.1h-4.5l-16.2-36.2v36.2h-6.4V1529.6z"/>
			<path class="st2" d="M4675.7,1539c7.1,0,12,3.6,14.3,7.6v-7h6.4v38.4h-6.4v-7.1c-2.3,4.1-7.3,7.8-14.4,7.8
				c-10.2,0-18.1-8.1-18.1-20C4657.5,1546.7,4665.4,1539,4675.7,1539z M4676.9,1544.5c-7,0-13,5.1-13,14.1c0,9,6,14.4,13,14.4
				c7,0,13-5.2,13-14.3C4689.9,1549.9,4683.9,1544.5,4676.9,1544.5z"/>
			<path class="st2" d="M4726.5,1539c7.1,0,12,3.6,14.3,7.6v-7h6.4v38.4h-6.4v-7.1c-2.3,4.1-7.3,7.8-14.4,7.8
				c-10.2,0-18.1-8.1-18.1-20C4708.3,1546.7,4716.2,1539,4726.5,1539z M4727.7,1544.5c-7,0-13,5.1-13,14.1c0,9,6,14.4,13,14.4
				c7,0,13-5.2,13-14.3C4740.8,1549.9,4734.7,1544.5,4727.7,1544.5z"/>
			<path class="st2" d="M4767.9,1578h-6.4v-38.4h6.4v6.2c2.2-4.3,6.3-6.9,12.4-6.9v6.6h-1.7c-6.1,0-10.7,2.7-10.7,11.6V1578z"/>
			<path class="st2" d="M4792.5,1544.9h-5v-5.3h5v-9.7h6.4v9.7h10v5.3h-10v22.6c0,3.8,1.4,5.1,5.3,5.1h4.7v5.4h-5.7
				c-6.8,0-10.6-2.8-10.6-10.5V1544.9z"/>
			<path class="st2" d="M4826.6,1539.6v46.7c0,6.9-3.6,9.9-10.2,9.9h-3.7v-5.4h2.7c3.5,0,4.8-1.3,4.8-4.6v-46.6H4826.6z
				 M4819.2,1529.1c0-2.5,1.9-4.3,4.3-4.3c2.4,0,4.3,1.9,4.3,4.3c0,2.5-1.9,4.3-4.3,4.3C4821.1,1533.4,4819.2,1531.5,4819.2,1529.1z
				"/>
			<path class="st2" d="M4857.5,1578.6c-10.9,0-19-7.7-19-19.9c0-12.1,7.8-19.7,19-19.7c11.1,0,18.4,7.8,18.4,18.3
				c0,1.4-0.1,2.5-0.2,3.9h-30.7c0.5,7.8,6,12,12.5,12c5.7,0,9.4-2.9,10.8-7.1h6.9C4873.2,1573.2,4867,1578.6,4857.5,1578.6z
				 M4845.1,1556h24.2c0.1-7.5-5.5-11.6-12.1-11.6C4851,1544.4,4845.8,1548.5,4845.1,1556z"/>
			<path class="st2" d="M4887.8,1526.2h6.4v51.8h-6.4V1526.2z"/>
			<path class="st2" d="M4924.4,1539c7.1,0,12,3.6,14.3,7.6v-7h6.4v38.4h-6.4v-7.1c-2.3,4.1-7.3,7.8-14.4,7.8
				c-10.2,0-18.1-8.1-18.1-20C4906.2,1546.7,4914.1,1539,4924.4,1539z M4925.6,1544.5c-7,0-13,5.1-13,14.1c0,9,6,14.4,13,14.4
				s13-5.2,13-14.3C4938.6,1549.9,4932.6,1544.5,4925.6,1544.5z"/>
			<path class="st2" d="M4975.2,1539c7.1,0,12,3.6,14.3,7.6v-7h6.4v38.4h-6.4v-7.1c-2.3,4.1-7.3,7.8-14.4,7.8
				c-10.2,0-18.1-8.1-18.1-20C4957,1546.7,4964.9,1539,4975.2,1539z M4976.4,1544.5c-7,0-13,5.1-13,14.1c0,9,6,14.4,13,14.4
				s13-5.2,13-14.3C4989.5,1549.9,4983.4,1544.5,4976.4,1544.5z"/>
			<path class="st2" d="M5038.3,1556.3c0-7.8-4.3-11.8-10.7-11.8c-6.5,0-11,4.1-11,12.3v21.2h-6.4v-38.4h6.4v5.5
				c2.5-4,7.1-6.2,12.3-6.2c8.9,0,15.7,5.5,15.7,16.5v22.6h-6.3V1556.3z"/>
		</g>
		<g class="st3">
			<path class="st2" d="M4671.4,1658.2c-4.5,0-8-3.4-8-8.2s3.5-8.2,8-8.2c4.5,0,8,3.4,8,8.2S4675.9,1658.2,4671.4,1658.2z
				 M4671.4,1656.3c3.4,0,5.9-2.5,5.9-6.4c0-3.9-2.5-6.4-5.9-6.4s-5.9,2.4-5.9,6.4C4665.5,1653.9,4668,1656.3,4671.4,1656.3z"/>
			<path class="st2" d="M4692.6,1650.9c0-2.6-1.4-3.9-3.5-3.9c-2.1,0-3.6,1.3-3.6,4v7h-2.1v-12.6h2.1v1.8c0.8-1.3,2.3-2,4-2
				c2.9,0,5.2,1.8,5.2,5.4v7.4h-2.1V1650.9z"/>
			<path class="st2" d="M4704.5,1645.2c2,0,3.8,1,4.7,2.5v-6.7h2.1v17h-2.1v-2.4c-0.8,1.4-2.4,2.6-4.7,2.6c-3.4,0-6-2.6-6-6.6
				C4698.5,1647.7,4701.1,1645.2,4704.5,1645.2z M4704.9,1647c-2.3,0-4.3,1.7-4.3,4.6c0,3,2,4.7,4.3,4.7s4.3-1.7,4.3-4.7
				C4709.1,1648.8,4707.2,1647,4704.9,1647z"/>
			<path class="st2" d="M4721.4,1658.2c-3.6,0-6.2-2.5-6.2-6.5c0-4,2.6-6.5,6.2-6.5c3.7,0,6,2.6,6,6c0,0.5,0,0.8-0.1,1.3h-10.1
				c0.2,2.6,2,4,4.1,4c1.9,0,3.1-1,3.5-2.3h2.3C4726.5,1656.4,4724.5,1658.2,4721.4,1658.2z M4717.3,1650.8h8c0-2.5-1.8-3.8-4-3.8
				C4719.3,1647,4717.6,1648.3,4717.3,1650.8z"/>
			<path class="st2" d="M4733.4,1658h-2.1v-12.6h2.1v2c0.7-1.4,2.1-2.3,4.1-2.3v2.2h-0.6c-2,0-3.5,0.9-3.5,3.8V1658z"/>
			<path class="st2" d="M4746.3,1645.2c2,0,3.8,1,4.7,2.5v-6.7h2.1v17h-2.1v-2.4c-0.8,1.4-2.4,2.6-4.7,2.6c-3.4,0-6-2.6-6-6.6
				C4740.3,1647.7,4742.9,1645.2,4746.3,1645.2z M4746.7,1647c-2.3,0-4.3,1.7-4.3,4.6c0,3,2,4.7,4.3,4.7s4.3-1.7,4.3-4.7
				C4751,1648.8,4749,1647,4746.7,1647z"/>
			<path class="st2" d="M4763.2,1658.2c-3.6,0-6.2-2.5-6.2-6.5c0-4,2.6-6.5,6.2-6.5c3.7,0,6,2.6,6,6c0,0.5,0,0.8-0.1,1.3h-10.1
				c0.2,2.6,2,4,4.1,4c1.9,0,3.1-1,3.5-2.3h2.3C4768.4,1656.4,4766.4,1658.2,4763.2,1658.2z M4759.2,1650.8h8c0-2.5-1.8-3.8-4-3.8
				C4761.1,1647,4759.4,1648.3,4759.2,1650.8z"/>
			<path class="st2" d="M4778.6,1658.2c-3.6,0-6.2-2.5-6.2-6.5c0-4,2.6-6.5,6.2-6.5c3.7,0,6,2.6,6,6c0,0.5,0,0.8-0.1,1.3h-10.1
				c0.2,2.6,2,4,4.1,4c1.9,0,3.1-1,3.5-2.3h2.3C4783.8,1656.4,4781.8,1658.2,4778.6,1658.2z M4774.6,1650.8h8c0-2.5-1.8-3.8-4-3.8
				C4776.5,1647,4774.8,1648.3,4774.6,1650.8z"/>
			<path class="st2" d="M4788.6,1641h2.1v17h-2.1V1641z"/>
			<path class="st2" d="M4803.5,1645.4l3.9,10.7l3.9-10.7h2.2l-4.9,12.6h-2.4l-4.9-12.6H4803.5z"/>
			<path class="st2" d="M4822,1645.2c2.3,0,4,1.2,4.7,2.5v-2.3h2.1v12.6h-2.1v-2.3c-0.8,1.4-2.4,2.6-4.7,2.6c-3.4,0-6-2.6-6-6.6
				C4816,1647.7,4818.6,1645.2,4822,1645.2z M4822.4,1647c-2.3,0-4.3,1.7-4.3,4.6c0,3,2,4.7,4.3,4.7c2.3,0,4.3-1.7,4.3-4.7
				C4826.6,1648.8,4824.7,1647,4822.4,1647z"/>
			<path class="st2" d="M4842.7,1650.9c0-2.6-1.4-3.9-3.5-3.9c-2.1,0-3.6,1.3-3.6,4v7h-2.1v-12.6h2.1v1.8c0.8-1.3,2.3-2,4-2
				c2.9,0,5.2,1.8,5.2,5.4v7.4h-2.1V1650.9z"/>
			<path class="st2" d="M4856.6,1642.1h2.3l5.9,13.2l5.9-13.2h2.2v15.9h-2.1v-11.9l-5.3,11.9h-1.5l-5.3-11.9v11.9h-2.1V1642.1z"/>
			<path class="st2" d="M4887,1654.4h-7l-1.3,3.6h-2.2l5.8-15.9h2.4l5.8,15.9h-2.2L4887,1654.4z M4883.5,1644.6l-2.9,8.1h5.8
				L4883.5,1644.6z"/>
			<path class="st2" d="M4893.2,1642h10.9v1.7h-4.4v14.3h-2.1v-14.3h-4.4V1642z"/>
			<path class="st2" d="M4907.4,1648.7h9.2v1.8h-9.2V1648.7z"/>
			<path class="st2" d="M4920.6,1642h10.9v1.7h-4.4v14.3h-2.1v-14.3h-4.4V1642z"/>
			<path class="st2" d="M4940.7,1658.2c-3.6,0-6.3-2.5-6.3-6.5c0-4,2.8-6.5,6.4-6.5c3.6,0,6.4,2.5,6.4,6.5
				C4947.2,1655.7,4944.3,1658.2,4940.7,1658.2z M4940.7,1656.4c2.2,0,4.3-1.5,4.3-4.7c0-3.2-2.1-4.7-4.3-4.7
				c-2.2,0-4.2,1.5-4.2,4.7C4936.6,1654.9,4938.5,1656.4,4940.7,1656.4z"/>
			<path class="st2" d="M4949.6,1645.4h2.1l2.9,10.6l3.1-10.6h2.1l3.1,10.6l2.9-10.6h2.1l-3.9,12.6h-2.2l-3-10l-3,10h-2.2
				L4949.6,1645.4z"/>
			<path class="st2" d="M4980.3,1650.9c0-2.6-1.4-3.9-3.5-3.9c-2.1,0-3.6,1.3-3.6,4v7h-2.1v-12.6h2.1v1.8c0.8-1.3,2.3-2,4-2
				c2.9,0,5.2,1.8,5.2,5.4v7.4h-2.1V1650.9z"/>
		</g>
	</g>
</g>
</svg>
