<svg xmlns="http://www.w3.org/2000/svg" viewBox="0 0 1366 768"><defs><style>.cls-1{isolation:isolate;}.cls-2{fill:#866663;}.cls-3{fill:#8d6d63;}.cls-4{fill:#684a46;}.cls-5{fill:#9f7d75;}.cls-6{fill:#e5e5e5;}.cls-7{fill:#b2b2b2;}.cls-8{fill:#cbcbcb;}.cls-9{fill:#f1f1f1;}.cls-10{fill:gray;}.cls-11{fill:#0f1f26;}.cls-12{fill:#1b3444;}.cls-13{fill:#285360;}.cls-14{fill:#214451;}.cls-15{fill:#593e3c;}.cls-16{fill:#9d807c;}.cls-17{fill:#4c3431;}.cls-18{fill:#656976;}.cls-19{fill:#ebe6dc;}.cls-20,.cls-31{fill:none;}.cls-20{stroke:#ebe6dc;stroke-miterlimit:10;stroke-width:0.17px;}.cls-21{fill:#292c33;}.cls-22{fill:#946b50;}.cls-23{fill:#d4d4d4;mix-blend-mode:multiply;}.cls-24{fill:#7fa51d;}.cls-25{fill:#285727;}.cls-26{fill:#347628;}.cls-27{fill:#3e8b31;}.cls-28{fill:#499b35;}.cls-29{fill:#65cd8f;}.cls-30{fill:#fff;}</style></defs><g class="cls-1"><g id="Laag_1" data-name="Laag 1"><polygon class="cls-2" points="807.94 413.93 803.35 410.78 801.69 413.13 804.16 413.93 806.15 415.09 807.94 413.93"/><polygon class="cls-3" points="624.33 336.56 624.32 460.55 750.35 534.41 750.35 410.4 624.33 336.56"/><polygon class="cls-4" points="804.36 502.7 750.35 534.34 750.3 432.85 750.35 410.39 750.35 410.39 750.35 410.39 755.81 407.19 755.94 407.12 756.42 406.84 804.24 378.82 804.36 378.75 804.36 401.34 804.31 401.37 804.36 502.7"/><polygon class="cls-5" points="624.33 336.56 678.24 304.97 804.36 378.75 750.35 410.4 624.33 336.56"/><polygon class="cls-6" points="745.76 406.57 630.65 339.13 630.65 332.79 745.76 400.23 745.76 406.57"/><polygon class="cls-6" points="755.81 399.77 798.8 374.61 798.8 380.95 755.81 406.11 755.81 399.77"/><polygon class="cls-7" points="673.31 299.8 677.36 302.17 681.41 299.8 677.36 297.43 673.31 299.8"/><polygon class="cls-6" points="671.9 299.8 671.9 308.61 677.36 311.81 677.36 303 671.9 299.8"/><polygon class="cls-8" points="682.82 299.8 682.82 308.61 677.36 311.81 677.36 303 682.82 299.8"/><polygon class="cls-9" points="671.9 299.8 677.36 303 682.82 299.8 677.36 296.6 671.9 299.8"/><polygon class="cls-7" points="677.36 297.43 677.36 297.98 673.78 300.08 673.31 299.8 677.36 297.43"/><polyline class="cls-6" points="677.36 297.43 681.41 299.8 680.93 300.08 677.36 297.98"/><polygon class="cls-10" points="673.78 300.08 677.36 302.17 680.93 300.08 677.36 297.98 673.78 300.08"/><polygon class="cls-6" points="797.01 378 681.91 310.55 681.91 304.21 797.01 371.66 797.01 378"/><polygon class="cls-9" points="681.91 304.21 682.78 303.59 797.88 371.04 797.01 371.66 681.91 304.21"/><polygon class="cls-11" points="801.63 373.81 754.03 355.03 674.63 308 681.68 309.18 801.63 373.81"/><polygon class="cls-12" points="750.35 403.57 754.03 355.03 801.63 373.44 750.35 403.57"/><polygon class="cls-6" points="793.44 369.95 793.44 378.76 798.9 381.95 798.9 373.15 793.44 369.95"/><polygon class="cls-8" points="804.36 369.95 804.36 378.76 798.9 381.95 798.9 373.15 804.36 369.95"/><polygon class="cls-9" points="793.44 369.95 798.9 373.15 804.36 369.95 798.9 366.75 793.44 369.95"/><polygon class="cls-7" points="794.85 369.95 798.9 372.32 802.95 369.95 798.9 367.57 794.85 369.95"/><polygon class="cls-10" points="795.32 370.22 798.9 372.32 802.47 370.22 798.9 368.13 795.32 370.22"/><polygon class="cls-7" points="798.9 367.57 798.9 368.13 795.32 370.22 794.85 369.95 798.9 367.57"/><polygon class="cls-6" points="798.9 367.57 802.95 369.95 802.47 370.22 798.9 368.13 798.9 367.57"/><polygon class="cls-8" points="755.81 401.67 798.9 376.5 798.9 382.85 755.81 408.01 755.81 401.67"/><polygon class="cls-9" points="755.81 401.67 755.81 400.59 798 375.95 798.9 376.5 755.81 401.67"/><polygon class="cls-8" points="629.82 329.31 672.81 304.15 672.81 310.49 629.82 335.65 629.82 329.31"/><polygon class="cls-9" points="629.82 329.31 629.82 328.23 671.91 303.59 672.81 304.15 629.82 329.31"/><polygon class="cls-13" points="674.63 308 630.65 333.93 630.43 330.94 672.81 308.15 674.63 308 674.63 308"/><polygon class="cls-6" points="624.32 327.74 624.32 336.55 629.78 339.75 629.79 330.94 624.32 327.74"/><polygon class="cls-8" points="635.25 327.74 635.25 336.55 629.79 339.75 629.79 330.94 635.25 327.74"/><polygon class="cls-9" points="624.32 327.74 629.79 330.94 635.25 327.74 629.78 324.54 624.32 327.74"/><polygon class="cls-7" points="625.74 327.74 629.79 330.11 633.83 327.74 629.78 325.37 625.74 327.74"/><polygon class="cls-10" points="626.21 328.01 629.79 330.11 633.36 328.01 629.78 325.92 626.21 328.01"/><polygon class="cls-7" points="629.78 325.37 629.78 325.92 626.21 328.01 625.74 327.74 629.78 325.37"/><polyline class="cls-6" points="629.78 325.37 633.83 327.74 633.36 328.01 629.78 325.92"/><polygon class="cls-14" points="754.03 355.03 674.63 308 630.65 333.93 750.35 403.57 754.03 355.03"/><polygon class="cls-9" points="629.79 334.55 630.65 333.93 745.76 401.37 744.89 402 629.79 334.55"/><polygon class="cls-6" points="744.89 398.39 744.89 407.19 750.35 410.39 750.35 401.59 744.89 398.39"/><polygon class="cls-8" points="755.81 398.39 755.81 407.19 750.35 410.39 750.35 401.59 755.81 398.39"/><polygon class="cls-9" points="744.89 398.39 750.35 401.59 755.81 398.39 750.35 395.19 744.89 398.39"/><polygon class="cls-7" points="746.3 398.39 750.35 400.76 754.4 398.39 750.35 396.01 746.3 398.39"/><polygon class="cls-10" points="746.77 398.66 750.35 400.76 753.92 398.66 750.35 396.57 746.77 398.66"/><polygon class="cls-7" points="750.35 396.01 750.35 396.57 746.77 398.66 746.3 398.39 750.35 396.01"/><polygon class="cls-6" points="750.35 396.01 754.4 398.39 753.92 398.66 750.35 396.57 750.35 396.01"/><polygon class="cls-6" points="685.75 343.43 674.39 359.57 696.43 372.49 685.75 343.43"/><polygon class="cls-6" points="744.89 408.34 629.78 340.89 629.79 334.55 744.89 402 744.89 408.34"/><polygon class="cls-6" points="684.67 344.24 673.32 360.38 695.36 373.3 684.67 344.24"/><polygon class="cls-9" points="695.22 373.02 696.21 372.49 685.52 343.43 684.53 343.96 695.22 373.02"/><polygon class="cls-12" points="684.09 361.51 682.05 360.33 682.05 356.02 684.09 357.2 684.09 361.51"/><polygon class="cls-4" points="750.35 411.54 624.33 337.7 624.33 336.55 750.35 410.4 750.35 411.54"/><polygon class="cls-15" points="750.35 411.54 804.36 379.9 804.36 378.75 750.35 410.4 750.35 411.54"/><polygon class="cls-16" points="621.6 374.32 621.59 377.76 750.32 454.31 750.31 450.85 621.6 374.32"/><polyline class="cls-17" points="750.38 454.29 750.32 454.31 750.32 450.85 750.36 450.82 804.42 416.19 806.15 415.09 807.94 413.93 807.96 417.38"/><polygon class="cls-2" points="806.15 415.09 804.42 416.19 750.36 450.82 750.32 450.85 750.32 448.57 750.36 448.54 804.42 413.92 804.42 413.91 804.43 413.91 806.15 415.09"/><polygon class="cls-2" points="750.32 448.57 750.32 450.85 750.31 450.85 621.6 374.31 624.39 373.7 705.8 422.1 750.31 448.57 750.32 448.57"/><polygon class="cls-2" points="807.99 454.7 803.39 451.55 801.74 453.89 804.37 454.75 806.19 455.86 807.99 454.7"/><polygon class="cls-16" points="621.64 415.08 621.64 418.53 750.36 495.08 750.36 491.62 621.64 415.08"/><polyline class="cls-17" points="750.42 495.06 750.37 495.08 750.37 491.62 750.41 491.59 804.46 456.96 806.19 455.86 807.99 454.7 808 458.15"/><polygon class="cls-2" points="806.19 455.86 804.46 456.96 750.41 491.59 750.37 491.62 750.37 489.33 750.41 489.31 804.46 454.69 804.46 454.68 804.48 454.68 806.19 455.86"/><polygon class="cls-2" points="750.37 489.33 750.37 491.62 750.35 491.62 621.65 415.08 624.43 414.47 705.85 462.87 750.35 489.33 750.37 489.33"/><polygon class="cls-18" points="644.18 420.63 635.86 415.82 635.86 398.33 644.18 403.14 644.18 420.63"/><path class="cls-19" d="M644.24,421.94a.49.49,0,0,1-.23-.4V403c0-.15.1-.21.23-.13a.49.49,0,0,1,.23.4v18.52C644.47,422,644.37,422,644.24,421.94Z"/><polygon class="cls-20" points="640.27 418.37 640.15 418.3 640.15 400.81 640.27 400.88 640.27 418.37"/><path class="cls-19" d="M635.87,417.11a.49.49,0,0,1-.23-.4V398.19c0-.15.1-.21.23-.13a.49.49,0,0,1,.23.4V417C636.1,417.12,636,417.18,635.87,417.11Z"/><polygon class="cls-19" points="645.63 421.88 634.4 415.39 634.4 414.57 645.63 421.05 645.63 421.88"/><line class="cls-19" x1="635" y1="397.83" x2="645.04" y2="403.64"/><polygon class="cls-19" points="645.63 404.8 634.4 398.32 634.4 396.67 645.63 403.15 645.63 404.8"/><polygon class="cls-20" points="644.01 409.45 635.88 404.76 635.88 404.65 644.01 409.34 644.01 409.45"/><polygon class="cls-20" points="644.32 414.95 636.11 410.21 636.11 410.12 644.32 414.86 644.32 414.95"/><polygon class="cls-18" points="664.93 432.48 656.61 427.68 656.61 410.19 664.94 415 664.93 432.48"/><path class="cls-19" d="M665,433.8a.52.52,0,0,1-.23-.4V414.88c0-.15.11-.21.23-.13a.5.5,0,0,1,.24.4v18.52C665.22,433.81,665.12,433.87,665,433.8Z"/><polygon class="cls-20" points="661.03 430.23 660.91 430.16 660.91 412.67 661.03 412.74 661.03 430.23"/><path class="cls-19" d="M656.62,429a.52.52,0,0,1-.23-.4V410.05c0-.15.11-.21.23-.14a.52.52,0,0,1,.23.4v18.52C656.85,429,656.75,429,656.62,429Z"/><polygon class="cls-19" points="666.39 433.74 655.16 427.25 655.16 426.43 666.39 432.91 666.39 433.74"/><line class="cls-19" x1="655.75" y1="409.69" x2="665.8" y2="415.49"/><polygon class="cls-19" points="666.39 416.66 655.16 410.18 655.16 408.52 666.39 415.01 666.39 416.66"/><polygon class="cls-20" points="664.76 421.31 656.64 416.62 656.64 416.5 664.76 421.19 664.76 421.31"/><polygon class="cls-20" points="665.07 426.8 656.86 422.06 656.86 421.98 665.07 426.71 665.07 426.8"/><polygon class="cls-18" points="685.95 445.14 677.62 440.33 677.62 422.84 685.95 427.65 685.95 445.14"/><path class="cls-19" d="M686,446.45a.52.52,0,0,1-.23-.4V427.53a.14.14,0,0,1,.23-.13.49.49,0,0,1,.23.4v18.52C686.23,446.47,686.13,446.53,686,446.45Z"/><polygon class="cls-20" points="682.04 442.88 681.92 442.81 681.92 425.32 682.04 425.39 682.04 442.88"/><path class="cls-19" d="M677.63,441.62a.49.49,0,0,1-.23-.4V422.7c0-.15.1-.21.23-.13a.49.49,0,0,1,.23.4v18.52C677.86,441.64,677.76,441.7,677.63,441.62Z"/><polygon class="cls-19" points="687.4 446.39 676.17 439.9 676.17 439.08 687.4 445.56 687.4 446.39"/><line class="cls-19" x1="676.76" y1="422.35" x2="686.81" y2="428.15"/><polygon class="cls-19" points="687.4 429.31 676.17 422.83 676.17 421.18 687.4 427.66 687.4 429.31"/><polygon class="cls-20" points="685.77 433.96 677.65 429.27 677.65 429.16 685.77 433.85 685.77 433.96"/><polygon class="cls-20" points="686.08 439.46 677.87 434.72 677.87 434.63 686.08 439.37 686.08 439.46"/><polygon class="cls-18" points="706.95 456.71 698.63 451.9 698.63 434.41 706.96 439.22 706.95 456.71"/><path class="cls-19" d="M707,458a.49.49,0,0,1-.23-.4V439.1c0-.15.11-.21.23-.13a.49.49,0,0,1,.23.4v18.52C707.24,458,707.14,458.1,707,458Z"/><polygon class="cls-20" points="703.05 454.45 702.93 454.38 702.93 436.89 703.05 436.96 703.05 454.45"/><path class="cls-19" d="M698.64,453.19a.49.49,0,0,1-.23-.4V434.27c0-.15.1-.21.23-.14a.53.53,0,0,1,.23.41v18.52C698.87,453.2,698.77,453.26,698.64,453.19Z"/><polygon class="cls-19" points="708.41 457.96 697.18 451.47 697.18 450.65 708.41 457.13 708.41 457.96"/><line class="cls-19" x1="697.77" y1="433.91" x2="707.82" y2="439.71"/><polygon class="cls-19" points="708.41 440.88 697.18 434.4 697.18 432.75 708.41 439.23 708.41 440.88"/><polygon class="cls-20" points="706.78 445.53 698.66 440.84 698.66 440.73 706.78 445.42 706.78 445.53"/><polygon class="cls-20" points="707.09 451.02 698.88 446.29 698.88 446.2 707.09 450.94 707.09 451.02"/><polygon class="cls-18" points="727.96 468.7 719.64 463.9 719.64 446.41 727.97 451.22 727.96 468.7"/><path class="cls-19" d="M728,470a.49.49,0,0,1-.23-.4V451.1c0-.15.11-.21.23-.13a.49.49,0,0,1,.23.4v18.52C728.25,470,728.15,470.1,728,470Z"/><polygon class="cls-20" points="724.06 466.45 723.94 466.38 723.94 448.89 724.06 448.96 724.06 466.45"/><path class="cls-19" d="M719.65,465.19a.49.49,0,0,1-.23-.4V446.27c0-.15.1-.21.23-.14a.52.52,0,0,1,.23.4v18.53C719.88,465.2,719.78,465.26,719.65,465.19Z"/><polygon class="cls-19" points="729.42 469.96 718.18 463.47 718.19 462.65 729.42 469.13 729.42 469.96"/><line class="cls-19" x1="718.78" y1="445.91" x2="728.83" y2="451.71"/><polygon class="cls-19" points="729.42 452.88 718.19 446.4 718.19 444.75 729.42 451.23 729.42 452.88"/><polygon class="cls-20" points="727.79 457.53 719.67 452.84 719.67 452.73 727.79 457.42 727.79 457.53"/><polygon class="cls-20" points="728.1 463.02 719.89 458.29 719.89 458.2 728.1 462.94 728.1 463.02"/><polygon class="cls-18" points="644.18 379.48 635.86 374.67 635.86 357.18 644.18 361.99 644.18 379.48"/><path class="cls-19" d="M644.24,380.79a.49.49,0,0,1-.23-.4V361.87c0-.14.1-.2.23-.13a.49.49,0,0,1,.23.4v18.52C644.47,380.81,644.37,380.87,644.24,380.79Z"/><polygon class="cls-20" points="640.27 377.22 640.15 377.15 640.15 359.67 640.27 359.73 640.27 377.22"/><path class="cls-19" d="M635.87,376a.49.49,0,0,1-.23-.4V357c0-.15.1-.21.23-.13a.49.49,0,0,1,.23.4v18.52C636.1,376,636,376,635.87,376Z"/><polygon class="cls-19" points="645.63 380.73 634.4 374.25 634.4 373.42 645.63 379.9 645.63 380.73"/><line class="cls-19" x1="635" y1="356.69" x2="645.04" y2="362.49"/><polygon class="cls-19" points="645.63 363.65 634.4 357.17 634.4 355.52 645.63 362 645.63 363.65"/><polygon class="cls-20" points="644.01 368.3 635.88 363.61 635.88 363.5 644.01 368.19 644.01 368.3"/><polygon class="cls-20" points="644.32 373.8 636.11 369.06 636.11 368.97 644.32 373.71 644.32 373.8"/><polygon class="cls-18" points="664.93 391.34 656.61 386.53 656.61 369.04 664.94 373.85 664.93 391.34"/><path class="cls-19" d="M665,392.65a.52.52,0,0,1-.23-.4V373.73c0-.15.11-.21.23-.13a.5.5,0,0,1,.24.4v18.52C665.22,392.67,665.12,392.73,665,392.65Z"/><polygon class="cls-20" points="661.03 389.08 660.91 389.01 660.91 371.52 661.03 371.59 661.03 389.08"/><path class="cls-19" d="M656.62,387.82a.49.49,0,0,1-.23-.4V368.9c0-.15.11-.21.23-.14a.53.53,0,0,1,.23.41v18.52C656.85,387.83,656.75,387.89,656.62,387.82Z"/><polygon class="cls-19" points="666.39 392.59 655.16 386.1 655.16 385.28 666.39 391.76 666.39 392.59"/><line class="cls-19" x1="655.75" y1="368.54" x2="665.8" y2="374.34"/><polygon class="cls-19" points="666.39 375.51 655.16 369.03 655.16 367.38 666.39 373.86 666.39 375.51"/><polygon class="cls-20" points="664.76 380.16 656.64 375.47 656.64 375.36 664.76 380.05 664.76 380.16"/><polygon class="cls-20" points="665.07 385.65 656.86 380.92 656.86 380.83 665.07 385.56 665.07 385.65"/><polygon class="cls-18" points="685.95 403.99 677.62 399.18 677.62 381.69 685.95 386.5 685.95 403.99"/><path class="cls-19" d="M686,405.31a.56.56,0,0,1-.23-.41V386.38a.14.14,0,0,1,.23-.13.49.49,0,0,1,.23.4v18.52C686.23,405.32,686.13,405.38,686,405.31Z"/><polygon class="cls-20" points="682.04 401.73 681.92 401.67 681.92 384.18 682.04 384.24 682.04 401.73"/><path class="cls-19" d="M677.63,400.47a.49.49,0,0,1-.23-.4V381.55c0-.15.1-.21.23-.13a.49.49,0,0,1,.23.4v18.52C677.86,400.49,677.76,400.55,677.63,400.47Z"/><polygon class="cls-19" points="687.4 405.24 676.17 398.76 676.17 397.93 687.4 404.42 687.4 405.24"/><line class="cls-19" x1="676.76" y1="381.2" x2="686.81" y2="387"/><polygon class="cls-19" points="687.4 388.17 676.17 381.68 676.17 380.03 687.4 386.51 687.4 388.17"/><polygon class="cls-20" points="685.77 392.81 677.65 388.12 677.65 388.01 685.77 392.7 685.77 392.81"/><polygon class="cls-20" points="686.08 398.31 677.87 393.57 677.87 393.48 686.08 398.22 686.08 398.31"/><polygon class="cls-18" points="706.95 415.56 698.63 410.75 698.63 393.26 706.96 398.07 706.95 415.56"/><path class="cls-19" d="M707,416.87a.49.49,0,0,1-.23-.4V398c0-.15.11-.21.23-.13a.49.49,0,0,1,.23.4v18.52C707.24,416.89,707.14,417,707,416.87Z"/><polygon class="cls-20" points="703.05 413.3 702.93 413.23 702.93 395.74 703.05 395.81 703.05 413.3"/><path class="cls-19" d="M698.64,412a.49.49,0,0,1-.23-.4V393.12c0-.15.1-.21.23-.13a.49.49,0,0,1,.23.4v18.52C698.87,412.05,698.77,412.11,698.64,412Z"/><polygon class="cls-19" points="708.41 416.81 697.18 410.32 697.18 409.5 708.41 415.98 708.41 416.81"/><line class="cls-19" x1="697.77" y1="392.76" x2="707.82" y2="398.57"/><polygon class="cls-19" points="708.41 399.73 697.18 393.25 697.18 391.6 708.41 398.08 708.41 399.73"/><polygon class="cls-20" points="706.78 404.38 698.66 399.69 698.66 399.58 706.78 404.27 706.78 404.38"/><polygon class="cls-20" points="707.09 409.88 698.88 405.14 698.88 405.05 707.09 409.79 707.09 409.88"/><polygon class="cls-18" points="727.96 427.56 719.64 422.75 719.64 405.26 727.97 410.07 727.96 427.56"/><path class="cls-19" d="M728,428.87a.49.49,0,0,1-.23-.4V410c0-.15.11-.21.23-.13a.49.49,0,0,1,.23.4v18.52C728.25,428.89,728.15,429,728,428.87Z"/><polygon class="cls-20" points="724.06 425.3 723.94 425.23 723.94 407.74 724.06 407.81 724.06 425.3"/><path class="cls-19" d="M719.65,424a.49.49,0,0,1-.23-.4V405.12c0-.15.1-.21.23-.13a.49.49,0,0,1,.23.4v18.52C719.88,424.05,719.78,424.11,719.65,424Z"/><polygon class="cls-19" points="729.42 428.81 718.18 422.32 718.19 421.5 729.42 427.98 729.42 428.81"/><line class="cls-19" x1="718.78" y1="404.76" x2="728.83" y2="410.56"/><polygon class="cls-19" points="729.42 411.73 718.19 405.25 718.19 403.6 729.42 410.08 729.42 411.73"/><polygon class="cls-20" points="727.79 416.38 719.67 411.69 719.67 411.58 727.79 416.27 727.79 416.38"/><polygon class="cls-20" points="728.1 421.88 719.89 417.14 719.89 417.05 728.1 421.79 728.1 421.88"/><polygon class="cls-18" points="644.53 457.38 636.21 452.57 636.21 435.08 644.53 439.89 644.53 457.38"/><path class="cls-19" d="M644.59,458.69a.49.49,0,0,1-.23-.4V439.77c0-.15.11-.21.23-.13a.49.49,0,0,1,.23.4v18.52C644.82,458.71,644.72,458.77,644.59,458.69Z"/><polygon class="cls-20" points="640.63 455.12 640.51 455.05 640.51 437.56 640.63 437.63 640.63 455.12"/><path class="cls-19" d="M636.22,453.86a.49.49,0,0,1-.23-.4V434.94c0-.15.1-.21.23-.14a.52.52,0,0,1,.23.4v18.53C636.45,453.87,636.35,453.93,636.22,453.86Z"/><polygon class="cls-19" points="645.99 458.63 634.76 452.14 634.76 451.32 645.99 457.8 645.99 458.63"/><line class="cls-19" x1="635.35" y1="434.58" x2="645.4" y2="440.38"/><polygon class="cls-19" points="645.99 441.55 634.76 435.07 634.76 433.42 645.99 439.9 645.99 441.55"/><polygon class="cls-20" points="644.36 446.2 636.24 441.51 636.24 441.4 644.36 446.09 644.36 446.2"/><polygon class="cls-20" points="644.67 451.69 636.46 446.95 636.46 446.87 644.67 451.61 644.67 451.69"/><polygon class="cls-18" points="665.29 469.23 656.96 464.43 656.97 446.94 665.29 451.74 665.29 469.23"/><path class="cls-19" d="M665.35,470.55a.49.49,0,0,1-.23-.4V451.63c0-.15.1-.21.23-.14a.52.52,0,0,1,.23.4v18.53A.14.14,0,0,1,665.35,470.55Z"/><polygon class="cls-20" points="661.38 466.98 661.26 466.91 661.26 449.42 661.38 449.49 661.38 466.98"/><path class="cls-19" d="M657,465.72a.54.54,0,0,1-.24-.4V446.8c0-.15.1-.21.23-.14a.54.54,0,0,1,.23.4v18.52C657.21,465.73,657.1,465.79,657,465.72Z"/><polygon class="cls-19" points="666.74 470.49 655.51 464 655.51 463.18 666.74 469.66 666.74 470.49"/><line class="cls-19" x1="656.1" y1="446.44" x2="666.15" y2="452.24"/><polygon class="cls-19" points="666.74 453.41 655.51 446.92 655.51 445.27 666.74 451.76 666.74 453.41"/><polygon class="cls-20" points="665.12 458.06 656.99 453.37 656.99 453.25 665.12 457.94 665.12 458.06"/><polygon class="cls-20" points="665.43 463.55 657.22 458.81 657.22 458.72 665.43 463.46 665.43 463.55"/><polygon class="cls-21" points="685.77 495.33 674.05 488.56 674.05 457.87 685.78 464.64 685.77 495.33"/><path class="cls-19" d="M685.81,496.34a.77.77,0,0,1-.28-.6v-30.4c0-.24.12-.36.27-.28a.74.74,0,0,1,.28.6v30.4C686.09,496.3,686,496.43,685.81,496.34Z"/><path class="cls-19" d="M674.25,489.17a.74.74,0,0,1-.28-.6V457.93c0-.25.13-.37.28-.28a.74.74,0,0,1,.28.6v30.64C674.52,489.13,674.4,489.26,674.25,489.17Z"/><polygon class="cls-19" points="686.65 496.82 673.17 489.05 673.17 488.06 686.65 495.83 686.65 496.82"/><line class="cls-19" x1="673.46" y1="457.53" x2="686.36" y2="464.98"/><polygon class="cls-19" points="687.12 466.41 672.7 458.08 672.7 456.1 687.12 464.43 687.12 466.41"/><polygon class="cls-18" points="707.31 493.45 698.98 488.65 698.98 471.16 707.31 475.96 707.31 493.45"/><path class="cls-19" d="M707.37,494.77a.5.5,0,0,1-.24-.4V475.85c0-.15.1-.21.23-.13a.52.52,0,0,1,.23.4v18.52A.14.14,0,0,1,707.37,494.77Z"/><polygon class="cls-20" points="703.4 491.2 703.28 491.13 703.28 473.64 703.4 473.71 703.4 491.2"/><path class="cls-19" d="M699,489.94a.55.55,0,0,1-.23-.4V471c0-.15.11-.21.24-.14a.55.55,0,0,1,.23.4V489.8C699.23,490,699.12,490,699,489.94Z"/><polygon class="cls-19" points="708.76 494.71 697.53 488.22 697.53 487.4 708.76 493.88 708.76 494.71"/><line class="cls-19" x1="698.12" y1="470.66" x2="708.17" y2="476.46"/><polygon class="cls-19" points="708.76 477.63 697.53 471.14 697.53 469.5 708.76 475.98 708.76 477.63"/><polygon class="cls-20" points="707.13 482.28 699.01 477.59 699.01 477.48 707.13 482.17 707.13 482.28"/><polygon class="cls-20" points="707.45 487.77 699.24 483.03 699.24 482.94 707.45 487.68 707.45 487.77"/><polygon class="cls-18" points="728.32 505.45 719.99 500.65 719.99 483.16 728.32 487.96 728.32 505.45"/><path class="cls-19" d="M728.38,506.77a.5.5,0,0,1-.24-.4V487.85c0-.15.1-.21.23-.13a.52.52,0,0,1,.23.4v18.52A.14.14,0,0,1,728.38,506.77Z"/><polygon class="cls-20" points="724.41 503.2 724.29 503.13 724.29 485.64 724.41 485.71 724.41 503.2"/><path class="cls-19" d="M720,501.94a.55.55,0,0,1-.23-.4V483c0-.15.11-.21.24-.14a.55.55,0,0,1,.23.4V501.8C720.24,502,720.13,502,720,501.94Z"/><polygon class="cls-19" points="729.77 506.71 718.54 500.22 718.54 499.4 729.77 505.88 729.77 506.71"/><line class="cls-19" x1="719.13" y1="482.66" x2="729.18" y2="488.46"/><polygon class="cls-19" points="729.77 489.63 718.54 483.14 718.54 481.49 729.77 487.98 729.77 489.63"/><polygon class="cls-20" points="728.14 494.28 720.02 489.59 720.02 489.48 728.14 494.16 728.14 494.28"/><polygon class="cls-20" points="728.46 499.77 720.25 495.03 720.25 494.94 728.46 499.68 728.46 499.77"/><polygon class="cls-18" points="785.53 459.76 793.85 454.95 793.85 437.46 785.52 442.27 785.53 459.76"/><path class="cls-19" d="M785.47,461.07a.49.49,0,0,0,.23-.4V442.15a.14.14,0,0,0-.23-.13.49.49,0,0,0-.23.4v18.52C785.24,461.09,785.34,461.15,785.47,461.07Z"/><polygon class="cls-20" points="789.43 457.5 789.55 457.43 789.55 439.94 789.43 440.01 789.43 457.5"/><path class="cls-19" d="M793.84,456.24a.49.49,0,0,0,.23-.4V437.32c0-.15-.1-.21-.23-.13a.49.49,0,0,0-.23.4v18.52C793.61,456.26,793.71,456.32,793.84,456.24Z"/><polygon class="cls-19" points="784.07 461.01 795.3 454.53 795.3 453.7 784.07 460.19 784.07 461.01"/><line class="cls-19" x1="794.71" y1="436.97" x2="784.66" y2="442.77"/><polygon class="cls-19" points="784.07 443.93 795.3 437.45 795.3 435.8 784.07 442.28 784.07 443.93"/><polygon class="cls-20" points="785.7 448.58 793.82 443.89 793.82 443.78 785.7 448.47 785.7 448.58"/><polygon class="cls-20" points="785.39 454.08 793.6 449.34 793.6 449.25 785.39 453.99 785.39 454.08"/><polygon class="cls-18" points="764.52 471.76 772.84 466.95 772.84 449.46 764.52 454.27 764.52 471.76"/><path class="cls-19" d="M764.46,473.07a.49.49,0,0,0,.23-.4V454.15c0-.14-.1-.2-.23-.13a.49.49,0,0,0-.23.4v18.52C764.23,473.09,764.33,473.15,764.46,473.07Z"/><polygon class="cls-20" points="768.42 469.5 768.54 469.43 768.54 451.94 768.42 452.01 768.42 469.5"/><path class="cls-19" d="M772.83,468.24a.49.49,0,0,0,.23-.4V449.32c0-.15-.1-.21-.23-.13a.49.49,0,0,0-.23.4v18.52C772.6,468.26,772.7,468.31,772.83,468.24Z"/><polygon class="cls-19" points="763.06 473.01 774.29 466.52 774.29 465.7 763.06 472.19 763.06 473.01"/><line class="cls-19" x1="773.7" y1="448.97" x2="763.65" y2="454.77"/><polygon class="cls-19" points="763.06 455.93 774.29 449.45 774.29 447.8 763.06 454.28 763.06 455.93"/><polygon class="cls-20" points="764.69 460.58 772.81 455.89 772.81 455.78 764.69 460.47 764.69 460.58"/><polygon class="cls-20" points="764.38 466.08 772.59 461.34 772.59 461.25 764.38 465.99 764.38 466.08"/><polygon class="cls-18" points="785.53 419.21 793.85 414.41 793.85 396.92 785.52 401.72 785.53 419.21"/><path class="cls-19" d="M785.47,420.53a.49.49,0,0,0,.23-.4V401.61c0-.15-.11-.21-.23-.14a.53.53,0,0,0-.23.41V420.4C785.24,420.54,785.34,420.6,785.47,420.53Z"/><polygon class="cls-20" points="789.43 416.96 789.55 416.89 789.55 399.4 789.43 399.47 789.43 416.96"/><path class="cls-19" d="M793.84,415.7a.52.52,0,0,0,.23-.4V396.78c0-.15-.1-.21-.23-.14a.52.52,0,0,0-.23.4v18.52C793.61,415.71,793.71,415.77,793.84,415.7Z"/><polygon class="cls-19" points="784.07 420.46 795.3 413.98 795.3 413.16 784.07 419.64 784.07 420.46"/><line class="cls-19" x1="794.71" y1="396.42" x2="784.66" y2="402.22"/><polygon class="cls-19" points="784.07 403.39 795.3 396.9 795.3 395.25 784.07 401.74 784.07 403.39"/><polygon class="cls-20" points="785.7 408.04 793.82 403.35 793.82 403.23 785.7 407.92 785.7 408.04"/><polygon class="cls-20" points="785.39 413.53 793.6 408.79 793.6 408.7 785.39 413.44 785.39 413.53"/><polygon class="cls-18" points="764.52 431.21 772.84 426.41 772.84 408.92 764.52 413.72 764.52 431.21"/><path class="cls-19" d="M764.46,432.53a.49.49,0,0,0,.23-.4V413.61c0-.15-.1-.21-.23-.14a.52.52,0,0,0-.23.4V432.4C764.23,432.54,764.33,432.6,764.46,432.53Z"/><polygon class="cls-20" points="768.42 428.96 768.54 428.89 768.54 411.4 768.42 411.47 768.42 428.96"/><path class="cls-19" d="M772.83,427.7a.52.52,0,0,0,.23-.4V408.78c0-.15-.1-.21-.23-.14a.51.51,0,0,0-.23.4v18.52C772.6,427.71,772.7,427.77,772.83,427.7Z"/><polygon class="cls-19" points="763.06 432.46 774.29 425.98 774.29 425.15 763.06 431.64 763.06 432.46"/><line class="cls-19" x1="773.7" y1="408.42" x2="763.65" y2="414.22"/><polygon class="cls-19" points="763.06 415.39 774.29 408.9 774.29 407.25 763.06 413.74 763.06 415.39"/><polygon class="cls-20" points="764.69 420.04 772.81 415.35 772.81 415.23 764.69 419.92 764.69 420.04"/><polygon class="cls-20" points="764.38 425.53 772.59 420.79 772.59 420.7 764.38 425.44 764.38 425.53"/><polygon class="cls-18" points="785.53 500.56 793.85 495.75 793.85 478.26 785.52 483.07 785.53 500.56"/><path class="cls-19" d="M785.47,501.87a.49.49,0,0,0,.23-.4V483c0-.15-.11-.21-.23-.13a.49.49,0,0,0-.23.4v18.52C785.24,501.89,785.34,502,785.47,501.87Z"/><polygon class="cls-20" points="789.43 498.3 789.55 498.23 789.55 480.74 789.43 480.81 789.43 498.3"/><path class="cls-19" d="M793.84,497a.51.51,0,0,0,.23-.4V478.12c0-.15-.1-.21-.23-.14a.52.52,0,0,0-.23.4v18.53C793.61,497.05,793.71,497.11,793.84,497Z"/><polygon class="cls-19" points="784.07 501.81 795.3 495.32 795.3 494.5 784.07 500.98 784.07 501.81"/><line class="cls-19" x1="794.71" y1="477.76" x2="784.66" y2="483.56"/><polygon class="cls-19" points="784.07 484.73 795.3 478.25 795.3 476.6 784.07 483.08 784.07 484.73"/><polygon class="cls-20" points="785.7 489.38 793.82 484.69 793.82 484.58 785.7 489.27 785.7 489.38"/><polygon class="cls-20" points="785.39 494.88 793.6 490.13 793.6 490.05 785.39 494.79 785.39 494.88"/><polygon class="cls-18" points="764.52 512.55 772.84 507.75 772.84 490.26 764.52 495.07 764.52 512.55"/><path class="cls-19" d="M764.46,513.87a.49.49,0,0,0,.23-.4V495c0-.15-.1-.21-.23-.13a.49.49,0,0,0-.23.4v18.52C764.23,513.88,764.33,513.94,764.46,513.87Z"/><polygon class="cls-20" points="768.42 510.3 768.54 510.23 768.54 492.74 768.42 492.81 768.42 510.3"/><path class="cls-19" d="M772.83,509a.51.51,0,0,0,.23-.4V490.12c0-.15-.1-.21-.23-.14a.52.52,0,0,0-.23.4V508.9C772.6,509.05,772.7,509.11,772.83,509Z"/><polygon class="cls-19" points="763.06 513.81 774.29 507.32 774.29 506.5 763.06 512.98 763.06 513.81"/><line class="cls-19" x1="773.7" y1="489.76" x2="763.65" y2="495.56"/><polygon class="cls-19" points="763.06 496.73 774.29 490.25 774.29 488.6 763.06 495.08 763.06 496.73"/><polygon class="cls-20" points="764.69 501.38 772.81 496.69 772.81 496.58 764.69 501.26 764.69 501.38"/><polygon class="cls-20" points="764.38 506.87 772.59 502.13 772.59 502.05 764.38 506.79 764.38 506.87"/><path class="cls-22" d="M625,461.36h0l-2.65-1v14.91s.14,1,2.65,1,2.64-1,2.64-1V460.34Z"/><path class="cls-23" d="M622.91,470.51c.41.42.91.75,1.35,1.14a5.75,5.75,0,0,1,1,1.22,8.16,8.16,0,0,0,1.8,2.2,2.12,2.12,0,0,0,.51.28l0-.1V460.34l-2.64,1h0l-2.65-1v9.25A2.46,2.46,0,0,0,622.91,470.51Z"/><polygon class="cls-24" points="625 454.29 615.45 450 625 445.82 634.55 450 625 454.29"/><path class="cls-25" d="M634.55,450,625,454.29,615.45,450l-5.73,10.9s3.39,6.86,15.28,6.86,15.27-6.87,15.27-6.87Z"/><path class="cls-23" d="M615.42,457.82a19.14,19.14,0,0,0,6.31,1.62,19.68,19.68,0,0,0,6-.23c2.7-.57,4.72-2.59,7.29-3.48.72-.25,1.43-.47,2.12-.75l-2.62-5L625,454.29,615.45,450l-3,5.69A9.11,9.11,0,0,0,615.42,457.82Z"/><polygon class="cls-24" points="625 444.77 618.32 441.77 625 438.85 631.67 441.77 625 444.77"/><path class="cls-26" d="M631.67,441.77l-6.67,3-6.68-3L613,450.32s2.44,5.63,12,5.54c9-.09,12-5.54,12-5.54Z"/><path class="cls-23" d="M617.82,449.53c2.76,1.43,6.1,1.4,9.08.81a16,16,0,0,0,5.12-2c.91-.54,1.8-1.13,2.68-1.72l-3-4.86-6.67,3-6.68-3L615,447.15A8.63,8.63,0,0,0,617.82,449.53Z"/><path class="cls-27" d="M625,426.36l-9.74,16.24S618.17,447,625,447c7.42,0,9.73-4.38,9.73-4.38Z"/><path class="cls-28" d="M624.11,431.07a10.73,10.73,0,0,0,1.3,1.84,8.29,8.29,0,0,1,1,1.41c.62,1.22.57,2.62,1,3.92a3.54,3.54,0,0,0,2.83,2.84,10.37,10.37,0,0,0,3.46-.25L625,426.36l-1.72,2.86A12.39,12.39,0,0,0,624.11,431.07Z"/><path class="cls-6" d="M769.35,447.24l-3,1.65a8.56,8.56,0,0,0,1.33-2.62c.88-2.84.77-7.53-6.59-11.78l3-1.65C775.64,439.5,769.35,447.24,769.35,447.24Z"/><path class="cls-6" d="M764.09,432.84l-3,1.65s-9.18-17.93-17.91-15.7a6.25,6.25,0,0,0-1,.35l2.4-1.35.07,0C753.8,412.73,764.09,432.84,764.09,432.84Z"/><path class="cls-29" d="M767.68,446.27l-40.5-23.38a8.92,8.92,0,0,1,1.28-5.34c4.36-.44,10.48,4.16,10.48,4.16a10.29,10.29,0,0,1,2.37-2.11l.64.45a10.54,10.54,0,0,1,1.23-1.26c8.73-2.23,17.91,15.7,17.91,15.7C768.45,438.74,768.56,443.43,767.68,446.27Z"/><path class="cls-30" d="M767.68,446.27a8.56,8.56,0,0,1-1.33,2.62h0l-42.17-24.34c0-4.06,1.23-6,3-6.7h0a4.45,4.45,0,0,1,1.27-.3c4.36-.44,10.48,4.16,10.48,4.16a10.29,10.29,0,0,1,2.37-2.11,8.07,8.07,0,0,1,.87-.46h0a6.25,6.25,0,0,1,1-.35c8.73-2.23,17.91,15.7,17.91,15.7C768.45,438.74,768.56,443.43,767.68,446.27Z"/><path class="cls-6" d="M741.31,419.6a10.29,10.29,0,0,0-2.37,2.11s-6.12-4.6-10.48-4.16a4.45,4.45,0,0,0-1.27.3l2.3-1.29C733,414.28,739.29,418.23,741.31,419.6Z"/><line class="cls-31" x1="729.93" y1="416.31" x2="729.49" y2="416.56"/><line class="cls-31" x1="727.19" y1="417.85" x2="727.18" y2="417.85"/><line class="cls-31" x1="742.18" y1="419.14" x2="742.18" y2="419.14"/></g></g></svg>