<svg id="Laag_1" data-name="Laag 1" xmlns="http://www.w3.org/2000/svg" viewBox="0 0 900 646"><defs><style>.cls-1{fill:#e8423f;}.cls-2{fill:#6f80b3;}.cls-3{fill:#bfcbeb;}.cls-4{fill:#8fa4dc;}</style></defs><path class="cls-1" d="M11.44-.07,55.76,25.51,72.85,112l17-66.82,44.3,25.57V196.66l-27.6-15.93v-96L85.24,168.45,60.26,154,39,45.75v96L11.44,125.85Z"/><path class="cls-1" d="M222.64,227l-38.25-22.08-5.32,17.71-34.41-19.86,41-102.26,36.76,21.22,41,149.58L228.1,250.93Zm-7-31.26-12-52.22L191.7,181.9Z"/><path class="cls-1" d="M256,141.08l102.43,59.14v31.09L324,211.47V306.3l-33.69-19.46V192L256,172.18Z"/><path class="cls-1" d="M355.48,265l44,25.43V317.5l-44-25.42Z"/><path class="cls-1" d="M406.36,227.92,508.8,287.05v31.09L474.43,298.3v94.83l-33.69-19.45V278.85L406.36,259Z"/><path class="cls-2" d="M601.48,368.56q-14.72-25.4-42-41.12Q538,315,524.16,318.33q-9.57,10.41-9.57,35.12a112.56,112.56,0,0,0,27.13,73.89q12.09,13.79,30.53,24.4c12.09,7,22.19,10.2,30.32,9.64a28.1,28.1,0,0,0,4.28-.63,28.59,28.59,0,0,0,2.91-3.93q6.47-10.41,6.45-32.49A109,109,0,0,0,601.48,368.56Zm-13.53,55a10,10,0,0,1-8.16,1.86,26,26,0,0,1-8.66-3.4,42.64,42.64,0,0,1-16.69-18c-4.1-7.89-6.13-18.23-6.13-30.92,0-8.62.91-15,2.8-19.31a11.11,11.11,0,0,1,3.37-4.7c4.1-3.19,9.57-2.8,16.37,1.12a43.34,43.34,0,0,1,16.82,17.91q6.21,11.79,6.21,29.59C593.88,411.78,591.92,420.37,588,423.52Z"/><path class="cls-1" d="M631.91,358.12l32,18.48,11.52,77.14L692.3,393l31.89,18.41,16.91,80.16,11.54-63.74,31.84,18.38-24.05,112-33-19.07-19.13-90.32-19,68.27-33-19.07Z"/><path class="cls-1" d="M795.71,452.69l31.46,18.16,41.06,93.37V494.56L900,512.89V638.81l-31.77-18.33L827.4,527.76V596.9L795.7,578.61Z"/><path class="cls-3" d="M.05,6.62,44.37,32.2l17.09,86.49,17-66.83,44.3,25.57V203.35l-27.6-15.93v-96L73.85,175.15l-25-14.43L27.65,52.44v96L.05,132.54Z"/><path class="cls-3" d="M211.25,233.68,173,211.6l-5.32,17.71-34.41-19.86,41-102.26L211,128.41,252,278l-35.29-20.37Zm-7-31.26-12-52.22-11.92,38.39Z"/><path class="cls-3" d="M244.56,147.77,347,206.91V238l-34.36-19.84V313l-33.69-19.46V198.71l-34.37-19.84Z"/><path class="cls-3" d="M344.09,271.72l44,25.42v27.05l-44-25.42Z"/><path class="cls-3" d="M395,234.61l102.44,59.13v31.09L463,305v94.83l-33.69-19.45V285.54L395,265.7Z"/><path class="cls-3" d="M601.48,368.56q-14.72-25.4-42-41.12Q538,315,524.16,318.33a21.57,21.57,0,0,0-6.07,2.38q-14.88,8.58-14.89,39.44A112.56,112.56,0,0,0,530.33,434a120.07,120.07,0,0,0,30.53,24.4q18.14,10.46,30.32,9.64a23.4,23.4,0,0,0,10.94-3.37,22,22,0,0,0,4.73-4,28.59,28.59,0,0,0,2.91-3.93q6.47-10.41,6.45-32.49A109,109,0,0,0,601.48,368.56Zm-58.39-12.8a10.32,10.32,0,0,1,8-2,22.58,22.58,0,0,1,8.35,3.12,43.28,43.28,0,0,1,16.82,17.91q6.21,11.77,6.21,29.58c0,9.47-.88,16.48-2.7,21a10.92,10.92,0,0,1-3.23,4.84c-4,3.15-9.57,2.63-16.82-1.54a42.61,42.61,0,0,1-16.69-18q-6.15-11.88-6.13-30.91C536.92,367,539,358.92,543.09,355.76Z"/><path class="cls-3" d="M620.52,364.81l32,18.48L664,460.43l16.87-60.75,31.89,18.41,16.91,80.16,11.54-63.74,31.84,18.38L749,564.93l-33-19.07-19.13-90.32-19,68.27-33-19.07Z"/><path class="cls-3" d="M784.32,459.38l31.46,18.16,41.06,93.37V501.25l31.76,18.33V645.5l-31.76-18.33L816,534.45v69.14L784.31,585.3Z"/><polygon class="cls-4" points="0.05 6.62 11.44 -0.07 55.76 25.51 44.37 32.2 0.05 6.62"/><polygon class="cls-2" points="44.37 32.2 55.76 25.51 68.61 90.53 61.45 118.69 44.37 32.2"/><polygon class="cls-4" points="78.42 51.86 89.81 45.17 134.11 70.74 122.72 77.43 78.42 51.86"/><polygon class="cls-2" points="122.71 203.35 134.1 196.66 134.11 70.74 122.72 77.43 122.71 203.35"/><polygon class="cls-2" points="27.64 148.47 39.03 141.78 39.04 110.55 27.65 52.44 27.64 148.47"/><polygon class="cls-2" points="73.85 175.15 85.24 168.46 95.12 129.57 95.12 91.39 73.85 175.15"/><polygon class="cls-2" points="167.68 229.31 179.07 222.62 180.99 216.21 173 211.6 167.68 229.31"/><polygon class="cls-2" points="180.31 188.59 191.7 181.9 196.2 167.42 192.23 150.2 180.31 188.59"/><polygon class="cls-4" points="174.27 107.19 185.66 100.5 222.42 121.72 211.03 128.41 174.27 107.19"/><polygon class="cls-2" points="211.03 128.41 222.42 121.72 263.39 271.3 252 277.99 211.03 128.41"/><polygon class="cls-4" points="180.31 188.59 191.7 181.9 200.74 187.12 204.27 202.42 180.31 188.59"/><polygon class="cls-4" points="244.56 147.78 255.95 141.08 358.38 200.22 346.99 206.91 244.56 147.78"/><polygon class="cls-2" points="346.99 238 358.38 231.31 358.38 200.22 346.99 206.91 346.99 238"/><polygon class="cls-2" points="312.62 312.99 324.01 306.3 324.01 224.74 312.63 218.16 312.62 312.99"/><polygon class="cls-4" points="344.09 271.71 355.48 265.02 399.52 290.45 388.13 297.14 344.09 271.71"/><polygon class="cls-2" points="388.13 324.19 399.52 317.5 399.52 290.45 388.13 297.14 388.13 324.19"/><polygon class="cls-4" points="394.97 234.61 406.37 227.92 508.8 287.05 497.41 293.74 394.97 234.61"/><polygon class="cls-2" points="497.4 324.83 508.8 318.14 508.8 287.05 497.41 293.74 497.4 324.83"/><polygon class="cls-2" points="463.03 399.82 474.43 393.13 474.43 311.57 463.04 305 463.03 399.82"/><polygon class="cls-4" points="620.52 364.81 631.91 358.12 663.91 376.6 652.52 383.29 620.52 364.81"/><polygon class="cls-2" points="652.52 383.29 663.91 376.6 672.1 431.42 664.04 460.43 652.52 383.29"/><polygon class="cls-4" points="680.91 399.68 692.3 392.99 724.19 411.4 712.8 418.09 680.91 399.68"/><polygon class="cls-2" points="677.82 523.81 689.21 517.12 701.03 475.15 696.87 455.54 677.82 523.81"/><polygon class="cls-2" points="712.8 418.09 724.19 411.4 735.62 465.59 729.71 498.25 712.8 418.09"/><polygon class="cls-4" points="741.25 434.51 752.64 427.82 784.48 446.2 773.09 452.89 741.25 434.51"/><polygon class="cls-2" points="749.04 564.93 760.43 558.24 784.48 446.2 773.09 452.89 749.04 564.93"/><polygon class="cls-4" points="784.32 459.38 795.71 452.69 827.17 470.85 815.78 477.54 784.32 459.38"/><polygon class="cls-2" points="856.84 570.91 856.85 538.32 827.17 470.85 815.78 477.54 856.84 570.91"/><polygon class="cls-4" points="856.85 501.25 868.24 494.56 900 512.89 888.61 519.58 856.85 501.25"/><polygon class="cls-2" points="888.61 645.5 900 638.81 900 512.89 888.61 519.58 888.61 645.5"/><polyline class="cls-2" points="816 603.59 827.39 596.9 827.39 560.31 816 534.45"/><path class="cls-4" d="M627.6,417.63q0,22.1-6.45,32.5a23.81,23.81,0,0,1-6.77,7.29l-.24.14-2.24,1.33-9.78,5.82a22,22,0,0,0,4.73-4,28.59,28.59,0,0,0,2.91-3.93q6.47-10.41,6.45-32.49a109,109,0,0,0-14.73-55.77q-14.72-25.4-42-41.12Q538,315,524.16,318.33a21.57,21.57,0,0,0-6.07,2.38l11.4-6.69q14.88-8.58,41.43,6.73,27.24,15.72,42,41.11A109.23,109.23,0,0,1,627.6,417.63Z"/></svg>