<?xml version="1.0" encoding="utf-8"?>
<!-- Generator: Adobe Illustrator 26.3.1, SVG Export Plug-In . SVG Version: 6.00 Build 0)  -->
<svg version="1.1" id="Laag_1" xmlns="http://www.w3.org/2000/svg" xmlns:xlink="http://www.w3.org/1999/xlink" x="0px" y="0px"
	 viewBox="0 0 977 221" style="enable-background:new 0 0 977 221;" xml:space="preserve">
<style type="text/css">
	.st0{fill:#8BBFCC;}
	.st1{fill:none;}
	.st2{fill:#FAFAFA;}
	.st3{enable-background:new    ;}
</style>
<g id="Group_71" transform="translate(-4332 -1458)">
	<g id="Rectangle_125">
		<path class="st0" d="M4359,1458h923c14.9,0,27,12.1,27,27v167c0,14.9-12.1,27-27,27h-923c-14.9,0-27-12.1-27-27v-167
			C4332,1470.1,4344.1,1458,4359,1458z"/>
	</g>
	<g id="Rectangle_126" transform="translate(4362 1484)">
		<g>
			<path class="st1" d="M27,0h864c14.9,0,27,12.1,27,27v85c0,14.9-12.1,27-27,27H27c-14.9,0-27-12.1-27-27V27C0,12.1,12.1,0,27,0z"
				/>
		</g>
		<g>
			<path class="st2" d="M891,139H27c-14.9,0-27-12.1-27-27V27C0,12.1,12.1,0,27,0h864c14.9,0,27,12.1,27,27v85
				C918,126.9,905.9,139,891,139z M27,5C14.9,5,5,14.9,5,27v85c0,12.1,9.9,22,22,22h864c12.1,0,22-9.9,22-22V27c0-12.1-9.9-22-22-22
				H27z"/>
		</g>
	</g>
	<g class="st3">
		<path class="st2" d="M4593.5,1529.6h6.9l17.9,40l17.9-40h6.8v48.4h-6.4v-36.1l-16.1,36.1h-4.5l-16.2-36.2v36.2h-6.4V1529.6z"/>
		<path class="st2" d="M4673.1,1539c7.1,0,12,3.6,14.3,7.6v-7h6.4v38.4h-6.4v-7.1c-2.3,4.1-7.3,7.8-14.4,7.8
			c-10.2,0-18.1-8.1-18.1-20C4654.9,1546.7,4662.8,1539,4673.1,1539z M4674.4,1544.5c-7,0-13,5.1-13,14.1c0,9,6,14.4,13,14.4
			c7,0,13-5.2,13-14.3C4687.4,1549.9,4681.4,1544.5,4674.4,1544.5z"/>
		<path class="st2" d="M4742.1,1578h-6.4v-5.7c-2.5,4-7.1,6.2-12.3,6.2c-8.8,0-15.8-5.5-15.8-16.5v-22.5h6.3v21.6
			c0,7.8,4.3,11.8,10.7,11.8c6.6,0,11-4.1,11-12.3v-21.1h6.4V1578z"/>
		<path class="st2" d="M4772.3,1539c6,0,11.6,3.1,14.2,7.5v-20.3h6.4v51.8h-6.4v-7.2c-2.3,4.3-7.3,7.8-14.3,7.8
			c-10.3,0-18.2-8.1-18.2-20C4754,1546.7,4762,1539,4772.3,1539z M4773.5,1544.5c-7,0-13,5.1-13,14.1c0,9,6,14.4,13,14.4
			c7,0,13-5.2,13-14.3C4786.5,1549.9,4780.5,1544.5,4773.5,1544.5z"/>
		<path class="st2" d="M4823.1,1539c7,0,12,3.5,14.3,7.6v-7h6.4v39.2c0,10.6-7.1,18.1-18.3,18.1c-10.1,0-17.3-5.1-18.6-13.3h6.3
			c1.4,4.6,6,7.8,12.3,7.8c6.8,0,11.9-4.3,11.9-12.5v-8.1c-2.3,4.1-7.3,7.8-14.3,7.8c-10.3,0-18.2-8.1-18.2-20
			C4804.9,1546.7,4812.8,1539,4823.1,1539z M4824.3,1544.5c-7,0-13,5.1-13,14.1c0,9,6,14.4,13,14.4c7,0,13-5.2,13-14.3
			C4837.3,1549.9,4831.3,1544.5,4824.3,1544.5z"/>
		<path class="st2" d="M4864.4,1578h-6.4v-38.4h6.4v6.2c2.2-4.3,6.3-6.9,12.4-6.9v6.6h-1.7c-6.1,0-10.7,2.7-10.7,11.6V1578z"/>
		<path class="st2" d="M4903.5,1539c7.1,0,12,3.6,14.3,7.6v-7h6.4v38.4h-6.4v-7.1c-2.3,4.1-7.3,7.8-14.4,7.8
			c-10.2,0-18.1-8.1-18.1-20C4885.3,1546.7,4893.2,1539,4903.5,1539z M4904.8,1544.5c-7,0-13,5.1-13,14.1c0,9,6,14.4,13,14.4
			c7,0,13-5.2,13-14.3C4917.8,1549.9,4911.8,1544.5,4904.8,1544.5z"/>
		<path class="st2" d="M4954.8,1539c9.5,0,15.8,4.9,17.7,13h-6.9c-1.3-4.6-5.2-7.6-10.9-7.6c-7,0-12.2,5-12.2,14.4
			c0,9.5,5.2,14.5,12.2,14.5c5.7,0,9.5-2.7,10.9-7.6h6.9c-2,7.6-8.2,13-17.7,13c-10.9,0-18.7-7.7-18.7-19.9
			C4936.1,1546.7,4943.9,1539,4954.8,1539z"/>
		<path class="st2" d="M4984.5,1526.2h6.4v19c2.5-4.1,7.3-6.2,12.7-6.2c8.5,0,15.3,5.5,15.3,16.5v22.6h-6.3v-21.7
			c0-7.8-4.3-11.8-10.7-11.8c-6.5,0-11,4.1-11,12.3v21.2h-6.4V1526.2z"/>
		<path class="st2" d="M5034.2,1544.9h-5v-5.3h5v-9.7h6.4v9.7h10v5.3h-10v22.6c0,3.8,1.4,5.1,5.3,5.1h4.7v5.4h-5.7
			c-6.8,0-10.6-2.8-10.6-10.5V1544.9z"/>
	</g>
	<g class="st3">
		<path class="st2" d="M4670.4,1658.2c-4.5,0-8-3.4-8-8.2s3.5-8.2,8-8.2c4.5,0,8,3.4,8,8.2S4674.9,1658.2,4670.4,1658.2z
			 M4670.4,1656.3c3.4,0,5.9-2.5,5.9-6.4c0-3.9-2.5-6.4-5.9-6.4s-5.9,2.4-5.9,6.4C4664.5,1653.9,4667,1656.3,4670.4,1656.3z"/>
		<path class="st2" d="M4691.6,1650.9c0-2.6-1.4-3.9-3.5-3.9c-2.1,0-3.6,1.3-3.6,4v7h-2.1v-12.6h2.1v1.8c0.8-1.3,2.3-2,4-2
			c2.9,0,5.2,1.8,5.2,5.4v7.4h-2.1V1650.9z"/>
		<path class="st2" d="M4703.5,1645.2c2,0,3.8,1,4.7,2.5v-6.7h2.1v17h-2.1v-2.4c-0.8,1.4-2.4,2.6-4.7,2.6c-3.4,0-6-2.6-6-6.6
			C4697.5,1647.7,4700.1,1645.2,4703.5,1645.2z M4703.9,1647c-2.3,0-4.3,1.7-4.3,4.6c0,3,2,4.7,4.3,4.7s4.3-1.7,4.3-4.7
			C4708.1,1648.8,4706.2,1647,4703.9,1647z"/>
		<path class="st2" d="M4720.4,1658.2c-3.6,0-6.2-2.5-6.2-6.5c0-4,2.6-6.5,6.2-6.5c3.7,0,6,2.6,6,6c0,0.5,0,0.8-0.1,1.3h-10.1
			c0.2,2.6,2,4,4.1,4c1.9,0,3.1-1,3.5-2.3h2.3C4725.5,1656.4,4723.5,1658.2,4720.4,1658.2z M4716.3,1650.8h8c0-2.5-1.8-3.8-4-3.8
			C4718.3,1647,4716.6,1648.3,4716.3,1650.8z"/>
		<path class="st2" d="M4732.4,1658h-2.1v-12.6h2.1v2c0.7-1.4,2.1-2.3,4.1-2.3v2.2h-0.6c-2,0-3.5,0.9-3.5,3.8V1658z"/>
		<path class="st2" d="M4745.3,1645.2c2,0,3.8,1,4.7,2.5v-6.7h2.1v17h-2.1v-2.4c-0.8,1.4-2.4,2.6-4.7,2.6c-3.4,0-6-2.6-6-6.6
			C4739.3,1647.7,4741.9,1645.2,4745.3,1645.2z M4745.7,1647c-2.3,0-4.3,1.7-4.3,4.6c0,3,2,4.7,4.3,4.7s4.3-1.7,4.3-4.7
			C4750,1648.8,4748,1647,4745.7,1647z"/>
		<path class="st2" d="M4762.2,1658.2c-3.6,0-6.2-2.5-6.2-6.5c0-4,2.6-6.5,6.2-6.5c3.7,0,6,2.6,6,6c0,0.5,0,0.8-0.1,1.3h-10.1
			c0.2,2.6,2,4,4.1,4c1.9,0,3.1-1,3.5-2.3h2.3C4767.4,1656.4,4765.4,1658.2,4762.2,1658.2z M4758.2,1650.8h8c0-2.5-1.8-3.8-4-3.8
			C4760.1,1647,4758.4,1648.3,4758.2,1650.8z"/>
		<path class="st2" d="M4777.6,1658.2c-3.6,0-6.2-2.5-6.2-6.5c0-4,2.6-6.5,6.2-6.5c3.7,0,6,2.6,6,6c0,0.5,0,0.8-0.1,1.3h-10.1
			c0.2,2.6,2,4,4.1,4c1.9,0,3.1-1,3.5-2.3h2.3C4782.8,1656.4,4780.8,1658.2,4777.6,1658.2z M4773.6,1650.8h8c0-2.5-1.8-3.8-4-3.8
			C4775.5,1647,4773.8,1648.3,4773.6,1650.8z"/>
		<path class="st2" d="M4787.6,1641h2.1v17h-2.1V1641z"/>
		<path class="st2" d="M4802.5,1645.4l3.9,10.7l3.9-10.7h2.2l-4.9,12.6h-2.4l-4.9-12.6H4802.5z"/>
		<path class="st2" d="M4821,1645.2c2.3,0,4,1.2,4.7,2.5v-2.3h2.1v12.6h-2.1v-2.3c-0.8,1.4-2.4,2.6-4.7,2.6c-3.4,0-6-2.6-6-6.6
			C4815,1647.7,4817.6,1645.2,4821,1645.2z M4821.4,1647c-2.3,0-4.3,1.7-4.3,4.6c0,3,2,4.7,4.3,4.7c2.3,0,4.3-1.7,4.3-4.7
			C4825.6,1648.8,4823.7,1647,4821.4,1647z"/>
		<path class="st2" d="M4841.7,1650.9c0-2.6-1.4-3.9-3.5-3.9c-2.1,0-3.6,1.3-3.6,4v7h-2.1v-12.6h2.1v1.8c0.8-1.3,2.3-2,4-2
			c2.9,0,5.2,1.8,5.2,5.4v7.4h-2.1V1650.9z"/>
		<path class="st2" d="M4855.6,1642.1h2.3l5.9,13.2l5.9-13.2h2.2v15.9h-2.1v-11.9l-5.3,11.9h-1.5l-5.3-11.9v11.9h-2.1V1642.1z"/>
		<path class="st2" d="M4886,1654.4h-7l-1.3,3.6h-2.2l5.8-15.9h2.4l5.8,15.9h-2.2L4886,1654.4z M4882.5,1644.6l-2.9,8.1h5.8
			L4882.5,1644.6z"/>
		<path class="st2" d="M4892.2,1642h10.9v1.7h-4.4v14.3h-2.1v-14.3h-4.4V1642z"/>
		<path class="st2" d="M4906.4,1648.7h9.2v1.8h-9.2V1648.7z"/>
		<path class="st2" d="M4919.6,1642h10.9v1.7h-4.4v14.3h-2.1v-14.3h-4.4V1642z"/>
		<path class="st2" d="M4939.7,1658.2c-3.6,0-6.3-2.5-6.3-6.5c0-4,2.8-6.5,6.4-6.5c3.6,0,6.4,2.5,6.4,6.5
			C4946.2,1655.7,4943.3,1658.2,4939.7,1658.2z M4939.7,1656.4c2.2,0,4.3-1.5,4.3-4.7c0-3.2-2.1-4.7-4.3-4.7c-2.2,0-4.2,1.5-4.2,4.7
			C4935.6,1654.9,4937.5,1656.4,4939.7,1656.4z"/>
		<path class="st2" d="M4948.6,1645.4h2.1l2.9,10.6l3.1-10.6h2.1l3.1,10.6l2.9-10.6h2.1l-3.9,12.6h-2.2l-3-10l-3,10h-2.2
			L4948.6,1645.4z"/>
		<path class="st2" d="M4979.3,1650.9c0-2.6-1.4-3.9-3.5-3.9c-2.1,0-3.6,1.3-3.6,4v7h-2.1v-12.6h2.1v1.8c0.8-1.3,2.3-2,4-2
			c2.9,0,5.2,1.8,5.2,5.4v7.4h-2.1V1650.9z"/>
	</g>
</g>
</svg>
