<?xml version="1.0" encoding="UTF-8"?><svg id="Laag_2" xmlns="http://www.w3.org/2000/svg" viewBox="0 0 651.07 538.04"><defs><style>.cls-1{fill:#c3b17f;}.cls-2{fill:#fff;}.cls-3{fill:#f4e09e;}.cls-4{fill:#e2e2e2;}.cls-5{fill:#f7e3a1;}.cls-6{fill:#ffd15d;}.cls-7{fill:#faebc7;}.cls-8{fill:#ffbe01;}.cls-9{fill:#8fc1c9;}.cls-10{fill:#cfcfcf;}.cls-11{fill:#c4d9b2;}.cls-12{fill:#969696;}.cls-13{fill:#aadce8;}.cls-14{fill:gray;}.cls-15{fill:#fa4742;}.cls-16{fill:#ffd09d;}.cls-17{fill:#f84741;}.cls-18{fill:#a2c587;}.cls-19{fill:none;}.cls-20{fill:#f9bf7d;}.cls-21{fill:#b3b3b3;}.cls-22{fill:#efefef;}.cls-23{fill:#788f65;}.cls-24{fill:#faaa4d;}.cls-25{fill:#d5c387;}.cls-26{fill:#e3e3e3;}</style></defs><g id="Laag_3"><g><path class="cls-2" d="M86.16,64.85c8.04,0,15.42,16.92,16.24,45.84l9.57-5.53,6.6,4.7-7.5,37.7-38.7,22.31v219.23h-3V171.77l-32.2,18.4-6.5-4.7-7.5-29,16.1-9.3c2.54-43.58,10.65-68.37,19.82-68.37,3.68,0,7.54,4,11.28,12.37,4.26-18.1,10.19-26.32,15.79-26.32m0-20h0c-5.53,0-15.84,1.88-24.26,14.1-.99-.11-1.93-.15-2.8-.16-5.2,0-15.09,1.71-23.04,13.13-3.36,4.83-6.15,11.03-8.53,18.96-3.46,11.53-5.96,26.39-7.46,44.26l-6.91,3.99-13.17,7.61,3.81,14.72,7.5,29,1.8,6.98,5.84,4.22,6.5,4.7,10.45,7.55,11.19-6.4,2.28-1.3v202.88h43V181.44l28.69-16.54,7.86-4.53,1.77-8.9,7.5-37.7,2.52-12.69-10.54-7.5-6.6-4.7-3.42-2.44c-6.56-37.03-25.23-41.58-33.98-41.59h0Z"/><polygon class="cls-10" points="175.67 187.37 175.87 392.07 385.37 514.87 385.37 310.07 175.67 187.37"/><polygon class="cls-21" points="595.17 187.37 594.97 392.07 385.37 514.87 385.37 310.07 595.17 187.37"/><polygon class="cls-7" points="175.67 187.37 385.37 64.67 595.17 187.37 385.37 310.07 175.67 187.37"/><polygon class="cls-17" points="385.37 43.67 139.77 207.37 385.37 351.07 631.07 207.37 385.37 43.67"/><polygon class="cls-5" points="152.77 166.87 385.37 30.77 618.07 166.87 385.37 302.97 152.77 166.87"/><path class="cls-11" d="M385.37,38.37l219.8,128.5-219.8,128.5L165.67,166.87,385.37,38.37m0-15.2L139.77,166.87l245.6,143.7,245.7-143.7L385.37,23.17h0Z"/><polygon class="cls-18" points="139.77 207.37 139.77 166.87 385.37 310.57 385.37 351.07 139.77 207.37"/><polygon class="cls-23" points="631.07 166.87 631.07 207.37 385.37 351.07 385.37 310.57 631.07 166.87"/><polygon class="cls-23" points="164.17 166.87 175.47 173.47 385.37 51.37 385.37 37.47 164.17 166.87"/><polygon class="cls-18" points="606.57 166.87 595.37 173.47 385.37 51.37 385.37 37.47 606.57 166.87"/><polygon class="cls-13" points="297.67 340.87 297.67 463.57 259.27 441.17 258.97 440.97 227.47 422.57 227.47 299.97 258.97 318.37 259.27 318.47 297.67 340.87"/><polygon class="cls-9" points="227.47 299.97 297.67 381.87 297.37 422.77 227.47 340.77 227.47 299.97"/><polygon class="cls-9" points="227.47 353.07 297.67 434.97 297.67 448.17 227.47 366.17 227.47 353.07"/><line class="cls-19" x1="259.27" y1="318.47" x2="258.97" y2="318.37"/><polygon class="cls-14" points="259.27 441.17 259.27 403.27 259.27 390.17 259.27 378.17 259.27 337.07 259.27 318.47 258.97 318.37 258.97 336.67 258.97 377.77 258.97 389.77 258.97 390.17 258.97 392.47 258.97 402.97 258.97 440.97 259.27 441.17"/><path class="cls-8" d="M256.57,392.37l.6,.4s0-3.8,.6-4.2c.6-.5,.9,2.7,.9,2.7,0,0,.1,1.8,.1,2.1l.6,.4s-.1-3.1,.6-3.9c0,0,.3-.3,.6,1,.2,1.4,.4,2.8,.3,4.2l.7,.4s0-3.9-1-5.5c0,0-.5-1-1.1-.2-.2,.3-.3,.6-.4,.9-.1-.7-.4-1.3-.7-1.9,0,0-.4-.7-.8-.5s-1,1.5-1,4.1Z"/><polygon class="cls-18" points="236.97 140.67 236.97 181.67 376.67 263.37 376.67 222.57 236.97 140.67"/><polygon class="cls-11" points="236.97 140.67 245.97 134.97 385.67 216.97 376.67 222.57 236.97 140.67"/><polygon class="cls-23" points="376.67 263.37 385.67 257.67 385.67 216.97 376.67 222.57 376.67 263.37"/><path class="cls-2" d="M276.37,185.97c-.1-2.1-.2-4.7-.2-6.9h-.1c-.5,1.7-1,3.6-1.7,5.3l-2,5.9-2-1.1-1.9-8c-.5-2.4-1-4.9-1.4-7.1h0c-.1,2.1-.2,4.6-.3,6.8l-.3,6.4-2.5-1.5,1-15.7,3.4,2,1.8,7.6c.5,2.2,.9,4.4,1.3,6.4h.1c.4-1.5,.9-3.3,1.4-4.9l1.9-5.4,3.3,1.9,.8,16.8-2.5-1.4-.1-7.1Z"/><path class="cls-2" d="M289.97,200.17c-1-.1-2-.5-2.9-1.1-3.2-1.9-5.2-5.3-5.2-9,0-3.5,2.1-5.1,5.7-3,.9,.5,1.8,1.2,2.5,2l-.5,2c-.6-.6-1.3-1.2-2-1.6-2-1.1-3.1-.1-3.1,2,0,2.3,1.2,4.4,3.1,5.6,.6,.4,1.3,.6,2,.7l.4,2.4Z"/><path class="cls-2" d="M295.17,189.77l-4-2.3v-2.5l10.6,6.1v2.5l-4-2.3v13.8l-2.6-1.5v-13.8Z"/><path class="cls-2" d="M303.97,191.47l2.6,1.5v7h0c.3-.4,.8-.6,1.3-.6,.6,0,1.2,.1,1.8,.5,1.7,1,3.6,3.4,3.6,7.1v6.9l-2.6-1.5v-6.6c.1-1.6-.6-3.2-2-4.1-1-.6-1.7-.2-2,.5-.1,.3-.1,.5-.1,.8v7l-2.6-1.5v-17Z"/><path class="cls-2" d="M319.37,202.47c0,.9-.6,1.3-1.5,.8-.8-.5-1.4-1.4-1.4-2.4,0-.9,.6-1.3,1.4-.8,1,.5,1.5,1.4,1.5,2.4Zm-2.7,13.5v-11.8l2.6,1.5v11.8l-2.6-1.5Z"/><path class="cls-2" d="M320.57,220.87c.8,.4,1.5,.5,1.9,.3s.7-1.1,.7-3.7v-9.6l2.6,1.5v10.4c0,2.4-.4,3.7-1.3,4.3s-2.3,0-3.6-.7l-.3-2.5Zm5.3-14.7c0,.9-.5,1.3-1.5,.8-.8-.5-1.4-1.4-1.4-2.4,0-.9,.6-1.3,1.4-.8,.9,.5,1.5,1.4,1.5,2.4h0Z"/><path class="cls-2" d="M329.07,220.37c.7,.9,1.6,1.7,2.6,2.4,1.1,.6,1.6,.4,1.6-.4s-.4-1.5-1.7-2.7c-2-2-2.8-3.7-2.8-5,0-2.1,1.5-2.8,3.8-1.5,1,.6,1.9,1.4,2.7,2.3l-.5,1.8c-.6-.8-1.3-1.4-2.2-1.9-.9-.5-1.4-.3-1.4,.4s.5,1.4,1.8,2.7c1.8,1.8,2.7,3.4,2.7,5.2,0,2.1-1.4,2.8-4.1,1.3-1.2-.7-2.2-1.6-3.1-2.6l.6-2Z"/><polygon class="cls-24" points="409.47 85.07 409.47 105.37 391.97 115.67 391.97 95.27 409.47 85.07"/><polygon class="cls-16" points="374.57 85.07 391.87 74.67 409.47 85.07 391.97 95.27 374.57 85.07"/><polygon class="cls-20" points="374.57 85.07 374.57 105.47 391.97 115.67 391.97 95.27 374.57 85.07"/><polygon class="cls-24" points="422.57 103.67 422.57 118.97 409.47 126.57 409.47 111.37 422.57 103.67"/><polygon class="cls-16" points="396.37 103.67 409.37 95.97 422.57 103.67 409.47 111.37 396.37 103.67"/><polygon class="cls-20" points="396.37 103.67 396.37 118.97 409.47 126.57 409.47 111.37 396.37 103.67"/><ellipse class="cls-12" cx="70.67" cy="404.17" rx="22.9" ry="13.2"/><ellipse class="cls-22" cx="70.67" cy="402.27" rx="22.9" ry="13.2"/><path class="cls-2" d="M70.67,389.07c12.65,0,22.9,6.34,22.9,14.15s-10.25,14.15-22.9,14.15-22.9-6.34-22.9-14.15,10.25-14.15,22.9-14.15m0-20c-9.78,0-19.26,2.53-26.71,7.13-10.29,6.36-16.19,16.21-16.19,27.02s5.9,20.66,16.19,27.02c7.44,4.6,16.93,7.13,26.71,7.13s19.26-2.53,26.71-7.13c10.29-6.36,16.19-16.21,16.19-27.02s-5.9-20.66-16.19-27.02c-7.44-4.6-16.93-7.13-26.71-7.13h0Z"/><path class="cls-4" d="M72.37,167.57v237c0,.2-.7,.5-1.5,.5s-1.5-.2-1.5-.5V167.57h3Z"/><polygon class="cls-18" points="467.77 466.77 467.77 303.47 502.67 323.47 503.07 487.47 467.77 466.77"/><polygon class="cls-23" points="572.57 446.47 572.57 282.77 502.67 323.47 503.07 487.47 572.57 446.47"/><polygon class="cls-11" points="538.37 262.17 572.57 282.77 502.67 323.47 467.77 303.47 538.37 262.17"/><polygon class="cls-2" points="507.87 340.57 520.67 348.07 577.77 314.67 565.17 307.27 507.87 340.57"/><polygon class="cls-22" points="507.87 340.57 507.87 345.27 520.67 352.67 520.67 348.07 507.87 340.57"/><polygon class="cls-26" points="520.67 348.07 577.77 314.67 577.77 319.27 520.67 352.67 520.67 348.07"/><path class="cls-8" d="M519.27,342.37l5.7-3.3s.1-34,5.4-44.3,7.8,14.7,7.8,14.7c0,0,.8,15,.9,18.2l5.7-3.3s-.5-27.2,5.4-41.2c0,0,2.9-6.1,5.5,2.5,2.5,8.6,3.5,28.3,3.1,33.9l5.8-3.3s.1-34.7-9.2-38.6c0,0-4.7-3.2-9.8,9.3-1.5,4-2.7,8-3.6,12.2,0,0-2.6-9.1-6.1-10.2,0,0-3.5-2-7.3,4.1s-9.4,25.7-9.3,49.3Z"/><polygon class="cls-13" points="467.77 354.67 467.77 415.67 502.97 436.27 502.87 374.77 467.77 354.67"/><polygon class="cls-13" points="572.57 395.27 502.97 436.27 502.87 374.77 572.57 333.97 572.57 395.27"/><polygon class="cls-5" points="502.67 436.17 522.67 447.87 592.47 407.17 572.37 395.47 502.67 436.17"/><polygon class="cls-1" points="502.67 436.17 502.67 442.07 522.67 453.77 522.67 447.87 502.67 436.17"/><polygon class="cls-25" points="592.47 413.07 592.47 407.17 522.67 447.87 522.67 453.77 592.47 413.07"/><polygon class="cls-3" points="503.07 436.17 483.17 447.87 448.17 427.67 468.27 415.97 503.07 436.17"/><polygon class="cls-1" points="503.07 436.17 503.07 442.07 483.17 453.77 483.17 447.87 503.07 436.17"/><polygon class="cls-25" points="448.17 433.57 448.17 427.67 483.17 447.87 483.17 453.77 448.17 433.57"/><polygon class="cls-9" points="502.87 374.77 572.57 385.07 572.57 364.47 525.97 361.17 502.87 374.77"/><polygon class="cls-9" points="467.77 359.27 502.97 407.17 502.97 420.37 467.77 379.87 467.77 359.27"/><polygon class="cls-9" points="502.67 384.97 572.47 392.77 572.37 395.47 503.07 388.77 502.67 384.97"/><polygon class="cls-9" points="467.97 389.87 493.87 430.87 490.07 428.67 467.77 393.47 467.97 389.87"/><polygon class="cls-15" points="23.17 156.47 30.67 185.47 104.47 142.87 111.97 105.17 23.17 156.47"/><polygon class="cls-23" points="29.67 161.17 37.17 190.17 111.07 147.57 118.57 109.87 29.67 161.17"/><polygon class="cls-11" points="118.57 109.87 111.97 105.17 23.17 156.47 29.67 161.17 118.57 109.87"/><polygon class="cls-18" points="37.17 190.17 30.67 185.47 23.17 156.47 29.67 161.17 37.17 190.17"/><path class="cls-2" d="M57.07,162.27c-.1-1.4-.1-3.1-.1-4.7h0c-.3,1.6-.7,3.3-1.2,5l-1.4,5.7-1.4,.8-1.3-4c-.4-1.2-.7-2.6-1-3.8h0c0,1.5-.1,3.3-.2,4.9l-.2,4.6-1.7,1,.6-11.6,2.3-1.4,1.3,3.8c.4,1.1,.6,2.3,.9,3.4h0c.3-1.4,.6-3,1-4.5l1.4-5.3,2.3-1.3,.6,10.9-1.7,1-.2-4.5Z"/><path class="cls-2" d="M66.47,161.07c-.6,.6-1.3,1.1-2,1.6-2.2,1.3-3.6,.5-3.6-2,.1-2.7,1.6-5.2,3.9-6.6,.5-.3,1.1-.5,1.7-.6l-.3,1.7c-.5,0-.9,.2-1.3,.5-1.3,.8-2.2,2.3-2.1,3.9,0,1.7,.9,2.1,2.1,1.4,.5-.3,1-.7,1.4-1.1l.2,1.2Z"/><path class="cls-2" d="M70.07,149.77l-2.8,1.6v-1.7l7.4-4.2v1.7l-2.8,1.6v9.5l-1.8,1v-9.5Z"/><path class="cls-2" d="M76.17,143.97l1.8-1v4.8h0c.2-.5,.5-1,.9-1.4,.3-.4,.8-.8,1.2-1.1,1.2-.7,2.5-.5,2.5,2.1v4.8l-1.8,1v-4.6c0-1.2-.4-1.9-1.4-1.3-.7,.4-1.2,1.1-1.4,1.9,0,.2-.1,.4-.1,.7v4.9l-1.8,1,.1-11.8Z"/><path class="cls-2" d="M86.87,139.27c0,.7-.4,1.3-1,1.7-.6,.4-1,.1-1-.5,0-.7,.4-1.3,1-1.7,.6-.4,1-.2,1,.5Zm-1.9,11.5v-8.1l1.8-1v8.1l-1.8,1Z"/><path class="cls-2" d="M87.67,151.07c.5-.3,1-.8,1.3-1.4,.4-1,.6-2,.5-3.1v-6.6l1.8-1v7.2c.1,1.4-.2,2.8-.9,4-.6,1-1.5,1.8-2.5,2.4l-.2-1.5Zm3.6-14.4c0,.7-.4,1.3-1,1.7-.6,.4-1,.1-1-.5,0-.7,.4-1.3,1-1.7,.7-.4,1-.2,1,.5h0Z"/><path class="cls-2" d="M93.57,143.87c.6,0,1.3-.1,1.8-.5,.6-.3,1.1-.9,1.1-1.5s-.3-.7-1.1-.5c-1.4,.2-2-.3-1.9-1.2,.1-1.7,1.1-3.3,2.7-4.1,.6-.4,1.2-.6,1.9-.6l-.3,1.7c-.5,0-1,.1-1.5,.4-.6,.3-.9,.8-1,1.4,0,.5,.3,.6,1.2,.4,1.3-.2,1.9,.2,1.9,1.4-.2,1.8-1.2,3.4-2.9,4.2-.6,.4-1.4,.6-2.1,.7l.2-1.8Z"/><path class="cls-6" d="M94.67,119.67c.1-9.9-1.2-33-4.3-43.7-1-3.6-2.1-5.3-3.2-6-3-5.1-5.8,.8-5.8,.8-8,19.2-7.4,56.4-7.4,56.4l-6.4,3.7c-.3-6.9-1.2-22.3-1.2-22.3,0,0-2.1-20.5-6.4-23.2-1.6-2.7-3.5-3.2-5.8,1.4-7.2,14.1-7.4,60.5-7.4,60.5l-6.2,3.6c.5-31.1,7.6-56.5,12.6-64.7,5.2-8.4,10-5.6,10-5.6,.8,.3,1.4,.7,2,1.3,2.9,4.1,4.9,10.9,4.9,10.9,.1-.5,.2-1.1,.3-1.6,1.2-5.1,2.7-10.1,4.6-15,7.1-17.1,13.4-12.8,13.4-12.8,1.6,.7,2.9,1.9,3.9,3.4,8.8,12.2,8.7,49.3,8.7,49.3l-6.3,3.6Z"/><path class="cls-8" d="M94.67,119.67c.1-9.9-1.2-33-4.3-43.7-1-3.6-2.1-5.3-3.2-6-2.4-1.6-4.3,2.5-4.3,2.5-8,19.2-7.4,56.4-7.4,56.4l-7.8,4.5c0-.6,0-1.5-.1-2.6-.3-6.9-1.2-22.3-1.2-22.3,0,0-2.1-20.5-6.4-23.2-1.3-.8-2.7-.1-4.4,3.1-7.2,14.1-7.4,60.5-7.4,60.5l-7.7,4.5v-2.6c.6-31,7.6-56.5,12.7-64.6,5.2-8.4,10-5.6,10-5.6,.8,.3,1.4,.7,2,1.3,2.3,2.1,4.1,6.3,5.2,9.3,.7,2,1.2,3.4,1.2,3.4,1.2-5.7,2.9-11.2,5-16.6,7.1-17.1,13.5-12.8,13.5-12.8,.9,.4,1.7,.9,2.4,1.6,10.2,9.9,10.1,51.1,10.1,51.1l-7.9,4.6v-2.8Z"/><path class="cls-6" d="M65.27,81.87c-.6-.6-1.2-1-2-1.3,0,0-4.8-2.8-10,5.6-5.1,8.2-12.2,33.6-12.5,64.7v2.6l-1.5-1.8c0-32.2,7.3-58.9,12.5-67.3s10-5.6,10-5.6c1.4,.7,2.6,1.7,3.5,3.1Z"/><path class="cls-6" d="M67.77,133.37l-1.5-1.8c-.1-4.4-1.3-24.8-1.3-24.8,0,0-1.6-15.8-4.9-21.5,4.3,2.8,6.4,23.2,6.4,23.2,0,0,.9,15.3,1.2,22.3,0,1.2,.1,2.1,.1,2.6Z"/><path class="cls-6" d="M94.67,119.67c0,1,0,1.9-.1,2.6l-1.4-1.7c.5-7.6-.8-34.5-4.2-46.3-.4-1.5-1-2.9-1.7-4.2,1,.7,2.1,2.4,3.2,6,3,10.6,4.4,33.7,4.2,43.6Z"/><path class="cls-2" d="M385.37,23.17l245.7,143.7v40.5l-35.9,21-.2,163.7-14.17,8.3,11.67,6.8v5.9l-20,11.66,.1,21.74-69.5,41-35.3-20.7-82.4,48.1-209.5-122.8-.2-163.7-35.9-21.01v-40.5L385.37,23.17m0-23.17l-10.1,5.91L129.67,149.61l-9.9,5.79v63.44l9.9,5.79,26.01,15.22,.19,152.24v11.44l9.89,5.79,209.5,122.8,10.09,5.92,10.1-5.9,72.29-42.2,25.21,14.78,10.15,5.95,10.13-5.98,69.5-41,9.89-5.83-.05-11.48-.05-10.19,10.02-5.84,9.93-5.79v-19.56l2.49-1.46v-11.45l.2-152.25,26.01-15.21,9.9-5.79v-63.44l-9.9-5.79L395.47,5.91l-10.1-5.91h0Z"/></g></g></svg>