<?xml version="1.0" encoding="utf-8"?>
<!-- Generator: Adobe Illustrator 25.4.6, SVG Export Plug-In . SVG Version: 6.00 Build 0)  -->
<svg version="1.1" id="Laag_1" xmlns="http://www.w3.org/2000/svg" xmlns:xlink="http://www.w3.org/1999/xlink" x="0px" y="0px"
	 viewBox="0 0 607.9 491.7" style="enable-background:new 0 0 607.9 491.7;" xml:space="preserve">
<style type="text/css">
	.st0{fill:none;}
	.st1{fill:#CFCFCF;}
	.st2{fill:#B3B3B3;}
	.st3{fill:#FAEBC7;}
	.st4{fill:#F84741;}
	.st5{fill:#F7E3A1;}
	.st6{fill:#C4D9B2;}
	.st7{fill:#A2C587;}
	.st8{fill:#788F65;}
	.st9{fill:#AADCE8;}
	.st10{fill:#8FC1C9;}
	.st11{fill:#808080;}
	.st12{fill:#FFBE01;}
	.st13{fill:#FFFFFF;}
	.st14{fill:#FAAA4D;}
	.st15{fill:#FFD09D;}
	.st16{fill:#F9BF7D;}
	.st17{fill:#969696;}
	.st18{fill:#EFEFEF;}
	.st19{fill:#E2E2E2;}
	.st20{fill:#E3E3E3;}
	.st21{fill:#C3B17F;}
	.st22{fill:#D5C387;}
	.st23{fill:#F4E09E;}
	.st24{fill:#FA4742;}
	.st25{fill:#FFD15D;}
</style>
<line class="st0" x1="246.1" y1="192.7" x2="246.1" y2="190.3"/>
<polygon class="st1" points="152.5,164.2 152.7,368.9 362.2,491.7 362.2,286.9 "/>
<polygon class="st2" points="572,164.2 571.8,368.9 362.2,491.7 362.2,286.9 "/>
<polygon class="st3" points="152.5,164.2 362.2,41.5 572,164.2 362.2,286.9 "/>
<polygon class="st4" points="362.2,20.5 116.6,184.2 362.2,327.9 607.9,184.2 "/>
<polygon class="st5" points="129.6,143.7 362.2,7.6 594.9,143.7 362.2,279.8 "/>
<path class="st6" d="M362.2,15.2L582,143.7L362.2,272.2L142.5,143.7L362.2,15.2 M362.2,0L116.6,143.7l245.6,143.7l245.7-143.7
	L362.2,0L362.2,0z"/>
<polygon class="st7" points="116.6,184.2 116.6,143.7 362.2,287.4 362.2,327.9 "/>
<polygon class="st8" points="607.9,143.7 607.9,184.2 362.2,327.9 362.2,287.4 "/>
<polygon class="st8" points="141,143.7 152.3,150.3 362.2,28.2 362.2,14.3 "/>
<polygon class="st7" points="583.4,143.7 572.2,150.3 362.2,28.2 362.2,14.3 "/>
<polygon class="st9" points="274.5,317.7 274.5,440.4 236.1,418 235.8,417.8 204.3,399.4 204.3,276.8 235.8,295.2 236.1,295.3 "/>
<polygon class="st10" points="204.3,276.8 274.5,358.7 274.2,399.6 204.3,317.6 "/>
<polygon class="st10" points="204.3,329.9 274.5,411.8 274.5,425 204.3,343 "/>
<line class="st0" x1="236.1" y1="295.3" x2="235.8" y2="295.2"/>
<polygon class="st11" points="236.1,418 236.1,380.1 236.1,367 236.1,355 236.1,313.9 236.1,295.3 235.8,295.2 235.8,313.5 
	235.8,354.6 235.8,366.6 235.8,367 235.8,369.3 235.8,379.8 235.8,417.8 "/>
<path class="st12" d="M233.4,369.2l0.6,0.4c0,0,0-3.8,0.6-4.2c0.6-0.5,0.9,2.7,0.9,2.7s0.1,1.8,0.1,2.1l0.6,0.4c0,0-0.1-3.1,0.6-3.9
	c0,0,0.3-0.3,0.6,1c0.2,1.4,0.4,2.8,0.3,4.2l0.7,0.4c0,0,0-3.9-1-5.5c0,0-0.5-1-1.1-0.2c-0.2,0.3-0.3,0.6-0.4,0.9
	c-0.1-0.7-0.4-1.3-0.7-1.9c0,0-0.4-0.7-0.8-0.5S233.4,366.6,233.4,369.2z"/>
<polygon class="st7" points="213.8,117.5 213.8,158.5 353.5,240.2 353.5,199.4 "/>
<polygon class="st6" points="213.8,117.5 222.8,111.8 362.5,193.8 353.5,199.4 "/>
<polygon class="st8" points="353.5,240.2 362.5,234.5 362.5,193.8 353.5,199.4 "/>
<path class="st13" d="M253.2,162.8c-0.1-2.1-0.2-4.7-0.2-6.9h-0.1c-0.5,1.7-1,3.6-1.7,5.3l-2,5.9l-2-1.1l-1.9-8
	c-0.5-2.4-1-4.9-1.4-7.1l0,0c-0.1,2.1-0.2,4.6-0.3,6.8l-0.3,6.4l-2.5-1.5l1-15.7l3.4,2l1.8,7.6c0.5,2.2,0.9,4.4,1.3,6.4h0.1
	c0.4-1.5,0.9-3.3,1.4-4.9l1.9-5.4l3.3,1.9l0.8,16.8l-2.5-1.4L253.2,162.8z"/>
<path class="st13" d="M266.8,177c-1-0.1-2-0.5-2.9-1.1c-3.2-1.9-5.2-5.3-5.2-9c0-3.5,2.1-5.1,5.7-3c0.9,0.5,1.8,1.2,2.5,2l-0.5,2
	c-0.6-0.6-1.3-1.2-2-1.6c-2-1.1-3.1-0.1-3.1,2c0,2.3,1.2,4.4,3.1,5.6c0.6,0.4,1.3,0.6,2,0.7L266.8,177z"/>
<path class="st13" d="M272,166.6l-4-2.3v-2.5l10.6,6.1v2.5l-4-2.3v13.8l-2.6-1.5L272,166.6z"/>
<path class="st13" d="M280.8,168.3l2.6,1.5v7l0,0c0.3-0.4,0.8-0.6,1.3-0.6c0.6,0,1.2,0.1,1.8,0.5c1.7,1,3.6,3.4,3.6,7.1v6.9
	l-2.6-1.5v-6.6c0.1-1.6-0.6-3.2-2-4.1c-1-0.6-1.7-0.2-2,0.5c-0.1,0.3-0.1,0.5-0.1,0.8v7l-2.6-1.5L280.8,168.3z"/>
<path class="st13" d="M296.2,179.3c0,0.9-0.6,1.3-1.5,0.8c-0.8-0.5-1.4-1.4-1.4-2.4c0-0.9,0.6-1.3,1.4-0.8
	C295.7,177.4,296.2,178.3,296.2,179.3z M293.5,192.8V181l2.6,1.5v11.8L293.5,192.8z"/>
<path class="st13" d="M297.4,197.7c0.8,0.4,1.5,0.5,1.9,0.3s0.7-1.1,0.7-3.7v-9.6l2.6,1.5v10.4c0,2.4-0.4,3.7-1.3,4.3
	s-2.3,0-3.6-0.7L297.4,197.7z M302.7,183c0,0.9-0.5,1.3-1.5,0.8c-0.8-0.5-1.4-1.4-1.4-2.4c0-0.9,0.6-1.3,1.4-0.8
	C302.1,181.1,302.7,182,302.7,183L302.7,183z"/>
<path class="st13" d="M305.9,197.2c0.7,0.9,1.6,1.7,2.6,2.4c1.1,0.6,1.6,0.4,1.6-0.4s-0.4-1.5-1.7-2.7c-2-2-2.8-3.7-2.8-5
	c0-2.1,1.5-2.8,3.8-1.5c1,0.6,1.9,1.4,2.7,2.3l-0.5,1.8c-0.6-0.8-1.3-1.4-2.2-1.9c-0.9-0.5-1.4-0.3-1.4,0.4s0.5,1.4,1.8,2.7
	c1.8,1.8,2.7,3.4,2.7,5.2c0,2.1-1.4,2.8-4.1,1.3c-1.2-0.7-2.2-1.6-3.1-2.6L305.9,197.2z"/>
<polygon class="st14" points="386.3,61.9 386.3,82.2 368.8,92.5 368.8,72.1 "/>
<polygon class="st15" points="351.4,61.9 368.7,51.5 386.3,61.9 368.8,72.1 "/>
<polygon class="st16" points="351.4,61.9 351.4,82.3 368.8,92.5 368.8,72.1 "/>
<polygon class="st14" points="399.4,80.5 399.4,95.8 386.3,103.4 386.3,88.2 "/>
<polygon class="st15" points="373.2,80.5 386.2,72.8 399.4,80.5 386.3,88.2 "/>
<polygon class="st16" points="373.2,80.5 373.2,95.8 386.3,103.4 386.3,88.2 "/>
<ellipse class="st17" cx="47.5" cy="381" rx="22.9" ry="13.2"/>
<ellipse class="st18" cx="47.5" cy="379.1" rx="22.9" ry="13.2"/>
<path class="st19" d="M49.2,144.4v237c0,0.2-0.7,0.5-1.5,0.5s-1.5-0.2-1.5-0.5v-237L49.2,144.4z"/>
<polygon class="st7" points="444.6,443.6 444.6,280.3 479.5,300.3 479.9,464.3 "/>
<polygon class="st8" points="549.4,423.3 549.4,259.6 479.5,300.3 479.9,464.3 "/>
<polygon class="st6" points="515.2,239 549.4,259.6 479.5,300.3 444.6,280.3 "/>
<polygon class="st13" points="484.7,317.4 497.5,324.9 554.6,291.5 542,284.1 "/>
<polygon class="st18" points="484.7,317.4 484.7,322.1 497.5,329.5 497.5,324.9 "/>
<polygon class="st20" points="497.5,324.9 554.6,291.5 554.6,296.1 497.5,329.5 "/>
<path class="st12" d="M496.1,319.2l5.7-3.3c0,0,0.1-34,5.4-44.3s7.8,14.7,7.8,14.7s0.8,15,0.9,18.2l5.7-3.3c0,0-0.5-27.2,5.4-41.2
	c0,0,2.9-6.1,5.5,2.5c2.5,8.6,3.5,28.3,3.1,33.9l5.8-3.3c0,0,0.1-34.7-9.2-38.6c0,0-4.7-3.2-9.8,9.3c-1.5,4-2.7,8-3.6,12.2
	c0,0-2.6-9.1-6.1-10.2c0,0-3.5-2-7.3,4.1S496,295.6,496.1,319.2z"/>
<polygon class="st9" points="444.6,331.5 444.6,392.5 479.8,413.1 479.7,351.6 "/>
<polygon class="st9" points="549.4,372.1 479.8,413.1 479.7,351.6 549.4,310.8 "/>
<polygon class="st5" points="479.5,413 499.5,424.7 569.3,384 549.2,372.3 "/>
<polygon class="st21" points="479.5,413 479.5,418.9 499.5,430.6 499.5,424.7 "/>
<polygon class="st22" points="569.3,389.9 569.3,384 499.5,424.7 499.5,430.6 "/>
<polygon class="st23" points="479.9,413 460,424.7 425,404.5 445.1,392.8 "/>
<polygon class="st21" points="479.9,413 479.9,418.9 460,430.6 460,424.7 "/>
<polygon class="st22" points="425,410.4 425,404.5 460,424.7 460,430.6 "/>
<polygon class="st10" points="479.7,351.6 549.4,361.9 549.4,341.3 502.8,338 "/>
<polygon class="st10" points="444.6,336.1 479.8,384 479.8,397.2 444.6,356.7 "/>
<polygon class="st10" points="479.5,361.8 549.3,369.6 549.2,372.3 479.9,365.6 "/>
<polygon class="st10" points="444.8,366.7 470.7,407.7 466.9,405.5 444.6,370.3 "/>
<polygon class="st24" points="0,133.3 7.5,162.3 81.3,119.7 88.8,82 "/>
<polygon class="st8" points="6.5,138 14,167 87.9,124.4 95.4,86.7 "/>
<polygon class="st6" points="95.4,86.7 88.8,82 0,133.3 6.5,138 "/>
<polygon class="st7" points="14,167 7.5,162.3 0,133.3 6.5,138 "/>
<path class="st13" d="M33.9,139.1c-0.1-1.4-0.1-3.1-0.1-4.7l0,0c-0.3,1.6-0.7,3.3-1.2,5l-1.4,5.7l-1.4,0.8l-1.3-4
	c-0.4-1.2-0.7-2.6-1-3.8l0,0c0,1.5-0.1,3.3-0.2,4.9l-0.2,4.6l-1.7,1l0.6-11.6l2.3-1.4l1.3,3.8c0.4,1.1,0.6,2.3,0.9,3.4l0,0
	c0.3-1.4,0.6-3,1-4.5l1.4-5.3l2.3-1.3l0.6,10.9l-1.7,1L33.9,139.1z"/>
<path class="st13" d="M43.3,137.9c-0.6,0.6-1.3,1.1-2,1.6c-2.2,1.3-3.6,0.5-3.6-2c0.1-2.7,1.6-5.2,3.9-6.6c0.5-0.3,1.1-0.5,1.7-0.6
	L43,132c-0.5,0-0.9,0.2-1.3,0.5c-1.3,0.8-2.2,2.3-2.1,3.9c0,1.7,0.9,2.1,2.1,1.4c0.5-0.3,1-0.7,1.4-1.1L43.3,137.9z"/>
<path class="st13" d="M46.9,126.6l-2.8,1.6v-1.7l7.4-4.2v1.7l-2.8,1.6v9.5l-1.8,1V126.6z"/>
<path class="st13" d="M53,120.8l1.8-1v4.8l0,0c0.2-0.5,0.5-1,0.9-1.4c0.3-0.4,0.8-0.8,1.2-1.1c1.2-0.7,2.5-0.5,2.5,2.1v4.8l-1.8,1
	v-4.6c0-1.2-0.4-1.9-1.4-1.3c-0.7,0.4-1.2,1.1-1.4,1.9c0,0.2-0.1,0.4-0.1,0.7v4.9l-1.8,1L53,120.8z"/>
<path class="st13" d="M63.7,116.1c0,0.7-0.4,1.3-1,1.7c-0.6,0.4-1,0.1-1-0.5c0-0.7,0.4-1.3,1-1.7C63.3,115.2,63.7,115.4,63.7,116.1z
	 M61.8,127.6v-8.1l1.8-1v8.1L61.8,127.6z"/>
<path class="st13" d="M64.5,127.9c0.5-0.3,1-0.8,1.3-1.4c0.4-1,0.6-2,0.5-3.1v-6.6l1.8-1v7.2c0.1,1.4-0.2,2.8-0.9,4
	c-0.6,1-1.5,1.8-2.5,2.4L64.5,127.9z M68.1,113.5c0,0.7-0.4,1.3-1,1.7c-0.6,0.4-1,0.1-1-0.5c0-0.7,0.4-1.3,1-1.7
	C67.8,112.6,68.1,112.8,68.1,113.5L68.1,113.5z"/>
<path class="st13" d="M70.4,120.7c0.6,0,1.3-0.1,1.8-0.5c0.6-0.3,1.1-0.9,1.1-1.5c0-0.6-0.3-0.7-1.1-0.5c-1.4,0.2-2-0.3-1.9-1.2
	c0.1-1.7,1.1-3.3,2.7-4.1c0.6-0.4,1.2-0.6,1.9-0.6l-0.3,1.7c-0.5,0-1,0.1-1.5,0.4c-0.6,0.3-0.9,0.8-1,1.4c0,0.5,0.3,0.6,1.2,0.4
	c1.3-0.2,1.9,0.2,1.9,1.4c-0.2,1.8-1.2,3.4-2.9,4.2c-0.6,0.4-1.4,0.6-2.1,0.7L70.4,120.7z"/>
<path class="st25" d="M71.5,96.5c0.1-9.9-1.2-33-4.3-43.7c-1-3.6-2.1-5.3-3.2-6c-3-5.1-5.8,0.8-5.8,0.8c-8,19.2-7.4,56.4-7.4,56.4
	l-6.4,3.7c-0.3-6.9-1.2-22.3-1.2-22.3s-2.1-20.5-6.4-23.2c-1.6-2.7-3.5-3.2-5.8,1.4c-7.2,14.1-7.4,60.5-7.4,60.5l-6.2,3.6
	C17.9,96.6,25,71.2,30,63c5.2-8.4,10-5.6,10-5.6c0.8,0.3,1.4,0.7,2,1.3c2.9,4.1,4.9,10.9,4.9,10.9c0.1-0.5,0.2-1.1,0.3-1.6
	c1.2-5.1,2.7-10.1,4.6-15c7.1-17.1,13.4-12.8,13.4-12.8c1.6,0.7,2.9,1.9,3.9,3.4c8.8,12.2,8.7,49.3,8.7,49.3L71.5,96.5z"/>
<path class="st12" d="M71.5,96.5c0.1-9.9-1.2-33-4.3-43.7c-1-3.6-2.1-5.3-3.2-6c-2.4-1.6-4.3,2.5-4.3,2.5c-8,19.2-7.4,56.4-7.4,56.4
	l-7.8,4.5c0-0.6,0-1.5-0.1-2.6c-0.3-6.9-1.2-22.3-1.2-22.3s-2.1-20.5-6.4-23.2c-1.3-0.8-2.7-0.1-4.4,3.1
	c-7.2,14.1-7.4,60.5-7.4,60.5l-7.7,4.5c0-0.9,0-1.8,0-2.6C17.9,96.6,24.9,71.1,30,63c5.2-8.4,10-5.6,10-5.6c0.8,0.3,1.4,0.7,2,1.3
	c2.3,2.1,4.1,6.3,5.2,9.3c0.7,2,1.2,3.4,1.2,3.4c1.2-5.7,2.9-11.2,5-16.6c7.1-17.1,13.5-12.8,13.5-12.8c0.9,0.4,1.7,0.9,2.4,1.6
	c10.2,9.9,10.1,51.1,10.1,51.1l-7.9,4.6C71.5,98.4,71.5,97.5,71.5,96.5z"/>
<path class="st25" d="M42.1,58.7c-0.6-0.6-1.2-1-2-1.3c0,0-4.8-2.8-10,5.6c-5.1,8.2-12.2,33.6-12.5,64.7c0,0.9,0,1.7,0,2.6l-1.5-1.8
	c0-32.2,7.3-58.9,12.5-67.3s10-5.6,10-5.6C40,56.3,41.2,57.3,42.1,58.7z"/>
<path class="st25" d="M44.6,110.2l-1.5-1.8c-0.1-4.4-1.3-24.8-1.3-24.8s-1.6-15.8-4.9-21.5c4.3,2.8,6.4,23.2,6.4,23.2
	s0.9,15.3,1.2,22.3C44.5,108.8,44.6,109.7,44.6,110.2z"/>
<path class="st25" d="M71.5,96.5c0,1,0,1.9-0.1,2.6L70,97.4c0.5-7.6-0.8-34.5-4.2-46.3c-0.4-1.5-1-2.9-1.7-4.2c1,0.7,2.1,2.4,3.2,6
	C70.3,63.5,71.7,86.6,71.5,96.5z"/>
</svg>
