<svg xmlns="http://www.w3.org/2000/svg" viewBox="0 0 1366 768"><defs><style>.cls-1{isolation:isolate;}.cls-2{fill:none;}.cls-3{fill:#fd857c;}.cls-4{fill:#ef5b5b;}.cls-5{fill:#fcedc9;}.cls-6{fill:#fa4741;}.cls-7{fill:#fe7d71;}.cls-8{fill:#fc655f;}.cls-9{fill:#fa4742;}.cls-10{fill:#e4463c;}.cls-11{fill:#ef665e;}.cls-12{fill:#fff;}.cls-13{fill:#f1f1f1;}.cls-14{fill:#e5e5e5;}.cls-15{fill:#ffc000;}.cls-16{fill:#5ab1f3;}.cls-17{fill:#fdd033;}.cls-18{fill:#e89400;}.cls-19{fill:#faa202;}.cls-20{fill:#42a6f2;}.cls-21{fill:gray;}.cls-22{fill:#ff3f3c;}.cls-23{fill:#f7887f;}.cls-24{fill:#f2695e;}.cls-25{fill:#fdbf3a;}.cls-26{fill:#fcac4d;}.cls-27{fill:#ffd29f;}.cls-28{fill:#fbc17e;}.cls-29{fill:#946b50;}.cls-30{fill:#d4d4d4;mix-blend-mode:multiply;}.cls-31{fill:#7fa51d;}.cls-32{fill:#285727;}.cls-33{fill:#347628;}.cls-34{fill:#3e8b31;}.cls-35{fill:#499b35;}.cls-36{fill:#65cd8f;}.cls-37{fill:#989898;}.cls-38{fill:#e4e4e4;}.cls-39{fill:#fc4742;}.cls-40{fill:#ff7b77;}.cls-41{fill:#fb655d;}.cls-42{fill:#ffd35d;}</style></defs><g class="cls-1"><g id="Laag_1" data-name="Laag 1"><line class="cls-2" x1="484.5" y1="532.4" x2="484.5" y2="530.47"/><polygon class="cls-3" points="579.6 277.55 579.75 443.72 749.83 543.37 749.83 377.11 579.6 277.55"/><polygon class="cls-4" points="920.06 277.55 919.91 443.72 749.83 543.37 749.83 377.11 920.06 277.55"/><polygon class="cls-5" points="579.6 277.55 749.83 177.99 920.06 277.55 749.83 377.11 579.6 277.55"/><polygon class="cls-6" points="749.83 160.96 550.48 293.82 749.83 410.41 949.17 293.82 749.83 160.96"/><polygon class="cls-5" points="560.39 260.94 749.83 150.14 939.27 260.94 749.83 371.74 560.39 260.94"/><path class="cls-7" d="M749.83,155.93l179.54,105-179.54,105-179.54-105,179.54-105m0-11.58L550.48,260.94,749.83,377.53,949.18,260.94,749.83,144.35Z"/><polygon class="cls-8" points="550.48 293.82 550.48 260.94 749.83 377.53 749.83 410.41 550.48 293.82"/><polygon class="cls-9" points="949.17 260.94 949.17 293.82 749.83 410.41 749.83 377.53 949.17 260.94"/><polygon class="cls-10" points="570.32 260.94 579.45 266.32 749.83 167.25 749.83 155.94 570.32 260.94"/><polygon class="cls-11" points="929.34 260.94 920.21 266.32 749.83 167.25 749.83 155.94 929.34 260.94"/><polygon class="cls-11" points="862.91 476.76 891.56 493.54 947.96 460.33 919.91 443.72 862.91 476.76"/><polygon class="cls-3" points="862.91 476.76 862.91 344.27 891.26 360.5 891.56 493.54 862.91 476.76"/><polygon class="cls-4" points="947.96 460.33 947.96 327.46 891.26 360.5 891.56 493.54 947.96 460.33"/><polygon class="cls-7" points="920.21 310.76 947.96 327.46 891.26 360.5 862.91 344.27 920.21 310.76"/><polygon class="cls-12" points="895.41 374.4 905.79 380.44 952.18 353.33 941.91 347.34 895.41 374.4"/><polygon class="cls-13" points="895.41 374.4 895.41 378.18 905.79 384.22 905.79 380.44 895.41 374.4"/><polygon class="cls-14" points="905.79 380.44 952.18 353.33 952.18 357.11 905.79 384.22 905.79 380.44"/><path class="cls-15" d="M904.66,375.81l4.59-2.65s.06-27.56,4.36-35.94,6.37,12,6.37,12,.69,12.15.74,14.74l4.65-2.69s-.4-22.06,4.36-33.45c0,0,2.35-5,4.42,2.05s2.81,23,2.52,27.5l4.69-2.7s.07-28.14-7.44-31.29c0,0-3.79-2.59-8,7.58a64.92,64.92,0,0,0-2.93,9.9s-2.14-7.43-5-8.27c0,0-2.85-1.64-5.94,3.34S904.65,356.67,904.66,375.81Z"/><polygon class="cls-16" points="862.89 385.81 862.89 435.31 891.47 452 891.37 402.11 862.89 385.81"/><polygon class="cls-16" points="947.98 418.74 891.47 452 891.37 402.11 947.98 369 947.98 418.74"/><polygon class="cls-17" points="891.26 451.96 907.43 461.42 964.12 428.38 947.8 418.91 891.26 451.96"/><polygon class="cls-18" points="891.26 451.96 891.26 456.76 907.43 466.22 907.43 461.42 891.26 451.96"/><polygon class="cls-19" points="964.12 433.18 964.12 428.38 907.43 461.42 907.43 466.22 964.12 433.18"/><polygon class="cls-17" points="891.56 451.96 875.39 461.42 846.99 445.02 863.31 435.55 891.56 451.96"/><polygon class="cls-18" points="891.56 451.96 891.56 456.76 875.39 466.22 875.39 461.42 891.56 451.96"/><polygon class="cls-19" points="846.99 449.82 846.99 445.02 875.39 461.42 875.39 466.22 846.99 449.82"/><polygon class="cls-16" points="678.66 402.15 678.66 501.71 647.49 483.5 647.23 483.35 621.66 468.41 621.66 368.94 647.23 383.84 647.49 383.99 678.66 402.15"/><polygon class="cls-20" points="621.66 368.94 678.65 435.37 678.35 468.59 621.66 402.06 621.66 368.94"/><polygon class="cls-20" points="621.67 412.05 678.65 478.47 678.65 489.2 621.67 422.66 621.67 412.05"/><polygon class="cls-20" points="891.37 402.11 947.96 410.5 947.98 393.8 910.15 391.13 891.37 402.11"/><line class="cls-21" x1="647.49" y1="383.99" x2="647.23" y2="383.84"/><polygon class="cls-21" points="647.49 483.5 647.49 452.81 647.49 442.14 647.49 432.37 647.49 399.04 647.49 383.99 647.23 383.84 647.23 398.74 647.23 432.06 647.23 441.84 647.23 442.12 647.23 444.02 647.23 452.5 647.23 483.35 647.49 483.5"/><path class="cls-15" d="M645.31,443.94l.51.3s0-3.07.49-3.45.71,2.15.71,2.15.07,1.45.08,1.75l.52.3s0-2.52.49-3.18c0,0,.26-.25.49.8a18.06,18.06,0,0,1,.28,3.4l.53.3s0-3.13-.83-4.45c0,0-.43-.78-.9-.18a2.36,2.36,0,0,0-.32.72,5.94,5.94,0,0,0-.56-1.56s-.32-.56-.66-.4S645.31,441.8,645.31,443.94Z"/><polygon class="cls-22" points="629.34 239.64 629.34 272.95 742.72 339.2 742.72 306.16 629.34 239.64"/><polygon class="cls-23" points="629.34 239.64 636.7 235.04 750.08 301.56 742.72 306.16 629.34 239.64"/><polygon class="cls-24" points="742.72 339.2 750.08 334.6 750.08 301.56 742.72 306.16 742.72 339.2"/><path class="cls-25" d="M661.31,276.47c-.06-1.74-.15-3.85-.13-5.62l0,0c-.38,1.39-.85,2.9-1.36,4.27l-1.66,4.76-1.62-.93L655,272.4c-.45-1.94-.85-4-1.16-5.81h0c0,1.69-.12,3.75-.21,5.5l-.25,5.17-2-1.13.76-12.77,2.75,1.59,1.49,6.17c.41,1.79.77,3.56,1.06,5.2l.05,0c.3-1.25.69-2.65,1.13-3.94l1.58-4.38,2.72,1.56.66,13.59-2-1.17Z"/><path class="cls-25" d="M672.39,288a5.73,5.73,0,0,1-2.34-.86,8.61,8.61,0,0,1-4.26-7.32c0-2.86,1.7-4.11,4.6-2.44a8.69,8.69,0,0,1,2,1.62l-.37,1.59a6.23,6.23,0,0,0-1.58-1.29c-1.6-.92-2.55-.11-2.53,1.64a5.33,5.33,0,0,0,2.53,4.54,3.77,3.77,0,0,0,1.65.57Z"/><path class="cls-25" d="M676.62,279.51l-3.26-1.88v-2l8.64,5v2l-3.29-1.9V291.9l-2.09-1.2Z"/><path class="cls-25" d="M683.71,280.88l2.11,1.21v5.69l0,0a1.37,1.37,0,0,1,1-.5,2.45,2.45,0,0,1,1.42.39,6.47,6.47,0,0,1,2.89,5.8v5.62l-2.09-1.2v-5.35a3.64,3.64,0,0,0-1.59-3.35c-.82-.47-1.4-.18-1.62.42a2.11,2.11,0,0,0-.08.68V296l-2.11-1.22Z"/><path class="cls-25" d="M696.27,289.83c0,.73-.45,1-1.18.61a2.39,2.39,0,0,1-1.16-2c0-.74.48-1,1.17-.64A2.42,2.42,0,0,1,696.27,289.83Zm-2.22,10.93v-9.54l2.1,1.21V302Z"/><path class="cls-25" d="M697.19,304.79c.68.33,1.22.43,1.56.21s.54-.92.54-3v-7.76l2.09,1.21v8.45c0,2-.32,3-1.07,3.45a3.45,3.45,0,0,1-2.92-.56Zm4.31-11.94c0,.71-.44,1-1.19.61a2.4,2.4,0,0,1-1.13-1.95c0-.75.45-1.05,1.17-.64A2.39,2.39,0,0,1,701.5,292.85Z"/><path class="cls-25" d="M704.13,304.37a9.32,9.32,0,0,0,2.12,1.91c.92.53,1.33.33,1.33-.3s-.34-1.17-1.36-2.17c-1.61-1.58-2.29-3-2.28-4.1,0-1.68,1.21-2.3,3.13-1.2a8.88,8.88,0,0,1,2.19,1.84l-.41,1.47a7,7,0,0,0-1.75-1.56c-.75-.43-1.15-.26-1.15.33s.39,1.13,1.44,2.17c1.49,1.49,2.19,2.77,2.21,4.19,0,1.73-1.18,2.3-3.36,1a9.38,9.38,0,0,1-2.52-2.12Z"/><polygon class="cls-26" points="769.36 194.53 769.36 211.06 755.18 219.36 755.18 202.84 769.36 194.53"/><polygon class="cls-27" points="741.01 194.53 755.03 186.13 769.36 194.53 755.18 202.84 741.01 194.53"/><polygon class="cls-28" points="741.01 194.53 741.01 211.13 755.18 219.36 755.18 202.84 741.01 194.53"/><polygon class="cls-26" points="779.97 209.67 779.97 222.04 769.36 228.25 769.36 215.89 779.97 209.67"/><polygon class="cls-27" points="758.75 209.67 769.25 203.38 779.97 209.67 769.36 215.89 758.75 209.67"/><polygon class="cls-28" points="758.75 209.67 758.75 222.09 769.36 228.25 769.36 215.89 758.75 209.67"/><path class="cls-29" d="M802.26,533.31h0l-3.93-1.53V554s.21,1.53,3.93,1.53,3.93-1.53,3.93-1.53V531.78Z"/><path class="cls-30" d="M799.15,546.91c.62.63,1.35,1.13,2,1.7a8.4,8.4,0,0,1,1.54,1.82,12.39,12.39,0,0,0,2.67,3.26,3.87,3.87,0,0,0,.76.43.87.87,0,0,0,.05-.16V531.78l-3.93,1.53h0l-3.93-1.53v13.76A3.58,3.58,0,0,0,799.15,546.91Z"/><polygon class="cls-31" points="802.26 522.79 788.05 516.4 802.26 510.18 816.47 516.4 802.26 522.79"/><path class="cls-32" d="M816.47,516.4l-14.21,6.39-14.21-6.39-8.51,16.22s5,10.21,22.72,10.21S825,532.6,825,532.6Z"/><path class="cls-30" d="M788,528a28.42,28.42,0,0,0,9.37,2.41,29.72,29.72,0,0,0,9-.34c4-.86,7-3.86,10.85-5.18,1.06-.37,2.12-.7,3.15-1.12l-3.9-7.41-14.21,6.39-14.21-6.39-4.44,8.46A13.57,13.57,0,0,0,788,528Z"/><polygon class="cls-31" points="802.26 508.63 792.33 504.16 802.26 499.81 812.19 504.16 802.26 508.63"/><path class="cls-33" d="M812.19,504.16l-9.93,4.47-9.93-4.47-7.91,12.72s3.63,8.37,17.84,8.24c13.34-.13,17.84-8.25,17.84-8.25Z"/><path class="cls-30" d="M791.58,515.7c4.11,2.13,9.08,2.08,13.52,1.21a24.06,24.06,0,0,0,7.61-3c1.36-.8,2.67-1.68,4-2.56l-4.5-7.23-9.93,4.47-9.93-4.47-5,8A13,13,0,0,0,791.58,515.7Z"/><path class="cls-34" d="M802.26,481.24,787.78,505.4s4.33,6.5,14.48,6.52c11,0,14.48-6.53,14.48-6.53Z"/><path class="cls-35" d="M800.94,488.25a16.23,16.23,0,0,0,1.93,2.73,11.52,11.52,0,0,1,1.51,2.1c.93,1.82.86,3.9,1.42,5.83.62,2.14,1.89,3.87,4.21,4.22a15.27,15.27,0,0,0,5.16-.37l-12.91-21.52-2.55,4.26A20,20,0,0,0,800.94,488.25Z"/><path class="cls-29" d="M849.58,496.68h0l-5.73-2.23v32.3s.3,2.23,5.73,2.23,5.72-2.23,5.72-2.23v-32.3Z"/><path class="cls-30" d="M845.05,516.48c.9.92,2,1.64,2.94,2.48a12.06,12.06,0,0,1,2.24,2.64,17.73,17.73,0,0,0,3.89,4.75,4.72,4.72,0,0,0,1.11.62.92.92,0,0,0,.07-.22v-32.3l-5.72,2.23h0l-5.73-2.23v20A5.26,5.26,0,0,0,845.05,516.48Z"/><polygon class="cls-31" points="849.58 481.36 828.89 472.05 849.58 463 870.26 472.05 849.58 481.36"/><path class="cls-32" d="M870.26,472.05l-20.68,9.31-20.69-9.31-12.4,23.62s7.35,14.87,33.09,14.87,33.09-14.89,33.09-14.89Z"/><path class="cls-30" d="M828.84,489a41.11,41.11,0,0,0,13.65,3.51,43.08,43.08,0,0,0,13.07-.5c5.84-1.24,10.23-5.61,15.79-7.54,1.55-.54,3.1-1,4.59-1.62l-5.68-10.8-20.68,9.31-20.69-9.31-6.47,12.33A19.74,19.74,0,0,0,828.84,489Z"/><polygon class="cls-31" points="849.58 460.74 835.12 454.23 849.58 447.91 864.03 454.23 849.58 460.74"/><path class="cls-33" d="M864,454.23l-14.45,6.51-14.46-6.51L823.6,472.76s5.29,12.19,26,12c19.43-.19,26-12,26-12Z"/><path class="cls-30" d="M834,471c6,3.11,13.21,3,19.68,1.76a35.2,35.2,0,0,0,11.08-4.31c2-1.17,3.89-2.45,5.8-3.72L864,454.23l-14.45,6.51-14.46-6.51-7.25,11.66A18.86,18.86,0,0,0,834,471Z"/><path class="cls-34" d="M849.58,420.86,828.49,456s6.3,9.47,21.09,9.49c16.07,0,21.09-9.51,21.09-9.51Z"/><path class="cls-35" d="M847.66,431.07a24.39,24.39,0,0,0,2.8,4,16.46,16.46,0,0,1,2.21,3.05c1.35,2.65,1.25,5.68,2.06,8.48.9,3.13,2.75,5.64,6.14,6.16a22.37,22.37,0,0,0,7.5-.54l-18.79-31.34-3.72,6.2A29,29,0,0,0,847.66,431.07Z"/><line class="cls-2" x1="401.1" y1="629.46" x2="401.09" y2="629.47"/><path class="cls-14" d="M844.73,459l-5.15,2.83a14.77,14.77,0,0,0,2.27-4.49c1.52-4.87,1.33-12.92-11.3-20.22l5.15-2.84C855.51,445.72,844.73,459,844.73,459Z"/><path class="cls-14" d="M835.7,434.28l-5.15,2.84s-15.75-30.77-30.73-26.93a9.89,9.89,0,0,0-1.71.59l4.11-2.31.12-.07C818,399.79,835.7,434.28,835.7,434.28Z"/><path class="cls-36" d="M841.85,457.34l-69.48-40.12c0-4.36.82-7.28,2.19-9.17,7.48-.74,18,7.14,18,7.14a17,17,0,0,1,4.06-3.61c.7.47,1.1.77,1.1.77a17.36,17.36,0,0,1,2.11-2.16c15-3.84,30.73,26.93,30.73,26.93C843.18,444.42,843.37,452.47,841.85,457.34Z"/><path class="cls-12" d="M841.85,457.34a14.77,14.77,0,0,1-2.27,4.49h0l-72.36-41.77c0-7,2.11-10.29,5.15-11.5h0a7.8,7.8,0,0,1,2.18-.51c7.48-.74,18,7.14,18,7.14a17,17,0,0,1,4.06-3.61,11.93,11.93,0,0,1,1.49-.79h0a9.89,9.89,0,0,1,1.71-.59c15-3.84,30.73,26.93,30.73,26.93C843.18,444.42,843.37,452.47,841.85,457.34Z"/><path class="cls-14" d="M796.61,411.58a17,17,0,0,0-4.06,3.61s-10.51-7.88-18-7.14a7.8,7.8,0,0,0-2.18.51l4-2.21C782.26,402.44,793.15,409.21,796.61,411.58Z"/><line class="cls-2" x1="777.09" y1="405.93" x2="776.33" y2="406.35"/><line class="cls-2" x1="772.38" y1="408.56" x2="772.37" y2="408.57"/><line class="cls-2" x1="798.11" y1="410.78" x2="798.1" y2="410.79"/><path class="cls-14" d="M684.78,232.17,679.63,235a14.77,14.77,0,0,0,2.27-4.49c1.52-4.87,1.33-12.93-11.3-20.22l5.15-2.84C695.56,218.89,684.78,232.17,684.78,232.17Z"/><path class="cls-14" d="M675.75,207.45l-5.15,2.84s-15.75-30.77-30.74-26.93a10.09,10.09,0,0,0-1.7.59l4.11-2.31.12-.07C658.09,173,675.75,207.45,675.75,207.45Z"/><path class="cls-36" d="M681.9,230.51l-69.48-40.12c0-4.36.81-7.28,2.19-9.17,7.48-.74,18,7.14,18,7.14a17,17,0,0,1,4.06-3.61c.7.47,1.09.77,1.09.77a18.89,18.89,0,0,1,2.11-2.16c15-3.84,30.74,26.93,30.74,26.93C683.23,217.58,683.42,225.64,681.9,230.51Z"/><path class="cls-12" d="M681.9,230.51a14.77,14.77,0,0,1-2.27,4.49h0l-72.37-41.77c0-7,2.12-10.29,5.16-11.5h0a8,8,0,0,1,2.19-.51c7.48-.74,18,7.14,18,7.14a17,17,0,0,1,4.06-3.61,11.83,11.83,0,0,1,1.48-.79h0a10.09,10.09,0,0,1,1.7-.59c15-3.84,30.74,26.93,30.74,26.93C683.23,217.58,683.42,225.64,681.9,230.51Z"/><path class="cls-14" d="M636.66,184.75a17,17,0,0,0-4.06,3.61s-10.51-7.88-18-7.14a8,8,0,0,0-2.19.51l4-2.21C622.31,175.61,633.2,182.38,636.66,184.75Z"/><line class="cls-2" x1="617.14" y1="179.1" x2="616.38" y2="179.52"/><line class="cls-2" x1="612.42" y1="181.73" x2="612.42" y2="181.74"/><line class="cls-2" x1="638.16" y1="183.95" x2="638.14" y2="183.96"/><path class="cls-14" d="M839.11,470.74l-2.72,1.5a7.78,7.78,0,0,0,1.2-2.37c.81-2.58.71-6.84-6-10.7l2.73-1.5C844.82,463.72,839.11,470.74,839.11,470.74Z"/><path class="cls-14" d="M834.34,457.67l-2.73,1.5s-8.34-16.29-16.26-14.25a5.14,5.14,0,0,0-.91.31l2.18-1.22.06,0C825,439.41,834.34,457.67,834.34,457.67Z"/><path class="cls-36" d="M837.59,469.87l-36.77-21.23a8.11,8.11,0,0,1,1.16-4.86c4-.39,9.52,3.78,9.52,3.78a9.26,9.26,0,0,1,2.15-1.91c.37.25.58.41.58.41a9.34,9.34,0,0,1,1.12-1.14c7.92-2,16.26,14.25,16.26,14.25C838.3,463,838.4,467.29,837.59,469.87Z"/><path class="cls-12" d="M837.59,469.87a7.78,7.78,0,0,1-1.2,2.37h0L798.1,450.14c0-3.68,1.12-5.44,2.72-6.08h0a4.39,4.39,0,0,1,1.15-.27c4-.39,9.52,3.78,9.52,3.78a9.26,9.26,0,0,1,2.15-1.91,6.68,6.68,0,0,1,.79-.42h0a5.14,5.14,0,0,1,.91-.31c7.92-2,16.26,14.25,16.26,14.25C838.3,463,838.4,467.29,837.59,469.87Z"/><path class="cls-14" d="M813.65,445.65a9.26,9.26,0,0,0-2.15,1.91s-5.56-4.17-9.52-3.78a4.39,4.39,0,0,0-1.15.27l2.09-1.17C806.06,440.82,811.82,444.4,813.65,445.65Z"/><line class="cls-2" x1="803.32" y1="442.66" x2="802.92" y2="442.88"/><line class="cls-2" x1="800.83" y1="444.05" x2="800.82" y2="444.06"/><line class="cls-2" x1="814.44" y1="445.23" x2="814.44" y2="445.23"/><ellipse class="cls-37" cx="494.45" cy="453.54" rx="18.61" ry="10.74"/><ellipse class="cls-13" cx="494.45" cy="451.95" rx="18.61" ry="10.74"/><path class="cls-38" d="M495.76,261.49V453.8c0,.2-.54.36-1.2.36s-1.2-.16-1.2-.36V261.49Z"/><polygon class="cls-39" points="455.87 252.5 461.96 276.04 521.88 241.45 527.97 210.88 455.87 252.5"/><polygon class="cls-39" points="461.16 256.3 467.25 279.84 527.17 245.24 533.25 214.68 461.16 256.3"/><polygon class="cls-40" points="533.25 214.68 527.97 210.88 455.87 252.5 461.16 256.3 533.25 214.68"/><polygon class="cls-41" points="467.25 279.84 461.96 276.04 455.87 252.5 461.16 256.3 467.25 279.84"/><path class="cls-25" d="M483.38,257.17c0-1.15-.1-2.54-.09-3.78l0,0c-.25,1.26-.58,2.68-.93,4l-1.15,4.61-1.12.65L479,259.42c-.31-1-.59-2.08-.8-3.09h0c0,1.21-.08,2.69-.14,4l-.17,3.77-1.35.78.53-9.43,1.9-1.1,1,3.07c.28.91.53,1.85.73,2.75l0,0c.21-1.11.48-2.39.79-3.63l1.09-4.29,1.88-1.08.45,8.86-1.4.81Z"/><path class="cls-25" d="M491,256.27a6.83,6.83,0,0,1-1.62,1.27c-1.78,1-2.94.39-2.94-1.66a6.42,6.42,0,0,1,3.18-5.36,3.46,3.46,0,0,1,1.39-.49l-.25,1.4a2.33,2.33,0,0,0-1.1.37A3.67,3.67,0,0,0,488,255c0,1.35.76,1.68,1.74,1.11a4.68,4.68,0,0,0,1.14-.91Z"/><path class="cls-25" d="M494,247.05l-2.25,1.3V247l6-3.45v1.39l-2.28,1.32V254l-1.44.84Z"/><path class="cls-25" d="M498.86,242.34l1.46-.84v3.93l0,0a4.8,4.8,0,0,1,.72-1.17,3.66,3.66,0,0,1,1-.87c1-.56,2-.4,2,1.71V249l-1.44.83v-3.7c0-1-.31-1.5-1.11-1a2.65,2.65,0,0,0-1.11,1.58,1.8,1.8,0,0,0-.06.53v3.94l-1.45.84Z"/><path class="cls-25" d="M507.54,238.51a1.64,1.64,0,0,1-.82,1.36c-.48.28-.79.07-.79-.43a1.68,1.68,0,0,1,.81-1.38C507.23,237.78,507.53,238,507.54,238.51ZM506,247.83v-6.6l1.45-.84V247Z"/><path class="cls-25" d="M508.18,248.11a3.32,3.32,0,0,0,1.08-1.1,5,5,0,0,0,.37-2.5v-5.37l1.45-.83v5.84a6.17,6.17,0,0,1-.74,3.24,6.09,6.09,0,0,1-2,1.94Zm3-11.69a1.69,1.69,0,0,1-.82,1.37c-.48.28-.79,0-.79-.44a1.68,1.68,0,0,1,.81-1.38C510.85,235.69,511.16,235.9,511.16,236.42Z"/><path class="cls-25" d="M513,242.28a2.77,2.77,0,0,0,1.46-.37,1.54,1.54,0,0,0,.92-1.26c0-.45-.24-.55-.94-.42-1.12.19-1.58-.24-1.57-1a4.18,4.18,0,0,1,2.15-3.32,3.2,3.2,0,0,1,1.52-.48l-.28,1.34a2.18,2.18,0,0,0-1.21.32,1.41,1.41,0,0,0-.8,1.15c0,.42.27.47,1,.35,1-.17,1.51.17,1.52,1.13a4.17,4.17,0,0,1-2.32,3.4,3.43,3.43,0,0,1-1.74.55Z"/><path class="cls-42" d="M513.91,222.62c.11-8.05-1-26.75-3.52-35.45-.85-2.9-1.74-4.3-2.56-4.85-2.41-4.18-4.68.62-4.68.62-6.51,15.58-6,45.74-6,45.74l-5.23,3c-.24-5.64-.94-18.09-.94-18.09s-1.69-16.6-5.17-18.86c-1.27-2.21-2.85-2.59-4.74,1.1-5.88,11.46-6,49.14-6,49.14l-5,2.92c.28-25.2,6-45.83,10.13-52.46,4.22-6.81,8.12-4.56,8.12-4.56a4.16,4.16,0,0,1,1.65,1,35.52,35.52,0,0,1,4,8.85c.08-.44.17-.89.26-1.34A95.42,95.42,0,0,1,498,187.25c5.73-13.91,10.9-10.37,10.9-10.37a7.6,7.6,0,0,1,3.15,2.73c7.11,9.91,7,40,7,40Z"/><path class="cls-15" d="M513.91,222.62c.11-8.05-1-26.75-3.52-35.45-.85-2.9-1.74-4.3-2.56-4.85-1.91-1.27-3.48,2-3.48,2-6.51,15.58-6,45.74-6,45.74L492,233.77c0-.48,0-1.19-.08-2.07-.24-5.64-.94-18.09-.94-18.09s-1.69-16.6-5.17-18.86c-1-.66-2.2-.08-3.54,2.52-5.88,11.45-6,49.14-6,49.14L470.08,250c0-.71,0-1.42,0-2.12.28-25.2,6-45.83,10.13-52.46,4.22-6.81,8.12-4.56,8.12-4.56a4.16,4.16,0,0,1,1.65,1c1.83,1.73,3.32,5.1,4.22,7.51.6,1.59.94,2.76.94,2.76a89.47,89.47,0,0,1,4-13.53c5.73-13.9,10.91-10.37,10.91-10.37a6.37,6.37,0,0,1,1.94,1.32c8.32,8,8.23,41.46,8.23,41.46l-6.41,3.69C513.87,224.18,513.9,223.46,513.91,222.62Z"/><path class="cls-42" d="M490,191.92a4.16,4.16,0,0,0-1.65-1s-3.9-2.25-8.12,4.56c-4.11,6.63-9.85,27.26-10.13,52.46,0,.7,0,1.41,0,2.12l-1.2-1.42c0-26.16,5.92-47.77,10.15-54.58s8.12-4.56,8.12-4.56A6,6,0,0,1,490,191.92Z"/><path class="cls-42" d="M492,233.77l-1.2-1.42c-.08-3.54-1-20.15-1-20.15s-1.3-12.79-4-17.45c3.48,2.26,5.17,18.86,5.17,18.86s.7,12.45.94,18.09C492,232.58,492,233.29,492,233.77Z"/><path class="cls-42" d="M513.91,222.62c0,.84,0,1.56-.07,2.14l-1.2-1.41c.39-6.2-.63-28-3.45-37.6a16.37,16.37,0,0,0-1.36-3.43c.82.55,1.71,2,2.56,4.85C512.94,195.87,514,214.57,513.91,222.62Z"/><polygon class="cls-20" points="862.92 389.55 891.44 428.37 891.44 439.15 862.92 406.25 862.92 389.55"/><polygon class="cls-20" points="891.26 410.41 947.84 416.75 947.8 418.91 891.56 413.48 891.26 410.41"/><polygon class="cls-20" points="863.07 414.35 884.11 447.63 880.97 445.85 862.89 417.27 863.07 414.35"/></g></g></svg>