<?xml version="1.0" encoding="UTF-8"?><svg id="Laag_2" xmlns="http://www.w3.org/2000/svg" viewBox="0 0 602.3 689.07"><defs><style>.cls-1{fill:#fff;}.cls-2{stroke-width:2.2px;}.cls-2,.cls-3{fill:none;stroke:#fff;stroke-miterlimit:10;}.cls-3{stroke-width:2.59px;}.cls-4{fill:#6c8cd9;}.cls-5{fill:#7c7c7c;}.cls-6{fill:#7d96d4;}.cls-7{fill:#6f80b3;}.cls-8{fill:#999;}.cls-9{fill:#bbb;}.cls-10{fill:#b3b3b3;}.cls-11{fill:#7e7f7f;}.cls-12{fill:#8fa4de;}.cls-13{fill:#2d2d27;}</style></defs><g id="Laag_3"><g><polygon class="cls-10" points="20 264.89 20 415.99 113.7 470.79 113.7 319.79 20 264.89"/><polygon class="cls-8" points="207.4 264.89 207.3 415.99 113.7 470.79 113.7 319.79 207.4 264.89"/><polygon class="cls-11" points="20 264.89 113.8 210.09 207.4 264.89 113.7 319.79 20 264.89"/><polygon class="cls-13" points="28 260.69 28 264.69 113.7 314.99 113.7 310.89 28 260.69"/><polygon class="cls-13" points="199.4 260.69 199.4 264.69 113.7 314.99 113.7 310.89 199.4 260.69"/><polygon class="cls-11" points="20 155.19 113.8 100.29 207.4 155.19 113.7 210.09 20 155.19"/><polygon class="cls-13" points="28 260.69 113.7 310.89 199.4 260.69 113.7 210.39 28 260.69"/><polygon class="cls-10" points="20 155.19 20 255.89 113.7 310.79 113.7 210.09 20 155.19"/><polygon class="cls-8" points="207.4 155.19 207.4 255.89 113.7 310.79 113.7 210.09 207.4 155.19"/><polygon class="cls-12" points="20 78.19 20 147.09 113.7 201.99 113.7 133.09 20 78.19"/><polygon class="cls-7" points="207.3 78.19 207.3 147.09 113.7 201.99 113.7 133.09 207.3 78.19"/><polygon class="cls-11" points="20 78.19 113.5 23.19 207.3 78.19 113.7 133.09 20 78.19"/><polygon class="cls-13" points="27.9 150.89 27.9 154.99 113.7 205.19 113.6 201.09 27.9 150.89"/><polygon class="cls-13" points="199.4 150.89 199.4 154.99 113.7 205.19 113.7 201.09 199.4 150.89"/><polygon class="cls-12" points="27.9 278.99 27.9 297.19 59 315.39 59 297.19 27.9 278.99"/><polygon class="cls-4" points="27.9 278.99 27.9 297.19 29.5 296.19 29.5 279.89 27.9 278.99"/><polygon class="cls-6" points="27.9 297.19 59 315.39 59 313.59 29.5 296.19 27.9 297.19"/><polygon class="cls-12" points="67.8 302.29 67.8 320.49 98.8 338.69 98.8 320.49 67.8 302.29"/><polygon class="cls-4" points="67.8 302.29 67.8 320.49 69.3 319.49 69.3 303.19 67.8 302.29"/><polygon class="cls-6" points="67.8 320.49 98.8 338.69 98.8 336.89 69.3 319.49 67.8 320.49"/><polygon class="cls-12" points="27.9 315.39 27.9 333.59 59 351.79 59 333.59 27.9 315.39"/><polygon class="cls-4" points="27.9 315.39 27.9 333.59 29.5 332.59 29.5 316.29 27.9 315.39"/><polygon class="cls-6" points="27.9 333.59 59 351.79 59 349.89 29.5 332.59 27.9 333.59"/><polygon class="cls-12" points="67.8 338.69 67.8 356.89 98.8 375.09 98.8 356.89 67.8 338.69"/><polygon class="cls-4" points="67.8 338.69 67.8 356.89 69.3 355.89 69.3 339.59 67.8 338.69"/><polygon class="cls-6" points="67.8 356.89 98.8 375.09 98.8 373.29 69.3 355.89 67.8 356.89"/><polygon class="cls-12" points="27.9 352.59 27.9 370.79 59 388.99 59 370.79 27.9 352.59"/><polygon class="cls-4" points="27.9 352.59 27.9 370.79 29.5 369.89 29.5 353.49 27.9 352.59"/><polygon class="cls-6" points="27.9 370.79 59 388.99 59 387.19 29.5 369.89 27.9 370.79"/><polygon class="cls-12" points="67.8 375.89 67.8 394.09 98.8 412.29 98.8 394.09 67.8 375.89"/><polygon class="cls-4" points="67.8 375.89 67.8 394.09 69.3 393.19 69.3 376.79 67.8 375.89"/><polygon class="cls-6" points="67.8 394.09 98.8 412.29 98.8 410.49 69.3 393.19 67.8 394.09"/><polygon class="cls-12" points="27.9 388.99 27.9 407.19 59 425.39 59 407.19 27.9 388.99"/><polygon class="cls-4" points="27.9 388.99 27.9 407.19 29.5 406.19 29.5 389.89 27.9 388.99"/><polygon class="cls-6" points="27.9 407.19 59 425.39 59 423.59 29.5 406.19 27.9 407.19"/><polygon class="cls-12" points="67.8 412.29 67.8 430.49 98.8 448.69 98.8 430.49 67.8 412.29"/><polygon class="cls-4" points="67.8 412.29 67.8 430.49 69.3 429.59 69.3 413.19 67.8 412.29"/><polygon class="cls-6" points="67.8 430.49 98.8 448.69 98.8 446.89 69.3 429.59 67.8 430.49"/><polygon class="cls-12" points="196 276.79 196 294.99 164.9 313.19 164.9 294.99 196 276.79"/><polygon class="cls-4" points="196 276.79 196 294.99 194.4 294.09 194.4 277.79 196 276.79"/><polygon class="cls-6" points="196 294.99 164.9 313.19 164.9 311.39 194.4 294.09 196 294.99"/><polygon class="cls-12" points="156.1 300.19 156.1 318.29 125.1 336.49 125.1 318.29 156.1 300.19"/><polygon class="cls-4" points="156.1 300.19 156.1 318.29 154.6 317.39 154.6 301.09 156.1 300.19"/><polygon class="cls-6" points="156.1 318.29 125.1 336.49 125.1 334.69 154.6 317.39 156.1 318.29"/><polygon class="cls-12" points="196 313.19 196 331.39 164.9 349.59 164.9 331.39 196 313.19"/><polygon class="cls-4" points="196 313.19 196 331.39 194.4 330.49 194.4 314.09 196 313.19"/><polygon class="cls-6" points="196 331.39 164.9 349.59 164.9 347.79 194.4 330.49 196 331.39"/><polygon class="cls-12" points="156.1 336.49 156.1 354.69 125.1 372.89 125.1 354.69 156.1 336.49"/><polygon class="cls-4" points="156.1 336.49 156.1 354.69 154.6 353.79 154.6 337.39 156.1 336.49"/><polygon class="cls-6" points="156.1 354.69 125.1 372.89 125.1 371.09 154.6 353.79 156.1 354.69"/><polygon class="cls-12" points="196 187.09 196 205.29 164.9 223.49 164.9 205.29 196 187.09"/><polygon class="cls-4" points="196 187.09 196 205.29 194.4 204.39 194.4 187.99 196 187.09"/><polygon class="cls-6" points="196 205.29 164.9 223.49 164.9 221.69 194.4 204.39 196 205.29"/><polygon class="cls-12" points="156.1 210.39 156.1 228.59 125.1 246.79 125.1 228.59 156.1 210.39"/><polygon class="cls-4" points="156.1 210.39 156.1 228.59 154.6 227.69 154.6 211.29 156.1 210.39"/><polygon class="cls-6" points="156.1 228.59 125.1 246.79 125.1 244.99 154.6 227.69 156.1 228.59"/><polygon class="cls-12" points="196 223.49 196 241.69 164.9 259.89 164.9 241.69 196 223.49"/><polygon class="cls-4" points="196 223.49 196 241.69 194.4 240.79 194.4 224.39 196 223.49"/><polygon class="cls-6" points="196 241.69 164.9 259.89 164.9 258.09 194.4 240.79 196 241.69"/><polygon class="cls-12" points="156.1 246.79 156.1 264.99 125.1 283.19 125.1 264.99 156.1 246.79"/><polygon class="cls-4" points="156.1 246.79 156.1 264.99 154.6 264.09 154.6 247.79 156.1 246.79"/><polygon class="cls-6" points="156.1 264.99 125.1 283.19 125.1 281.39 154.6 264.09 156.1 264.99"/><polygon class="cls-12" points="196 350.39 196 368.69 164.9 386.79 164.9 368.69 196 350.39"/><polygon class="cls-4" points="196 350.39 196 368.69 194.4 367.69 194.4 351.39 196 350.39"/><polygon class="cls-6" points="196 368.59 164.9 386.79 164.9 384.99 194.4 367.69 196 368.59"/><polygon class="cls-12" points="156.1 373.79 156.1 391.99 125.1 410.19 125.1 391.99 156.1 373.79"/><polygon class="cls-4" points="156.1 373.79 156.1 391.99 154.6 390.99 154.6 374.69 156.1 373.79"/><polygon class="cls-6" points="156.1 391.99 125.1 410.19 125.1 408.29 154.6 390.99 156.1 391.99"/><polygon class="cls-12" points="196 386.79 196 404.99 164.9 423.19 164.9 404.99 196 386.79"/><polygon class="cls-4" points="196 386.79 196 404.99 194.4 404.09 194.4 387.79 196 386.79"/><polygon class="cls-6" points="196 404.99 164.9 423.19 164.9 421.39 194.4 404.09 196 404.99"/><polygon class="cls-12" points="156.1 410.19 156.1 428.39 125.1 446.49 125.1 428.39 156.1 410.19"/><polygon class="cls-4" points="156.1 410.19 156.1 428.39 154.6 427.39 154.6 411.09 156.1 410.19"/><polygon class="cls-6" points="156.1 428.29 125.1 446.49 125.1 444.69 154.6 427.39 156.1 428.29"/><polygon class="cls-12" points="28.6 187.29 28.6 205.49 59.7 223.69 59.7 205.49 28.6 187.29"/><polygon class="cls-4" points="28.6 187.29 28.6 205.49 30.2 204.59 30.2 188.19 28.6 187.29"/><polygon class="cls-6" points="28.6 205.49 59.7 223.69 59.7 221.89 30.2 204.59 28.6 205.49"/><polygon class="cls-12" points="68.4 210.59 68.4 228.79 99.5 246.99 99.5 228.79 68.4 210.59"/><polygon class="cls-4" points="68.4 210.59 68.4 228.79 70 227.89 70 211.49 68.4 210.59"/><polygon class="cls-6" points="68.4 228.79 99.5 246.99 99.5 245.19 70 227.89 68.4 228.79"/><polygon class="cls-12" points="28.6 223.69 28.6 241.89 59.7 260.09 59.7 241.89 28.6 223.69"/><polygon class="cls-4" points="28.6 223.69 28.6 241.89 30.2 240.99 30.2 224.59 28.6 223.69"/><polygon class="cls-6" points="28.6 241.89 59.7 260.09 59.7 258.29 30.2 240.99 28.6 241.89"/><polygon class="cls-12" points="68.4 246.99 68.4 265.19 99.5 283.39 99.5 265.19 68.4 246.99"/><polygon class="cls-4" points="68.4 246.99 68.4 265.19 70 264.29 70 247.89 68.4 246.99"/><polygon class="cls-6" points="68.4 265.19 99.5 283.39 99.5 281.59 70 264.29 68.4 265.19"/><ellipse class="cls-2" cx="113.8" cy="79.59" rx="50.8" ry="29.3"/><path class="cls-1" d="M120.1,68.59l-10.6,6.2,12.3,7.1,10.7-6.2,3.3,1.9-25.6,14.7-3.3-1.9,11.9-6.9-12.3-7.1-11.9,6.9-3.3-1.9,25.4-14.7,3.4,1.9Z"/><polygon class="cls-9" points="174.2 293.89 174 506.49 355.8 612.49 355.6 400.09 174.2 293.89"/><polygon class="cls-10" points="264.9 453.29 265.1 612.79 355.8 665.89 355.6 506.39 264.9 453.29"/><polygon class="cls-8" points="582.3 373.59 582.3 533.09 355.8 665.89 355.6 506.39 582.3 373.59"/><polygon class="cls-12" points="429.6 486.09 429.6 500.89 404.3 515.69 404.3 500.89 429.6 486.09"/><polygon class="cls-4" points="429.6 486.09 429.6 500.89 428.3 500.09 428.3 486.79 429.6 486.09"/><polygon class="cls-6" points="429.6 500.89 404.3 515.69 404.3 514.19 428.3 500.09 429.6 500.89"/><polygon class="cls-12" points="397.1 505.09 397.1 519.89 371.8 534.69 371.8 519.89 397.1 505.09"/><polygon class="cls-4" points="397.1 505.09 397.1 519.89 395.8 519.09 395.8 505.79 397.1 505.09"/><polygon class="cls-6" points="397.1 519.89 371.8 534.69 371.8 533.19 395.8 519.09 397.1 519.89"/><polygon class="cls-12" points="429.6 515.69 429.6 530.49 404.3 545.29 404.3 530.49 429.6 515.69"/><polygon class="cls-4" points="429.6 515.69 429.6 530.49 428.3 529.79 428.3 516.49 429.6 515.69"/><polygon class="cls-6" points="429.6 530.49 404.3 545.29 404.3 543.89 428.3 529.79 429.6 530.49"/><polygon class="cls-12" points="397.1 534.69 397.1 549.49 371.8 564.29 371.8 549.49 397.1 534.69"/><polygon class="cls-4" points="397.1 534.69 397.1 549.49 395.8 548.69 395.8 535.39 397.1 534.69"/><polygon class="cls-6" points="397.1 549.49 371.8 564.29 371.8 562.79 395.8 548.69 397.1 549.49"/><polygon class="cls-12" points="500.4 444.89 500.4 459.69 475.1 474.49 475.1 459.69 500.4 444.89"/><polygon class="cls-4" points="500.4 444.89 500.4 459.69 499.1 458.89 499.1 445.59 500.4 444.89"/><polygon class="cls-6" points="500.4 459.69 475.1 474.49 475.1 472.99 499.1 458.89 500.4 459.69"/><polygon class="cls-12" points="467.9 463.79 467.9 478.69 442.6 493.49 442.6 478.69 467.9 463.79"/><polygon class="cls-4" points="467.9 463.79 467.9 478.69 466.7 477.89 466.7 464.59 467.9 463.79"/><polygon class="cls-6" points="467.9 478.69 442.6 493.49 442.7 491.99 466.7 477.89 467.9 478.69"/><polygon class="cls-12" points="500.4 474.49 500.4 489.29 475.1 504.09 475.1 489.29 500.4 474.49"/><polygon class="cls-4" points="500.4 474.49 500.4 489.29 499.1 488.59 499.1 475.19 500.4 474.49"/><polygon class="cls-6" points="500.4 489.29 475.1 504.09 475.1 502.59 499.1 488.59 500.4 489.29"/><polygon class="cls-12" points="467.9 493.49 467.9 508.29 442.6 523.09 442.6 508.29 467.9 493.49"/><polygon class="cls-4" points="467.9 493.49 467.9 508.29 466.7 507.49 466.7 494.19 467.9 493.49"/><polygon class="cls-6" points="467.9 508.29 442.6 523.09 442.7 521.59 466.7 507.49 467.9 508.29"/><polygon class="cls-12" points="570.2 404.09 570.2 418.89 544.9 433.79 544.9 418.89 570.2 404.09"/><polygon class="cls-4" points="570.2 404.09 570.2 418.89 568.9 418.19 568.9 404.89 570.2 404.09"/><polygon class="cls-6" points="570.2 418.89 544.9 433.79 544.9 432.29 568.9 418.19 570.2 418.89"/><polygon class="cls-12" points="537.8 423.09 537.8 437.89 512.5 452.69 512.5 437.89 537.8 423.09"/><polygon class="cls-4" points="537.8 423.09 537.8 437.89 536.5 437.09 536.5 423.79 537.8 423.09"/><polygon class="cls-6" points="537.8 437.89 512.5 452.69 512.5 451.29 536.5 437.09 537.8 437.89"/><polygon class="cls-12" points="570.2 433.79 570.2 448.59 544.9 463.39 544.9 448.59 570.2 433.79"/><polygon class="cls-4" points="570.2 433.79 570.2 448.59 568.9 447.79 568.9 434.49 570.2 433.79"/><polygon class="cls-6" points="570.2 448.59 544.9 463.39 544.9 461.89 568.9 447.79 570.2 448.59"/><polygon class="cls-12" points="537.8 452.69 537.8 467.59 512.5 482.39 512.5 467.59 537.8 452.69"/><polygon class="cls-4" points="537.8 452.69 537.8 467.59 536.5 466.79 536.5 453.49 537.8 452.69"/><polygon class="cls-6" points="537.8 467.59 512.5 482.39 512.5 480.89 536.5 466.79 537.8 467.59"/><polygon class="cls-12" points="429.6 551.39 429.6 566.19 404.3 580.99 404.3 566.19 429.6 551.39"/><polygon class="cls-4" points="429.6 551.39 429.6 566.19 428.3 565.39 428.3 552.09 429.6 551.39"/><polygon class="cls-6" points="429.6 566.19 404.3 580.99 404.3 579.49 428.3 565.39 429.6 566.19"/><polygon class="cls-12" points="397.1 570.29 397.1 585.19 371.8 599.99 371.8 585.19 397.1 570.29"/><polygon class="cls-4" points="397.1 570.29 397.1 585.19 395.8 584.39 395.8 571.09 397.1 570.29"/><polygon class="cls-6" points="397.1 585.19 371.8 599.99 371.8 598.49 395.8 584.39 397.1 585.19"/><polygon class="cls-12" points="429.6 580.99 429.6 595.79 404.3 610.59 404.3 595.79 429.6 580.99"/><polygon class="cls-4" points="429.6 580.99 429.6 595.79 428.3 595.09 428.3 581.69 429.6 580.99"/><polygon class="cls-6" points="429.6 595.79 404.3 610.59 404.3 609.19 428.3 595.09 429.6 595.79"/><polygon class="cls-12" points="397.1 599.99 397.1 614.79 371.8 629.59 371.8 614.79 397.1 599.99"/><polygon class="cls-4" points="397.1 599.99 397.1 614.79 395.8 613.99 395.8 600.69 397.1 599.99"/><polygon class="cls-6" points="397.1 614.79 371.8 629.59 371.8 628.09 395.8 613.99 397.1 614.79"/><polygon class="cls-12" points="500.4 510.09 500.4 524.99 475.1 539.79 475.1 524.99 500.4 510.09"/><polygon class="cls-4" points="500.4 510.09 500.4 524.99 499.1 524.19 499.1 510.89 500.4 510.09"/><polygon class="cls-6" points="500.4 524.99 475.1 539.79 475.1 538.29 499.1 524.19 500.4 524.99"/><polygon class="cls-12" points="467.9 529.09 467.9 543.99 442.6 558.79 442.6 543.99 467.9 529.09"/><polygon class="cls-4" points="467.9 529.09 467.9 543.99 466.7 543.19 466.7 529.89 467.9 529.09"/><polygon class="cls-6" points="467.9 543.99 442.6 558.79 442.7 557.29 466.7 543.19 467.9 543.99"/><polygon class="cls-12" points="500.4 539.79 500.4 554.59 475.1 569.39 475.1 554.59 500.4 539.79"/><polygon class="cls-4" points="500.4 539.79 500.4 554.59 499.1 553.79 499.1 540.49 500.4 539.79"/><polygon class="cls-6" points="500.4 554.59 475.1 569.39 475.1 567.99 499.1 553.79 500.4 554.59"/><polygon class="cls-12" points="467.9 558.79 467.9 573.59 442.6 588.39 442.6 573.59 467.9 558.79"/><polygon class="cls-4" points="467.9 558.79 467.9 573.59 466.7 572.79 466.7 559.49 467.9 558.79"/><polygon class="cls-6" points="467.9 573.59 442.6 588.39 442.7 586.89 466.7 572.79 467.9 573.59"/><polygon class="cls-12" points="570.2 469.39 570.2 484.19 544.9 498.99 544.9 484.19 570.2 469.39"/><polygon class="cls-4" points="570.2 469.39 570.2 484.19 568.9 483.49 568.9 470.09 570.2 469.39"/><polygon class="cls-6" points="570.2 484.19 544.9 498.99 544.9 497.59 568.9 483.49 570.2 484.19"/><polygon class="cls-12" points="537.8 488.39 537.8 503.19 512.5 517.99 512.5 503.19 537.8 488.39"/><polygon class="cls-4" points="537.8 488.39 537.8 503.19 536.5 502.39 536.5 489.09 537.8 488.39"/><polygon class="cls-6" points="537.8 503.19 512.5 517.99 512.5 516.49 536.5 502.39 537.8 503.19"/><polygon class="cls-12" points="570.2 498.99 570.2 513.89 544.9 528.69 544.9 513.89 570.2 498.99"/><polygon class="cls-4" points="570.2 498.99 570.2 513.89 568.9 513.09 568.9 499.79 570.2 498.99"/><polygon class="cls-6" points="570.2 513.89 544.9 528.69 544.9 527.19 568.9 513.09 570.2 513.89"/><polygon class="cls-12" points="537.8 517.99 537.8 532.79 512.5 547.69 512.5 532.79 537.8 517.99"/><polygon class="cls-4" points="537.8 517.99 537.8 532.79 536.5 532.09 536.5 518.79 537.8 517.99"/><polygon class="cls-6" points="537.8 532.79 512.5 547.69 512.5 546.19 536.5 532.09 537.8 532.79"/><polygon class="cls-5" points="277.8 620.19 277.8 549.29 338.3 584.79 338.3 655.79 277.8 620.19"/><polygon class="cls-12" points="190.9 327.89 190.9 342.69 216.2 357.49 216.2 342.69 190.9 327.89"/><polygon class="cls-4" points="190.9 327.89 190.9 342.69 192.2 341.89 192.2 328.59 190.9 327.89"/><polygon class="cls-6" points="190.9 342.69 216.2 357.49 216.2 355.99 192.2 341.89 190.9 342.69"/><polygon class="cls-12" points="223.4 346.89 223.4 361.69 248.7 376.49 248.7 361.69 223.4 346.89"/><polygon class="cls-4" points="223.4 346.89 223.4 361.69 224.6 360.89 224.6 347.59 223.4 346.89"/><polygon class="cls-6" points="223.4 361.69 248.7 376.49 248.7 374.99 224.6 360.89 223.4 361.69"/><polygon class="cls-12" points="190.9 357.49 190.9 372.39 216.2 387.19 216.2 372.39 190.9 357.49"/><polygon class="cls-4" points="190.9 357.49 190.9 372.39 192.2 371.59 192.2 358.29 190.9 357.49"/><polygon class="cls-6" points="190.9 372.39 216.2 387.19 216.2 385.69 192.2 371.59 190.9 372.39"/><polygon class="cls-12" points="223.4 376.49 223.4 391.29 248.7 406.19 248.7 391.29 223.4 376.49"/><polygon class="cls-4" points="223.4 376.49 223.4 391.29 224.6 390.59 224.6 377.29 223.4 376.49"/><polygon class="cls-6" points="223.4 391.29 248.7 406.19 248.7 404.69 224.6 390.59 223.4 391.29"/><polygon class="cls-12" points="190.9 387.89 190.9 402.69 216.2 417.49 216.2 402.69 190.9 387.89"/><polygon class="cls-4" points="190.9 387.89 190.9 402.69 192.2 401.89 192.2 388.59 190.9 387.89"/><polygon class="cls-6" points="190.9 402.69 216.2 417.49 216.2 415.99 192.2 401.89 190.9 402.69"/><polygon class="cls-12" points="223.4 406.79 223.4 421.69 248.7 436.49 248.7 421.69 223.4 406.79"/><polygon class="cls-4" points="223.4 406.79 223.4 421.69 224.6 420.89 224.6 407.59 223.4 406.79"/><polygon class="cls-6" points="223.4 421.69 248.7 436.49 248.7 434.99 224.6 420.89 223.4 421.69"/><polygon class="cls-12" points="190.9 417.49 190.9 432.29 216.2 447.09 216.2 432.29 190.9 417.49"/><polygon class="cls-4" points="190.9 417.49 190.9 432.29 192.2 431.49 192.2 418.19 190.9 417.49"/><polygon class="cls-6" points="190.9 432.29 216.2 447.09 216.2 445.59 192.2 431.49 190.9 432.29"/><polygon class="cls-12" points="223.4 436.49 223.4 451.29 248.7 466.09 248.7 451.29 223.4 436.49"/><polygon class="cls-4" points="223.4 436.49 223.4 451.29 224.6 450.49 224.6 437.19 223.4 436.49"/><polygon class="cls-6" points="223.4 451.29 248.7 466.09 248.7 464.59 224.6 450.49 223.4 451.29"/><polygon class="cls-12" points="190.7 447.49 190.7 462.29 216 477.09 216 462.29 190.7 447.49"/><polygon class="cls-4" points="190.7 447.49 190.7 462.29 191.9 461.49 191.9 448.19 190.7 447.49"/><polygon class="cls-6" points="190.7 462.29 216 477.09 216 475.59 191.9 461.49 190.7 462.29"/><polygon class="cls-12" points="223.1 466.39 223.1 481.29 248.4 496.09 248.4 481.29 223.1 466.39"/><polygon class="cls-4" points="223.1 466.39 223.1 481.29 224.4 480.49 224.4 467.19 223.1 466.39"/><polygon class="cls-6" points="223.1 481.29 248.4 496.09 248.4 494.59 224.4 480.49 223.1 481.29"/><polygon class="cls-12" points="190.7 477.09 190.7 491.89 216 506.69 216 491.89 190.7 477.09"/><polygon class="cls-4" points="190.7 477.09 190.7 491.89 191.9 491.19 191.9 477.89 190.7 477.09"/><polygon class="cls-6" points="190.7 491.89 216 506.69 216 505.29 191.9 491.19 190.7 491.89"/><polygon class="cls-12" points="223.1 496.09 223.1 510.89 248.4 525.69 248.4 510.89 223.1 496.09"/><polygon class="cls-4" points="223.1 496.09 223.1 510.89 224.4 510.09 224.4 496.79 223.1 496.09"/><polygon class="cls-6" points="223.1 510.89 248.4 525.69 248.4 524.19 224.4 510.09 223.1 510.89"/><polygon class="cls-7" points="174.2 293.89 174.2 304.29 355.6 410.49 355.6 399.99 174.2 293.89"/><polygon class="cls-7" points="264.9 453.29 264.9 463.69 355.6 516.79 355.6 506.39 264.9 453.29"/><polygon class="cls-7" points="582.3 373.59 355.6 506.39 355.6 516.79 582.3 383.99 582.3 373.59"/><polygon class="cls-12" points="174.2 293.89 355.6 400.09 264.9 453.29 355.6 506.39 582.3 373.59 310.2 214.09 174.2 293.89"/><ellipse class="cls-3" cx="319.5" cy="300.19" rx="59.8" ry="34.5"/><path class="cls-1" d="M326.8,287.39l-12.5,7.2,14.5,8.3,12.5-7.2,3.9,2.2-29.9,17.3-3.9-2.3,14-8.1-14.5-8.4-14,8.1-3.9-2.2,29.9-17.3,3.9,2.4Z"/><path class="cls-1" d="M113.5,23.19l93.8,55v68.9l-6.85,4.02,6.95,4.08v100.7l-8,4.8,8,4.2v9.52l102.8-60.32,272.1,159.5v159.5l-226.5,132.8-90.7-53.1-.07-53.2-91.03-53.1v-71l-60.3,35.3-93.7-54.8v-151.1l7.69-4.49-7.69-4.51v-100.7l6.92-4.05-6.92-4.05V78.19L113.5,23.19m-.02-23.19l-10.12,5.96L9.86,60.96,0,66.76V427.47l9.9,5.79,93.7,54.8,10.1,5.91,10.1-5.91,30.19-17.68v47.61l9.92,5.79,81.12,47.32,.05,41.73v11.45l9.9,5.78,90.7,53.1,10.11,5.92,10.11-5.93,226.5-132.8,9.88-5.8v-182.42l-9.89-5.79L320.31,196.84l-10.12-5.93-10.12,5.94-72.68,42.65v-95.75l-.1-.06V66.74l-9.88-5.8L123.62,5.94,113.48,0h0Z"/></g></g></svg>