<?xml version="1.0" encoding="utf-8"?>
<!-- Generator: Adobe Illustrator 25.4.6, SVG Export Plug-In . SVG Version: 6.00 Build 0)  -->
<svg version="1.1" id="Laag_1" xmlns="http://www.w3.org/2000/svg" xmlns:xlink="http://www.w3.org/1999/xlink" x="0px" y="0px"
	 viewBox="0 0 562.3 642.7" style="enable-background:new 0 0 562.3 642.7;" xml:space="preserve">
<style type="text/css">
	.st0{fill:#B3B3B3;}
	.st1{fill:#999999;}
	.st2{fill:#7E7F7F;}
	.st3{fill:#2D2D27;}
	.st4{fill:#8FA4DE;}
	.st5{fill:#6F80B3;}
	.st6{fill:#6C8CD9;}
	.st7{fill:#7D96D4;}
	.st8{fill:none;stroke:#FFFFFF;stroke-width:2.2;stroke-miterlimit:10;}
	.st9{fill:#FFFFFF;}
	.st10{fill:#BBBBBB;}
	.st11{fill:#7C7C7C;}
	.st12{fill:none;stroke:#FFFFFF;stroke-width:2.59;stroke-miterlimit:10;}
</style>
<polygon class="st0" points="0,241.7 0,392.8 93.7,447.6 93.7,296.6 "/>
<polygon class="st1" points="187.4,241.7 187.3,392.8 93.7,447.6 93.7,296.6 "/>
<polygon class="st2" points="0,241.7 93.8,186.9 187.4,241.7 93.7,296.6 "/>
<polygon class="st3" points="8,237.5 8,241.5 93.7,291.8 93.7,287.7 "/>
<polygon class="st3" points="179.4,237.5 179.4,241.5 93.7,291.8 93.7,287.7 "/>
<polygon class="st2" points="0,132 93.8,77.1 187.4,132 93.7,186.9 "/>
<polygon class="st3" points="8,237.5 93.7,287.7 179.4,237.5 93.7,187.2 "/>
<polygon class="st0" points="0,132 0,232.7 93.7,287.6 93.7,186.9 "/>
<polygon class="st1" points="187.4,132 187.4,232.7 93.7,287.6 93.7,186.9 "/>
<polygon class="st4" points="0,55 0,123.9 93.7,178.8 93.7,109.9 "/>
<polygon class="st5" points="187.3,55 187.3,123.9 93.7,178.8 93.7,109.9 "/>
<polygon class="st2" points="0,55 93.5,0 187.3,55 93.7,109.9 "/>
<polygon class="st3" points="7.9,127.7 7.9,131.8 93.7,182 93.6,177.9 "/>
<polygon class="st3" points="179.4,127.7 179.4,131.8 93.7,182 93.7,177.9 "/>
<polygon class="st4" points="7.9,255.8 7.9,274 39,292.2 39,274 "/>
<polygon class="st6" points="7.9,255.8 7.9,274 9.5,273 9.5,256.7 "/>
<polygon class="st7" points="7.9,274 39,292.2 39,290.4 9.5,273 "/>
<polygon class="st4" points="47.8,279.1 47.8,297.3 78.8,315.5 78.8,297.3 "/>
<polygon class="st6" points="47.8,279.1 47.8,297.3 49.3,296.3 49.3,280 "/>
<polygon class="st7" points="47.8,297.3 78.8,315.5 78.8,313.7 49.3,296.3 "/>
<polygon class="st4" points="7.9,292.2 7.9,310.4 39,328.6 39,310.4 "/>
<polygon class="st6" points="7.9,292.2 7.9,310.4 9.5,309.4 9.5,293.1 "/>
<polygon class="st7" points="7.9,310.4 39,328.6 39,326.7 9.5,309.4 "/>
<polygon class="st4" points="47.8,315.5 47.8,333.7 78.8,351.9 78.8,333.7 "/>
<polygon class="st6" points="47.8,315.5 47.8,333.7 49.3,332.7 49.3,316.4 "/>
<polygon class="st7" points="47.8,333.7 78.8,351.9 78.8,350.1 49.3,332.7 "/>
<polygon class="st4" points="7.9,329.4 7.9,347.6 39,365.8 39,347.6 "/>
<polygon class="st6" points="7.9,329.4 7.9,347.6 9.5,346.7 9.5,330.3 "/>
<polygon class="st7" points="7.9,347.6 39,365.8 39,364 9.5,346.7 "/>
<polygon class="st4" points="47.8,352.7 47.8,370.9 78.8,389.1 78.8,370.9 "/>
<polygon class="st6" points="47.8,352.7 47.8,370.9 49.3,370 49.3,353.6 "/>
<polygon class="st7" points="47.8,370.9 78.8,389.1 78.8,387.3 49.3,370 "/>
<polygon class="st4" points="7.9,365.8 7.9,384 39,402.2 39,384 "/>
<polygon class="st6" points="7.9,365.8 7.9,384 9.5,383 9.5,366.7 "/>
<polygon class="st7" points="7.9,384 39,402.2 39,400.4 9.5,383 "/>
<polygon class="st4" points="47.8,389.1 47.8,407.3 78.8,425.5 78.8,407.3 "/>
<polygon class="st6" points="47.8,389.1 47.8,407.3 49.3,406.4 49.3,390 "/>
<polygon class="st7" points="47.8,407.3 78.8,425.5 78.8,423.7 49.3,406.4 "/>
<polygon class="st4" points="176,253.6 176,271.8 144.9,290 144.9,271.8 "/>
<polygon class="st6" points="176,253.6 176,271.8 174.4,270.9 174.4,254.6 "/>
<polygon class="st7" points="176,271.8 144.9,290 144.9,288.2 174.4,270.9 "/>
<polygon class="st4" points="136.1,277 136.1,295.1 105.1,313.3 105.1,295.1 "/>
<polygon class="st6" points="136.1,277 136.1,295.1 134.6,294.2 134.6,277.9 "/>
<polygon class="st7" points="136.1,295.1 105.1,313.3 105.1,311.5 134.6,294.2 "/>
<polygon class="st4" points="176,290 176,308.2 144.9,326.4 144.9,308.2 "/>
<polygon class="st6" points="176,290 176,308.2 174.4,307.3 174.4,290.9 "/>
<polygon class="st7" points="176,308.2 144.9,326.4 144.9,324.6 174.4,307.3 "/>
<polygon class="st4" points="136.1,313.3 136.1,331.5 105.1,349.7 105.1,331.5 "/>
<polygon class="st6" points="136.1,313.3 136.1,331.5 134.6,330.6 134.6,314.2 "/>
<polygon class="st7" points="136.1,331.5 105.1,349.7 105.1,347.9 134.6,330.6 "/>
<polygon class="st4" points="176,163.9 176,182.1 144.9,200.3 144.9,182.1 "/>
<polygon class="st6" points="176,163.9 176,182.1 174.4,181.2 174.4,164.8 "/>
<polygon class="st7" points="176,182.1 144.9,200.3 144.9,198.5 174.4,181.2 "/>
<polygon class="st4" points="136.1,187.2 136.1,205.4 105.1,223.6 105.1,205.4 "/>
<polygon class="st6" points="136.1,187.2 136.1,205.4 134.6,204.5 134.6,188.1 "/>
<polygon class="st7" points="136.1,205.4 105.1,223.6 105.1,221.8 134.6,204.5 "/>
<polygon class="st4" points="176,200.3 176,218.5 144.9,236.7 144.9,218.5 "/>
<polygon class="st6" points="176,200.3 176,218.5 174.4,217.6 174.4,201.2 "/>
<polygon class="st7" points="176,218.5 144.9,236.7 144.9,234.9 174.4,217.6 "/>
<polygon class="st4" points="136.1,223.6 136.1,241.8 105.1,260 105.1,241.8 "/>
<polygon class="st6" points="136.1,223.6 136.1,241.8 134.6,240.9 134.6,224.6 "/>
<polygon class="st7" points="136.1,241.8 105.1,260 105.1,258.2 134.6,240.9 "/>
<polygon class="st4" points="176,327.2 176,345.5 144.9,363.6 144.9,345.5 "/>
<polygon class="st6" points="176,327.2 176,345.5 174.4,344.5 174.4,328.2 "/>
<polygon class="st7" points="176,345.4 144.9,363.6 144.9,361.8 174.4,344.5 "/>
<polygon class="st4" points="136.1,350.6 136.1,368.8 105.1,387 105.1,368.8 "/>
<polygon class="st6" points="136.1,350.6 136.1,368.8 134.6,367.8 134.6,351.5 "/>
<polygon class="st7" points="136.1,368.8 105.1,387 105.1,385.1 134.6,367.8 "/>
<polygon class="st4" points="176,363.6 176,381.8 144.9,400 144.9,381.8 "/>
<polygon class="st6" points="176,363.6 176,381.8 174.4,380.9 174.4,364.6 "/>
<polygon class="st7" points="176,381.8 144.9,400 144.9,398.2 174.4,380.9 "/>
<polygon class="st4" points="136.1,387 136.1,405.2 105.1,423.3 105.1,405.2 "/>
<polygon class="st6" points="136.1,387 136.1,405.2 134.6,404.2 134.6,387.9 "/>
<polygon class="st7" points="136.1,405.1 105.1,423.3 105.1,421.5 134.6,404.2 "/>
<polygon class="st4" points="8.6,164.1 8.6,182.3 39.7,200.5 39.7,182.3 "/>
<polygon class="st6" points="8.6,164.1 8.6,182.3 10.2,181.4 10.2,165 "/>
<polygon class="st7" points="8.6,182.3 39.7,200.5 39.7,198.7 10.2,181.4 "/>
<polygon class="st4" points="48.4,187.4 48.4,205.6 79.5,223.8 79.5,205.6 "/>
<polygon class="st6" points="48.4,187.4 48.4,205.6 50,204.7 50,188.3 "/>
<polygon class="st7" points="48.4,205.6 79.5,223.8 79.5,222 50,204.7 "/>
<polygon class="st4" points="8.6,200.5 8.6,218.7 39.7,236.9 39.7,218.7 "/>
<polygon class="st6" points="8.6,200.5 8.6,218.7 10.2,217.8 10.2,201.4 "/>
<polygon class="st7" points="8.6,218.7 39.7,236.9 39.7,235.1 10.2,217.8 "/>
<polygon class="st4" points="48.4,223.8 48.4,242 79.5,260.2 79.5,242 "/>
<polygon class="st6" points="48.4,223.8 48.4,242 50,241.1 50,224.7 "/>
<polygon class="st7" points="48.4,242 79.5,260.2 79.5,258.4 50,241.1 "/>
<ellipse class="st8" cx="93.8" cy="56.4" rx="50.8" ry="29.3"/>
<path class="st9" d="M100.1,45.4l-10.6,6.2l12.3,7.1l10.7-6.2l3.3,1.9L90.2,69.1l-3.3-1.9l11.9-6.9l-12.3-7.1l-11.9,6.9l-3.3-1.9
	l25.4-14.7L100.1,45.4z"/>
<polygon class="st10" points="154.2,270.7 154,483.3 335.8,589.3 335.6,376.9 "/>
<polygon class="st0" points="244.9,430.1 245.1,589.6 335.8,642.7 335.6,483.2 "/>
<polygon class="st1" points="562.3,350.4 562.3,509.9 335.8,642.7 335.6,483.2 "/>
<polygon class="st4" points="409.6,462.9 409.6,477.7 384.3,492.5 384.3,477.7 "/>
<polygon class="st6" points="409.6,462.9 409.6,477.7 408.3,476.9 408.3,463.6 "/>
<polygon class="st7" points="409.6,477.7 384.3,492.5 384.3,491 408.3,476.9 "/>
<polygon class="st4" points="377.1,481.9 377.1,496.7 351.8,511.5 351.8,496.7 "/>
<polygon class="st6" points="377.1,481.9 377.1,496.7 375.8,495.9 375.8,482.6 "/>
<polygon class="st7" points="377.1,496.7 351.8,511.5 351.8,510 375.8,495.9 "/>
<polygon class="st4" points="409.6,492.5 409.6,507.3 384.3,522.1 384.3,507.3 "/>
<polygon class="st6" points="409.6,492.5 409.6,507.3 408.3,506.6 408.3,493.3 "/>
<polygon class="st7" points="409.6,507.3 384.3,522.1 384.3,520.7 408.3,506.6 "/>
<polygon class="st4" points="377.1,511.5 377.1,526.3 351.8,541.1 351.8,526.3 "/>
<polygon class="st6" points="377.1,511.5 377.1,526.3 375.8,525.5 375.8,512.2 "/>
<polygon class="st7" points="377.1,526.3 351.8,541.1 351.8,539.6 375.8,525.5 "/>
<polygon class="st4" points="480.4,421.7 480.4,436.5 455.1,451.3 455.1,436.5 "/>
<polygon class="st6" points="480.4,421.7 480.4,436.5 479.1,435.7 479.1,422.4 "/>
<polygon class="st7" points="480.4,436.5 455.1,451.3 455.1,449.8 479.1,435.7 "/>
<polygon class="st4" points="447.9,440.6 447.9,455.5 422.6,470.3 422.6,455.5 "/>
<polygon class="st6" points="447.9,440.6 447.9,455.5 446.7,454.7 446.7,441.4 "/>
<polygon class="st7" points="447.9,455.5 422.6,470.3 422.7,468.8 446.7,454.7 "/>
<polygon class="st4" points="480.4,451.3 480.4,466.1 455.1,480.9 455.1,466.1 "/>
<polygon class="st6" points="480.4,451.3 480.4,466.1 479.1,465.4 479.1,452 "/>
<polygon class="st7" points="480.4,466.1 455.1,480.9 455.1,479.4 479.1,465.4 "/>
<polygon class="st4" points="447.9,470.3 447.9,485.1 422.6,499.9 422.6,485.1 "/>
<polygon class="st6" points="447.9,470.3 447.9,485.1 446.7,484.3 446.7,471 "/>
<polygon class="st7" points="447.9,485.1 422.6,499.9 422.7,498.4 446.7,484.3 "/>
<polygon class="st4" points="550.2,380.9 550.2,395.7 524.9,410.6 524.9,395.7 "/>
<polygon class="st6" points="550.2,380.9 550.2,395.7 548.9,395 548.9,381.7 "/>
<polygon class="st7" points="550.2,395.7 524.9,410.6 524.9,409.1 548.9,395 "/>
<polygon class="st4" points="517.8,399.9 517.8,414.7 492.5,429.5 492.5,414.7 "/>
<polygon class="st6" points="517.8,399.9 517.8,414.7 516.5,413.9 516.5,400.6 "/>
<polygon class="st7" points="517.8,414.7 492.5,429.5 492.5,428.1 516.5,413.9 "/>
<polygon class="st4" points="550.2,410.6 550.2,425.4 524.9,440.2 524.9,425.4 "/>
<polygon class="st6" points="550.2,410.6 550.2,425.4 548.9,424.6 548.9,411.3 "/>
<polygon class="st7" points="550.2,425.4 524.9,440.2 524.9,438.7 548.9,424.6 "/>
<polygon class="st4" points="517.8,429.5 517.8,444.4 492.5,459.2 492.5,444.4 "/>
<polygon class="st6" points="517.8,429.5 517.8,444.4 516.5,443.6 516.5,430.3 "/>
<polygon class="st7" points="517.8,444.4 492.5,459.2 492.5,457.7 516.5,443.6 "/>
<polygon class="st4" points="409.6,528.2 409.6,543 384.3,557.8 384.3,543 "/>
<polygon class="st6" points="409.6,528.2 409.6,543 408.3,542.2 408.3,528.9 "/>
<polygon class="st7" points="409.6,543 384.3,557.8 384.3,556.3 408.3,542.2 "/>
<polygon class="st4" points="377.1,547.1 377.1,562 351.8,576.8 351.8,562 "/>
<polygon class="st6" points="377.1,547.1 377.1,562 375.8,561.2 375.8,547.9 "/>
<polygon class="st7" points="377.1,562 351.8,576.8 351.8,575.3 375.8,561.2 "/>
<polygon class="st4" points="409.6,557.8 409.6,572.6 384.3,587.4 384.3,572.6 "/>
<polygon class="st6" points="409.6,557.8 409.6,572.6 408.3,571.9 408.3,558.5 "/>
<polygon class="st7" points="409.6,572.6 384.3,587.4 384.3,586 408.3,571.9 "/>
<polygon class="st4" points="377.1,576.8 377.1,591.6 351.8,606.4 351.8,591.6 "/>
<polygon class="st6" points="377.1,576.8 377.1,591.6 375.8,590.8 375.8,577.5 "/>
<polygon class="st7" points="377.1,591.6 351.8,606.4 351.8,604.9 375.8,590.8 "/>
<polygon class="st4" points="480.4,486.9 480.4,501.8 455.1,516.6 455.1,501.8 "/>
<polygon class="st6" points="480.4,486.9 480.4,501.8 479.1,501 479.1,487.7 "/>
<polygon class="st7" points="480.4,501.8 455.1,516.6 455.1,515.1 479.1,501 "/>
<polygon class="st4" points="447.9,505.9 447.9,520.8 422.6,535.6 422.6,520.8 "/>
<polygon class="st6" points="447.9,505.9 447.9,520.8 446.7,520 446.7,506.7 "/>
<polygon class="st7" points="447.9,520.8 422.6,535.6 422.7,534.1 446.7,520 "/>
<polygon class="st4" points="480.4,516.6 480.4,531.4 455.1,546.2 455.1,531.4 "/>
<polygon class="st6" points="480.4,516.6 480.4,531.4 479.1,530.6 479.1,517.3 "/>
<polygon class="st7" points="480.4,531.4 455.1,546.2 455.1,544.8 479.1,530.6 "/>
<polygon class="st4" points="447.9,535.6 447.9,550.4 422.6,565.2 422.6,550.4 "/>
<polygon class="st6" points="447.9,535.6 447.9,550.4 446.7,549.6 446.7,536.3 "/>
<polygon class="st7" points="447.9,550.4 422.6,565.2 422.7,563.7 446.7,549.6 "/>
<polygon class="st4" points="550.2,446.2 550.2,461 524.9,475.8 524.9,461 "/>
<polygon class="st6" points="550.2,446.2 550.2,461 548.9,460.3 548.9,446.9 "/>
<polygon class="st7" points="550.2,461 524.9,475.8 524.9,474.4 548.9,460.3 "/>
<polygon class="st4" points="517.8,465.2 517.8,480 492.5,494.8 492.5,480 "/>
<polygon class="st6" points="517.8,465.2 517.8,480 516.5,479.2 516.5,465.9 "/>
<polygon class="st7" points="517.8,480 492.5,494.8 492.5,493.3 516.5,479.2 "/>
<polygon class="st4" points="550.2,475.8 550.2,490.7 524.9,505.5 524.9,490.7 "/>
<polygon class="st6" points="550.2,475.8 550.2,490.7 548.9,489.9 548.9,476.6 "/>
<polygon class="st7" points="550.2,490.7 524.9,505.5 524.9,504 548.9,489.9 "/>
<polygon class="st4" points="517.8,494.8 517.8,509.6 492.5,524.5 492.5,509.6 "/>
<polygon class="st6" points="517.8,494.8 517.8,509.6 516.5,508.9 516.5,495.6 "/>
<polygon class="st7" points="517.8,509.6 492.5,524.5 492.5,523 516.5,508.9 "/>
<polygon class="st11" points="257.8,597 257.8,526.1 318.3,561.6 318.3,632.6 "/>
<polygon class="st4" points="170.9,304.7 170.9,319.5 196.2,334.3 196.2,319.5 "/>
<polygon class="st6" points="170.9,304.7 170.9,319.5 172.2,318.7 172.2,305.4 "/>
<polygon class="st7" points="170.9,319.5 196.2,334.3 196.2,332.8 172.2,318.7 "/>
<polygon class="st4" points="203.4,323.7 203.4,338.5 228.7,353.3 228.7,338.5 "/>
<polygon class="st6" points="203.4,323.7 203.4,338.5 204.6,337.7 204.6,324.4 "/>
<polygon class="st7" points="203.4,338.5 228.7,353.3 228.7,351.8 204.6,337.7 "/>
<polygon class="st4" points="170.9,334.3 170.9,349.2 196.2,364 196.2,349.2 "/>
<polygon class="st6" points="170.9,334.3 170.9,349.2 172.2,348.4 172.2,335.1 "/>
<polygon class="st7" points="170.9,349.2 196.2,364 196.2,362.5 172.2,348.4 "/>
<polygon class="st4" points="203.4,353.3 203.4,368.1 228.7,383 228.7,368.1 "/>
<polygon class="st6" points="203.4,353.3 203.4,368.1 204.6,367.4 204.6,354.1 "/>
<polygon class="st7" points="203.4,368.1 228.7,383 228.7,381.5 204.6,367.4 "/>
<polygon class="st4" points="170.9,364.7 170.9,379.5 196.2,394.3 196.2,379.5 "/>
<polygon class="st6" points="170.9,364.7 170.9,379.5 172.2,378.7 172.2,365.4 "/>
<polygon class="st7" points="170.9,379.5 196.2,394.3 196.2,392.8 172.2,378.7 "/>
<polygon class="st4" points="203.4,383.6 203.4,398.5 228.7,413.3 228.7,398.5 "/>
<polygon class="st6" points="203.4,383.6 203.4,398.5 204.6,397.7 204.6,384.4 "/>
<polygon class="st7" points="203.4,398.5 228.7,413.3 228.7,411.8 204.6,397.7 "/>
<polygon class="st4" points="170.9,394.3 170.9,409.1 196.2,423.9 196.2,409.1 "/>
<polygon class="st6" points="170.9,394.3 170.9,409.1 172.2,408.3 172.2,395 "/>
<polygon class="st7" points="170.9,409.1 196.2,423.9 196.2,422.4 172.2,408.3 "/>
<polygon class="st4" points="203.4,413.3 203.4,428.1 228.7,442.9 228.7,428.1 "/>
<polygon class="st6" points="203.4,413.3 203.4,428.1 204.6,427.3 204.6,414 "/>
<polygon class="st7" points="203.4,428.1 228.7,442.9 228.7,441.4 204.6,427.3 "/>
<polygon class="st4" points="170.7,424.3 170.7,439.1 196,453.9 196,439.1 "/>
<polygon class="st6" points="170.7,424.3 170.7,439.1 171.9,438.3 171.9,425 "/>
<polygon class="st7" points="170.7,439.1 196,453.9 196,452.4 171.9,438.3 "/>
<polygon class="st4" points="203.1,443.2 203.1,458.1 228.4,472.9 228.4,458.1 "/>
<polygon class="st6" points="203.1,443.2 203.1,458.1 204.4,457.3 204.4,444 "/>
<polygon class="st7" points="203.1,458.1 228.4,472.9 228.4,471.4 204.4,457.3 "/>
<polygon class="st4" points="170.7,453.9 170.7,468.7 196,483.5 196,468.7 "/>
<polygon class="st6" points="170.7,453.9 170.7,468.7 171.9,468 171.9,454.7 "/>
<polygon class="st7" points="170.7,468.7 196,483.5 196,482.1 171.9,468 "/>
<polygon class="st4" points="203.1,472.9 203.1,487.7 228.4,502.5 228.4,487.7 "/>
<polygon class="st6" points="203.1,472.9 203.1,487.7 204.4,486.9 204.4,473.6 "/>
<polygon class="st7" points="203.1,487.7 228.4,502.5 228.4,501 204.4,486.9 "/>
<polygon class="st5" points="154.2,270.7 154.2,281.1 335.6,387.3 335.6,376.8 "/>
<polygon class="st5" points="244.9,430.1 244.9,440.5 335.6,493.6 335.6,483.2 "/>
<polygon class="st5" points="562.3,350.4 335.6,483.2 335.6,493.6 562.3,360.8 "/>
<polygon class="st4" points="154.2,270.7 335.6,376.9 244.9,430.1 335.6,483.2 562.3,350.4 290.2,190.9 "/>
<ellipse class="st12" cx="299.5" cy="277" rx="59.8" ry="34.5"/>
<path class="st9" d="M306.8,264.2l-12.5,7.2l14.5,8.3l12.5-7.2l3.9,2.2L295.3,292l-3.9-2.3l14-8.1l-14.5-8.4l-14,8.1l-3.9-2.2
	l29.9-17.3L306.8,264.2z"/>
</svg>
