<?xml version="1.0" encoding="utf-8"?>
<!-- Generator: Adobe Illustrator 26.3.1, SVG Export Plug-In . SVG Version: 6.00 Build 0)  -->
<svg version="1.1" id="Laag_1" xmlns="http://www.w3.org/2000/svg" xmlns:xlink="http://www.w3.org/1999/xlink" x="0px" y="0px"
	 viewBox="0 0 977 221" style="enable-background:new 0 0 977 221;" xml:space="preserve">
<style type="text/css">
	.st0{fill:#8BBFCC;}
	.st1{fill:none;}
	.st2{fill:#FAFAFA;}
	.st3{enable-background:new    ;}
</style>
<g id="Group_70" transform="translate(-4332 -1458)">
	<g id="Rectangle_125">
		<path class="st0" d="M4359,1458h923c14.9,0,27,12.1,27,27v167c0,14.9-12.1,27-27,27h-923c-14.9,0-27-12.1-27-27v-167
			C4332,1470.1,4344.1,1458,4359,1458z"/>
	</g>
	<g id="Rectangle_126" transform="translate(4362 1484)">
		<g>
			<path class="st1" d="M27,0h864c14.9,0,27,12.1,27,27v85c0,14.9-12.1,27-27,27H27c-14.9,0-27-12.1-27-27V27C0,12.1,12.1,0,27,0z"
				/>
		</g>
		<g>
			<path class="st2" d="M891,139H27c-14.9,0-27-12.1-27-27V27C0,12.1,12.1,0,27,0h864c14.9,0,27,12.1,27,27v85
				C918,126.9,905.9,139,891,139z M27,5C14.9,5,5,14.9,5,27v85c0,12.1,9.9,22,22,22h864c12.1,0,22-9.9,22-22V27c0-12.1-9.9-22-22-22
				H27z"/>
		</g>
	</g>
	<g class="st3">
		<path class="st2" d="M4639.6,1529.2h33v5.2h-13.3v43.6h-6.4v-43.6h-13.4V1529.2z"/>
		<path class="st2" d="M4684,1526.2h6.4v19c2.5-4.1,7.3-6.2,12.7-6.2c8.5,0,15.3,5.5,15.3,16.5v22.6h-6.3v-21.7
			c0-7.8-4.3-11.8-10.7-11.8c-6.5,0-11,4.1-11,12.3v21.2h-6.4V1526.2z"/>
		<path class="st2" d="M4731.3,1529.1c0-2.5,1.9-4.3,4.3-4.3c2.3,0,4.2,1.9,4.2,4.3c0,2.5-1.9,4.3-4.2,4.3
			C4733.2,1533.4,4731.3,1531.5,4731.3,1529.1z M4732.3,1539.6h6.4v38.4h-6.4V1539.6z"/>
		<path class="st2" d="M4759.6,1539.6v46.7c0,6.9-3.6,9.9-10.2,9.9h-3.7v-5.4h2.7c3.5,0,4.8-1.3,4.8-4.6v-46.6H4759.6z
			 M4752.2,1529.1c0-2.5,1.9-4.3,4.3-4.3c2.4,0,4.3,1.9,4.3,4.3c0,2.5-1.9,4.3-4.3,4.3C4754.1,1533.4,4752.2,1531.5,4752.2,1529.1z"
			/>
		<path class="st2" d="M4787.5,1578.6c-9,0-15.3-4.9-15.7-11.9h6.6c0.4,3.7,3.6,6.5,9,6.5c5,0,7.8-2.5,7.8-5.7
			c0-8.5-22.7-3.6-22.7-17.9c0-5.9,5.5-10.7,14.1-10.7c8.5,0,14.1,4.6,14.5,12h-6.4c-0.3-3.8-3.2-6.7-8.3-6.7
			c-4.7,0-7.5,2.2-7.5,5.3c0,9.1,22.3,4.1,22.5,17.9C4801.5,1573.9,4796,1578.6,4787.5,1578.6z"/>
		<path class="st2" d="M4851.9,1557.6h-9.4v20.4h-6.4v-48.8h15.8c11.5,0,16.9,6.3,16.9,14.3
			C4868.8,1550.9,4864,1557.6,4851.9,1557.6z M4851.9,1552.4c7.3,0,10.4-3.4,10.4-8.9c0-5.7-3.1-9-10.4-9h-9.4v17.9H4851.9z"/>
		<path class="st2" d="M4880.2,1526.2h6.4v51.8h-6.4V1526.2z"/>
		<path class="st2" d="M4917.5,1578.6c-10.9,0-19-7.7-19-19.9c0-12.1,7.8-19.7,19-19.7c11.1,0,18.4,7.8,18.4,18.3
			c0,1.4-0.1,2.5-0.2,3.9H4905c0.5,7.8,6,12,12.5,12c5.7,0,9.4-2.9,10.8-7.1h6.9C4933.2,1573.2,4927,1578.6,4917.5,1578.6z
			 M4905.1,1556h24.2c0.1-7.5-5.5-11.6-12.1-11.6C4911,1544.4,4905.8,1548.5,4905.1,1556z"/>
		<path class="st2" d="M4946.7,1529.1c0-2.5,1.9-4.3,4.3-4.3c2.3,0,4.2,1.9,4.2,4.3c0,2.5-1.9,4.3-4.2,4.3
			C4948.6,1533.4,4946.7,1531.5,4946.7,1529.1z M4947.8,1539.6h6.4v38.4h-6.4V1539.6z"/>
		<path class="st2" d="M4996.6,1556.3c0-7.8-4.3-11.8-10.7-11.8c-6.5,0-11,4.1-11,12.3v21.2h-6.4v-38.4h6.4v5.5
			c2.5-4,7.1-6.2,12.3-6.2c8.9,0,15.7,5.5,15.7,16.5v22.6h-6.3V1556.3z"/>
	</g>
	<g class="st3">
		<path class="st2" d="M4670.4,1658.2c-4.5,0-8-3.4-8-8.2s3.5-8.2,8-8.2c4.5,0,8,3.4,8,8.2S4674.9,1658.2,4670.4,1658.2z
			 M4670.4,1656.3c3.4,0,5.9-2.5,5.9-6.4c0-3.9-2.5-6.4-5.9-6.4s-5.9,2.4-5.9,6.4C4664.5,1653.9,4667,1656.3,4670.4,1656.3z"/>
		<path class="st2" d="M4691.6,1650.9c0-2.6-1.4-3.9-3.5-3.9c-2.1,0-3.6,1.3-3.6,4v7h-2.1v-12.6h2.1v1.8c0.8-1.3,2.3-2,4-2
			c2.9,0,5.2,1.8,5.2,5.4v7.4h-2.1V1650.9z"/>
		<path class="st2" d="M4703.5,1645.2c2,0,3.8,1,4.7,2.5v-6.7h2.1v17h-2.1v-2.4c-0.8,1.4-2.4,2.6-4.7,2.6c-3.4,0-6-2.6-6-6.6
			C4697.5,1647.7,4700.1,1645.2,4703.5,1645.2z M4703.9,1647c-2.3,0-4.3,1.7-4.3,4.6c0,3,2,4.7,4.3,4.7s4.3-1.7,4.3-4.7
			C4708.1,1648.8,4706.2,1647,4703.9,1647z"/>
		<path class="st2" d="M4720.4,1658.2c-3.6,0-6.2-2.5-6.2-6.5c0-4,2.6-6.5,6.2-6.5c3.7,0,6,2.6,6,6c0,0.5,0,0.8-0.1,1.3h-10.1
			c0.2,2.6,2,4,4.1,4c1.9,0,3.1-1,3.5-2.3h2.3C4725.5,1656.4,4723.5,1658.2,4720.4,1658.2z M4716.3,1650.8h8c0-2.5-1.8-3.8-4-3.8
			C4718.3,1647,4716.6,1648.3,4716.3,1650.8z"/>
		<path class="st2" d="M4732.4,1658h-2.1v-12.6h2.1v2c0.7-1.4,2.1-2.3,4.1-2.3v2.2h-0.6c-2,0-3.5,0.9-3.5,3.8V1658z"/>
		<path class="st2" d="M4745.3,1645.2c2,0,3.8,1,4.7,2.5v-6.7h2.1v17h-2.1v-2.4c-0.8,1.4-2.4,2.6-4.7,2.6c-3.4,0-6-2.6-6-6.6
			C4739.3,1647.7,4741.9,1645.2,4745.3,1645.2z M4745.7,1647c-2.3,0-4.3,1.7-4.3,4.6c0,3,2,4.7,4.3,4.7s4.3-1.7,4.3-4.7
			C4750,1648.8,4748,1647,4745.7,1647z"/>
		<path class="st2" d="M4762.2,1658.2c-3.6,0-6.2-2.5-6.2-6.5c0-4,2.6-6.5,6.2-6.5c3.7,0,6,2.6,6,6c0,0.5,0,0.8-0.1,1.3h-10.1
			c0.2,2.6,2,4,4.1,4c1.9,0,3.1-1,3.5-2.3h2.3C4767.4,1656.4,4765.4,1658.2,4762.2,1658.2z M4758.2,1650.8h8c0-2.5-1.8-3.8-4-3.8
			C4760.1,1647,4758.4,1648.3,4758.2,1650.8z"/>
		<path class="st2" d="M4777.6,1658.2c-3.6,0-6.2-2.5-6.2-6.5c0-4,2.6-6.5,6.2-6.5c3.7,0,6,2.6,6,6c0,0.5,0,0.8-0.1,1.3h-10.1
			c0.2,2.6,2,4,4.1,4c1.9,0,3.1-1,3.5-2.3h2.3C4782.8,1656.4,4780.8,1658.2,4777.6,1658.2z M4773.6,1650.8h8c0-2.5-1.8-3.8-4-3.8
			C4775.5,1647,4773.8,1648.3,4773.6,1650.8z"/>
		<path class="st2" d="M4787.6,1641h2.1v17h-2.1V1641z"/>
		<path class="st2" d="M4802.5,1645.4l3.9,10.7l3.9-10.7h2.2l-4.9,12.6h-2.4l-4.9-12.6H4802.5z"/>
		<path class="st2" d="M4821,1645.2c2.3,0,4,1.2,4.7,2.5v-2.3h2.1v12.6h-2.1v-2.3c-0.8,1.4-2.4,2.6-4.7,2.6c-3.4,0-6-2.6-6-6.6
			C4815,1647.7,4817.6,1645.2,4821,1645.2z M4821.4,1647c-2.3,0-4.3,1.7-4.3,4.6c0,3,2,4.7,4.3,4.7c2.3,0,4.3-1.7,4.3-4.7
			C4825.6,1648.8,4823.7,1647,4821.4,1647z"/>
		<path class="st2" d="M4841.7,1650.9c0-2.6-1.4-3.9-3.5-3.9c-2.1,0-3.6,1.3-3.6,4v7h-2.1v-12.6h2.1v1.8c0.8-1.3,2.3-2,4-2
			c2.9,0,5.2,1.8,5.2,5.4v7.4h-2.1V1650.9z"/>
		<path class="st2" d="M4855.6,1642.1h2.3l5.9,13.2l5.9-13.2h2.2v15.9h-2.1v-11.9l-5.3,11.9h-1.5l-5.3-11.9v11.9h-2.1V1642.1z"/>
		<path class="st2" d="M4886,1654.4h-7l-1.3,3.6h-2.2l5.8-15.9h2.4l5.8,15.9h-2.2L4886,1654.4z M4882.5,1644.6l-2.9,8.1h5.8
			L4882.5,1644.6z"/>
		<path class="st2" d="M4892.2,1642h10.9v1.7h-4.4v14.3h-2.1v-14.3h-4.4V1642z"/>
		<path class="st2" d="M4906.4,1648.7h9.2v1.8h-9.2V1648.7z"/>
		<path class="st2" d="M4919.6,1642h10.9v1.7h-4.4v14.3h-2.1v-14.3h-4.4V1642z"/>
		<path class="st2" d="M4939.7,1658.2c-3.6,0-6.3-2.5-6.3-6.5c0-4,2.8-6.5,6.4-6.5c3.6,0,6.4,2.5,6.4,6.5
			C4946.2,1655.7,4943.3,1658.2,4939.7,1658.2z M4939.7,1656.4c2.2,0,4.3-1.5,4.3-4.7c0-3.2-2.1-4.7-4.3-4.7c-2.2,0-4.2,1.5-4.2,4.7
			C4935.6,1654.9,4937.5,1656.4,4939.7,1656.4z"/>
		<path class="st2" d="M4948.6,1645.4h2.1l2.9,10.6l3.1-10.6h2.1l3.1,10.6l2.9-10.6h2.1l-3.9,12.6h-2.2l-3-10l-3,10h-2.2
			L4948.6,1645.4z"/>
		<path class="st2" d="M4979.3,1650.9c0-2.6-1.4-3.9-3.5-3.9c-2.1,0-3.6,1.3-3.6,4v7h-2.1v-12.6h2.1v1.8c0.8-1.3,2.3-2,4-2
			c2.9,0,5.2,1.8,5.2,5.4v7.4h-2.1V1650.9z"/>
	</g>
</g>
</svg>
