<svg xmlns="http://www.w3.org/2000/svg" viewBox="0 0 183.83 183.83"><defs><style>.cls-1{fill:#f1fbfd;}.cls-2{fill:#ffba7f;}.cls-3{fill:#f2a068;}.cls-4{fill:#fcaf75;}.cls-5{fill:#432918;}.cls-6{fill:#fff;}.cls-7{fill:#efa68f;}.cls-8{fill:#e59090;}</style></defs><g id="Layer_2" data-name="Layer 2"><g id="Capa_1" data-name="Capa 1"><path class="cls-1" d="M91.92,0a91.92,91.92,0,1,0,91.91,91.92A91.91,91.91,0,0,0,91.92,0Z"/><path class="cls-2" d="M149.76,159.46C141.63,154.37,113,155.3,110.4,147a32.79,32.79,0,0,1-1.15-8.82,97.44,97.44,0,0,1,1.15-15.24l-18.15-5.49L74.1,122.91a96,96,0,0,1,1.15,15.52A32,32,0,0,1,74.1,147c-2.61,8.33-31.23,7.4-39.36,12.49a12.21,12.21,0,0,0-2.57,2.3A91.91,91.91,0,0,0,152,161.44,11.38,11.38,0,0,0,149.76,159.46Z"/><path class="cls-3" d="M92.25,114.65l-18.47,5.41a104.88,104.88,0,0,1,1.47,17c3.26,3.72,16.63,4.19,16.78,4.18s13.76-.69,17.22-4.46a109.54,109.54,0,0,1,1.4-16.66Z"/><path class="cls-2" d="M48.12,75.49c-5,1.46-3.87,9-3.87,11.83s4.21,12.78,7,13.87c7.15,2.78,7.16-7.65,7.16-7.65V81.41S53.16,74,48.12,75.49Z"/><path class="cls-4" d="M136.26,75.49c-5-1.47-10.32,5.91-10.32,5.91V93.54s0,10.75,7.15,7.66c2.77-1.21,7-11.07,7-13.88S141.3,77,136.26,75.49Z"/><path class="cls-2" d="M116.27,36.58c-13-10.82-35.48-10.82-48.47,0C54.29,47.85,53.88,60.25,53.88,78.28s1.23,23.12,1.23,23.12,2.44,13.3,5.24,16.8S66,123.44,74,130.44c7.65,6.66,11.64,7.3,17.6,7.34h1c6,0,10-.68,17.6-7.34,8-7,10.86-8.74,13.66-12.24s5.25-16.8,5.25-16.8l0,0,.05-.24s1.11-4.84,1.11-22.87S129.79,47.85,116.27,36.58Z"/><path class="cls-4" d="M116.27,36.58c-6.5-5.41-15.37-8.12-24.24-8.11V137.78h.53c6,0,10-.68,17.6-7.34,8-7,10.86-8.74,13.66-12.24s5.25-16.8,5.25-16.8l0,0,.05-.24s1.11-4.84,1.11-22.87S129.79,47.85,116.27,36.58Z"/><path class="cls-5" d="M109,82.6a4.6,4.6,0,1,0,4.6,4.6A4.6,4.6,0,0,0,109,82.6Z"/><path class="cls-5" d="M74.23,74.45C67,74.52,60.67,82,60.67,82S68.56,78.56,73.82,79c4.67.35,13.24,1.84,11.86,0S79.36,74.4,74.23,74.45Z"/><path class="cls-5" d="M109.61,74.45c7.27.07,13.55,7.58,13.55,7.58S115.28,78.56,110,79c-4.67.35-13.24,1.84-11.87,0S104.47,74.4,109.61,74.45Z"/><path class="cls-5" d="M75,82.55a4.61,4.61,0,1,0,4.6,4.61A4.61,4.61,0,0,0,75,82.55Z"/><polygon class="cls-6" points="92.34 111.13 85.15 111.04 79.95 110.9 79.97 111.41 86.12 116.37 98.91 117.42 104.93 111.41 100.41 110.92 92.34 111.13"/><path class="cls-6" d="M92.18,111.43,83.3,111l-.74.25s-.38,2.89,10,2.83c10.56-.07,9.36-2.75,9.36-2.75Z"/><path class="cls-7" d="M92.85,110.46c-.88.09-1.63-.77-3.85-.7-2.79.1-10,.81-10,.81s1.85,1.74,13.54,1.81c12.64.08,13.25-1.5,13.25-1.5A70,70,0,0,0,97,109.75,23.92,23.92,0,0,0,92.85,110.46Z"/><path class="cls-7" d="M92.49,116.44c-7.2.06-12-5.36-12-5.36L79,110.57s4.23,8.76,13.49,8.68c10.51-.09,13.3-8.37,13.3-8.37l-1.39.46S100.69,116.38,92.49,116.44Z"/><path class="cls-8" d="M149.76,159.46c-6.2-3.88-26.78-5.42-36.19-9.08h0A33.61,33.61,0,0,1,100.62,155a58.64,58.64,0,0,1-19.64-.7,21.84,21.84,0,0,1-9.28-4.43h0c-9,4.08-30.51,5.52-37,9.56a12.21,12.21,0,0,0-2.57,2.3A91.91,91.91,0,0,0,152,161.44,11.38,11.38,0,0,0,149.76,159.46Z"/><path class="cls-5" d="M54.83,88.78c.33,1.77,2.43-22.6,9.35-35.75,3.92-7.45,15.43-10.5,15.43-10.5L67.51,34.9S47.14,47.4,54.83,88.78Z"/><path class="cls-5" d="M117,34.9l-12.09,7.63s11.51,3,15.43,10.5c6.92,13.15,9,37.52,9.34,35.75C137.4,47.4,117,34.9,117,34.9Z"/><path class="cls-5" d="M63.68,35.6c1.66-2.28,4.57-3.22,6.21-3.82,3.35-1.23,8.54-8,30.68-5.27,7,.86,19.43,7.47,20.32,12.92,1.69,10.29-14.63,11-23.61,10a108.2,108.2,0,0,0-10.94-.71c-16-.21-25.13,5.59-25.13-1.75C61.21,38.38,63,36.54,63.68,35.6Z"/></g></g></svg>