<svg xmlns="http://www.w3.org/2000/svg" width="417.541" height="135.202" viewBox="0 0 417.541 135.202">
  <g id="notes-tom-2" transform="translate(-542.459 -753.988)">
    <g id="Group_90" data-name="Group 90" transform="translate(-21 -52.437)">
      <g id="Group_55" data-name="Group 55" transform="translate(172 5)">
        <rect id="Rectangle_118" data-name="Rectangle 118" width="100" height="100" transform="translate(402 814)" fill="#d9e2e3"/>
        <g id="Group_50" data-name="Group 50">
          <path id="Path_511" data-name="Path 511" d="M0,0H100s1.184,21.351,0,50.525S93.864,100,93.864,100H-9.541S-1.136,75.525,0,50.525,0,0,0,0Z" transform="translate(401 810)" fill="#f7e3a1"/>
          <g id="Group_49" data-name="Group 49" transform="translate(-4.895 4.846)">
            <path id="Subtraction_1" data-name="Subtraction 1" d="M4.52,6.849h0L0,1.452,2.238,0,5.344,6.354l-.823.495Z" transform="translate(454.283 806.281) rotate(7)" fill="#b4b4b4"/>
            <ellipse id="Ellipse_55" data-name="Ellipse 55" cx="6.266" cy="4.924" rx="6.266" ry="4.924" transform="translate(447.951 804.599) rotate(-22)" fill="#d58b8b"/>
            <path id="Path_512" data-name="Path 512" d="M.317-2.793,4.123,1.261A3.507,3.507,0,0,1,2.375,5.018a5.082,5.082,0,0,1-4.613,0L-3.582-.495Z" transform="translate(454.566 803.488)" fill="#e59090"/>
            <ellipse id="Ellipse_54" data-name="Ellipse 54" cx="4.575" cy="3.673" rx="4.575" ry="3.673" transform="translate(447.515 800.007) rotate(-22)" fill="#e59797"/>
          </g>
        </g>
      </g>
      <text id="Expres-sions" transform="translate(569 846)" fill="#1b1b1b" font-size="16" font-family="Poppins-Regular, Poppins" letter-spacing="0.05em"><tspan x="-32.008" y="17">Expres-</tspan><tspan x="-22.056" y="42">sions</tspan></text>
    </g>
    <g id="Group_91" data-name="Group 91" transform="translate(-21 -52.437)">
      <g id="Group_56" data-name="Group 56" transform="translate(316 27.627)">
        <rect id="Rectangle_118-2" data-name="Rectangle 118" width="100" height="100" transform="translate(402 814)" fill="#d9e2e3"/>
        <g id="Group_50-2" data-name="Group 50">
          <path id="Path_511-2" data-name="Path 511" d="M0,0H100s1.184,21.351,0,50.525S93.864,100,93.864,100H-9.541S-1.136,75.525,0,50.525,0,0,0,0Z" transform="translate(401 810)" fill="#f7e3a1"/>
          <g id="Group_49-2" data-name="Group 49" transform="translate(-4.895 4.846)">
            <path id="Subtraction_1-2" data-name="Subtraction 1" d="M4.52,6.849h0L0,1.452,2.238,0,5.344,6.354l-.823.495Z" transform="translate(454.283 806.281) rotate(7)" fill="#b4b4b4"/>
            <ellipse id="Ellipse_55-2" data-name="Ellipse 55" cx="6.266" cy="4.924" rx="6.266" ry="4.924" transform="translate(447.951 804.599) rotate(-22)" fill="#d58b8b"/>
            <path id="Path_512-2" data-name="Path 512" d="M.317-2.793,4.123,1.261A3.507,3.507,0,0,1,2.375,5.018a5.082,5.082,0,0,1-4.613,0L-3.582-.495Z" transform="translate(454.566 803.488)" fill="#e59090"/>
            <ellipse id="Ellipse_54-2" data-name="Ellipse 54" cx="4.575" cy="3.673" rx="4.575" ry="3.673" transform="translate(447.515 800.007) rotate(-22)" fill="#e59797"/>
          </g>
        </g>
      </g>
      <text id="Audio_effects" data-name="Audio effects" transform="translate(713 865)" fill="#1b1b1b" font-size="16" font-family="Poppins-Regular, Poppins" letter-spacing="0.05em"><tspan x="-24.4" y="17">Audio </tspan><tspan x="-29.944" y="42">effects</tspan></text>
    </g>
    <g id="Group_92" data-name="Group 92" transform="translate(-21 -52.437)">
      <g id="Group_57" data-name="Group 57" transform="translate(479 5)">
        <rect id="Rectangle_118-3" data-name="Rectangle 118" width="100" height="100" transform="translate(402 814)" fill="#d9e2e3"/>
        <g id="Group_50-3" data-name="Group 50">
          <path id="Path_511-3" data-name="Path 511" d="M0,0H100s1.184,21.351,0,50.525S93.864,100,93.864,100H-9.541S-1.136,75.525,0,50.525,0,0,0,0Z" transform="translate(401 810)" fill="#f7e3a1"/>
          <g id="Group_49-3" data-name="Group 49" transform="translate(-4.895 4.846)">
            <path id="Subtraction_1-3" data-name="Subtraction 1" d="M4.52,6.849h0L0,1.452,2.238,0,5.344,6.354l-.823.495Z" transform="translate(454.283 806.281) rotate(7)" fill="#b4b4b4"/>
            <ellipse id="Ellipse_55-3" data-name="Ellipse 55" cx="6.266" cy="4.924" rx="6.266" ry="4.924" transform="translate(447.951 804.599) rotate(-22)" fill="#d58b8b"/>
            <path id="Path_512-3" data-name="Path 512" d="M.317-2.793,4.123,1.261A3.507,3.507,0,0,1,2.375,5.018a5.082,5.082,0,0,1-4.613,0L-3.582-.495Z" transform="translate(454.566 803.488)" fill="#e59090"/>
            <ellipse id="Ellipse_54-3" data-name="Ellipse 54" cx="4.575" cy="3.673" rx="4.575" ry="3.673" transform="translate(447.515 800.007) rotate(-22)" fill="#e59797"/>
          </g>
        </g>
      </g>
      <text id="Library" transform="translate(876 855)" fill="#1b1b1b" font-size="16" font-family="Poppins-Regular, Poppins" letter-spacing="0.05em"><tspan x="-29.216" y="17">Library</tspan></text>
    </g>
  </g>
</svg>
