<svg xmlns="http://www.w3.org/2000/svg" viewBox="0 0 183.83 183.83"><defs><style>.cls-1{fill:#f1fbfd;}.cls-2{fill:#ffba7f;}.cls-3{fill:#f2a068;}.cls-4{fill:#db9837;}.cls-5{fill:#fcaf75;}.cls-6{fill:#683c11;}.cls-7{fill:#432918;}.cls-8{fill:#fff;}.cls-9{fill:#e28156;}.cls-10{fill:#7c461e;}.cls-11{fill:#aedfeb;}.cls-12{fill:#1d1d1b;}</style></defs><g id="Layer_2" data-name="Layer 2"><g id="Capa_1" data-name="Capa 1"><path class="cls-1" d="M91.92,0a91.92,91.92,0,1,0,91.91,91.92A91.91,91.91,0,0,0,91.92,0Z"/><path class="cls-2" d="M149.65,159.46c-8.14-5.09-36.75-4.16-39.36-12.49a32.83,32.83,0,0,1-1.16-8.82,96.63,96.63,0,0,1,1.16-15.24l-18.16-5.49L74,122.91a96.18,96.18,0,0,1,1.15,15.52A32,32,0,0,1,74,147c-2.61,8.33-31.23,7.4-39.36,12.49a12.23,12.23,0,0,0-2.52,2.25A91.94,91.94,0,0,0,152,161.5,11.91,11.91,0,0,0,149.65,159.46Z"/><path class="cls-3" d="M92.13,117.65l-18.46,5.41a105.43,105.43,0,0,1,1.46,17c3.26,3.72,16.63,4.19,16.78,4.18s13.76-.69,17.22-4.46a108.91,108.91,0,0,1,1.41-16.66Z"/><path class="cls-4" d="M92.24,183.83Z"/><path class="cls-2" d="M48,75.49c-5,1.46-3.87,9-3.87,11.84s4.21,12.77,7,13.86c7.15,2.78,7.16-7.65,7.16-7.65V81.42S53,74,48,75.49Z"/><path class="cls-5" d="M136.14,75.49c-5-1.47-10.32,5.91-10.32,5.91V93.54s0,10.75,7.15,7.66c2.77-1.2,7-11.07,7-13.87S141.18,77,136.14,75.49Z"/><path class="cls-2" d="M116.15,36.58c-13-10.82-35.48-10.82-48.46,0C54.17,47.85,53.76,60.25,53.76,78.28S55,101.4,55,101.4s2.45,13.3,5.24,16.8,5.61,5.24,13.66,12.24c7.66,6.66,11.64,7.3,17.6,7.34h1c6,0,10-.68,17.61-7.34,8-7,10.85-8.74,13.65-12.24S129,101.4,129,101.4l0,0c0-.15,0-.24,0-.24s1.11-4.83,1.11-22.86S129.67,47.85,116.15,36.58Z"/><path class="cls-5" d="M116.15,36.58c-6.5-5.41-15.37-8.12-24.24-8.11V137.78h.53c6,0,10-.68,17.61-7.34,8-7,10.85-8.74,13.65-12.24S129,101.4,129,101.4l0,0c0-.15,0-.24,0-.24s1.11-4.83,1.11-22.86S129.67,47.85,116.15,36.58Z"/><path class="cls-6" d="M74.89,80.71a4.6,4.6,0,1,0,4.6,4.6A4.6,4.6,0,0,0,74.89,80.71Z"/><path class="cls-6" d="M109.9,71.58c-5.13,0-8.54,4.33-9.92,6.15s5.66-1.3,10.33-1.65c5.26-.39,13.15,3.08,13.15,3.08S117.18,71.66,109.9,71.58Z"/><path class="cls-7" d="M108.9,80.71a4.6,4.6,0,1,0,4.6,4.6A4.59,4.59,0,0,0,108.9,80.71Z"/><path class="cls-6" d="M73.92,71.54c-7.28.07-13.56,7.58-13.56,7.58S68.25,75.65,73.51,76c4.67.35,11.7,3.46,10.33,1.64S79.05,71.49,73.92,71.54Z"/><path class="cls-7" d="M74.92,80.67a4.6,4.6,0,1,0,4.6,4.6A4.6,4.6,0,0,0,74.92,80.67Z"/><polygon class="cls-8" points="92.22 111.13 85.03 111.04 79.83 110.9 79.86 111.41 86.01 116.37 98.8 117.42 104.81 111.41 100.3 110.92 92.22 111.13"/><path class="cls-8" d="M92.07,111.43,83.18,111l-.74.24s-.38,2.89,10,2.83c10.56-.07,9.36-2.75,9.36-2.75Z"/><path class="cls-9" d="M92.73,110.46c-.87.09-1.63-.77-3.85-.69-2.78.09-10,.8-10,.8s1.86,1.74,13.54,1.81c12.65.08,13.25-1.5,13.25-1.5a68.66,68.66,0,0,0-8.8-1.12A23.56,23.56,0,0,0,92.73,110.46Z"/><path class="cls-9" d="M92.38,116.44c-7.21.06-12-5.36-12-5.36l-1.46-.51s4.23,8.76,13.5,8.68c10.5-.09,13.29-8.37,13.29-8.37l-1.39.46S100.57,116.38,92.38,116.44Z"/><path class="cls-10" d="M114.18,45.14S86.27,55.93,61.46,56.6c-2,9.76-4.31,27.37-7.12,28.26-2,.62-1.72-17.25-1.68-27.56C46.83,39.2,69.35,25.88,81.41,23.09c17-3.94,26.49,2.65,26.49,2.65a3.27,3.27,0,0,0,.57-4.58c4.73.64,6,5.51,7.52,9.24a11.83,11.83,0,0,1,8.52.5s-3.8,2.93.29,6.3c10.22,8.43,7,18.1,6.18,20.1,0,11.61-.29,28-1.86,26.74-1.28-1-3.47-9.76-5.47-19-7.07-7.32-8.23-14.17-9.47-19.94"/><path class="cls-10" d="M127.28,79.46s-.12,9.12-.12,15.37-2.82,13.37-5.55,15.06c-7.12,4.41-10.07-.6-10.07-.6s-2.72-3.94-9.69-6.49a11.52,11.52,0,0,0-9.92.79l0,0,0,0A11.52,11.52,0,0,0,82,102.8c-7,2.55-9.69,6.49-9.69,6.49s-3,5-10.07.6c-2.73-1.69-5.55-8.81-5.55-15.06s-.12-15.37-.12-15.37l-3,.37S51.16,104.66,56.43,115c2.6,5.13,11.45,17,22.44,23.75a24.46,24.46,0,0,0,13,3.47,24.46,24.46,0,0,0,13-3.47c11-6.72,19.84-18.62,22.44-23.75,5.27-10.38,2.93-35.21,2.93-35.21ZM105,120.86c-4.51,3.89-7.3,5.46-10.06,3.29a12.06,12.06,0,0,1-3-3.32l0,0,0,0a12.06,12.06,0,0,1-3,3.32c-2.77,2.17-5.55.6-10.06-3.29s-3-11.11,2.22-11.46c11.83-.81,10.8-2.71,10.8-2.71s0,0,0,0,0,0,0,0-1,1.9,10.79,2.71C107.92,109.75,109.46,117,105,120.86Z"/><path class="cls-11" d="M149.79,159.46c-6.2-3.88-26.78-5.42-36.19-9.08h0a33.66,33.66,0,0,1-13,4.65,58.58,58.58,0,0,1-19.63-.7,21.78,21.78,0,0,1-9.28-4.43h0c-9,4.08-30.51,5.52-37,9.56a12,12,0,0,0-2.57,2.3,91.91,91.91,0,0,0,119.87-.32A12,12,0,0,0,149.79,159.46Z"/><path class="cls-12" d="M87.43,75.82c-.78,0-1.84-1.07-2.64-2a11.41,11.41,0,0,0-4.32-3.28c-7.06-2.94-16.47-.84-20,1.11a14.68,14.68,0,0,1-7.73,2.2c-.78.07-.46,3.85,0,3.73,3.27-.82,3.12,4.7,3.49,6.51,1.37,6.75,6.22,11.2,10.39,12.35,12,3.31,17.29-5.29,18.8-7.68s3.24-9.87,2.17-10.13h0c-.09-1.21,1.64-.89,4.55-.89s5.12-.23,4.84.89h0c-1.07.26.67,7.73,2.18,10.13s6.81,11,18.79,7.68c4.18-1.15,9-5.6,10.4-12.35.37-1.81.22-7.33,3.49-6.51.46.12.77-3.66,0-3.73a14.66,14.66,0,0,1-7.73-2.2c-3.52-2-13-4.07-20.1-1.06a11.36,11.36,0,0,0-4.09,3c-.85,1-2,2.19-2.74,2.13M71.23,96c-10,0-14.17-9.78-14-14.66.41-8.93,8.84-10.93,13.91-10.93s14.17.93,14,11.95C85.14,85.21,82.56,96,71.23,96Zm42.18,0c-11.33,0-13.91-10.78-14-13.64-.18-11,8.92-11.95,14-11.95s13.5,2,13.91,10.93c.22,4.88-4,14.66-14,14.66Z"/></g></g></svg>