<svg id="Group_98" data-name="Group 98" xmlns="http://www.w3.org/2000/svg" xmlns:xlink="http://www.w3.org/1999/xlink" width="1920" height="1080" viewBox="0 0 1920 1080">
  <defs>
    <clipPath id="clip-path">
      <rect id="Rectangle_50" data-name="Rectangle 50" width="233.634" height="248.459" fill="#aedfeb"/>
    </clipPath>
    <clipPath id="clip-path-2">
      <rect id="Rectangle_50-2" data-name="Rectangle 50" width="233.634" height="248.459" fill="none"/>
    </clipPath>
    <clipPath id="clip-path-3">
      <rect id="Rectangle_62" data-name="Rectangle 62" width="101.405" height="208.498" fill="none"/>
    </clipPath>
  </defs>
  <rect id="Rectangle_120" data-name="Rectangle 120" width="1920" height="56" transform="translate(0 845)" fill="#e5e3e3"/>
  <rect id="Rectangle_122" data-name="Rectangle 122" width="1920" height="19" transform="translate(0 901)" fill="#ededed"/>
  <rect id="Rectangle_123" data-name="Rectangle 123" width="1920" height="122" transform="translate(0 920)" fill="#c7c7c7"/>
  <rect id="Rectangle_124" data-name="Rectangle 124" width="1920" height="38" transform="translate(0 1042)" fill="#c5dab3"/>
  <line id="Line_24" data-name="Line 24" x2="1920" transform="translate(0 981)" fill="none" stroke="#fff" stroke-width="5" stroke-dasharray="150"/>
  <rect id="Rectangle_1" data-name="Rectangle 1" width="1553" height="778.911" transform="translate(184)" fill="#f1fbfd"/>
  <g id="Group_26" data-name="Group 26" transform="translate(1442 -282.682)">
    <ellipse id="Ellipse_50" data-name="Ellipse 50" cx="53.5" cy="12.5" rx="53.5" ry="12.5" transform="translate(155 1071.682)" fill="#a4c688"/>
    <rect id="Rectangle_63" data-name="Rectangle 63" width="8" height="394" transform="translate(205 689.682)" fill="#a4c688"/>
    <circle id="Ellipse_51" data-name="Ellipse 51" cx="8.5" cy="8.5" r="8.5" transform="translate(201 678.682)" fill="#a4c688"/>
    <path id="Path_76" data-name="Path 76" d="M4602.2,3365.833l-27.581,36.1a23.542,23.542,0,0,0-5.367,15.119c.043,9.286,3.123,15.2,8.868,18.02s15.8,2.827,21.962-3.4c7.011-7.6,4.952-16.013,2.887-21.372" transform="translate(-4355.671 -2669.366)" fill="none" stroke="#a5c688" stroke-width="7"/>
    <path id="Path_77" data-name="Path 77" d="M4571.988,3365.833l27.581,36.1a23.542,23.542,0,0,1,5.367,15.119c-.043,9.286-3.123,15.2-8.868,18.02s-15.8,2.827-21.962-3.4c-7.01-7.6-4.952-16.013-2.886-21.372" transform="translate(-4400.229 -2669.366)" fill="none" stroke="#a5c688" stroke-width="7"/>
  </g>
  <g id="Group_19" data-name="Group 19" transform="translate(160 564.067)">
    <g id="Group_17" data-name="Group 17" transform="translate(30)" clip-path="url(#clip-path)">
      <path id="Path_58" data-name="Path 58" d="M356.7,403.711H344.473a5.834,5.834,0,0,1-5.834-5.834V379.812h23.9v18.065a5.834,5.834,0,0,1-5.834,5.834" transform="translate(-138.423 -155.252)" fill="#aedfeb"/>
      <path id="Path_59" data-name="Path 59" d="M21.933,403.711H34.164A5.834,5.834,0,0,0,40,397.877V379.812H16.1v18.065a5.834,5.834,0,0,0,5.834,5.834" transform="translate(-6.581 -155.252)" fill="#aedfeb"/>
      <path id="Path_60" data-name="Path 60" d="M168.651,63.179c-30.014.278-71.947,5.6-107.115,12.589L51.3,17.7A21.417,21.417,0,0,0,8.9,23.636l6.175,59.383C14.335,92.088,0,100,0,117.664V230.417H233.634V124.179c0-33.232-23.7-61.381-64.983-61" transform="translate(0 9.021)" fill="#aedfeb"/>
    </g>
    <path id="Path_63" data-name="Path 63" d="M12.978,0,42.69,5.236,42,23.433H0Z" transform="translate(13.686 20.731) rotate(-22)" fill="#aedfeb"/>
    <path id="Path_64" data-name="Path 64" d="M4.427.456,42.264,0,42,18.364H0Z" transform="matrix(0.978, -0.208, 0.208, 0.978, 214.038, 227.902)" fill="#aedfeb"/>
    <g id="Group_17-2" data-name="Group 17" transform="translate(0 15.406)" clip-path="url(#clip-path-2)">
      <path id="Path_58-2" data-name="Path 58" d="M356.7,403.711H344.473a5.834,5.834,0,0,1-5.834-5.834V379.812h23.9v18.065a5.834,5.834,0,0,1-5.834,5.834" transform="translate(-138.423 -155.252)" fill="#aedfeb"/>
      <path id="Path_59-2" data-name="Path 59" d="M21.933,403.711H34.164A5.834,5.834,0,0,0,40,397.877V379.812H16.1v18.065a5.834,5.834,0,0,0,5.834,5.834" transform="translate(-6.581 -155.252)" fill="#aedfeb"/>
      <path id="Path_60-2" data-name="Path 60" d="M168.651,63.179c-30.014.278-71.947,5.6-107.115,12.589L51.3,17.7A21.417,21.417,0,0,0,8.9,23.636l6.175,59.383C14.335,92.088,0,100,0,117.664V230.417H233.634V124.179c0-33.232-23.7-61.381-64.983-61" transform="translate(0 0)" fill="#d3f1f9"/>
    </g>
  </g>
  <g id="Group_25" data-name="Group 25" transform="translate(372.932 631.502)">
    <g id="Group_24" data-name="Group 24" clip-path="url(#clip-path-3)">
      <path id="Path_74" data-name="Path 74" d="M80.468,90.967c9.072-2.142,16.325-8.257,20.938-16.5C93.592,69.154,84.37,66.932,75.3,69.074,66.28,71.2,59.061,77.26,54.446,85.429V71.749C66.409,64.6,75.247,53.76,78.425,40.314,81.737,26.307,78.307,12.066,70.11,0,57.376,7.118,47.933,18.316,44.622,32.323c-.54,2.284-1.88,13.106-2.07,15.392C27.438,61.251,53.331,57.575,53.225,68.2c7.308-8.733-7.967-20.281-16.865-26.832C25.915,33.677,12.9,31.493,0,34.031,1.407,47.1,7.357,58.883,17.8,66.573c9.394,6.916,20.869,9.365,32.465,7.946V93.5c-5.906-5.55-13.417-8.678-21.393-8.094-7.993.584-14.983,4.789-20.02,11.161,5.911,5.571,13.438,8.713,21.431,8.128,7.975-.583,14.949-4.77,19.982-11.116V208.5h4.18V107a22.761,22.761,0,0,0,33.072,10.558,23.64,23.64,0,0,0-14.081-13.083,23.613,23.613,0,0,0-18.991,2.3V85.631c7.8,5.27,16.983,7.472,26.022,5.337" fill="#a4c688"/>
      <path id="Path_75" data-name="Path 75" d="M64.562,140.353V121.006H36.621v19.428A30.129,30.129,0,0,0,20.532,167.1v31.472H80.809V167.1a30.128,30.128,0,0,0-16.247-26.744" transform="translate(1.685 9.929)" fill="#edb5b5"/>
    </g>
  </g>
  <path id="Exclusion_1" data-name="Exclusion 1" d="M-9096-1865h-1811v-845h1811v845Zm-1661.146-689h0v597h353.174v-597h-353.174Zm1145.12-4v597h353.174v-597h-353.174Z" transform="translate(10964 2710)" fill="#e1f3f8"/>
  <rect id="Rectangle_131" data-name="Rectangle 131" width="576" height="597" transform="translate(672 248)" fill="#cfedf5"/>
  <g id="Group_77" data-name="Group 77">
    <rect id="Rectangle_132" data-name="Rectangle 132" width="361" height="599" transform="translate(202 152)" fill="none" stroke="#fff" stroke-width="14"/>
    <line id="Line_25" data-name="Line 25" x2="361" transform="translate(202.5 451.5)" fill="none" stroke="#fff" stroke-width="14"/>
    <line id="Line_26" data-name="Line 26" y2="599" transform="translate(383.5 152.5)" fill="none" stroke="#fff" stroke-width="14"/>
  </g>
  <g id="Group_78" data-name="Group 78" transform="translate(1149 -1)">
    <rect id="Rectangle_132-2" data-name="Rectangle 132" width="361" height="599" transform="translate(202 152)" fill="none" stroke="#fff" stroke-width="14"/>
    <line id="Line_25-2" data-name="Line 25" x2="361" transform="translate(202.5 451.5)" fill="none" stroke="#fff" stroke-width="14"/>
    <line id="Line_26-2" data-name="Line 26" y2="599" transform="translate(383.5 152.5)" fill="none" stroke="#fff" stroke-width="14"/>
  </g>
  <line id="Line_27" data-name="Line 27" y2="597" transform="translate(959.5 248.5)" fill="none" stroke="#fff" stroke-width="2"/>
  <circle id="Ellipse_56" data-name="Ellipse 56" cx="9.5" cy="9.5" r="9.5" transform="translate(924 599)" fill="#fff"/>
  <circle id="Ellipse_57" data-name="Ellipse 57" cx="9.5" cy="9.5" r="9.5" transform="translate(976 599)" fill="#fff"/>
  <g id="Rectangle_133" data-name="Rectangle 133" transform="translate(734 320)" fill="#f1fbfd" stroke="#fff" stroke-width="8">
    <rect width="173" height="236" stroke="none"/>
    <rect x="4" y="4" width="165" height="228" fill="none"/>
  </g>
  <g id="Rectangle_134" data-name="Rectangle 134" transform="translate(1012 320)" fill="#f1fbfd" stroke="#fff" stroke-width="8">
    <rect width="173" height="236" stroke="none"/>
    <rect x="4" y="4" width="165" height="228" fill="none"/>
  </g>
  <line id="Line_28" data-name="Line 28" x2="164" transform="translate(738.5 438)" fill="none" stroke="#fff" stroke-width="8"/>
  <line id="Line_29" data-name="Line 29" x2="164" transform="translate(1012 438)" fill="none" stroke="#fff" stroke-width="8"/>
  <line id="Line_30" data-name="Line 30" y2="226" transform="translate(1099 324)" fill="none" stroke="#fff" stroke-width="8"/>
  <line id="Line_31" data-name="Line 31" y2="226" transform="translate(821 328)" fill="none" stroke="#fff" stroke-width="8"/>
  <rect id="Rectangle_3" data-name="Rectangle 3" width="22" height="844.911" transform="translate(37)" fill="#fafafa"/>
  <rect id="Rectangle_4" data-name="Rectangle 4" width="22" height="844.911" transform="translate(1861)" fill="#fafafa"/>
  <g id="Laag_2-2" transform="translate(59.44 957.787)">
    <g id="Group_87" data-name="Group 87" transform="translate(0 -0.01)">
      <g id="Group_86" data-name="Group 86">
        <path id="Path_522" data-name="Path 522" d="M35.835,67.186a35.736,35.736,0,0,1,9.81,1.374,25.018,25.018,0,0,1,32.063-18.11A28.564,28.564,0,0,1,120.42,26.541a24.725,24.725,0,0,1,48.505,9.4,35.837,35.837,0,0,1,59.322,19.012,21,21,0,0,1,29.266,19.3c0,.245-.009.485-.018.725h.018A28.045,28.045,0,0,1,285.3,99.24a28.4,28.4,0,0,0,.258-3.749,27.463,27.463,0,0,0-.231-3.617,28.049,28.049,0,0,0-27.816-24.429H257.5c.009-.24.018-.481.018-.725a21,21,0,0,0-29.266-19.3A35.837,35.837,0,0,0,168.925,28.4a24.725,24.725,0,0,0-48.505-9.4A28.564,28.564,0,0,0,77.708,42.915a25.018,25.018,0,0,0-32.063,18.11A35.82,35.82,0,0,0,.181,91.883,35.248,35.248,0,0,0,0,95.5a36.664,36.664,0,0,0,.2,3.776A35.834,35.834,0,0,1,35.835,67.19Z" transform="translate(0 0.01)" fill="#9ab981"/>
        <path id="Path_523" data-name="Path 523" d="M285.542,108.336a28.045,28.045,0,0,0-27.789-24.262h-.018c.009-.24.018-.481.018-.725a21,21,0,0,0-29.266-19.3,35.837,35.837,0,0,0-59.322-19.012,24.725,24.725,0,0,0-48.505-9.4A28.564,28.564,0,0,0,77.949,59.545a25.018,25.018,0,0,0-32.063,18.11A35.817,35.817,0,0,0,.44,108.363C2.326,126.382,283.711,122.049,285.542,108.336Z" transform="translate(-0.241 -9.081)" fill="#a4c688"/>
      </g>
      <path id="Path_524" data-name="Path 524" d="M263.659,209.424a29.556,29.556,0,0,1,26.324,29.3,30.554,30.554,0,0,0,.549-3.259,29.551,29.551,0,0,0-58.75-6.446,28.955,28.955,0,0,0-.172,3.3,29.547,29.547,0,0,1,32.05-22.893Z" transform="translate(-132.616 -138.799)" fill="#9ab981"/>
      <path id="Path_525" data-name="Path 525" d="M444.616,196.37A23.616,23.616,0,0,1,473.3,209.335a23.614,23.614,0,1,0-45.7,11.619,24.355,24.355,0,0,0,.934,2.471,23.616,23.616,0,0,1,16.084-27.059Z" transform="translate(-239.16 -131.997)" fill="#9ab981"/>
      <path id="Path_526" data-name="Path 526" d="M126.9,218.511a11.733,11.733,0,0,1,10.694,11.41,12.228,12.228,0,0,0,.19-1.3,11.732,11.732,0,1,0-23.373-2.067,11.564,11.564,0,0,0-.041,1.31,11.726,11.726,0,0,1,12.53-9.352Z" transform="translate(-68.52 -146)" fill="#9ab981"/>
    </g>
  </g>
  <g id="Laag_2-2-2" data-name="Laag_2-2" transform="translate(1704.164 981.01)">
    <g id="Group_87-2" data-name="Group 87" transform="translate(0 -0.01)">
      <g id="Group_86-2" data-name="Group 86">
        <path id="Path_522-2" data-name="Path 522" d="M25.775,48.322a25.7,25.7,0,0,1,7.056.988A17.995,17.995,0,0,1,55.893,36.284a20.545,20.545,0,0,1,30.722-17.2A17.784,17.784,0,0,1,121.5,25.847a25.777,25.777,0,0,1,42.668,13.675,15.1,15.1,0,0,1,21.051,13.884c0,.176-.007.349-.013.522h.013A20.172,20.172,0,0,1,205.21,71.378a20.429,20.429,0,0,0,.186-2.7,19.754,19.754,0,0,0-.166-2.6,20.175,20.175,0,0,0-20.007-17.571h-.013c.007-.173.013-.346.013-.522A15.1,15.1,0,0,0,164.172,34.1,25.777,25.777,0,0,0,121.5,20.428a17.784,17.784,0,0,0-34.889-6.759,20.545,20.545,0,0,0-30.722,17.2A17.995,17.995,0,0,0,32.831,43.891,25.764,25.764,0,0,0,.13,66.086a25.353,25.353,0,0,0-.13,2.6A26.371,26.371,0,0,0,.143,71.4,25.775,25.775,0,0,1,25.775,48.325Z" transform="translate(0 0.01)" fill="#9ab981"/>
        <path id="Path_523-2" data-name="Path 523" d="M205.507,82.589a20.172,20.172,0,0,0-19.988-17.451h-.013c.007-.173.013-.346.013-.522a15.1,15.1,0,0,0-21.051-13.884A25.777,25.777,0,0,0,121.8,37.058,17.784,17.784,0,0,0,86.911,30.3a20.545,20.545,0,0,0-30.722,17.2A17.995,17.995,0,0,0,33.128,60.521,25.762,25.762,0,0,0,.44,82.608C1.8,95.569,204.189,92.452,205.507,82.589Z" transform="translate(-0.297 -11.198)" fill="#a4c688"/>
      </g>
      <path id="Path_524-2" data-name="Path 524" d="M254.662,207.532A21.259,21.259,0,0,1,273.6,228.605a21.975,21.975,0,0,0,.395-2.344,21.256,21.256,0,1,0-42.258-4.637A20.819,20.819,0,0,0,231.61,224a21.253,21.253,0,0,1,23.053-16.466Z" transform="translate(-160.406 -156.734)" fill="#9ab981"/>
      <path id="Path_525-2" data-name="Path 525" d="M439.531,194.65a16.986,16.986,0,0,1,20.63,9.325,16.985,16.985,0,1,0-32.87,8.357,17.522,17.522,0,0,0,.672,1.777,16.986,16.986,0,0,1,11.569-19.463Z" transform="translate(-291.752 -148.348)" fill="#9ab981"/>
      <path id="Path_526-2" data-name="Path 526" d="M123.378,217.766a8.439,8.439,0,0,1,7.692,8.207,8.8,8.8,0,0,0,.137-.933,8.439,8.439,0,1,0-16.812-1.487,8.316,8.316,0,0,0-.029.942,8.434,8.434,0,0,1,9.012-6.727Z" transform="translate(-81.389 -165.611)" fill="#9ab981"/>
    </g>
  </g>
  <g id="Laag_2-2-3" data-name="Laag_2-2" transform="translate(1531 965.389)">
    <g id="Group_87-3" data-name="Group 87" transform="translate(0 0)">
      <g id="Group_86-3" data-name="Group 86">
        <path id="Path_522-3" data-name="Path 522" d="M249.725,67.186a35.737,35.737,0,0,0-9.81,1.374,25.018,25.018,0,0,0-32.063-18.11A28.564,28.564,0,0,0,165.14,26.541a24.725,24.725,0,0,0-48.505,9.4A35.837,35.837,0,0,0,57.313,54.95a21,21,0,0,0-29.266,19.3c0,.245.009.485.018.725h-.018A28.045,28.045,0,0,0,.258,99.24,28.4,28.4,0,0,1,0,95.491a27.463,27.463,0,0,1,.231-3.617A28.049,28.049,0,0,1,28.047,67.444h.018c-.009-.24-.018-.481-.018-.725a21,21,0,0,1,29.266-19.3A35.837,35.837,0,0,1,116.635,28.4a24.725,24.725,0,0,1,48.505-9.4,28.564,28.564,0,0,1,42.712,23.908,25.018,25.018,0,0,1,32.063,18.11,35.82,35.82,0,0,1,45.464,30.857,35.245,35.245,0,0,1,.181,3.613,36.662,36.662,0,0,1-.2,3.776A35.834,35.834,0,0,0,249.725,67.19Z" transform="translate(0 0.01)" fill="#9ab981"/>
        <path id="Path_523-3" data-name="Path 523" d="M.44,108.336A28.045,28.045,0,0,1,28.229,84.074h.018c-.009-.24-.018-.481-.018-.725a21,21,0,0,1,29.266-19.3,35.837,35.837,0,0,1,59.322-19.012,24.725,24.725,0,0,1,48.505-9.4,28.564,28.564,0,0,1,42.712,23.908A25.018,25.018,0,0,1,240.1,77.655a35.817,35.817,0,0,1,45.445,30.708C283.657,126.382,2.271,122.048.44,108.336Z" transform="translate(-0.182 -9.081)" fill="#a4c688"/>
      </g>
      <path id="Path_524-3" data-name="Path 524" d="M258.661,209.424a29.556,29.556,0,0,0-26.324,29.3,30.553,30.553,0,0,1-.549-3.259,29.551,29.551,0,0,1,58.75-6.446,28.959,28.959,0,0,1,.172,3.3,29.547,29.547,0,0,0-32.05-22.893Z" transform="translate(-104.144 -138.799)" fill="#9ab981"/>
      <path id="Path_525-3" data-name="Path 525" d="M455.184,196.37A23.616,23.616,0,0,0,426.5,209.335a23.614,23.614,0,1,1,45.7,11.619,24.356,24.356,0,0,1-.934,2.471,23.616,23.616,0,0,0-16.084-27.059Z" transform="translate(-375.079 -131.997)" fill="#9ab981"/>
      <path id="Path_526-3" data-name="Path 526" d="M125.294,218.511a11.733,11.733,0,0,0-10.694,11.41,12.228,12.228,0,0,1-.19-1.3,11.732,11.732,0,0,1,23.373-2.067,11.564,11.564,0,0,1,.041,1.31,11.726,11.726,0,0,0-12.53-9.352Z" transform="translate(101.891 -146.001)" fill="#9ab981"/>
    </g>
  </g>
  <g id="Group_88" data-name="Group 88" transform="translate(0 1)">
    <rect id="Rectangle_137" data-name="Rectangle 137" width="333" height="50" transform="translate(794 166)" fill="#cfedf5"/>
    <text id="Thijs_Plein" data-name="Thijs Plein" transform="translate(960 199)" fill="#fafafa" font-size="23" font-family="Poppins-Bold, Poppins" font-weight="700" letter-spacing="0.05em"><tspan x="-64.193" y="0">Thijs Plein</tspan></text>
  </g>
</svg>
