<?xml version="1.0" encoding="utf-8"?>
<!-- Generator: Adobe Illustrator 26.3.1, SVG Export Plug-In . SVG Version: 6.00 Build 0)  -->
<svg version="1.1" id="Group_98" xmlns="http://www.w3.org/2000/svg" xmlns:xlink="http://www.w3.org/1999/xlink" x="0px" y="0px"
	 viewBox="0 0 1920 1080" style="enable-background:new 0 0 1920 1080;" xml:space="preserve">
<style type="text/css">
	.st0{fill:#E5E3E3;}
	.st1{fill:#EDEDED;}
	.st2{fill:#C7C7C7;}
	.st3{fill:#C5DAB3;}
	.st4{fill:#FFFFFF;}
	.st5{fill:#F1FBFD;}
	.st6{fill:#A4C688;}
	.st7{fill:#A5C688;}
	.st8{clip-path:url(#SVGID_00000049936070608586591110000005671280940089151915_);}
	.st9{fill:#AEDFEB;}
	.st10{clip-path:url(#SVGID_00000170249832816635744400000011059825570305023410_);}
	.st11{fill:#D3F1F9;}
	.st12{clip-path:url(#SVGID_00000065059314852965781100000011331571735164712878_);}
	.st13{fill:#EDB5B5;}
	.st14{fill:#E1F3F8;}
	.st15{fill:#CFEDF5;}
	.st16{fill:#FAFAFA;}
	.st17{fill:#9AB981;}
	.st18{enable-background:new    ;}
</style>
<g id="Rectangle_120">
	<rect y="845" class="st0" width="1920" height="56"/>
</g>
<g id="Rectangle_122">
	<rect y="901" class="st1" width="1920" height="19"/>
</g>
<g id="Rectangle_123">
	<rect y="920" class="st2" width="1920" height="122"/>
</g>
<g id="Rectangle_124">
	<rect y="1042" class="st3" width="1920" height="38"/>
</g>
<g id="Line_24">
	<path class="st4" d="M1920,983.5h-120v-5h120V983.5z M1650,983.5h-150v-5h150V983.5z M1350,983.5h-150v-5h150V983.5z M1050,983.5
		H900v-5h150V983.5z M750,983.5H600v-5h150V983.5z M450,983.5H300v-5h150V983.5z M150,983.5H0v-5h150V983.5z"/>
</g>
<g id="Rectangle_1">
	<rect x="184" class="st5" width="1553" height="778.9"/>
</g>
<g id="Group_26" transform="translate(1442 -282.682)">
	<g id="Ellipse_50">
		<ellipse class="st6" cx="208.5" cy="1084.2" rx="53.5" ry="12.5"/>
	</g>
	<g id="Rectangle_63">
		<rect x="205" y="689.7" class="st6" width="8" height="394"/>
	</g>
	<g id="Ellipse_51">
		<circle class="st6" cx="209.5" cy="687.2" r="8.5"/>
	</g>
	<g id="Path_76">
		<path class="st7" d="M231,771.1c-3.7,0-7.2-0.8-10.1-2.2c-7.1-3.5-10.8-10.6-10.8-21.1c0-6.3,2.1-12.4,6.1-17.3l27.5-36.1l5.6,4.2
			l-27.7,36.2c-3,3.6-4.6,8.2-4.6,12.9c0,7.8,2.3,12.6,6.9,14.9c4.1,2,12.7,2.6,17.9-2.7c4.4-4.8,5-10.2,2.2-17.7l6.5-2.5
			c3.8,9.9,2.6,18.3-3.6,25l-0.1,0.1C242.5,769.2,236.6,771.1,231,771.1z"/>
	</g>
	<g id="Path_77">
		<path class="st7" d="M187.3,771.1c-5.6,0-11.5-1.8-15.9-6.3l-0.1-0.1c-6.2-6.7-7.4-15.1-3.6-25l6.5,2.5
			c-2.9,7.5-2.2,12.9,2.2,17.7c5.2,5.2,13.8,4.7,17.9,2.7c4.6-2.3,6.9-7.1,6.9-14.9c0-4.7-1.6-9.3-4.6-12.9l-0.1-0.1L169,698.6
			l5.6-4.2l27.5,36.1c4,4.9,6.2,11,6.1,17.3c0,10.5-3.7,17.6-10.8,21.1C194.5,770.2,191,771.1,187.3,771.1z"/>
	</g>
</g>
<g id="Group_19" transform="translate(160 564.067)">
	<g>
		<defs>
			<rect id="SVGID_1_" x="30" y="0" width="233.6" height="248.5"/>
		</defs>
		<clipPath id="SVGID_00000012459394332688648720000015932279773465001122_">
			<use xlink:href="#SVGID_1_"  style="overflow:visible;"/>
		</clipPath>
		<g id="Group_17" transform="translate(30)" style="clip-path:url(#SVGID_00000012459394332688648720000015932279773465001122_);">
			<g id="Path_58">
				<path class="st9" d="M218.3,248.5H206c-3.2,0-5.8-2.6-5.8-5.8v0v-18.1h23.9v18.1C224.1,245.8,221.5,248.5,218.3,248.5
					L218.3,248.5"/>
			</g>
			<g id="Path_59">
				<path class="st9" d="M15.4,248.5h12.2c3.2,0,5.8-2.6,5.8-5.8c0,0,0,0,0,0v-18.1H9.5v18.1C9.5,245.8,12.1,248.5,15.4,248.5
					C15.4,248.5,15.4,248.5,15.4,248.5"/>
			</g>
			<g id="Path_60">
				<path class="st9" d="M168.7,72.2c-30,0.3-71.9,5.6-107.1,12.6L51.3,26.7c-2-11.7-13.1-19.5-24.7-17.5
					C15.4,11.2,7.7,21.4,8.9,32.7L15.1,92C14.3,101.1,0,109,0,126.7v112.8h233.6V133.2C233.6,100,209.9,71.8,168.7,72.2"/>
			</g>
		</g>
	</g>
	<g id="Path_63">
		<path class="st9" d="M25.7,15.9l29.5-6.3l6.2,17.1L22.5,42.5L25.7,15.9z"/>
	</g>
	<g id="Path_64">
		<path class="st9" d="M218.5,227.4l36.9-8.3l3.6,18l-41.1,8.7L218.5,227.4z"/>
	</g>
	<g>
		<defs>
			<rect id="SVGID_00000091721337176036856100000001481417321241486491_" y="15.4" width="233.6" height="248.5"/>
		</defs>
		<clipPath id="SVGID_00000116925201540320459070000002406848578245224879_">
			<use xlink:href="#SVGID_00000091721337176036856100000001481417321241486491_"  style="overflow:visible;"/>
		</clipPath>
		
			<g id="Group_17-2" transform="translate(0 15.406)" style="clip-path:url(#SVGID_00000116925201540320459070000002406848578245224879_);">
			<g id="Path_58-2">
				<path class="st9" d="M218.3,248.5H206c-3.2,0-5.8-2.6-5.8-5.8v0v-18.1h23.9v18.1C224.1,245.8,221.5,248.5,218.3,248.5
					L218.3,248.5"/>
			</g>
			<g id="Path_59-2">
				<path class="st9" d="M15.4,248.5h12.2c3.2,0,5.8-2.6,5.8-5.8c0,0,0,0,0,0v-18.1H9.5v18.1C9.5,245.8,12.1,248.5,15.4,248.5
					C15.4,248.5,15.4,248.5,15.4,248.5"/>
			</g>
			<g id="Path_60-2">
				<path class="st11" d="M168.7,63.2c-30,0.3-71.9,5.6-107.1,12.6L51.3,17.7C49.3,6,38.2-1.8,26.6,0.2C15.4,2.1,7.7,12.4,8.9,23.6
					L15.1,83C14.3,92.1,0,100,0,117.7v112.8h233.6V124.2C233.6,90.9,209.9,62.8,168.7,63.2"/>
			</g>
		</g>
	</g>
</g>
<g id="Group_25" transform="translate(372.932 631.502)">
	<g>
		<defs>
			<rect id="SVGID_00000018212187381851589830000012281631051403971215_" x="0" y="0" width="101.4" height="208.5"/>
		</defs>
		<clipPath id="SVGID_00000094591470438167169110000014165912549314839230_">
			<use xlink:href="#SVGID_00000018212187381851589830000012281631051403971215_"  style="overflow:visible;"/>
		</clipPath>
		<g id="Group_24" style="clip-path:url(#SVGID_00000094591470438167169110000014165912549314839230_);">
			<g id="Path_74">
				<path class="st6" d="M80.5,91c9.1-2.1,16.3-8.3,20.9-16.5c-7.8-5.3-17-7.5-26.1-5.4c-9,2.1-16.2,8.2-20.9,16.4V71.7
					c12-7.1,20.8-18,24-31.4c3.3-14-0.1-28.2-8.3-40.3C57.4,7.1,47.9,18.3,44.6,32.3c-0.5,2.3-1.9,13.1-2.1,15.4
					c-15.1,13.5,10.8,9.9,10.7,20.5c7.3-8.7-8-20.3-16.9-26.8C25.9,33.7,12.9,31.5,0,34c1.4,13.1,7.4,24.9,17.8,32.5
					c9.4,6.9,20.9,9.4,32.5,7.9v19c-5.9-5.6-13.4-8.7-21.4-8.1c-8,0.6-15,4.8-20,11.2c5.9,5.6,13.4,8.7,21.4,8.1
					c8-0.6,14.9-4.8,20-11.1v114.9h4.2V107c4.8,11.6,18.2,17.1,29.8,12.3c1.1-0.5,2.3-1,3.3-1.7c-2.6-6.2-7.7-10.9-14.1-13.1
					c-6.4-1.9-13.3-1.1-19,2.3V85.6C62.2,90.9,71.4,93.1,80.5,91"/>
			</g>
			<g id="Path_75">
				<path class="st13" d="M66.2,150.3v-19.3H38.3v19.4c-9.9,5.2-16.1,15.5-16.1,26.7v31.5h60.3V177
					C82.5,165.8,76.2,155.5,66.2,150.3"/>
			</g>
		</g>
	</g>
</g>
<g id="Exclusion_1">
	<path class="st14" d="M1868,845H57V0h1811V845z M206.9,156L206.9,156v597H560V156H206.9z M1352,152v597h353.2V152H1352z"/>
</g>
<g id="Rectangle_131">
	<rect x="672" y="248" class="st15" width="576" height="597"/>
</g>
<g id="Group_77">
	<g id="Rectangle_132">
		<path class="st4" d="M570,758H195V145h375V758z M209,744h347V159H209V744z"/>
	</g>
	<g id="Line_25">
		<rect x="202.5" y="444.5" class="st4" width="361" height="14"/>
	</g>
	<g id="Line_26">
		<rect x="376.5" y="152.5" class="st4" width="14" height="599"/>
	</g>
</g>
<g id="Group_78" transform="translate(1149 -1)">
	<g id="Rectangle_132-2">
		<path class="st4" d="M570,758H195V145h375V758z M209,744h347V159H209V744z"/>
	</g>
	<g id="Line_25-2">
		<rect x="202.5" y="444.5" class="st4" width="361" height="14"/>
	</g>
	<g id="Line_26-2">
		<rect x="376.5" y="152.5" class="st4" width="14" height="599"/>
	</g>
</g>
<g id="Line_27">
	<rect x="958.5" y="248.5" class="st4" width="2" height="597"/>
</g>
<g id="Ellipse_56">
	<circle class="st4" cx="933.5" cy="608.5" r="9.5"/>
</g>
<g id="Ellipse_57">
	<circle class="st4" cx="985.5" cy="608.5" r="9.5"/>
</g>
<g id="Rectangle_133" transform="translate(734 320)">
	<g>
		<rect class="st5" width="173" height="236"/>
	</g>
	<g>
		<path class="st4" d="M173,236H0V0h173V236z M8,228h157V8H8V228z"/>
	</g>
</g>
<g id="Rectangle_134" transform="translate(1012 320)">
	<g>
		<rect class="st5" width="173" height="236"/>
	</g>
	<g>
		<path class="st4" d="M173,236H0V0h173V236z M8,228h157V8H8V228z"/>
	</g>
</g>
<g id="Line_28">
	<rect x="738.5" y="434" class="st4" width="164" height="8"/>
</g>
<g id="Line_29">
	<rect x="1012" y="434" class="st4" width="164" height="8"/>
</g>
<g id="Line_30">
	<rect x="1095" y="324" class="st4" width="8" height="226"/>
</g>
<g id="Line_31">
	<rect x="817" y="328" class="st4" width="8" height="226"/>
</g>
<g id="Rectangle_3">
	<rect x="37" class="st16" width="22" height="844.9"/>
</g>
<g id="Rectangle_4">
	<rect x="1861" class="st16" width="22" height="844.9"/>
</g>
<g id="Laag_2-2" transform="translate(59.44 957.787)">
	<g id="Group_87" transform="translate(0 -0.01)">
		<g id="Group_86">
			<g id="Path_522">
				<path class="st17" d="M35.8,67.2c3.3,0,6.6,0.5,9.8,1.4c3.1-13.5,16.6-21.8,30.1-18.7c0.7,0.2,1.3,0.3,2,0.6
					c0.5-15.8,13.7-28.1,29.4-27.7c4.7,0.1,9.2,1.4,13.3,3.7c3.2-13.3,16.5-21.5,29.8-18.4c12.5,3,20.7,15,18.7,27.8
					c14.6-13.4,37.2-12.4,50.6,2.1c4.4,4.7,7.4,10.6,8.7,16.9c10.7-4.6,23,0.4,27.6,11c1.1,2.6,1.7,5.4,1.7,8.3c0,0.2,0,0.5,0,0.7h0
					c14,0,25.9,10.4,27.8,24.3c0.2-1.2,0.3-2.5,0.3-3.7c0-1.2-0.1-2.4-0.2-3.6c-1.8-14-13.7-24.4-27.8-24.4h0c0-0.2,0-0.5,0-0.7
					c0-11.6-9.4-21-21-21c-2.8,0-5.7,0.6-8.3,1.7c-4.1-19.4-23.1-31.8-42.4-27.7c-6.3,1.3-12.1,4.3-16.9,8.7
					c2-13.5-7.3-26.1-20.8-28.1c-12.7-1.9-24.8,6.2-27.8,18.7c-13.7-7.8-31.1-3.1-39,10.6c-2.3,4.1-3.6,8.6-3.7,13.3
					c-13.1-4.3-27.3,3-31.5,16.1c-0.2,0.7-0.4,1.3-0.6,2c-19-5.4-38.8,5.6-44.3,24.6c-0.6,2-1,4.1-1.2,6.2C0.1,93.1,0,94.3,0,95.5
					c0,1.3,0.1,2.5,0.2,3.8C2.1,81,17.5,67.2,35.8,67.2L35.8,67.2z"/>
			</g>
			<g id="Path_523">
				<path class="st6" d="M285.3,99.3C283.4,85.4,271.5,75,257.5,75h0c0-0.2,0-0.5,0-0.7c0-11.6-9.4-21-21-21c-2.8,0-5.7,0.6-8.3,1.7
					c-4.1-19.4-23.1-31.8-42.4-27.7c-6.3,1.3-12.1,4.3-16.9,8.7c2-13.5-7.3-26.1-20.8-28.1c-12.7-1.9-24.8,6.2-27.8,18.7
					c-13.7-7.8-31.1-3.1-39,10.6c-2.3,4-3.6,8.6-3.7,13.3c-13.1-4.3-27.3,3-31.5,16.1c-0.2,0.7-0.4,1.3-0.6,2
					c-19-5.4-38.8,5.6-44.3,24.6c-0.6,2-1,4-1.2,6.1C2.1,117.3,283.5,113,285.3,99.3z"/>
			</g>
		</g>
		<g id="Path_524">
			<path class="st17" d="M131,70.6c15,1.6,26.3,14.3,26.3,29.3c0.2-1.1,0.4-2.2,0.5-3.3c1.8-16.2-9.9-30.8-26.2-32.6
				c-16.2-1.8-30.8,9.9-32.6,26.2C99,91.3,99,92.4,99,93.5C102.3,78.8,116.1,69,131,70.6L131,70.6z"/>
		</g>
		<g id="Path_525">
			<path class="st17" d="M205.5,64.4c11.5-3.6,23.8,2,28.7,13c-2.5-12.8-14.9-21.1-27.7-18.6s-21.1,14.9-18.6,27.7
				c0.2,0.9,0.4,1.7,0.7,2.6c0.3,0.8,0.6,1.7,0.9,2.5C187.1,79.6,194,68,205.5,64.4L205.5,64.4z"/>
		</g>
		<g id="Path_526">
			<path class="st17" d="M58.4,72.5C64.3,73,68.9,78,69.1,83.9c0.1-0.4,0.2-0.9,0.2-1.3c0.6-6.5-4.2-12.1-10.7-12.7
				c-6.5-0.6-12.1,4.2-12.7,10.7c0,0.4-0.1,0.9,0,1.3C47,76,52.4,72,58.4,72.5L58.4,72.5z"/>
		</g>
	</g>
</g>
<g id="Laag_2-2-2" transform="translate(1704.164 981.01)">
	<g id="Group_87-2" transform="translate(0 -0.01)">
		<g id="Group_86-2">
			<g id="Path_522-2">
				<path class="st17" d="M25.8,48.3c2.4,0,4.8,0.3,7.1,1c2.3-9.7,11.9-15.7,21.6-13.4c0.5,0.1,1,0.2,1.4,0.4
					C56.2,25,65.7,16,77.1,16.4c3.4,0.1,6.6,1,9.5,2.7C88.9,9.5,98.5,3.7,108,5.9c9,2.1,14.8,10.8,13.5,19.9
					c10.5-9.6,26.8-8.9,36.4,1.5c3.1,3.4,5.3,7.6,6.2,12.1c7.7-3.3,16.5,0.3,19.8,7.9c0.8,1.9,1.2,3.9,1.2,6c0,0.2,0,0.3,0,0.5h0
					c10.1,0,18.6,7.5,20,17.5c0.1-0.9,0.2-1.8,0.2-2.7c0-0.9-0.1-1.7-0.2-2.6c-1.3-10.1-9.9-17.6-20-17.6h0c0-0.2,0-0.3,0-0.5
					c0-8.3-6.8-15.1-15.1-15.1c-2,0-4.1,0.4-6,1.2c-2.9-13.9-16.6-22.9-30.5-19.9c-4.5,1-8.7,3.1-12.1,6.2
					c1.5-9.7-5.2-18.8-14.9-20.2c-9.1-1.4-17.8,4.5-20,13.5c-9.9-5.6-22.4-2.2-28,7.7c-1.7,2.9-2.6,6.2-2.7,9.5
					c-9.5-3.1-19.6,2.1-22.7,11.6c-0.2,0.5-0.3,1-0.4,1.4C19.1,40,4.9,47.9,1,61.6c-0.4,1.5-0.7,3-0.9,4.5C0,67,0,67.8,0,68.7
					c0,0.9,0,1.8,0.1,2.7C1.5,58.3,12.6,48.3,25.8,48.3L25.8,48.3z"/>
			</g>
			<g id="Path_523-2">
				<path class="st6" d="M205.2,71.4c-1.4-10-9.9-17.5-20-17.5h0c0-0.2,0-0.3,0-0.5c0-8.3-6.8-15.1-15.1-15.1c-2,0-4.1,0.4-6,1.2
					c-2.9-13.9-16.6-22.9-30.5-19.9c-4.5,1-8.7,3.1-12.1,6.2c1.5-9.7-5.2-18.8-14.9-20.2c-9.1-1.4-17.8,4.5-20,13.5
					c-9.9-5.6-22.4-2.2-28,7.7c-1.7,2.9-2.6,6.2-2.7,9.5c-9.5-3.1-19.6,2.1-22.7,11.6c-0.2,0.5-0.3,1-0.4,1.4
					C19.1,45.4,4.9,53.3,1,67c-0.4,1.4-0.7,2.9-0.8,4.4C1.5,84.4,203.9,81.3,205.2,71.4z"/>
			</g>
		</g>
		<g id="Path_524-2">
			<path class="st17" d="M94.3,50.8c10.8,1.2,18.9,10.3,18.9,21.1c0.2-0.8,0.3-1.6,0.4-2.3c1.3-11.7-7.1-22.2-18.7-23.5
				c-11.7-1.3-22.2,7.1-23.5,18.7c0,0.1,0,0.1,0,0.2c-0.1,0.8-0.1,1.6-0.1,2.4C73.6,56.7,83.5,49.6,94.3,50.8L94.3,50.8z"/>
		</g>
		<g id="Path_525-2">
			<path class="st17" d="M147.8,46.3c8.2-2.6,17.1,1.4,20.6,9.3c-1.8-9.2-10.7-15.2-19.9-13.4c-9.2,1.8-15.2,10.7-13.4,19.9
				c0.1,0.6,0.3,1.2,0.5,1.9c0.2,0.6,0.4,1.2,0.7,1.8C134.6,57.3,139.5,48.9,147.8,46.3L147.8,46.3z"/>
		</g>
		<g id="Path_526-2">
			<path class="st17" d="M42,52.2c4.3,0.4,7.6,3.9,7.7,8.2c0.1-0.3,0.1-0.6,0.1-0.9c0.4-4.6-3-8.8-7.6-9.2c-4.6-0.4-8.8,3-9.2,7.6
				c0,0,0,0.1,0,0.1c0,0.3,0,0.6,0,0.9C33.8,54.7,37.7,51.8,42,52.2L42,52.2z"/>
		</g>
	</g>
</g>
<g id="Laag_2-2-3" transform="translate(1531 965.389)">
	<g id="Group_87-3" transform="translate(0 0)">
		<g id="Group_86-3">
			<g id="Path_522-3">
				<path class="st17" d="M249.7,67.2c-3.3,0-6.6,0.5-9.8,1.4c-3.1-13.5-16.6-21.8-30.1-18.7c-0.7,0.2-1.3,0.3-2,0.6
					c-0.5-15.8-13.7-28.1-29.4-27.7c-4.7,0.1-9.2,1.4-13.3,3.7C162,13.3,148.7,5,135.4,8.2c-12.5,3-20.7,15-18.7,27.8
					C102.1,22.6,79.4,23.5,66,38.1c-4.4,4.7-7.4,10.6-8.7,16.9c-10.7-4.6-23,0.4-27.6,11c-1.1,2.6-1.7,5.4-1.7,8.3
					c0,0.2,0,0.5,0,0.7h0C14,75,2.1,85.4,0.3,99.2C0.1,98,0,96.8,0,95.5c0-1.2,0.1-2.4,0.2-3.6C2,77.9,14,67.5,28,67.5h0
					c0-0.2,0-0.5,0-0.7c0-11.6,9.4-21,21-21c2.8,0,5.7,0.6,8.3,1.7c4.1-19.4,23.1-31.8,42.4-27.7c6.3,1.3,12.1,4.3,16.9,8.7
					c-2-13.5,7.3-26.1,20.8-28.1c12.7-1.9,24.8,6.2,27.8,18.7c13.7-7.8,31.1-3.1,39,10.6c2.3,4,3.6,8.6,3.7,13.3
					c13.1-4.3,27.3,3,31.5,16.1c0.2,0.7,0.4,1.3,0.6,2c19-5.4,38.8,5.6,44.3,24.6c0.6,2,1,4.1,1.2,6.2c0.1,1.2,0.2,2.4,0.2,3.6
					c0,1.3-0.1,2.5-0.2,3.8C283.4,81,268.1,67.2,249.7,67.2L249.7,67.2z"/>
			</g>
			<g id="Path_523-3">
				<path class="st6" d="M0.3,99.3C2.2,85.4,14,75,28,75h0c0-0.2,0-0.5,0-0.7c0-11.6,9.4-21,21-21c2.8,0,5.7,0.6,8.3,1.7
					c4.1-19.4,23.1-31.8,42.4-27.7c6.3,1.3,12.1,4.3,16.9,8.7c-2-13.5,7.3-26.1,20.8-28.1c12.7-1.9,24.8,6.2,27.8,18.7
					c13.7-7.8,31.1-3.1,39,10.6c2.3,4,3.6,8.6,3.7,13.3c13.1-4.3,27.3,3,31.5,16.1c0.2,0.7,0.4,1.3,0.6,2c19-5.4,38.8,5.6,44.3,24.6
					c0.6,2,1,4,1.2,6.1C283.5,117.3,2.1,113,0.3,99.3z"/>
			</g>
		</g>
		<g id="Path_524-3">
			<path class="st17" d="M154.5,70.6c-15,1.6-26.3,14.3-26.3,29.3c-0.2-1.1-0.4-2.2-0.5-3.3c-1.8-16.2,9.9-30.8,26.2-32.6
				c16.2-1.8,30.8,9.9,32.6,26.2c0.1,1.1,0.2,2.2,0.2,3.3C183.3,78.8,169.5,69,154.5,70.6L154.5,70.6z"/>
		</g>
		<g id="Path_525-3">
			<path class="st17" d="M80.1,64.4c-11.5-3.6-23.8,2-28.7,13c2.5-12.8,14.9-21.1,27.7-18.6s21.1,14.9,18.6,27.7
				c-0.2,0.9-0.4,1.7-0.7,2.6c-0.3,0.8-0.6,1.7-0.9,2.5C98.5,79.6,91.6,68,80.1,64.4L80.1,64.4z"/>
		</g>
		<g id="Path_526-3">
			<path class="st17" d="M227.2,72.5c-5.9,0.5-10.6,5.4-10.7,11.4c-0.1-0.4-0.2-0.9-0.2-1.3c-0.6-6.5,4.2-12.1,10.7-12.7
				c6.5-0.6,12.1,4.2,12.7,10.7l0,0c0,0.4,0.1,0.9,0,1.3C238.5,76,233.1,72,227.2,72.5L227.2,72.5z"/>
		</g>
	</g>
</g>
<g id="Group_88" transform="translate(0 1)">
	<g id="Rectangle_137">
		<rect x="794" y="166" class="st15" width="333" height="50"/>
	</g>
	<g class="st18">
		<path class="st16" d="M908.8,182.9v3.2h-4.3v13h-3.9v-13h-4.3v-3.2H908.8z"/>
		<path class="st16" d="M923.4,187.5c0.9,1,1.3,2.3,1.3,4v7.5h-3.9v-7c0-0.9-0.2-1.5-0.7-2s-1-0.7-1.8-0.7s-1.3,0.2-1.8,0.7
			s-0.7,1.1-0.7,2v7H912v-17h3.9v5.9c0.4-0.6,0.9-1,1.6-1.4c0.7-0.3,1.5-0.5,2.3-0.5C921.3,186,922.5,186.5,923.4,187.5z"/>
		<path class="st16" d="M928.9,184.2c-0.4-0.4-0.7-0.9-0.7-1.5c0-0.6,0.2-1.1,0.7-1.5s1-0.6,1.7-0.6c0.7,0,1.2,0.2,1.7,0.6
			s0.7,0.9,0.7,1.5c0,0.6-0.2,1.1-0.7,1.5s-1,0.6-1.7,0.6C929.9,184.8,929.4,184.6,928.9,184.2z M932.6,186.2V199h-3.9v-12.8H932.6z
			"/>
		<path class="st16" d="M940.5,200.7c0,1.6-0.4,2.7-1.2,3.4c-0.8,0.7-1.9,1-3.3,1h-1.5v-3.3h0.9c0.4,0,0.7-0.1,0.9-0.3
			c0.2-0.2,0.3-0.4,0.3-0.8v-14.5h3.9V200.7z M936.8,184.2c-0.4-0.4-0.7-0.9-0.7-1.5c0-0.6,0.2-1.1,0.7-1.5s1-0.6,1.7-0.6
			c0.7,0,1.2,0.2,1.7,0.6s0.7,0.9,0.7,1.5c0,0.6-0.2,1.1-0.7,1.5s-1,0.6-1.7,0.6C937.8,184.8,937.3,184.6,936.8,184.2z"/>
		<path class="st16" d="M946.7,198.6c-0.9-0.4-1.6-0.9-2.1-1.6s-0.8-1.4-0.9-2.2h3.9c0,0.4,0.3,0.8,0.6,1.1c0.4,0.3,0.8,0.4,1.4,0.4
			c0.5,0,0.9-0.1,1.1-0.3c0.3-0.2,0.4-0.4,0.4-0.7c0-0.4-0.2-0.6-0.6-0.8c-0.4-0.2-1-0.4-1.9-0.6c-0.9-0.2-1.7-0.4-2.3-0.7
			c-0.6-0.2-1.1-0.6-1.6-1.1s-0.7-1.2-0.7-2.1c0-0.7,0.2-1.4,0.6-2c0.4-0.6,1-1.1,1.8-1.4c0.8-0.4,1.7-0.5,2.8-0.5
			c1.6,0,2.9,0.4,3.8,1.2c0.9,0.8,1.5,1.9,1.6,3.2h-3.6c-0.1-0.4-0.3-0.8-0.6-1.1c-0.3-0.3-0.8-0.4-1.3-0.4c-0.5,0-0.8,0.1-1.1,0.3
			c-0.2,0.2-0.4,0.4-0.4,0.7c0,0.4,0.2,0.6,0.6,0.8c0.4,0.2,1,0.4,1.8,0.6c1,0.2,1.7,0.5,2.3,0.7c0.6,0.2,1.1,0.6,1.6,1.2
			c0.5,0.5,0.7,1.2,0.7,2.1c0,0.8-0.2,1.4-0.6,2c-0.4,0.6-1,1.1-1.8,1.4c-0.8,0.3-1.7,0.5-2.7,0.5
			C948.6,199.2,947.6,199,946.7,198.6z"/>
		<path class="st16" d="M976.1,190.6c-0.4,0.8-1.1,1.4-2,1.9c-0.9,0.5-2,0.7-3.3,0.7h-2.4v5.8h-3.9v-16.1h6.4c1.3,0,2.4,0.2,3.3,0.7
			c0.9,0.4,1.6,1.1,2,1.8c0.4,0.8,0.7,1.7,0.7,2.7C976.8,189,976.6,189.8,976.1,190.6z M972.2,189.5c0.4-0.4,0.6-0.9,0.6-1.5
			c0-0.6-0.2-1.1-0.6-1.5c-0.4-0.4-0.9-0.5-1.7-0.5h-2.1v4h2.1C971.3,190.1,971.9,189.9,972.2,189.5z"/>
		<path class="st16" d="M983.9,182v17H980v-17H983.9z"/>
		<path class="st16" d="M1000,193.5H991c0.1,0.8,0.3,1.4,0.8,1.8s1,0.6,1.7,0.6c1,0,1.7-0.4,2-1.2h4.2c-0.2,0.8-0.6,1.6-1.2,2.3
			c-0.6,0.7-1.3,1.2-2.1,1.6c-0.8,0.4-1.8,0.6-2.8,0.6c-1.3,0-2.4-0.3-3.4-0.8c-1-0.5-1.7-1.3-2.3-2.3s-0.8-2.2-0.8-3.5
			s0.3-2.5,0.8-3.5c0.5-1,1.3-1.8,2.3-2.3c1-0.5,2.1-0.8,3.4-0.8c1.2,0,2.3,0.3,3.3,0.8c1,0.5,1.7,1.3,2.3,2.2s0.8,2.1,0.8,3.4
			C1000,192.7,1000,193.1,1000,193.5z M996,191.3c0-0.7-0.2-1.2-0.7-1.6c-0.5-0.4-1-0.6-1.7-0.6c-0.7,0-1.2,0.2-1.7,0.6
			c-0.5,0.4-0.7,0.9-0.8,1.6H996z"/>
		<path class="st16" d="M1003.5,184.2c-0.4-0.4-0.7-0.9-0.7-1.5c0-0.6,0.2-1.1,0.7-1.5c0.4-0.4,1-0.6,1.7-0.6c0.7,0,1.2,0.2,1.7,0.6
			c0.4,0.4,0.7,0.9,0.7,1.5c0,0.6-0.2,1.1-0.7,1.5c-0.4,0.4-1,0.6-1.7,0.6C1004.5,184.8,1004,184.6,1003.5,184.2z M1007.2,186.2V199
			h-3.9v-12.8H1007.2z"/>
		<path class="st16" d="M1022.6,187.5c0.9,1,1.3,2.3,1.3,4v7.5h-3.9v-7c0-0.9-0.2-1.5-0.7-2c-0.4-0.5-1-0.7-1.8-0.7
			c-0.8,0-1.3,0.2-1.8,0.7c-0.4,0.5-0.7,1.1-0.7,2v7h-3.9v-12.8h3.9v1.7c0.4-0.6,0.9-1,1.6-1.3c0.7-0.3,1.4-0.5,2.3-0.5
			C1020.5,186,1021.7,186.5,1022.6,187.5z"/>
	</g>
</g>
</svg>
