<svg xmlns="http://www.w3.org/2000/svg" xmlns:xlink="http://www.w3.org/1999/xlink" width="1022" height="772.061" viewBox="0 0 1022 772.061">
  <defs>
    <filter id="Path_516" x="484" y="554.681" width="55" height="31.319" filterUnits="userSpaceOnUse">
      <feOffset dy="1" input="SourceAlpha"/>
      <feGaussianBlur stdDeviation="3" result="blur"/>
      <feFlood flood-opacity="0.161"/>
      <feComposite operator="in" in2="blur"/>
      <feComposite in="SourceGraphic"/>
    </filter>
  </defs>
  <g id="Billboard-geel" transform="translate(-449 -145)">
    <path id="Path_517" data-name="Path 517" d="M21.624,0H968.165a21.814,21.814,0,0,1,21.624,22V34a21.814,21.814,0,0,1-21.624,22H21.624A21.814,21.814,0,0,1,0,34V22.037A21.846,21.846,0,0,1,21.624,0Z" transform="translate(465.105 145)" fill="#f7efce"/>
    <path id="Path_518" data-name="Path 518" d="M22.259-15.189l4.882,2.6L8,8,3.989,1.7Z" transform="translate(451 165)" fill="#f7efce"/>
    <path id="Path_520" data-name="Path 520" d="M9.432-12.594H3.158L22.3,8,27.71,4.254Z" transform="translate(1437.842 163)" fill="#f7efce"/>
    <g id="Group_61" data-name="Group 61">
      <path id="Path_513" data-name="Path 513" d="M7.474,145.805,33.1,128.52l-18.808,54.8L-17.08,204.478Z" transform="translate(1070.135 729.032) rotate(34)" fill="#a7a7a7"/>
      <path id="Path_514" data-name="Path 514" d="M0,0H37V168s-3.791,8.007-19.073,8.125S0,168,0,168Z" transform="translate(942 721)" fill="#fbf4de"/>
      <g transform="matrix(1, 0, 0, 1, 449, 145)" filter="url(#Path_516)">
        <path id="Path_516-2" data-name="Path 516" d="M0,0H37V12a139.217,139.217,0,0,1-18.6,1.317A111.714,111.714,0,0,1,0,12Z" transform="translate(493 562.68)" fill="#fff"/>
      </g>
      <g id="Path_515" data-name="Path 515" transform="translate(449 161)" fill="#fff">
        <path d="M 1002 554 L 20 554 C 12.28040027618408 554 6 547.7196044921875 6 540 L 6 20 C 6 12.28040027618408 12.28040027618408 6 20 6 L 1002 6 C 1009.719604492188 6 1016 12.28040027618408 1016 20 L 1016 540 C 1016 547.7196044921875 1009.719604492188 554 1002 554 Z" stroke="none"/>
        <path d="M 20 12 C 15.58868408203125 12 12 15.58868408203125 12 20 L 12 540 C 12 544.4112548828125 15.58868408203125 548 20 548 L 1002 548 C 1006.411254882812 548 1010 544.4112548828125 1010 540 L 1010 20 C 1010 15.58868408203125 1006.411254882812 12 1002 12 L 20 12 M 20 0 L 1002 0 C 1013.045715332031 0 1022 8.95428466796875 1022 20 L 1022 540 C 1022 551.0457153320312 1013.045715332031 560 1002 560 L 20 560 C 8.95428466796875 560 0 551.0457153320312 0 540 L 0 20 C 0 8.95428466796875 8.95428466796875 0 20 0 Z" stroke="none" fill="#fbf4de"/>
      </g>
    </g>
  </g>
</svg>
