<svg xmlns="http://www.w3.org/2000/svg" viewBox="0 0 183.83 183.83"><defs><style>.cls-1{fill:#f1fbfd;}.cls-2{fill:#fccca7;}.cls-3{fill:#efad7d;}.cls-4{fill:#f7e3a1;}.cls-5{fill:#fbc69a;}.cls-6{fill:#683c11;}.cls-7{fill:#3b2314;}.cls-8{fill:#432918;}.cls-9{fill:#fff;}.cls-10{fill:#eda47e;}.cls-11{fill:#e5bf61;}.cls-12{fill:#472e18;}.cls-13{fill:#774828;}</style></defs><g id="Layer_2" data-name="Layer 2"><g id="Capa_1" data-name="Capa 1"><path class="cls-1" d="M91.92,0a91.92,91.92,0,1,0,91.91,91.92A91.91,91.91,0,0,0,91.92,0Z"/><path class="cls-2" d="M149.46,159.46c-8.13-5.09-36.75-4.16-39.36-12.49a32.79,32.79,0,0,1-1.15-8.82,96.06,96.06,0,0,1,1.15-15.24L92,117.42,73.8,122.91A96,96,0,0,1,75,138.43,32,32,0,0,1,73.8,147c-2.61,8.33-31.23,7.4-39.36,12.49A11.65,11.65,0,0,0,32,161.62a91.93,91.93,0,0,0,119.87,0A11.63,11.63,0,0,0,149.46,159.46Z"/><path class="cls-3" d="M92,117.65l-18.47,5.41A104.88,104.88,0,0,1,75,140c3.26,3.72,16.62,4.19,16.77,4.18s13.77-.69,17.23-4.46a108.12,108.12,0,0,1,1.4-16.66Z"/><path class="cls-4" d="M92.06,183.83Z"/><path class="cls-4" d="M73.76,146.53C71.12,155,42.16,154,33.93,159.17a12,12,0,0,0-2.37,2.07,91.58,91.58,0,0,0,60.36,22.59h.14l-6.94-25.28C76.15,158.56,74.14,145.31,73.76,146.53Z"/><path class="cls-4" d="M150.33,159.17c-8.23-5.15-36.87-3.61-39.52-12-.4-1.26-2.8,11.41-11.81,11.42l-6.94,25.28A91.49,91.49,0,0,0,152.5,161,11.33,11.33,0,0,0,150.33,159.17Z"/><path class="cls-2" d="M47.82,75.49c-5,1.46-3.87,9-3.87,11.84s4.2,12.77,7,13.87c7.15,2.77,7.16-7.66,7.16-7.66V81.42S52.86,74,47.82,75.49Z"/><path class="cls-5" d="M136,75.49c-5-1.46-10.32,5.91-10.32,5.91V93.54s0,10.75,7.15,7.66c2.77-1.2,7-11.06,7-13.87S141,77,136,75.49Z"/><path class="cls-2" d="M116,36.58c-13-10.82-35.48-10.82-48.47,0C54,47.85,53.58,60.25,53.58,78.28s1.22,23.13,1.22,23.13,2.45,13.29,5.25,16.79,5.61,5.24,13.66,12.24c7.65,6.66,11.64,7.3,17.6,7.34h1c6,0,9.95-.68,17.6-7.34,8-7,10.86-8.74,13.66-12.24s5.25-16.79,5.25-16.79l0,0c0-.15,0-.24,0-.24s1.11-4.83,1.11-22.86S129.49,47.85,116,36.58Z"/><path class="cls-5" d="M116,36.58c-6.5-5.41-15.37-8.12-24.25-8.11V137.78h.54c6,0,9.95-.68,17.6-7.34,8-7,10.86-8.74,13.66-12.24s5.25-16.79,5.25-16.79l0,0c0-.15,0-.24,0-.24s1.11-4.83,1.11-22.86S129.49,47.85,116,36.58Z"/><path class="cls-6" d="M74.71,80.71a4.6,4.6,0,1,0,4.6,4.6A4.61,4.61,0,0,0,74.71,80.71Z"/><path class="cls-7" d="M109.72,70.58c-5.14,0-8.55,4.33-9.92,6.15s5.66-1.3,10.33-1.65c5.26-.39,13.14,3.08,13.14,3.08S117,70.66,109.72,70.58Z"/><path class="cls-8" d="M108.71,80.71a4.6,4.6,0,1,0,4.61,4.6A4.6,4.6,0,0,0,108.71,80.71Z"/><path class="cls-7" d="M73.73,70.54c-7.27.08-13.55,7.58-13.55,7.58S68.06,74.65,73.32,75C78,75.39,85,78.5,83.65,76.68S78.87,70.49,73.73,70.54Z"/><path class="cls-8" d="M74.73,80.67a4.6,4.6,0,1,0,4.61,4.6A4.61,4.61,0,0,0,74.73,80.67Z"/><polygon class="cls-9" points="92.04 111.13 84.85 111.04 79.65 110.9 79.67 111.41 85.82 116.37 98.61 117.42 104.62 111.41 100.11 110.92 92.04 111.13"/><path class="cls-9" d="M91.88,111.43,83,111l-.75.24s-.38,2.89,10,2.83c10.55-.07,9.36-2.75,9.36-2.75Z"/><path class="cls-10" d="M92.55,110.46c-.88.09-1.64-.77-3.85-.69-2.79.09-10,.8-10,.8s1.86,1.74,13.55,1.81c12.64.08,13.25-1.5,13.25-1.5a68.62,68.62,0,0,0-8.81-1.12A23.21,23.21,0,0,0,92.55,110.46Z"/><path class="cls-10" d="M92.19,116.44c-7.2.06-12-5.36-12-5.36l-1.46-.51s4.23,8.76,13.5,8.68c10.51-.09,13.3-8.37,13.3-8.37l-1.39.46S100.38,116.38,92.19,116.44Z"/><path class="cls-4" d="M105.69,150.9,91.8,153.16,79,149.91,54.49,160.18l-.43,15.52a92.22,92.22,0,0,0,75.63,0l-.31-15.53Z"/><path class="cls-4" d="M96.52,183.83v-.11c-1.52.07-3.05.11-4.59.11Z"/><path class="cls-4" d="M87.6,183.83h4.32c-1.45,0-2.88,0-4.31-.1Z"/><polygon class="cls-11" points="67.51 150.09 79.86 164.71 92.19 152.56 72.74 139.87 67.51 150.09"/><polygon class="cls-11" points="91.5 152.55 103.82 164.72 115.31 149.6 110.96 139.88 91.5 152.55"/><path class="cls-12" d="M129.89,57.32v0c-.09-1-.19-2-.3-2.86-.27-3.6-.2-8.28-4-13.58,0,0-5.43-15-24-17C73.61,20.81,68.2,35,68.2,35S53.58,44.38,53.54,57.5c-.22,2.43-.39,5.13-.47,8.13,0,.13,0,.22,0,.3a182.35,182.35,0,0,0,.68,20.28c.09,1.06,2.4,4.09,3.07-1.71.64-5.46,1.43-14.84,3.31-23C60.8,58.66,68.24,44,79.85,46.34c7.36,1.51,14.67,4.86,22.56,5.11,11.73.37,6.52-4.32,12.9-3.78,5.09.43,3.94,2.69,6,7,3.37,9.17,4.46,22.79,5.29,29.87.67,5.8,3,2.77,3.07,1.71a164.18,164.18,0,0,0,.21-28.58A1,1,0,0,0,129.89,57.32Z"/><path class="cls-13" d="M54.15,89.91s1.8,17.51,4,25.87c1.46,5.55,9.57,16.16,20.56,22.88a24.42,24.42,0,0,0,13,3.47,24.46,24.46,0,0,0,13-3.47c11-6.72,18.83-15.86,20.86-21.24,3.45-9.15,3.15-27.55,3.15-27.55h0c0,6.25-5.14,20.82-7.87,22.51-7.11,4.41-11-3.91-11-3.91s-1.23-3.25-8.21-5.8a11.5,11.5,0,0,0-9.91.79l0,0,0,0a11.49,11.49,0,0,0-9.91-.79c-7,2.55-8.32,5.8-8.32,5.8s-3.76,7-10.88,2.6c-2.72-1.69-8.45-14.91-8.45-21.16m50.63,30.81c-4.52,3.9-7.3,5.47-10.07,3.3a12.12,12.12,0,0,1-2.95-3.32l0,0,0,0A12.12,12.12,0,0,1,88.76,124c-2.77,2.17-5.55.6-10.06-3.3s-3-11.1,2.22-11.45c11.83-.81,10.79-2.72,10.79-2.72l0,0s0,0,0,0-1,1.91,10.79,2.72C107.75,109.62,109.29,116.83,104.78,120.72Z"/></g></g></svg>